<svg width="360" height="413" viewBox="0 0 360 413" fill="none" xmlns="http://www.w3.org/2000/svg">
<g clip-path="url(#clip0_4410_753)">
<rect x="0.0410156" y="25" width="12" height="4" rx="2" fill="#28EBCF"/>
<path d="M21.433 32V20.72H22.745V32H21.433ZM29.2548 24.016C31.1214 24.016 32.0548 25.0453 32.0548 27.104V32H30.7588V27.184C30.7588 26.4587 30.6148 25.9307 30.3268 25.6C30.0494 25.2693 29.6014 25.104 28.9828 25.104C28.2681 25.104 27.6974 25.3227 27.2708 25.76C26.8441 26.1973 26.6308 26.7893 26.6308 27.536V32H25.3348V24.208H26.6148V25.488C26.8708 25.008 27.2281 24.6453 27.6868 24.4C28.1454 24.144 28.6681 24.016 29.2548 24.016ZM37.8525 31.072C38.0872 31.072 38.3218 31.056 38.5565 31.024L38.4925 32.048C38.2472 32.0907 37.9805 32.112 37.6925 32.112C36.7538 32.112 36.0445 31.8667 35.5645 31.376C35.0952 30.8853 34.8605 30.2027 34.8605 29.328V25.232H33.3405V24.208H34.8605V21.84H36.1565V24.208H38.3645V25.232H36.1565V29.232C36.1565 30.4587 36.7218 31.072 37.8525 31.072ZM46.394 28.304H40.698C40.7407 29.2107 40.986 29.8987 41.434 30.368C41.882 30.8267 42.5167 31.056 43.338 31.056C44.2447 31.056 45.0767 30.7467 45.834 30.128L46.266 31.072C45.9247 31.392 45.4873 31.648 44.954 31.84C44.4207 32.0213 43.8767 32.112 43.322 32.112C42.106 32.112 41.146 31.7547 40.442 31.04C39.7487 30.3253 39.402 29.3387 39.402 28.08C39.402 27.28 39.5567 26.576 39.866 25.968C40.1753 25.3493 40.6073 24.8693 41.162 24.528C41.7273 24.1867 42.3673 24.016 43.082 24.016C44.1167 24.016 44.9273 24.3573 45.514 25.04C46.1007 25.712 46.394 26.64 46.394 27.824V28.304ZM43.098 25.024C42.4153 25.024 41.866 25.2373 41.45 25.664C41.0447 26.0907 40.8047 26.6933 40.73 27.472H45.258C45.2367 26.6827 45.0393 26.08 44.666 25.664C44.2927 25.2373 43.77 25.024 43.098 25.024ZM52.7195 25.136L51.8715 25.216C51.0715 25.2907 50.4902 25.5413 50.1275 25.968C49.7755 26.3947 49.5995 26.9227 49.5995 27.552V32H48.3035V24.208H49.5675V25.568C50.0048 24.6613 50.8635 24.1547 52.1435 24.048L52.6075 24.016L52.7195 25.136ZM60.3159 28.304H54.6199C54.6626 29.2107 54.9079 29.8987 55.3559 30.368C55.8039 30.8267 56.4386 31.056 57.2599 31.056C58.1666 31.056 58.9986 30.7467 59.7559 30.128L60.1879 31.072C59.8466 31.392 59.4092 31.648 58.8759 31.84C58.3426 32.0213 57.7986 32.112 57.2439 32.112C56.0279 32.112 55.0679 31.7547 54.3639 31.04C53.6706 30.3253 53.3239 29.3387 53.3239 28.08C53.3239 27.28 53.4786 26.576 53.7879 25.968C54.0972 25.3493 54.5292 24.8693 55.0839 24.528C55.6492 24.1867 56.2892 24.016 57.0039 24.016C58.0386 24.016 58.8492 24.3573 59.4359 25.04C60.0226 25.712 60.3159 26.64 60.3159 27.824V28.304ZM57.0199 25.024C56.3372 25.024 55.7879 25.2373 55.3719 25.664C54.9666 26.0907 54.7266 26.6933 54.6519 27.472H59.1799C59.1586 26.6827 58.9612 26.08 58.5879 25.664C58.2146 25.2373 57.6919 25.024 57.0199 25.024ZM64.8654 32.112C63.5534 32.112 62.5134 31.776 61.7454 31.104L62.1774 30.144C62.5934 30.4747 63.0147 30.7147 63.4414 30.864C63.8787 31.0027 64.3694 31.072 64.9134 31.072C65.4894 31.072 65.9267 30.976 66.2254 30.784C66.5347 30.5813 66.6894 30.2933 66.6894 29.92C66.6894 29.6107 66.5881 29.3653 66.3854 29.184C66.1827 29.0027 65.8467 28.8587 65.3774 28.752L64.0654 28.448C63.4041 28.2987 62.8974 28.0427 62.5454 27.68C62.1934 27.3173 62.0174 26.8693 62.0174 26.336C62.0174 25.6427 62.2894 25.0827 62.8334 24.656C63.3774 24.2293 64.1027 24.016 65.0094 24.016C65.5534 24.016 66.0707 24.1067 66.5614 24.288C67.0521 24.4587 67.4627 24.7093 67.7934 25.04L67.3614 25.984C66.6467 25.376 65.8627 25.072 65.0094 25.072C64.4654 25.072 64.0387 25.1787 63.7294 25.392C63.4307 25.5947 63.2814 25.8827 63.2814 26.256C63.2814 26.5653 63.3721 26.816 63.5534 27.008C63.7454 27.1893 64.0494 27.328 64.4654 27.424L65.7934 27.744C66.5187 27.9147 67.0574 28.176 67.4094 28.528C67.7614 28.8693 67.9374 29.3173 67.9374 29.872C67.9374 30.5547 67.6601 31.0987 67.1054 31.504C66.5614 31.9093 65.8147 32.112 64.8654 32.112ZM73.2588 31.072C73.4934 31.072 73.7281 31.056 73.9628 31.024L73.8988 32.048C73.6534 32.0907 73.3868 32.112 73.0988 32.112C72.1601 32.112 71.4508 31.8667 70.9708 31.376C70.5014 30.8853 70.2668 30.2027 70.2668 29.328V25.232H68.7468V24.208H70.2668V21.84H71.5628V24.208H73.7708V25.232H71.5628V29.232C71.5628 30.4587 72.1281 31.072 73.2588 31.072ZM75.4643 32V20.72H76.7763V32H75.4643ZM83.286 24.016C85.1527 24.016 86.086 25.0453 86.086 27.104V32H84.79V27.184C84.79 26.4587 84.646 25.9307 84.358 25.6C84.0807 25.2693 83.6327 25.104 83.014 25.104C82.2993 25.104 81.7287 25.3227 81.302 25.76C80.8753 26.1973 80.662 26.7893 80.662 27.536V32H79.366V24.208H80.646V25.488C80.902 25.008 81.2593 24.6453 81.718 24.4C82.1767 24.144 82.6993 24.016 83.286 24.016ZM94.0438 24.224H95.3398L91.9798 32H90.7638L87.4198 24.224H88.7958L91.4038 30.592L94.0438 24.224ZM103.113 28.304H97.4168C97.4594 29.2107 97.7048 29.8987 98.1528 30.368C98.6008 30.8267 99.2354 31.056 100.057 31.056C100.963 31.056 101.795 30.7467 102.553 30.128L102.985 31.072C102.643 31.392 102.206 31.648 101.673 31.84C101.139 32.0213 100.595 32.112 100.041 32.112C98.8248 32.112 97.8648 31.7547 97.1608 31.04C96.4674 30.3253 96.1208 29.3387 96.1208 28.08C96.1208 27.28 96.2754 26.576 96.5848 25.968C96.8941 25.3493 97.3261 24.8693 97.8808 24.528C98.4461 24.1867 99.0861 24.016 99.8008 24.016C100.835 24.016 101.646 24.3573 102.233 25.04C102.819 25.712 103.113 26.64 103.113 27.824V28.304ZM99.8168 25.024C99.1341 25.024 98.5848 25.2373 98.1688 25.664C97.7634 26.0907 97.5234 26.6933 97.4488 27.472H101.977C101.955 26.6827 101.758 26.08 101.385 25.664C101.011 25.2373 100.489 25.024 99.8168 25.024ZM107.662 32.112C106.35 32.112 105.31 31.776 104.542 31.104L104.974 30.144C105.39 30.4747 105.812 30.7147 106.238 30.864C106.676 31.0027 107.166 31.072 107.71 31.072C108.286 31.072 108.724 30.976 109.022 30.784C109.332 30.5813 109.486 30.2933 109.486 29.92C109.486 29.6107 109.385 29.3653 109.182 29.184C108.98 29.0027 108.644 28.8587 108.174 28.752L106.862 28.448C106.201 28.2987 105.694 28.0427 105.342 27.68C104.99 27.3173 104.814 26.8693 104.814 26.336C104.814 25.6427 105.086 25.0827 105.63 24.656C106.174 24.2293 106.9 24.016 107.806 24.016C108.35 24.016 108.868 24.1067 109.358 24.288C109.849 24.4587 110.26 24.7093 110.59 25.04L110.158 25.984C109.444 25.376 108.66 25.072 107.806 25.072C107.262 25.072 106.836 25.1787 106.526 25.392C106.228 25.5947 106.078 25.8827 106.078 26.256C106.078 26.5653 106.169 26.816 106.35 27.008C106.542 27.1893 106.846 27.328 107.262 27.424L108.59 27.744C109.316 27.9147 109.854 28.176 110.206 28.528C110.558 28.8693 110.734 29.3173 110.734 29.872C110.734 30.5547 110.457 31.0987 109.902 31.504C109.358 31.9093 108.612 32.112 107.662 32.112ZM116.056 31.072C116.29 31.072 116.525 31.056 116.76 31.024L116.696 32.048C116.45 32.0907 116.184 32.112 115.896 32.112C114.957 32.112 114.248 31.8667 113.768 31.376C113.298 30.8853 113.064 30.2027 113.064 29.328V25.232H111.544V24.208H113.064V21.84H114.36V24.208H116.568V25.232H114.36V29.232C114.36 30.4587 114.925 31.072 116.056 31.072Z" fill="white"/>
<g clip-path="url(#clip1_4410_753)">
<path d="M30.2235 78.298C30.8208 78.298 31.3528 78.4287 31.8195 78.69C32.2862 78.9513 32.6502 79.32 32.9115 79.796C33.1728 80.272 33.3035 80.818 33.3035 81.434C33.3035 82.0407 33.1682 82.5867 32.8975 83.072C32.6268 83.5573 32.2488 83.9353 31.7635 84.206C31.2782 84.4767 30.7322 84.612 30.1255 84.612C28.9308 84.612 28.0068 84.1967 27.3535 83.366C26.7095 82.5353 26.3875 81.35 26.3875 79.81C26.3875 78.6993 26.5368 77.7473 26.8355 76.954C27.1435 76.1607 27.5822 75.5587 28.1515 75.148C28.7208 74.728 29.4022 74.518 30.1955 74.518C30.7648 74.518 31.3202 74.6253 31.8615 74.84C32.4028 75.0453 32.8788 75.344 33.2895 75.736L32.8555 76.618C32.3888 76.226 31.9408 75.9413 31.5115 75.764C31.0915 75.5773 30.6622 75.484 30.2235 75.484C29.3742 75.484 28.7115 75.862 28.2355 76.618C27.7688 77.3647 27.5355 78.424 27.5355 79.796V80.006C27.7502 79.4833 28.0955 79.068 28.5715 78.76C29.0475 78.452 29.5982 78.298 30.2235 78.298ZM30.0695 83.646C30.7042 83.646 31.2128 83.4453 31.5955 83.044C31.9782 82.6427 32.1695 82.1107 32.1695 81.448C32.1695 80.7947 31.9735 80.2673 31.5815 79.866C31.1988 79.4647 30.6902 79.264 30.0555 79.264C29.4115 79.264 28.8842 79.4693 28.4735 79.88C28.0722 80.2813 27.8715 80.804 27.8715 81.448C27.8715 82.1013 28.0722 82.6333 28.4735 83.044C28.8842 83.4453 29.4162 83.646 30.0695 83.646ZM37.9884 84.85L37.1624 84.374L43.0004 74.28L43.8264 74.756L37.9884 84.85ZM37.1344 80.552C36.3877 80.552 35.8044 80.3 35.3844 79.796C34.9644 79.2827 34.7544 78.5267 34.7544 77.528C34.7544 76.5387 34.9644 75.792 35.3844 75.288C35.8044 74.7747 36.3877 74.518 37.1344 74.518C37.881 74.518 38.4644 74.7747 38.8844 75.288C39.3044 75.792 39.5144 76.5387 39.5144 77.528C39.5144 78.5267 39.3044 79.2827 38.8844 79.796C38.4644 80.3 37.881 80.552 37.1344 80.552ZM37.1344 79.74C37.5917 79.74 37.9277 79.5627 38.1424 79.208C38.3664 78.8533 38.4784 78.2933 38.4784 77.528C38.4784 76.772 38.3664 76.2167 38.1424 75.862C37.9277 75.5073 37.5917 75.33 37.1344 75.33C36.677 75.33 36.3364 75.5073 36.1124 75.862C35.8884 76.2167 35.7764 76.772 35.7764 77.528C35.7764 78.2933 35.8884 78.8533 36.1124 79.208C36.3364 79.5627 36.677 79.74 37.1344 79.74ZM43.8544 84.598C43.1077 84.598 42.5244 84.346 42.1044 83.842C41.6844 83.3287 41.4744 82.5727 41.4744 81.574C41.4744 80.5847 41.6844 79.838 42.1044 79.334C42.5244 78.8207 43.1077 78.564 43.8544 78.564C44.6104 78.564 45.1937 78.816 45.6044 79.32C46.0244 79.824 46.2344 80.5753 46.2344 81.574C46.2344 82.5727 46.0244 83.3287 45.6044 83.842C45.1937 84.346 44.6104 84.598 43.8544 84.598ZM43.8544 83.786C44.321 83.786 44.6617 83.6133 44.8764 83.268C45.1004 82.9133 45.2124 82.3487 45.2124 81.574C45.2124 80.818 45.1004 80.2627 44.8764 79.908C44.6524 79.5533 44.3117 79.376 43.8544 79.376C43.397 79.376 43.0564 79.5533 42.8324 79.908C42.6177 80.2627 42.5104 80.818 42.5104 81.574C42.5104 82.3393 42.6177 82.8993 42.8324 83.254C43.0564 83.6087 43.397 83.786 43.8544 83.786Z" fill="white"/>
<path d="M57 80H351" stroke="#3C3F41"/>
<path d="M33.4858 156.406V157.358H32.0018V159.5H30.8678V157.358H26.3038V156.49L31.0638 149.63H32.0018V156.406H33.4858ZM27.4938 156.406H30.8678V151.548L27.4938 156.406ZM37.9884 159.85L37.1624 159.374L43.0004 149.28L43.8264 149.756L37.9884 159.85ZM37.1344 155.552C36.3877 155.552 35.8044 155.3 35.3844 154.796C34.9644 154.283 34.7544 153.527 34.7544 152.528C34.7544 151.539 34.9644 150.792 35.3844 150.288C35.8044 149.775 36.3877 149.518 37.1344 149.518C37.881 149.518 38.4644 149.775 38.8844 150.288C39.3044 150.792 39.5144 151.539 39.5144 152.528C39.5144 153.527 39.3044 154.283 38.8844 154.796C38.4644 155.3 37.881 155.552 37.1344 155.552ZM37.1344 154.74C37.5917 154.74 37.9277 154.563 38.1424 154.208C38.3664 153.853 38.4784 153.293 38.4784 152.528C38.4784 151.772 38.3664 151.217 38.1424 150.862C37.9277 150.507 37.5917 150.33 37.1344 150.33C36.677 150.33 36.3364 150.507 36.1124 150.862C35.8884 151.217 35.7764 151.772 35.7764 152.528C35.7764 153.293 35.8884 153.853 36.1124 154.208C36.3364 154.563 36.677 154.74 37.1344 154.74ZM43.8544 159.598C43.1077 159.598 42.5244 159.346 42.1044 158.842C41.6844 158.329 41.4744 157.573 41.4744 156.574C41.4744 155.585 41.6844 154.838 42.1044 154.334C42.5244 153.821 43.1077 153.564 43.8544 153.564C44.6104 153.564 45.1937 153.816 45.6044 154.32C46.0244 154.824 46.2344 155.575 46.2344 156.574C46.2344 157.573 46.0244 158.329 45.6044 158.842C45.1937 159.346 44.6104 159.598 43.8544 159.598ZM43.8544 158.786C44.321 158.786 44.6617 158.613 44.8764 158.268C45.1004 157.913 45.2124 157.349 45.2124 156.574C45.2124 155.818 45.1004 155.263 44.8764 154.908C44.6524 154.553 44.3117 154.376 43.8544 154.376C43.397 154.376 43.0564 154.553 42.8324 154.908C42.6177 155.263 42.5104 155.818 42.5104 156.574C42.5104 157.339 42.6177 157.899 42.8324 158.254C43.0564 158.609 43.397 158.786 43.8544 158.786Z" fill="white"/>
<path d="M57 155H351" stroke="#3C3F41"/>
<path d="M33.1358 233.534V234.5H26.7798V233.632L30.2378 229.824C30.7045 229.301 31.0405 228.835 31.2458 228.424C31.4605 228.004 31.5678 227.584 31.5678 227.164C31.5678 226.623 31.4092 226.207 31.0918 225.918C30.7745 225.629 30.3265 225.484 29.7478 225.484C28.7958 225.484 27.8625 225.862 26.9478 226.618L26.5138 225.736C26.9058 225.363 27.3958 225.069 27.9838 224.854C28.5812 224.63 29.1785 224.518 29.7758 224.518C30.6812 224.518 31.3952 224.751 31.9178 225.218C32.4498 225.685 32.7158 226.315 32.7158 227.108C32.7158 227.677 32.5852 228.223 32.3238 228.746C32.0718 229.269 31.6518 229.852 31.0638 230.496L28.2638 233.534H33.1358ZM37.9884 234.85L37.1624 234.374L43.0004 224.28L43.8264 224.756L37.9884 234.85ZM37.1344 230.552C36.3877 230.552 35.8044 230.3 35.3844 229.796C34.9644 229.283 34.7544 228.527 34.7544 227.528C34.7544 226.539 34.9644 225.792 35.3844 225.288C35.8044 224.775 36.3877 224.518 37.1344 224.518C37.881 224.518 38.4644 224.775 38.8844 225.288C39.3044 225.792 39.5144 226.539 39.5144 227.528C39.5144 228.527 39.3044 229.283 38.8844 229.796C38.4644 230.3 37.881 230.552 37.1344 230.552ZM37.1344 229.74C37.5917 229.74 37.9277 229.563 38.1424 229.208C38.3664 228.853 38.4784 228.293 38.4784 227.528C38.4784 226.772 38.3664 226.217 38.1424 225.862C37.9277 225.507 37.5917 225.33 37.1344 225.33C36.677 225.33 36.3364 225.507 36.1124 225.862C35.8884 226.217 35.7764 226.772 35.7764 227.528C35.7764 228.293 35.8884 228.853 36.1124 229.208C36.3364 229.563 36.677 229.74 37.1344 229.74ZM43.8544 234.598C43.1077 234.598 42.5244 234.346 42.1044 233.842C41.6844 233.329 41.4744 232.573 41.4744 231.574C41.4744 230.585 41.6844 229.838 42.1044 229.334C42.5244 228.821 43.1077 228.564 43.8544 228.564C44.6104 228.564 45.1937 228.816 45.6044 229.32C46.0244 229.824 46.2344 230.575 46.2344 231.574C46.2344 232.573 46.0244 233.329 45.6044 233.842C45.1937 234.346 44.6104 234.598 43.8544 234.598ZM43.8544 233.786C44.321 233.786 44.6617 233.613 44.8764 233.268C45.1004 232.913 45.2124 232.349 45.2124 231.574C45.2124 230.818 45.1004 230.263 44.8764 229.908C44.6524 229.553 44.3117 229.376 43.8544 229.376C43.397 229.376 43.0564 229.553 42.8324 229.908C42.6177 230.263 42.5104 230.818 42.5104 231.574C42.5104 232.339 42.6177 232.899 42.8324 233.254C43.0564 233.609 43.397 233.786 43.8544 233.786Z" fill="white"/>
<path d="M57 230H351" stroke="#3C3F41"/>
<path d="M29.7898 309.612C28.6605 309.612 27.8018 309.183 27.2138 308.324C26.6258 307.465 26.3318 306.215 26.3318 304.572C26.3318 302.92 26.6258 301.665 27.2138 300.806C27.8018 299.947 28.6605 299.518 29.7898 299.518C30.9192 299.518 31.7778 299.947 32.3658 300.806C32.9538 301.655 33.2478 302.906 33.2478 304.558C33.2478 306.21 32.9538 307.465 32.3658 308.324C31.7778 309.183 30.9192 309.612 29.7898 309.612ZM29.7898 308.646C30.5738 308.646 31.1525 308.315 31.5258 307.652C31.8992 306.989 32.0858 305.958 32.0858 304.558C32.0858 303.149 31.8992 302.122 31.5258 301.478C31.1618 300.825 30.5832 300.498 29.7898 300.498C29.0058 300.498 28.4272 300.825 28.0538 301.478C27.6805 302.131 27.4938 303.158 27.4938 304.558C27.4938 305.958 27.6805 306.989 28.0538 307.652C28.4272 308.315 29.0058 308.646 29.7898 308.646ZM37.9884 309.85L37.1624 309.374L43.0004 299.28L43.8264 299.756L37.9884 309.85ZM37.1344 305.552C36.3877 305.552 35.8044 305.3 35.3844 304.796C34.9644 304.283 34.7544 303.527 34.7544 302.528C34.7544 301.539 34.9644 300.792 35.3844 300.288C35.8044 299.775 36.3877 299.518 37.1344 299.518C37.881 299.518 38.4644 299.775 38.8844 300.288C39.3044 300.792 39.5144 301.539 39.5144 302.528C39.5144 303.527 39.3044 304.283 38.8844 304.796C38.4644 305.3 37.881 305.552 37.1344 305.552ZM37.1344 304.74C37.5917 304.74 37.9277 304.563 38.1424 304.208C38.3664 303.853 38.4784 303.293 38.4784 302.528C38.4784 301.772 38.3664 301.217 38.1424 300.862C37.9277 300.507 37.5917 300.33 37.1344 300.33C36.677 300.33 36.3364 300.507 36.1124 300.862C35.8884 301.217 35.7764 301.772 35.7764 302.528C35.7764 303.293 35.8884 303.853 36.1124 304.208C36.3364 304.563 36.677 304.74 37.1344 304.74ZM43.8544 309.598C43.1077 309.598 42.5244 309.346 42.1044 308.842C41.6844 308.329 41.4744 307.573 41.4744 306.574C41.4744 305.585 41.6844 304.838 42.1044 304.334C42.5244 303.821 43.1077 303.564 43.8544 303.564C44.6104 303.564 45.1937 303.816 45.6044 304.32C46.0244 304.824 46.2344 305.575 46.2344 306.574C46.2344 307.573 46.0244 308.329 45.6044 308.842C45.1937 309.346 44.6104 309.598 43.8544 309.598ZM43.8544 308.786C44.321 308.786 44.6617 308.613 44.8764 308.268C45.1004 307.913 45.2124 307.349 45.2124 306.574C45.2124 305.818 45.1004 305.263 44.8764 304.908C44.6524 304.553 44.3117 304.376 43.8544 304.376C43.397 304.376 43.0564 304.553 42.8324 304.908C42.6177 305.263 42.5104 305.818 42.5104 306.574C42.5104 307.339 42.6177 307.899 42.8324 308.254C43.0564 308.609 43.397 308.786 43.8544 308.786Z" fill="white"/>
<path d="M57 305H351" stroke="#3C3F41" stroke-width="2"/>
<path d="M20.6506 381.238V380.3H24.5706V381.238H20.6506ZM33.1358 383.534V384.5H26.7798V383.632L30.2378 379.824C30.7045 379.301 31.0405 378.835 31.2458 378.424C31.4605 378.004 31.5678 377.584 31.5678 377.164C31.5678 376.623 31.4092 376.207 31.0918 375.918C30.7745 375.629 30.3265 375.484 29.7478 375.484C28.7958 375.484 27.8625 375.862 26.9478 376.618L26.5138 375.736C26.9058 375.363 27.3958 375.069 27.9838 374.854C28.5812 374.63 29.1785 374.518 29.7758 374.518C30.6812 374.518 31.3952 374.751 31.9178 375.218C32.4498 375.685 32.7158 376.315 32.7158 377.108C32.7158 377.677 32.5852 378.223 32.3238 378.746C32.0718 379.269 31.6518 379.852 31.0638 380.496L28.2638 383.534H33.1358ZM37.9884 384.85L37.1624 384.374L43.0004 374.28L43.8264 374.756L37.9884 384.85ZM37.1344 380.552C36.3877 380.552 35.8044 380.3 35.3844 379.796C34.9644 379.283 34.7544 378.527 34.7544 377.528C34.7544 376.539 34.9644 375.792 35.3844 375.288C35.8044 374.775 36.3877 374.518 37.1344 374.518C37.881 374.518 38.4644 374.775 38.8844 375.288C39.3044 375.792 39.5144 376.539 39.5144 377.528C39.5144 378.527 39.3044 379.283 38.8844 379.796C38.4644 380.3 37.881 380.552 37.1344 380.552ZM37.1344 379.74C37.5917 379.74 37.9277 379.563 38.1424 379.208C38.3664 378.853 38.4784 378.293 38.4784 377.528C38.4784 376.772 38.3664 376.217 38.1424 375.862C37.9277 375.507 37.5917 375.33 37.1344 375.33C36.677 375.33 36.3364 375.507 36.1124 375.862C35.8884 376.217 35.7764 376.772 35.7764 377.528C35.7764 378.293 35.8884 378.853 36.1124 379.208C36.3364 379.563 36.677 379.74 37.1344 379.74ZM43.8544 384.598C43.1077 384.598 42.5244 384.346 42.1044 383.842C41.6844 383.329 41.4744 382.573 41.4744 381.574C41.4744 380.585 41.6844 379.838 42.1044 379.334C42.5244 378.821 43.1077 378.564 43.8544 378.564C44.6104 378.564 45.1937 378.816 45.6044 379.32C46.0244 379.824 46.2344 380.575 46.2344 381.574C46.2344 382.573 46.0244 383.329 45.6044 383.842C45.1937 384.346 44.6104 384.598 43.8544 384.598ZM43.8544 383.786C44.321 383.786 44.6617 383.613 44.8764 383.268C45.1004 382.913 45.2124 382.349 45.2124 381.574C45.2124 380.818 45.1004 380.263 44.8764 379.908C44.6524 379.553 44.3117 379.376 43.8544 379.376C43.397 379.376 43.0564 379.553 42.8324 379.908C42.6177 380.263 42.5104 380.818 42.5104 381.574C42.5104 382.339 42.6177 382.899 42.8324 383.254C43.0564 383.609 43.397 383.786 43.8544 383.786Z" fill="white"/>
<path d="M57 380H351" stroke="#3C3F41"/>
<path d="M62.32 406.81H64.49V408H58.722V406.81H60.878V399.852L59.156 400.902L58.54 399.824L61.284 398.13H62.32V406.81ZM69.5945 408.112C68.4465 408.112 67.5692 407.683 66.9625 406.824C66.3652 405.965 66.0665 404.715 66.0665 403.072C66.0665 401.429 66.3652 400.179 66.9625 399.32C67.5692 398.452 68.4465 398.018 69.5945 398.018C70.7425 398.018 71.6152 398.447 72.2125 399.306C72.8192 400.165 73.1225 401.415 73.1225 403.058C73.1225 404.71 72.8192 405.965 72.2125 406.824C71.6152 407.683 70.7425 408.112 69.5945 408.112ZM69.5945 406.95C70.3132 406.95 70.8405 406.637 71.1765 406.012C71.5125 405.387 71.6805 404.402 71.6805 403.058C71.6805 401.723 71.5125 400.748 71.1765 400.132C70.8405 399.507 70.3132 399.194 69.5945 399.194C68.8759 399.194 68.3485 399.507 68.0125 400.132C67.6765 400.748 67.5085 401.723 67.5085 403.058C67.5085 404.393 67.6765 405.377 68.0125 406.012C68.3485 406.637 68.8759 406.95 69.5945 406.95ZM74.6151 406.334H76.2811V408H74.6151V406.334ZM81.325 408.112C80.177 408.112 79.2997 407.683 78.693 406.824C78.0957 405.965 77.797 404.715 77.797 403.072C77.797 401.429 78.0957 400.179 78.693 399.32C79.2997 398.452 80.177 398.018 81.325 398.018C82.473 398.018 83.3457 398.447 83.943 399.306C84.5497 400.165 84.853 401.415 84.853 403.058C84.853 404.71 84.5497 405.965 83.943 406.824C83.3457 407.683 82.473 408.112 81.325 408.112ZM81.325 406.95C82.0437 406.95 82.571 406.637 82.907 406.012C83.243 405.387 83.411 404.402 83.411 403.058C83.411 401.723 83.243 400.748 82.907 400.132C82.571 399.507 82.0437 399.194 81.325 399.194C80.6063 399.194 80.079 399.507 79.743 400.132C79.407 400.748 79.239 401.723 79.239 403.058C79.239 404.393 79.407 405.377 79.743 406.012C80.079 406.637 80.6063 406.95 81.325 406.95ZM91.1755 402.932C91.7542 403.1 92.1929 403.389 92.4915 403.8C92.7995 404.201 92.9535 404.71 92.9535 405.326C92.9535 406.185 92.6502 406.861 92.0435 407.356C91.4369 407.851 90.6155 408.098 89.5795 408.098C88.9262 408.098 88.3009 407.995 87.7035 407.79C87.1062 407.575 86.6069 407.281 86.2055 406.908L86.7235 405.844C87.6102 406.563 88.5482 406.922 89.5375 406.922C90.2002 406.922 90.6995 406.782 91.0355 406.502C91.3809 406.213 91.5535 405.788 91.5535 405.228C91.5535 404.677 91.3762 404.267 91.0215 403.996C90.6762 403.716 90.1489 403.576 89.4395 403.576H88.2215V402.414H89.2155C89.8969 402.414 90.4149 402.274 90.7695 401.994C91.1335 401.705 91.3155 401.285 91.3155 400.734C91.3155 400.239 91.1662 399.861 90.8675 399.6C90.5689 399.329 90.1489 399.194 89.6075 399.194C88.6649 399.194 87.7502 399.553 86.8635 400.272L86.3595 399.208C86.7515 398.835 87.2415 398.545 87.8295 398.34C88.4269 398.125 89.0429 398.018 89.6775 398.018C90.6015 398.018 91.3389 398.247 91.8895 398.704C92.4402 399.161 92.7155 399.782 92.7155 400.566C92.7155 401.117 92.5802 401.602 92.3095 402.022C92.0389 402.442 91.6609 402.745 91.1755 402.932ZM94.7401 406.334H96.4061V408H94.7401V406.334ZM104.838 406.81V408H98.37V406.922L101.772 403.198C102.211 402.722 102.528 402.288 102.724 401.896C102.92 401.504 103.018 401.117 103.018 400.734C103.018 400.23 102.873 399.847 102.584 399.586C102.295 399.325 101.879 399.194 101.338 399.194C100.414 399.194 99.4993 399.553 98.594 400.272L98.09 399.208C98.482 398.844 98.9767 398.555 99.574 398.34C100.171 398.125 100.773 398.018 101.38 398.018C102.323 398.018 103.069 398.256 103.62 398.732C104.171 399.199 104.446 399.833 104.446 400.636C104.446 401.205 104.32 401.747 104.068 402.26C103.825 402.773 103.415 403.347 102.836 403.982L100.19 406.81H104.838ZM111.301 402.932C111.879 403.1 112.318 403.389 112.617 403.8C112.925 404.201 113.079 404.71 113.079 405.326C113.079 406.185 112.775 406.861 112.169 407.356C111.562 407.851 110.741 408.098 109.705 408.098C109.051 408.098 108.426 407.995 107.829 407.79C107.231 407.575 106.732 407.281 106.331 406.908L106.849 405.844C107.735 406.563 108.673 406.922 109.663 406.922C110.325 406.922 110.825 406.782 111.161 406.502C111.506 406.213 111.679 405.788 111.679 405.228C111.679 404.677 111.501 404.267 111.147 403.996C110.801 403.716 110.274 403.576 109.565 403.576H108.347V402.414H109.341C110.022 402.414 110.54 402.274 110.895 401.994C111.259 401.705 111.441 401.285 111.441 400.734C111.441 400.239 111.291 399.861 110.993 399.6C110.694 399.329 110.274 399.194 109.733 399.194C108.79 399.194 107.875 399.553 106.989 400.272L106.485 399.208C106.877 398.835 107.367 398.545 107.955 398.34C108.552 398.125 109.168 398.018 109.803 398.018C110.727 398.018 111.464 398.247 112.015 398.704C112.565 399.161 112.841 399.782 112.841 400.566C112.841 401.117 112.705 401.602 112.435 402.022C112.164 402.442 111.786 402.745 111.301 402.932Z" fill="white"/>
<path d="M299.617 402.932C300.196 403.1 300.634 403.389 300.933 403.8C301.241 404.201 301.395 404.71 301.395 405.326C301.395 406.185 301.092 406.861 300.485 407.356C299.878 407.851 299.057 408.098 298.021 408.098C297.368 408.098 296.742 407.995 296.145 407.79C295.548 407.575 295.048 407.281 294.647 406.908L295.165 405.844C296.052 406.563 296.99 406.922 297.979 406.922C298.642 406.922 299.141 406.782 299.477 406.502C299.822 406.213 299.995 405.788 299.995 405.228C299.995 404.677 299.818 404.267 299.463 403.996C299.118 403.716 298.59 403.576 297.881 403.576H296.663V402.414H297.657C298.338 402.414 298.856 402.274 299.211 401.994C299.575 401.705 299.757 401.285 299.757 400.734C299.757 400.239 299.608 399.861 299.309 399.6C299.01 399.329 298.59 399.194 298.049 399.194C297.106 399.194 296.192 399.553 295.305 400.272L294.801 399.208C295.193 398.835 295.683 398.545 296.271 398.34C296.868 398.125 297.484 398.018 298.119 398.018C299.043 398.018 299.78 398.247 300.331 398.704C300.882 399.161 301.157 399.782 301.157 400.566C301.157 401.117 301.022 401.602 300.751 402.022C300.48 402.442 300.102 402.745 299.617 402.932ZM307.675 406.81H309.845V408H304.077V406.81H306.233V399.852L304.511 400.902L303.895 399.824L306.639 398.13H307.675V406.81ZM311.576 406.334H313.242V408H311.576V406.334ZM318.286 408.112C317.138 408.112 316.261 407.683 315.654 406.824C315.057 405.965 314.758 404.715 314.758 403.072C314.758 401.429 315.057 400.179 315.654 399.32C316.261 398.452 317.138 398.018 318.286 398.018C319.434 398.018 320.307 398.447 320.904 399.306C321.511 400.165 321.814 401.415 321.814 403.058C321.814 404.71 321.511 405.965 320.904 406.824C320.307 407.683 319.434 408.112 318.286 408.112ZM318.286 406.95C319.005 406.95 319.532 406.637 319.868 406.012C320.204 405.387 320.372 404.402 320.372 403.058C320.372 401.723 320.204 400.748 319.868 400.132C319.532 399.507 319.005 399.194 318.286 399.194C317.567 399.194 317.04 399.507 316.704 400.132C316.368 400.748 316.2 401.723 316.2 403.058C316.2 404.393 316.368 405.377 316.704 406.012C317.04 406.637 317.567 406.95 318.286 406.95ZM328.136 402.932C328.715 403.1 329.154 403.389 329.452 403.8C329.76 404.201 329.914 404.71 329.914 405.326C329.914 406.185 329.611 406.861 329.004 407.356C328.398 407.851 327.576 408.098 326.54 408.098C325.887 408.098 325.262 407.995 324.664 407.79C324.067 407.575 323.568 407.281 323.166 406.908L323.684 405.844C324.571 406.563 325.509 406.922 326.498 406.922C327.161 406.922 327.66 406.782 327.996 406.502C328.342 406.213 328.514 405.788 328.514 405.228C328.514 404.677 328.337 404.267 327.982 403.996C327.637 403.716 327.11 403.576 326.4 403.576H325.182V402.414H326.176C326.858 402.414 327.376 402.274 327.73 401.994C328.094 401.705 328.276 401.285 328.276 400.734C328.276 400.239 328.127 399.861 327.828 399.6C327.53 399.329 327.11 399.194 326.568 399.194C325.626 399.194 324.711 399.553 323.824 400.272L323.32 399.208C323.712 398.835 324.202 398.545 324.79 398.34C325.388 398.125 326.004 398.018 326.638 398.018C327.562 398.018 328.3 398.247 328.85 398.704C329.401 399.161 329.676 399.782 329.676 400.566C329.676 401.117 329.541 401.602 329.27 402.022C329 402.442 328.622 402.745 328.136 402.932ZM331.701 406.334H333.367V408H331.701V406.334ZM341.799 406.81V408H335.331V406.922L338.733 403.198C339.172 402.722 339.489 402.288 339.685 401.896C339.881 401.504 339.979 401.117 339.979 400.734C339.979 400.23 339.834 399.847 339.545 399.586C339.256 399.325 338.84 399.194 338.299 399.194C337.375 399.194 336.46 399.553 335.555 400.272L335.051 399.208C335.443 398.844 335.938 398.555 336.535 398.34C337.132 398.125 337.734 398.018 338.341 398.018C339.284 398.018 340.03 398.256 340.581 398.732C341.132 399.199 341.407 399.833 341.407 400.636C341.407 401.205 341.281 401.747 341.029 402.26C340.786 402.773 340.376 403.347 339.797 403.982L337.151 406.81H341.799ZM350.557 404.808V405.956H349.115V408H347.701V405.956H343.263V404.878L347.939 398.13H349.115V404.808H350.557ZM344.677 404.808H347.701V400.44L344.677 404.808Z" fill="white"/>
<path d="M57 304.964L59.2969 297.446L60.0625 303.836L60.8281 299.655L61.5937 302.377L62.3594 308.017L64.6562 298.247L65.4219 294.493L66.1875 296.804L66.9531 291.919L67.7188 291.167L70.0156 294.553L70.7813 295.307L71.5469 293.426L72.3125 294.178L73.0781 288.152L75.375 285.893L76.1406 286.647L76.9063 282.879L77.6719 281.372H78.4375H80.7344L81.5 287.407L82.2656 288.159L83.0313 286.65L83.7969 287.782L86.0937 287.027H86.8594L87.625 288.915L88.3906 287.406L89.1563 287.029L91.4531 289.933L92.2188 286.537H92.9844H93.75L94.5156 280.488H96.8125L97.5781 278.226L98.3438 278.98L99.1094 277.095L99.875 277.471L102.172 276.717L102.937 280.113L103.703 277.851L104.469 275.597L105.234 277.157H107.531L108.297 279.804L109.062 281.688L109.828 282.065L110.594 279.432L112.891 280.94L113.656 280.186L114.422 282.073L115.188 281.696L115.953 282.452L118.25 279.814L119.016 276.789L119.781 274.528L120.547 272.615L121.313 275.247L123.609 277.461L124.375 275.58L125.141 278.969L125.906 277.33L126.672 276.198L128.969 274.31L129.734 276.572L130.5 278.834L131.266 282.984L132.031 281.85L134.328 282.982L135.094 280.343L135.859 282.289L136.625 284.926L137.391 280.769L139.688 278.136L140.453 281.152L141.219 275.479L141.984 277.741L142.75 274.723L145.047 276.227L145.813 275.095H146.578L147.344 279.999L148.109 276.99L150.406 276.238L151.172 277.373L151.937 279.637L152.703 276.988L153.469 277.365L155.766 277.744L156.531 272.458L157.297 273.59L158.063 273.967L158.828 272.459L161.125 270.195L161.891 269.817L162.656 263.427L163.422 258.903L164.188 258.147L166.484 256.706L167.25 257.461L168.016 257.084L168.781 256.331L169.547 254.445L171.844 253.687L172.609 251.801L173.375 252.557L174.141 252.935L174.906 255.197L177.203 255.577L177.969 257.098L178.734 255.579L179.5 256.715L180.266 254.071L182.563 255.956L183.328 255.202L184.094 250.647L184.859 249.513L185.625 250.652L187.922 249.522L188.688 247.704L189.453 248.838L190.219 245.811L190.984 246.188L193.281 247.316L194.047 247.695L194.813 249.586L195.578 248.077L196.344 244.671L198.641 244.293L199.406 245.056L200.172 246.944L200.938 243.148L201.703 246.901L204 249.163H204.766L205.531 247.272L206.297 246.894L207.063 246.137H209.359L210.125 246.514L210.891 246.894L211.656 249.921L212.422 243.876L214.719 245.01L215.484 245.771L216.25 246.904L217.016 245.012H217.781L220.078 243.126L220.844 241.606L221.609 241.229L222.375 242.75L223.141 240.861L225.438 241.615L226.203 244.984L226.969 246.502L227.734 246.122L228.5 244.613L230.797 242.707L231.563 239.302L232.328 239.721L233.094 237.458L233.859 235.555L236.156 233.662L236.922 232.138L237.687 229.114L238.453 225.679L239.219 224.545L241.516 226.809L242.281 226.052H243.047L243.813 224.908L244.578 227.928L246.875 227.177L247.641 220.314L248.406 220.694L249.172 218.805L249.938 218.424L252.234 219.953L253 218.438L253.766 218.062L254.531 218.44L255.297 218.816L257.594 215.036L258.359 213.12L259.125 208.57L259.891 206.304L260.656 198.698H262.953L263.719 196.433L264.484 194.15L265.25 194.527L266.016 196.809H268.313L269.078 196.05L269.844 206.473L270.609 199.66L271.375 195.483L273.672 199.655L274.437 198.143L275.203 194.214L275.969 191.942L276.734 189.266H279.031H279.797L280.562 188.506L281.328 186.976L282.094 173.295H284.391L285.156 176.321L285.922 177.46L286.688 181.246L287.453 180.867L289.75 180.466L290.516 182.011L291.281 193.013L292.047 193.765L292.813 189.119L295.109 190.254L295.875 189.877L296.641 193.514L297.406 192.74L298.172 192.362L300.469 188.959L301.234 190.093L302 188.952L302.766 185.526L303.531 183.992L305.828 180.315L306.594 181.84L307.359 179.51L308.125 179.131L308.891 170.784L311.188 173.053L311.953 171.906L312.719 175.704L313.484 176.085L314.25 176.84L316.547 175.69L317.313 177.63L318.078 174.995L318.844 173.83L319.609 174.212L321.906 173.834L322.672 171.19L323.437 173.453H324.203L324.969 169.678L327.266 173.115L328.031 172.739L328.797 173.118L329.562 170.805L330.328 168.893H332.625L333.391 167.006L334.156 166.624L334.922 163.914L335.688 161.21L337.984 161.972L338.75 160.46L339.516 160.836L340.281 159.658L341.047 164.277H343.344L344.109 161.999L344.875 162.173L345.641 158.378L346.406 156.853L348.703 159.111L349.469 157.962L350.234 153.778L351 153.018" stroke="#28EBCF" stroke-miterlimit="10"/>
<path d="M181.136 402.932C181.715 403.1 182.154 403.389 182.452 403.8C182.76 404.201 182.914 404.71 182.914 405.326C182.914 406.185 182.611 406.861 182.004 407.356C181.398 407.851 180.576 408.098 179.54 408.098C178.887 408.098 178.262 407.995 177.664 407.79C177.067 407.575 176.568 407.281 176.166 406.908L176.684 405.844C177.571 406.563 178.509 406.922 179.498 406.922C180.161 406.922 180.66 406.782 180.996 406.502C181.342 406.213 181.514 405.788 181.514 405.228C181.514 404.677 181.337 404.267 180.982 403.996C180.637 403.716 180.11 403.576 179.4 403.576H178.182V402.414H179.176C179.858 402.414 180.376 402.274 180.73 401.994C181.094 401.705 181.276 401.285 181.276 400.734C181.276 400.239 181.127 399.861 180.828 399.6C180.53 399.329 180.11 399.194 179.568 399.194C178.626 399.194 177.711 399.553 176.824 400.272L176.32 399.208C176.712 398.835 177.202 398.545 177.79 398.34C178.388 398.125 179.004 398.018 179.638 398.018C180.562 398.018 181.3 398.247 181.85 398.704C182.401 399.161 182.676 399.782 182.676 400.566C182.676 401.117 182.541 401.602 182.27 402.022C182 402.442 181.622 402.745 181.136 402.932ZM188.075 408.112C186.927 408.112 186.05 407.683 185.443 406.824C184.846 405.965 184.547 404.715 184.547 403.072C184.547 401.429 184.846 400.179 185.443 399.32C186.05 398.452 186.927 398.018 188.075 398.018C189.223 398.018 190.096 398.447 190.693 399.306C191.3 400.165 191.603 401.415 191.603 403.058C191.603 404.71 191.3 405.965 190.693 406.824C190.096 407.683 189.223 408.112 188.075 408.112ZM188.075 406.95C188.794 406.95 189.321 406.637 189.657 406.012C189.993 405.387 190.161 404.402 190.161 403.058C190.161 401.723 189.993 400.748 189.657 400.132C189.321 399.507 188.794 399.194 188.075 399.194C187.356 399.194 186.829 399.507 186.493 400.132C186.157 400.748 185.989 401.723 185.989 403.058C185.989 404.393 186.157 405.377 186.493 406.012C186.829 406.637 187.356 406.95 188.075 406.95ZM193.096 406.334H194.762V408H193.096V406.334ZM199.805 408.112C198.657 408.112 197.78 407.683 197.173 406.824C196.576 405.965 196.277 404.715 196.277 403.072C196.277 401.429 196.576 400.179 197.173 399.32C197.78 398.452 198.657 398.018 199.805 398.018C200.953 398.018 201.826 398.447 202.423 399.306C203.03 400.165 203.333 401.415 203.333 403.058C203.333 404.71 203.03 405.965 202.423 406.824C201.826 407.683 200.953 408.112 199.805 408.112ZM199.805 406.95C200.524 406.95 201.051 406.637 201.387 406.012C201.723 405.387 201.891 404.402 201.891 403.058C201.891 401.723 201.723 400.748 201.387 400.132C201.051 399.507 200.524 399.194 199.805 399.194C199.087 399.194 198.559 399.507 198.223 400.132C197.887 400.748 197.719 401.723 197.719 403.058C197.719 404.393 197.887 405.377 198.223 406.012C198.559 406.637 199.087 406.95 199.805 406.95ZM207.892 398.018C209.115 398.018 210.053 398.438 210.706 399.278C211.369 400.109 211.7 401.299 211.7 402.848C211.7 403.949 211.541 404.897 211.224 405.69C210.916 406.474 210.468 407.076 209.88 407.496C209.301 407.907 208.601 408.112 207.78 408.112C207.201 408.112 206.637 408.009 206.086 407.804C205.545 407.599 205.069 407.305 204.658 406.922L205.162 405.858C206.058 406.577 206.917 406.936 207.738 406.936C208.541 406.936 209.161 406.586 209.6 405.886C210.039 405.177 210.258 404.173 210.258 402.876V402.848C210.053 403.324 209.717 403.702 209.25 403.982C208.793 404.253 208.275 404.388 207.696 404.388C207.108 404.388 206.581 404.257 206.114 403.996C205.647 403.725 205.283 403.352 205.022 402.876C204.77 402.4 204.644 401.854 204.644 401.238C204.644 400.622 204.784 400.071 205.064 399.586C205.344 399.091 205.727 398.709 206.212 398.438C206.707 398.158 207.267 398.018 207.892 398.018ZM207.962 403.212C208.55 403.212 209.026 403.03 209.39 402.666C209.763 402.293 209.95 401.807 209.95 401.21C209.95 400.603 209.768 400.118 209.404 399.754C209.04 399.381 208.559 399.194 207.962 399.194C207.383 399.194 206.917 399.381 206.562 399.754C206.217 400.118 206.044 400.603 206.044 401.21C206.044 401.807 206.217 402.293 206.562 402.666C206.917 403.03 207.383 403.212 207.962 403.212ZM213.221 406.334H214.887V408H213.221V406.334ZM223.318 406.81V408H216.85V406.922L220.252 403.198C220.691 402.722 221.008 402.288 221.204 401.896C221.4 401.504 221.498 401.117 221.498 400.734C221.498 400.23 221.354 399.847 221.064 399.586C220.775 399.325 220.36 399.194 219.818 399.194C218.894 399.194 217.98 399.553 217.074 400.272L216.57 399.208C216.962 398.844 217.457 398.555 218.054 398.34C218.652 398.125 219.254 398.018 219.86 398.018C220.803 398.018 221.55 398.256 222.1 398.732C222.651 399.199 222.926 399.833 222.926 400.636C222.926 401.205 222.8 401.747 222.548 402.26C222.306 402.773 221.895 403.347 221.316 403.982L218.67 406.81H223.318ZM229.781 402.932C230.36 403.1 230.798 403.389 231.097 403.8C231.405 404.201 231.559 404.71 231.559 405.326C231.559 406.185 231.256 406.861 230.649 407.356C230.042 407.851 229.221 408.098 228.185 408.098C227.532 408.098 226.906 407.995 226.309 407.79C225.712 407.575 225.212 407.281 224.811 406.908L225.329 405.844C226.216 406.563 227.154 406.922 228.143 406.922C228.806 406.922 229.305 406.782 229.641 406.502C229.986 406.213 230.159 405.788 230.159 405.228C230.159 404.677 229.982 404.267 229.627 403.996C229.282 403.716 228.754 403.576 228.045 403.576H226.827V402.414H227.821C228.502 402.414 229.02 402.274 229.375 401.994C229.739 401.705 229.921 401.285 229.921 400.734C229.921 400.239 229.772 399.861 229.473 399.6C229.174 399.329 228.754 399.194 228.213 399.194C227.27 399.194 226.356 399.553 225.469 400.272L224.965 399.208C225.357 398.835 225.847 398.545 226.435 398.34C227.032 398.125 227.648 398.018 228.283 398.018C229.207 398.018 229.944 398.247 230.495 398.704C231.046 399.161 231.321 399.782 231.321 400.566C231.321 401.117 231.186 401.602 230.915 402.022C230.644 402.442 230.266 402.745 229.781 402.932Z" fill="white"/>
</g>
</g>
<defs>
<clipPath id="clip0_4410_753">
<rect width="360" height="413" fill="white"/>
</clipPath>
<clipPath id="clip1_4410_753">
<rect width="360" height="342" fill="white" transform="translate(0.0410156 71)"/>
</clipPath>
</defs>
</svg>
