<svg width="328" height="632" viewBox="0 0 328 632" fill="none" xmlns="http://www.w3.org/2000/svg">
<g filter="url(#filter0_d_101_7472)">
<rect x="44.0974" y="421.546" width="209.926" height="154" rx="30" transform="rotate(6 44.0974 421.546)" fill="#191A1C" shape-rendering="crispEdges"/>
<g clip-path="url(#clip0_101_7472)">
<path fill-rule="evenodd" clip-rule="evenodd" d="M132.009 503.183C132.067 502.633 132.559 502.235 133.108 502.293L147.031 503.756C147.58 503.814 147.979 504.306 147.921 504.855C147.863 505.404 147.371 505.803 146.822 505.745L132.899 504.282C132.35 504.224 131.951 503.732 132.009 503.183Z" fill="#28EBCF"/>
<path fill-rule="evenodd" clip-rule="evenodd" d="M122.01 493.082C122.068 492.533 122.56 492.134 123.109 492.192L148.966 494.91C149.516 494.968 149.914 495.46 149.856 496.009C149.799 496.558 149.307 496.957 148.757 496.899L122.9 494.181C122.351 494.123 121.952 493.631 122.01 493.082Z" fill="#28EBCF"/>
<path fill-rule="evenodd" clip-rule="evenodd" d="M125.457 471.496C126.281 470.828 127.337 470.515 128.392 470.626L158.228 473.762C159.283 473.873 160.251 474.399 160.918 475.223C161.586 476.047 161.899 477.103 161.788 478.158L160.952 486.115C160.894 486.664 160.402 487.062 159.852 487.005C159.303 486.947 158.905 486.455 158.962 485.906L159.799 477.949C159.854 477.422 159.698 476.894 159.364 476.482C159.03 476.069 158.546 475.807 158.019 475.751L128.183 472.615C127.656 472.56 127.128 472.716 126.715 473.05C126.303 473.384 126.04 473.868 125.985 474.395L123.79 495.28C123.734 495.808 123.891 496.336 124.225 496.748C124.558 497.16 125.042 497.423 125.57 497.478L148.444 499.883C148.993 499.94 149.392 500.432 149.334 500.982C149.276 501.531 148.784 501.929 148.235 501.872L125.361 499.468C124.306 499.357 123.338 498.831 122.67 498.007C122.003 497.182 121.69 496.126 121.801 495.071L123.996 474.186C124.107 473.131 124.632 472.163 125.457 471.496Z" fill="#28EBCF"/>
<path fill-rule="evenodd" clip-rule="evenodd" d="M151.896 486.168C151.347 486.111 150.855 486.509 150.797 487.058L148.811 505.954C148.753 506.504 149.152 506.996 149.701 507.053L157.657 507.89C158.207 507.947 158.699 507.549 158.756 507L160.742 488.104C160.8 487.554 160.402 487.062 159.852 487.005L151.896 486.168ZM148.808 486.849C148.981 485.202 150.458 484.006 152.105 484.179L160.062 485.016C161.709 485.189 162.905 486.665 162.731 488.313L160.745 507.209C160.572 508.856 159.096 510.052 157.448 509.879L149.492 509.042C147.844 508.869 146.649 507.393 146.822 505.745L148.808 486.849Z" fill="#28EBCF"/>
<path fill-rule="evenodd" clip-rule="evenodd" d="M151.899 505.273C151.957 504.724 152.449 504.326 152.998 504.383L154.987 504.592C155.537 504.65 155.935 505.142 155.877 505.691C155.82 506.241 155.328 506.639 154.778 506.581L152.789 506.372C152.24 506.315 151.842 505.823 151.899 505.273Z" fill="#28EBCF"/>
</g>
<path d="M89.7917 545.153C88.89 545.058 88.0346 544.848 87.2254 544.524C86.4174 544.188 85.7597 543.777 85.2524 543.291L86.295 541.503C87.3606 542.424 88.6091 542.96 90.0405 543.111C90.7844 543.189 91.3661 543.13 91.7855 542.935C92.2173 542.73 92.4557 542.413 92.5007 541.985C92.541 541.601 92.3864 541.283 92.037 541.03C91.6988 540.778 91.0726 540.501 90.1584 540.2C89.1327 539.876 88.3203 539.528 87.7211 539.157C87.1331 538.788 86.7157 538.368 86.4689 537.898C86.2345 537.417 86.1516 536.85 86.2203 536.196C86.2962 535.475 86.5609 534.853 87.0147 534.331C87.4797 533.81 88.0894 533.43 88.844 533.19C89.5997 532.939 90.4509 532.863 91.3977 532.963C92.2431 533.052 93.0415 533.261 93.7932 533.591C94.5561 533.922 95.1467 534.32 95.565 534.785L94.5224 536.573C93.5132 535.658 92.4056 535.137 91.1996 535.01C90.5121 534.938 89.9568 535.016 89.5339 535.245C89.1122 535.463 88.877 535.803 88.8284 536.265C88.8 536.536 88.8496 536.769 88.9771 536.965C89.1172 537.15 89.3548 537.329 89.69 537.501C90.0364 537.674 90.5288 537.869 91.1672 538.084C92.6645 538.583 93.7178 539.132 94.3272 539.732C94.9478 540.333 95.2089 541.101 95.1106 542.037C94.9921 543.164 94.4646 544.009 93.528 544.571C92.5926 545.122 91.3471 545.316 89.7917 545.153ZM101.058 544.422C101.317 544.45 101.59 544.461 101.875 544.457L101.544 546.302C101.213 546.313 100.883 546.301 100.556 546.267C99.2941 546.134 98.3988 545.761 97.8708 545.147C97.354 544.534 97.1548 543.665 97.2733 542.537L97.6074 539.359L96.035 539.194L96.2358 537.283L97.8082 537.448L98.0641 535.014L100.617 535.282L100.361 537.717L102.441 537.935L102.24 539.846L100.16 539.627L99.828 542.789C99.7238 543.781 100.134 544.325 101.058 544.422ZM107.394 538.251C108.634 538.381 109.516 538.77 110.041 539.418C110.576 540.067 110.78 541.006 110.651 542.234L110.135 547.137L107.718 546.883L107.847 545.649C107.633 546.059 107.316 546.368 106.895 546.574C106.476 546.77 106.001 546.839 105.472 546.784C104.908 546.724 104.407 546.558 103.969 546.284C103.541 546.011 103.214 545.657 102.986 545.223C102.769 544.79 102.687 544.326 102.739 543.83C102.803 543.221 103.006 542.758 103.347 542.441C103.699 542.125 104.227 541.924 104.932 541.838C105.636 541.753 106.585 541.773 107.78 541.898L108.219 541.944L108.251 541.64C108.304 541.144 108.233 540.783 108.04 540.558C107.848 540.333 107.486 540.192 106.957 540.136C106.551 540.094 106.092 540.12 105.581 540.214C105.07 540.308 104.575 540.462 104.097 540.673L103.6 538.895C104.104 538.651 104.71 538.47 105.418 538.351C106.138 538.221 106.797 538.188 107.394 538.251ZM106.214 545.084C106.71 545.136 107.128 545.015 107.466 544.72C107.806 544.414 108.004 543.996 108.06 543.466L108.09 543.179L107.802 543.148C106.889 543.052 106.239 543.058 105.852 543.166C105.476 543.274 105.268 543.52 105.227 543.903C105.195 544.208 105.27 544.472 105.452 544.696C105.645 544.922 105.899 545.051 106.214 545.084ZM118.652 541.554L117.199 541.555C116.481 541.548 115.959 541.698 115.63 542.005C115.303 542.301 115.11 542.726 115.052 543.278L114.597 547.606L112.044 547.338L112.916 539.036L115.368 539.294L115.22 540.697C115.738 539.783 116.656 539.35 117.972 539.397L118.722 539.424L118.652 541.554ZM124.437 546.88C124.696 546.907 124.969 546.918 125.254 546.914L124.923 548.76C124.592 548.77 124.262 548.759 123.935 548.724C122.673 548.592 121.778 548.218 121.25 547.604C120.733 546.992 120.534 546.122 120.652 544.995L120.986 541.816L119.414 541.651L119.615 539.74L121.187 539.906L121.443 537.471L123.996 537.739L123.74 540.174L125.82 540.393L125.619 542.303L123.539 542.084L123.207 545.246C123.103 546.238 123.513 546.782 124.437 546.88ZM135.697 548.063C135.957 548.09 136.229 548.102 136.514 548.098L136.183 549.943C135.852 549.954 135.523 549.942 135.196 549.908C133.933 549.775 133.038 549.402 132.51 548.788C131.993 548.175 131.794 547.305 131.913 546.178L132.247 543L130.674 542.834L130.875 540.924L132.447 541.089L132.703 538.655L135.256 538.923L135 541.358L137.08 541.576L136.879 543.487L134.8 543.268L134.467 546.43C134.363 547.421 134.773 547.966 135.697 548.063ZM144.062 544.224L142.608 544.225C141.891 544.218 141.368 544.369 141.04 544.676C140.712 544.972 140.52 545.396 140.462 545.949L140.007 550.277L137.454 550.008L138.326 541.707L140.778 541.965L140.63 543.368C141.148 542.454 142.065 542.02 143.382 542.068L144.132 542.095L144.062 544.224ZM148.819 542.605C150.059 542.735 150.941 543.124 151.466 543.772C152.001 544.421 152.205 545.359 152.076 546.588L151.56 551.491L149.143 551.237L149.272 550.003C149.058 550.413 148.741 550.722 148.32 550.928C147.901 551.124 147.426 551.193 146.897 551.138C146.333 551.078 145.832 550.912 145.394 550.638C144.967 550.365 144.639 550.011 144.411 549.577C144.195 549.144 144.112 548.68 144.165 548.184C144.228 547.575 144.431 547.112 144.772 546.795C145.124 546.478 145.653 546.278 146.357 546.192C147.061 546.107 148.01 546.127 149.205 546.252L149.645 546.298L149.677 545.994C149.729 545.498 149.658 545.137 149.466 544.912C149.273 544.687 148.911 544.546 148.382 544.49C147.976 544.448 147.517 544.474 147.006 544.568C146.495 544.662 146 544.816 145.522 545.027L145.025 543.249C145.529 543.005 146.135 542.824 146.843 542.705C147.563 542.575 148.222 542.542 148.819 542.605ZM147.639 549.438C148.135 549.49 148.553 549.369 148.891 549.074C149.231 548.768 149.429 548.35 149.485 547.82L149.515 547.533L149.227 547.502C148.315 547.406 147.664 547.412 147.277 547.52C146.901 547.628 146.693 547.874 146.652 548.257C146.62 548.562 146.695 548.826 146.877 549.05C147.07 549.275 147.324 549.405 147.639 549.438ZM163.125 540.655L161.872 552.575L159.336 552.308L159.465 551.074C159.173 551.476 158.782 551.777 158.294 551.977C157.818 552.166 157.293 552.23 156.718 552.17C156.008 552.095 155.39 551.848 154.864 551.428C154.351 550.998 153.971 550.44 153.724 549.753C153.49 549.056 153.418 548.279 153.508 547.422C153.598 546.566 153.829 545.832 154.2 545.222C154.585 544.601 155.071 544.145 155.66 543.854C156.249 543.562 156.905 543.455 157.626 543.53C158.189 543.59 158.684 543.761 159.11 544.045C159.547 544.331 159.868 544.7 160.071 545.155L160.572 540.387L163.125 540.655ZM157.666 550.304C158.264 550.367 158.741 550.212 159.1 549.839C159.47 549.456 159.696 548.882 159.776 548.115C159.857 547.349 159.755 546.746 159.471 546.305C159.198 545.867 158.763 545.616 158.165 545.553C157.568 545.49 157.085 545.644 156.715 546.016C156.347 546.376 156.123 546.934 156.044 547.689C155.963 548.455 156.064 549.07 156.346 549.532C156.629 549.984 157.069 550.241 157.666 550.304ZM163.838 552.781L164.71 544.48L167.263 544.748L166.391 553.05L163.838 552.781ZM165.045 540.481L167.784 540.769L167.533 543.153L164.795 542.865L165.045 540.481ZM174.446 545.298C175.438 545.403 176.146 545.773 176.569 546.41C176.993 547.036 177.143 547.935 177.02 549.107L176.494 554.112L173.941 553.843L174.455 548.957C174.514 548.394 174.45 547.971 174.263 547.689C174.088 547.409 173.78 547.245 173.341 547.199C172.811 547.143 172.365 547.268 172.002 547.571C171.651 547.876 171.446 548.311 171.387 548.874L170.898 553.524L168.345 553.255L169.218 544.954L171.703 545.215L171.579 546.399C171.919 545.979 172.333 545.674 172.82 545.486C173.318 545.299 173.86 545.237 174.446 545.298ZM187.743 546.901L186.965 554.306C186.824 555.647 186.334 556.622 185.495 557.229C184.656 557.836 183.488 558.06 181.988 557.903C181.245 557.825 180.538 557.659 179.87 557.407C179.212 557.155 178.642 556.839 178.158 556.457L179.019 554.77C180.028 555.469 181.062 555.874 182.122 555.985C183.519 556.132 184.287 555.546 184.426 554.227L184.522 553.314C184.24 553.718 183.85 554.019 183.35 554.217C182.851 554.415 182.308 554.483 181.722 554.422C181 554.346 180.376 554.109 179.848 553.712C179.331 553.316 178.947 552.791 178.697 552.138C178.448 551.474 178.366 550.73 178.453 549.907C178.539 549.085 178.773 548.38 179.154 547.793C179.536 547.195 180.02 546.756 180.608 546.476C181.209 546.186 181.869 546.079 182.591 546.154C183.166 546.215 183.671 546.393 184.107 546.69C184.556 546.976 184.881 547.347 185.084 547.801L185.207 546.634L187.743 546.901ZM182.67 552.556C183.267 552.618 183.75 552.475 184.117 552.127C184.495 551.779 184.721 551.261 184.793 550.574C184.865 549.886 184.752 549.333 184.454 548.914C184.169 548.485 183.728 548.24 183.13 548.177C182.533 548.114 182.044 548.262 181.665 548.621C181.286 548.969 181.061 549.486 180.989 550.174C180.918 550.85 181.031 551.403 181.327 551.833C181.625 552.252 182.073 552.493 182.67 552.556Z" fill="white"/>
</g>
<path d="M239.352 496.23L239.849 497.098L239.352 496.23ZM231.243 501.686C230.71 501.541 230.395 500.992 230.54 500.459L232.902 491.774C233.047 491.242 233.597 490.927 234.13 491.072C234.663 491.217 234.977 491.766 234.832 492.299L232.733 500.019L240.452 502.118C240.985 502.263 241.3 502.813 241.155 503.346C241.01 503.879 240.46 504.193 239.927 504.048L231.243 501.686ZM239.849 497.098L232.002 501.589L231.008 499.854L238.855 495.362L239.849 497.098ZM266.082 411.56C281.264 442.529 269.782 479.965 239.849 497.098L238.855 495.362C267.873 478.754 279.003 442.462 264.286 412.44L266.082 411.56Z" fill="url(#paint0_linear_101_7472)"/>
<g filter="url(#filter1_d_101_7472)">
<rect x="80.3858" y="276.372" width="205.191" height="178" rx="30" transform="rotate(-5 80.3858 276.372)" fill="#191A1C" shape-rendering="crispEdges"/>
<g clip-path="url(#clip1_101_7472)">
<path fill-rule="evenodd" clip-rule="evenodd" d="M170.051 307.676C170.003 307.126 170.409 306.641 170.96 306.593L200.846 303.978C201.396 303.93 201.881 304.337 201.929 304.887L204.544 334.773C204.567 335.037 204.484 335.3 204.313 335.503L197.041 344.17C196.871 344.373 196.626 344.5 196.362 344.523L174.446 346.441C173.896 346.489 173.411 346.082 173.363 345.532L170.051 307.676ZM172.13 308.498L175.268 344.361L195.775 342.567L202.515 334.535L200.024 306.058L172.13 308.498Z" fill="#28EBCF"/>
<path fill-rule="evenodd" clip-rule="evenodd" d="M194.582 335.645C194.533 335.094 194.94 334.609 195.491 334.561L203.46 333.864C204.01 333.816 204.495 334.223 204.544 334.773C204.592 335.323 204.185 335.808 203.635 335.856L196.661 336.467L197.271 343.44C197.319 343.99 196.912 344.475 196.362 344.523C195.812 344.571 195.327 344.164 195.279 343.614L194.582 335.645Z" fill="#28EBCF"/>
<path fill-rule="evenodd" clip-rule="evenodd" d="M181.365 314.009C181.787 314.365 181.84 314.996 181.484 315.418L179.656 317.585C179.301 318.007 178.671 318.061 178.249 317.707L177.166 316.798C176.743 316.443 176.687 315.812 177.042 315.389C177.397 314.966 178.028 314.911 178.451 315.266L178.77 315.534L179.955 314.128C180.311 313.706 180.942 313.653 181.365 314.009Z" fill="#28EBCF"/>
<path fill-rule="evenodd" clip-rule="evenodd" d="M183.786 315.509C183.737 314.959 184.144 314.474 184.695 314.426L194.657 313.554C195.207 313.506 195.692 313.913 195.74 314.463C195.788 315.013 195.381 315.498 194.831 315.546L184.869 316.418C184.319 316.466 183.834 316.059 183.786 315.509Z" fill="#28EBCF"/>
<path fill-rule="evenodd" clip-rule="evenodd" d="M185.006 329.456C184.958 328.905 185.365 328.42 185.915 328.372L195.877 327.501C196.427 327.453 196.912 327.86 196.96 328.41C197.008 328.96 196.601 329.445 196.051 329.493L186.089 330.365C185.539 330.413 185.054 330.006 185.006 329.456Z" fill="#28EBCF"/>
<path fill-rule="evenodd" clip-rule="evenodd" d="M178.817 339.031C178.769 338.481 179.176 337.996 179.726 337.948L183.711 337.599C184.261 337.551 184.746 337.958 184.794 338.508C184.842 339.059 184.435 339.544 183.885 339.592L179.9 339.94C179.35 339.989 178.865 339.582 178.817 339.031Z" fill="#28EBCF"/>
<path fill-rule="evenodd" clip-rule="evenodd" d="M179.029 329.979C178.98 329.428 179.387 328.943 179.938 328.895L180.037 328.887C180.587 328.838 181.072 329.245 181.121 329.796C181.169 330.346 180.762 330.831 180.212 330.879L180.112 330.888C179.562 330.936 179.077 330.529 179.029 329.979Z" fill="#28EBCF"/>
<path fill-rule="evenodd" clip-rule="evenodd" d="M181.975 320.982C182.397 321.338 182.45 321.969 182.094 322.391L180.266 324.559C179.911 324.98 179.281 325.035 178.859 324.68L177.776 323.771C177.353 323.416 177.297 322.785 177.652 322.362C178.007 321.939 178.638 321.884 179.061 322.239L179.381 322.507L180.565 321.102C180.922 320.68 181.552 320.626 181.975 320.982Z" fill="#28EBCF"/>
<path fill-rule="evenodd" clip-rule="evenodd" d="M184.396 322.482C184.348 321.932 184.755 321.447 185.305 321.399L192.278 320.789C192.828 320.741 193.313 321.148 193.361 321.698C193.41 322.248 193.003 322.733 192.452 322.781L185.479 323.391C184.929 323.439 184.444 323.032 184.396 322.482Z" fill="#28EBCF"/>
</g>
<path d="M155.117 388.438C153.909 388.544 152.831 388.382 151.883 387.953C150.947 387.523 150.195 386.866 149.629 385.983C149.074 385.099 148.743 384.047 148.636 382.828C148.529 381.608 148.673 380.515 149.066 379.548C149.47 378.579 150.097 377.808 150.945 377.233C151.804 376.646 152.837 376.3 154.046 376.194C154.836 376.125 155.603 376.183 156.347 376.368C157.091 376.542 157.713 376.823 158.213 377.212L157.531 379.165C156.977 378.816 156.432 378.573 155.897 378.438C155.373 378.302 154.835 378.258 154.282 378.306C153.22 378.399 152.431 378.81 151.915 379.537C151.41 380.264 151.214 381.282 151.329 382.592C151.443 383.902 151.813 384.876 152.438 385.515C153.073 386.143 153.921 386.41 154.982 386.317C155.536 386.268 156.058 386.132 156.551 385.907C157.054 385.68 157.548 385.347 158.033 384.907L159.044 386.712C158.619 387.182 158.056 387.572 157.355 387.884C156.653 388.184 155.907 388.369 155.117 388.438ZM165.243 378.815C166.237 378.728 167.002 378.957 167.539 379.501C168.074 380.035 168.394 380.889 168.497 382.063L168.935 387.076L166.378 387.299L165.95 382.405C165.9 381.841 165.757 381.438 165.52 381.197C165.294 380.955 164.961 380.853 164.52 380.892C163.99 380.938 163.575 381.145 163.278 381.512C162.991 381.879 162.873 382.344 162.922 382.909L163.329 387.566L160.772 387.79L159.728 375.85L162.285 375.627L162.698 380.352C162.954 379.897 163.299 379.543 163.732 379.288C164.175 379.022 164.679 378.864 165.243 378.815ZM174.853 386.694C173.972 386.771 173.183 386.664 172.487 386.372C171.789 386.069 171.231 385.612 170.814 385C170.395 384.377 170.147 383.625 170.07 382.744C169.993 381.864 170.107 381.086 170.412 380.41C170.716 379.724 171.186 379.177 171.821 378.768C172.457 378.36 173.215 378.117 174.096 378.04C174.976 377.963 175.765 378.071 176.462 378.362C177.158 378.654 177.716 379.112 178.135 379.735C178.552 380.347 178.8 381.093 178.877 381.974C178.954 382.854 178.84 383.638 178.536 384.324C178.231 384.999 177.761 385.547 177.127 385.966C176.491 386.375 175.733 386.617 174.853 386.694ZM174.682 384.747C175.924 384.638 176.476 383.788 176.336 382.196C176.266 381.394 176.05 380.81 175.688 380.444C175.337 380.076 174.863 379.919 174.265 379.971C173.023 380.08 172.471 380.93 172.611 382.522C172.75 384.114 173.44 384.855 174.682 384.747ZM184.809 385.823C183.928 385.9 183.14 385.793 182.443 385.501C181.745 385.198 181.187 384.741 180.77 384.129C180.351 383.506 180.103 382.754 180.026 381.873C179.949 380.992 180.063 380.215 180.368 379.539C180.672 378.853 181.142 378.306 181.778 377.897C182.413 377.489 183.171 377.246 184.052 377.169C184.932 377.092 185.721 377.2 186.418 377.491C187.115 377.783 187.672 378.241 188.091 378.864C188.508 379.476 188.756 380.222 188.833 381.103C188.91 381.983 188.796 382.767 188.492 383.453C188.187 384.128 187.718 384.676 187.083 385.095C186.448 385.504 185.689 385.746 184.809 385.823ZM184.638 383.876C185.88 383.767 186.432 382.917 186.292 381.325C186.222 380.523 186.006 379.939 185.644 379.573C185.294 379.205 184.819 379.048 184.221 379.1C182.979 379.209 182.427 380.059 182.567 381.651C182.706 383.243 183.397 383.984 184.638 383.876ZM193.969 385.022C193.201 385.089 192.488 385.066 191.83 384.953C191.182 384.828 190.612 384.622 190.12 384.335L190.644 382.514C191.122 382.78 191.64 382.973 192.196 383.095C192.753 383.217 193.308 383.254 193.861 383.205C194.256 383.171 194.556 383.082 194.759 382.939C194.973 382.784 195.071 382.593 195.051 382.368C195.033 382.164 194.94 382.013 194.772 381.914C194.616 381.814 194.324 381.737 193.899 381.683L192.517 381.497C191.7 381.387 191.083 381.162 190.666 380.823C190.26 380.472 190.029 379.968 189.971 379.314C189.926 378.794 190.033 378.324 190.292 377.903C190.562 377.482 190.958 377.134 191.48 376.861C192.014 376.587 192.63 376.419 193.33 376.358C193.929 376.305 194.518 376.345 195.098 376.476C195.679 376.607 196.209 376.817 196.689 377.105L196.16 378.858C195.226 378.325 194.33 378.096 193.472 378.171C193.077 378.206 192.772 378.301 192.558 378.456C192.344 378.611 192.248 378.813 192.27 379.061C192.286 379.242 192.366 379.377 192.51 379.467C192.655 379.557 192.9 379.632 193.247 379.693L194.681 379.891C195.544 380.009 196.185 380.249 196.604 380.611C197.032 380.96 197.276 381.468 197.334 382.134C197.404 382.935 197.138 383.596 196.535 384.115C195.942 384.622 195.087 384.924 193.969 385.022ZM206.173 380.115L200.754 380.589C200.891 381.248 201.148 381.715 201.525 381.989C201.912 382.251 202.432 382.353 203.087 382.296C203.516 382.258 203.934 382.154 204.34 381.981C204.756 381.797 205.128 381.56 205.455 381.27L206.282 382.921C205.903 383.272 205.428 383.564 204.857 383.796C204.297 384.027 203.723 384.169 203.136 384.22C201.736 384.342 200.596 384.055 199.716 383.359C198.846 382.65 198.353 381.629 198.237 380.297C198.163 379.45 198.272 378.684 198.565 377.999C198.857 377.313 199.298 376.763 199.888 376.347C200.476 375.92 201.165 375.672 201.956 375.603C203.119 375.501 204.072 375.799 204.815 376.496C205.57 377.192 206.004 378.19 206.118 379.488L206.173 380.115ZM202.177 377.358C201.692 377.401 201.316 377.593 201.05 377.935C200.795 378.264 200.659 378.726 200.642 379.319L203.911 379.033C203.825 378.437 203.633 377.999 203.335 377.718C203.049 377.436 202.663 377.316 202.177 377.358ZM217.223 381.093C217.482 381.071 217.752 381.03 218.031 380.971L218.059 382.846C217.735 382.92 217.41 382.971 217.082 383C215.818 383.11 214.868 382.915 214.232 382.413C213.608 381.91 213.247 381.094 213.148 379.965L212.869 376.781L211.294 376.919L211.127 375.005L212.702 374.868L212.489 372.429L215.046 372.205L215.259 374.644L217.342 374.462L217.51 376.375L215.427 376.558L215.704 379.724C215.791 380.718 216.297 381.174 217.223 381.093ZM223.789 373.693C224.782 373.606 225.548 373.835 226.085 374.379C226.62 374.913 226.94 375.766 227.042 376.941L227.481 381.953L224.924 382.177L224.496 377.283C224.446 376.718 224.303 376.316 224.066 376.075C223.84 375.833 223.507 375.731 223.066 375.77C222.536 375.816 222.121 376.023 221.824 376.39C221.537 376.757 221.419 377.222 221.468 377.787L221.875 382.444L219.318 382.668L218.274 370.728L220.831 370.505L221.244 375.229C221.5 374.775 221.845 374.42 222.277 374.166C222.721 373.9 223.224 373.742 223.789 373.693ZM236.554 377.457L231.135 377.931C231.272 378.59 231.529 379.057 231.906 379.331C232.293 379.593 232.813 379.695 233.468 379.638C233.897 379.6 234.315 379.496 234.721 379.324C235.137 379.139 235.509 378.902 235.836 378.612L236.663 380.263C236.284 380.614 235.809 380.906 235.238 381.138C234.678 381.369 234.104 381.511 233.517 381.562C232.117 381.684 230.977 381.397 230.097 380.701C229.227 379.992 228.734 378.971 228.618 377.639C228.544 376.792 228.653 376.026 228.946 375.341C229.238 374.655 229.679 374.105 230.269 373.689C230.857 373.262 231.546 373.014 232.337 372.945C233.5 372.843 234.453 373.141 235.196 373.838C235.951 374.534 236.386 375.532 236.499 376.83L236.554 377.457ZM232.558 374.7C232.073 374.743 231.697 374.935 231.431 375.277C231.176 375.606 231.04 376.068 231.023 376.661L234.292 376.375C234.206 375.779 234.014 375.341 233.716 375.06C233.43 374.778 233.044 374.658 232.558 374.7ZM140.492 401.625L141.537 413.564L138.996 413.787L138.888 412.55C138.677 413.001 138.351 413.371 137.91 413.66C137.479 413.936 136.976 414.1 136.4 414.15C135.689 414.212 135.035 414.088 134.439 413.776C133.853 413.452 133.374 412.976 133 412.349C132.637 411.709 132.418 410.96 132.343 410.102C132.268 409.244 132.355 408.48 132.603 407.81C132.862 407.128 133.253 406.587 133.775 406.189C134.298 405.79 134.92 405.56 135.643 405.496C136.207 405.447 136.726 405.521 137.198 405.719C137.682 405.915 138.067 406.217 138.353 406.624L137.935 401.849L140.492 401.625ZM136.975 412.137C137.573 412.085 138.013 411.842 138.293 411.408C138.584 410.961 138.696 410.354 138.629 409.587C138.562 408.819 138.347 408.246 137.984 407.868C137.632 407.49 137.157 407.326 136.558 407.379C135.96 407.431 135.515 407.675 135.223 408.11C134.93 408.534 134.817 409.124 134.883 409.88C134.95 410.648 135.166 411.232 135.531 411.632C135.895 412.021 136.376 412.19 136.975 412.137ZM150.67 409.062L145.25 409.536C145.388 410.196 145.645 410.662 146.021 410.936C146.408 411.198 146.929 411.301 147.584 411.243C148.013 411.206 148.431 411.101 148.836 410.929C149.253 410.745 149.624 410.507 149.952 410.217L150.779 411.868C150.4 412.22 149.925 412.512 149.354 412.744C148.794 412.975 148.22 413.116 147.633 413.167C146.233 413.29 145.093 413.003 144.213 412.306C143.343 411.597 142.85 410.577 142.733 409.245C142.659 408.398 142.769 407.632 143.061 406.946C143.354 406.261 143.795 405.71 144.384 405.295C144.973 404.868 145.662 404.62 146.452 404.551C147.615 404.449 148.569 404.747 149.312 405.444C150.067 406.14 150.501 407.137 150.615 408.436L150.67 409.062ZM146.674 406.306C146.189 406.348 145.813 406.541 145.547 406.882C145.292 407.212 145.156 407.673 145.139 408.266L148.408 407.98C148.322 407.385 148.13 406.947 147.832 406.665C147.546 406.383 147.16 406.263 146.674 406.306ZM155.748 412.457C154.981 412.525 154.268 412.502 153.609 412.389C152.961 412.263 152.391 412.057 151.9 411.77L152.423 409.95C152.901 410.215 153.419 410.409 153.976 410.531C154.532 410.653 155.087 410.689 155.641 410.641C156.036 410.606 156.335 410.518 156.539 410.375C156.753 410.219 156.85 410.029 156.83 409.803C156.812 409.6 156.72 409.449 156.552 409.35C156.395 409.25 156.104 409.173 155.678 409.119L154.297 408.933C153.479 408.822 152.862 408.597 152.446 408.258C152.04 407.907 151.808 407.404 151.751 406.749C151.705 406.23 151.812 405.76 152.071 405.339C152.341 404.917 152.737 404.57 153.26 404.296C153.793 404.022 154.41 403.854 155.11 403.793C155.708 403.741 156.298 403.78 156.878 403.912C157.458 404.043 157.988 404.252 158.469 404.54L157.939 406.293C157.005 405.76 156.109 405.532 155.251 405.607C154.856 405.641 154.552 405.736 154.338 405.891C154.124 406.047 154.028 406.248 154.049 406.497C154.065 406.678 154.145 406.813 154.29 406.902C154.434 406.992 154.68 407.067 155.026 407.128L156.46 407.327C157.324 407.445 157.965 407.684 158.383 408.046C158.812 408.395 159.055 408.903 159.113 409.569C159.184 410.371 158.917 411.031 158.314 411.55C157.721 412.057 156.866 412.36 155.748 412.457ZM160.788 411.88L160.061 403.565L162.618 403.341L163.346 411.656L160.788 411.88ZM159.627 399.575L162.37 399.335L162.579 401.723L159.836 401.963L159.627 399.575ZM170.686 404.546L169.26 404.825C168.555 404.955 168.07 405.202 167.806 405.566C167.541 405.919 167.433 406.373 167.481 406.926L167.861 411.261L165.303 411.485L164.576 403.17L167.032 402.955L167.155 404.361C167.488 403.364 168.306 402.764 169.608 402.559L170.349 402.443L170.686 404.546ZM179.099 406.575L173.68 407.049C173.817 407.708 174.074 408.175 174.451 408.449C174.838 408.711 175.359 408.813 176.014 408.756C176.443 408.719 176.86 408.614 177.266 408.442C177.682 408.258 178.054 408.02 178.381 407.73L179.208 409.381C178.829 409.733 178.354 410.025 177.783 410.257C177.223 410.488 176.65 410.629 176.062 410.68C174.662 410.803 173.522 410.516 172.642 409.819C171.773 409.11 171.279 408.09 171.163 406.757C171.089 405.911 171.198 405.144 171.491 404.459C171.784 403.774 172.225 403.223 172.814 402.807C173.402 402.38 174.092 402.132 174.882 402.063C176.045 401.962 176.998 402.259 177.742 402.956C178.497 403.653 178.931 404.65 179.044 405.948L179.099 406.575ZM175.104 403.819C174.618 403.861 174.243 404.053 173.977 404.395C173.721 404.725 173.585 405.186 173.569 405.779L176.837 405.493C176.751 404.898 176.559 404.459 176.262 404.178C175.975 403.896 175.589 403.776 175.104 403.819ZM188.338 397.439L189.382 409.378L186.842 409.601L186.734 408.364C186.523 408.815 186.197 409.185 185.756 409.474C185.325 409.75 184.821 409.914 184.246 409.964C183.534 410.027 182.881 409.902 182.285 409.59C181.699 409.266 181.219 408.79 180.846 408.163C180.483 407.523 180.263 406.775 180.188 405.916C180.113 405.058 180.2 404.294 180.449 403.624C180.707 402.942 181.098 402.401 181.621 402.003C182.143 401.604 182.766 401.374 183.489 401.31C184.053 401.261 184.571 401.335 185.044 401.533C185.527 401.729 185.912 402.031 186.198 402.438L185.78 397.663L188.338 397.439ZM184.82 407.952C185.419 407.899 185.858 407.656 186.139 407.222C186.43 406.775 186.542 406.168 186.474 405.401C186.407 404.633 186.192 404.06 185.829 403.682C185.477 403.304 185.002 403.14 184.404 403.193C183.806 403.245 183.361 403.489 183.069 403.924C182.776 404.348 182.663 404.938 182.729 405.694C182.796 406.462 183.012 407.046 183.377 407.446C183.741 407.836 184.222 408.004 184.82 407.952ZM199.294 408.648C198.526 408.715 197.813 408.692 197.155 408.579C196.507 408.454 195.937 408.247 195.445 407.961L195.969 406.14C196.447 406.405 196.965 406.599 197.521 406.721C198.078 406.843 198.633 406.88 199.186 406.831C199.581 406.797 199.881 406.708 200.084 406.565C200.298 406.41 200.396 406.219 200.376 405.993C200.358 405.79 200.265 405.639 200.097 405.54C199.941 405.44 199.649 405.363 199.224 405.309L197.842 405.123C197.025 405.012 196.408 404.788 195.991 404.449C195.585 404.097 195.354 403.594 195.296 402.939C195.251 402.42 195.358 401.95 195.617 401.529C195.887 401.107 196.283 400.76 196.805 400.487C197.339 400.212 197.955 400.045 198.655 399.983C199.254 399.931 199.843 399.971 200.423 400.102C201.004 400.233 201.534 400.443 202.014 400.731L201.485 402.483C200.551 401.951 199.655 401.722 198.797 401.797C198.402 401.832 198.097 401.926 197.883 402.082C197.669 402.237 197.573 402.439 197.595 402.687C197.611 402.868 197.691 403.003 197.835 403.093C197.98 403.182 198.225 403.258 198.572 403.318L200.006 403.517C200.869 403.635 201.51 403.875 201.929 404.236C202.357 404.586 202.601 405.093 202.659 405.759C202.729 406.561 202.463 407.221 201.86 407.741C201.267 408.248 200.412 408.55 199.294 408.648ZM211.498 403.74L206.079 404.215C206.216 404.874 206.473 405.34 206.85 405.615C207.237 405.877 207.757 405.979 208.412 405.922C208.841 405.884 209.259 405.779 209.665 405.607C210.081 405.423 210.453 405.186 210.78 404.895L211.607 406.547C211.228 406.898 210.753 407.19 210.182 407.422C209.622 407.653 209.048 407.794 208.461 407.846C207.061 407.968 205.921 407.681 205.041 406.985C204.171 406.276 203.678 405.255 203.562 403.923C203.488 403.076 203.597 402.31 203.89 401.624C204.182 400.939 204.623 400.388 205.213 399.973C205.801 399.546 206.49 399.298 207.281 399.229C208.444 399.127 209.397 399.425 210.14 400.122C210.895 400.818 211.329 401.815 211.443 403.114L211.498 403.74ZM207.502 400.984C207.017 401.027 206.641 401.219 206.375 401.561C206.12 401.89 205.984 402.351 205.967 402.944L209.236 402.658C209.15 402.063 208.958 401.625 208.66 401.344C208.374 401.061 207.988 400.942 207.502 400.984ZM217.339 407.069C215.984 407.188 214.883 406.897 214.037 406.197C213.191 405.498 212.71 404.488 212.595 403.167C212.518 402.297 212.638 401.519 212.953 400.831C213.268 400.133 213.748 399.573 214.394 399.153C215.039 398.732 215.808 398.483 216.7 398.405C217.31 398.351 217.905 398.396 218.487 398.539C219.067 398.67 219.546 398.878 219.924 399.164L219.399 400.967C219.049 400.736 218.67 400.57 218.263 400.469C217.866 400.356 217.482 400.316 217.109 400.348C216.443 400.407 215.941 400.65 215.603 401.078C215.276 401.504 215.147 402.107 215.215 402.886C215.283 403.665 215.516 404.242 215.913 404.617C216.32 404.98 216.856 405.132 217.522 405.073C217.895 405.041 218.267 404.94 218.639 404.771C219.022 404.59 219.365 404.355 219.67 404.066L220.501 405.768C220.156 406.117 219.704 406.407 219.144 406.638C218.584 406.869 217.982 407.013 217.339 407.069ZM229.015 397.532L229.743 405.847L227.253 406.065L227.15 404.88C226.927 405.331 226.612 405.689 226.202 405.952C225.804 406.215 225.34 406.369 224.81 406.415C223.76 406.507 222.95 406.288 222.38 405.758C221.821 405.215 221.489 404.357 221.387 403.182L220.954 398.237L223.511 398.014L223.948 403.009C223.992 403.506 224.126 403.864 224.35 404.084C224.585 404.302 224.917 404.392 225.346 404.355C225.843 404.311 226.229 404.107 226.504 403.742C226.79 403.375 226.909 402.915 226.861 402.362L226.458 397.756L229.015 397.532ZM237.088 398.737L235.662 399.015C234.956 399.145 234.472 399.393 234.208 399.757C233.943 400.11 233.835 400.563 233.883 401.116L234.262 405.452L231.705 405.676L230.978 397.36L233.433 397.146L233.556 398.551C233.89 397.555 234.708 396.954 236.009 396.749L236.75 396.633L237.088 398.737ZM238.502 405.081L237.775 396.766L240.332 396.542L241.06 404.857L238.502 405.081ZM237.34 392.776L240.084 392.536L240.293 394.924L237.549 395.164L237.34 392.776ZM247.471 402.539C247.731 402.516 248 402.475 248.28 402.417L248.307 404.291C247.984 404.365 247.658 404.416 247.331 404.445C246.066 404.556 245.116 404.36 244.481 403.858C243.857 403.355 243.495 402.539 243.396 401.41L243.118 398.227L241.543 398.364L241.375 396.451L242.95 396.313L242.737 393.874L245.294 393.65L245.508 396.089L247.591 395.907L247.758 397.821L245.675 398.003L245.952 401.17C246.039 402.163 246.545 402.62 247.471 402.539ZM254.764 395.296L257.27 395.077L253.25 406.862L250.659 407.089L251.944 403.444L247.837 395.902L250.496 395.67L253.058 400.77L254.764 395.296Z" fill="white"/>
</g>
<path d="M89.9565 322.781L90.5879 322.005L89.9565 322.781ZM97.4532 329.798C98.0026 329.742 98.4025 329.251 98.3463 328.702L97.4306 319.748C97.3744 319.199 96.8834 318.799 96.334 318.855C95.7846 318.912 95.3848 319.403 95.441 319.952L96.2549 327.91L88.2964 328.724C87.747 328.781 87.3472 329.272 87.4034 329.821C87.4596 330.37 87.9505 330.77 88.4999 330.714L97.4532 329.798ZM89.325 323.556L96.72 329.579L97.983 328.028L90.5879 322.005L89.325 323.556ZM79.0231 226.857C55.331 256.453 59.9293 299.616 89.325 323.556L90.5879 322.005C62.0436 298.758 57.5785 256.846 80.5844 228.106L79.0231 226.857Z" fill="url(#paint1_linear_101_7472)"/>
<g filter="url(#filter2_d_101_7472)">
<rect x="53.6234" y="28" width="227.865" height="226" rx="30" transform="rotate(6 53.6234 28)" fill="#191A1C" shape-rendering="crispEdges"/>
<g clip-path="url(#clip2_101_7472)">
<path fill-rule="evenodd" clip-rule="evenodd" d="M150.141 113.558C150.199 113.008 150.691 112.61 151.24 112.668L167.153 114.34C167.702 114.398 168.101 114.89 168.043 115.439C167.985 115.989 167.493 116.387 166.944 116.329L151.031 114.657C150.482 114.599 150.084 114.107 150.141 113.558Z" fill="#28EBCF"/>
<path fill-rule="evenodd" clip-rule="evenodd" d="M140.247 102.463C140.305 101.913 140.797 101.515 141.346 101.573L179.138 105.545C179.687 105.602 180.086 106.094 180.028 106.644C179.97 107.193 179.478 107.591 178.929 107.534L141.137 103.562C140.588 103.504 140.189 103.012 140.247 102.463Z" fill="#28EBCF"/>
<path fill-rule="evenodd" clip-rule="evenodd" d="M147.624 80.1113C145.976 79.9381 144.5 81.1335 144.327 82.7813L142.131 103.666C141.958 105.314 143.154 106.79 144.801 106.963L174.637 110.099C176.285 110.272 177.761 109.077 177.934 107.429L180.129 86.5443C180.303 84.8965 179.107 83.4203 177.459 83.2471L147.624 80.1113ZM142.338 82.5722C142.626 79.8259 145.087 77.8336 147.833 78.1223L177.668 81.2581C180.415 81.5468 182.407 84.0071 182.118 86.7534L179.923 107.638C179.635 110.385 177.174 112.377 174.428 112.088L144.592 108.952C141.846 108.664 139.854 106.203 140.142 103.457L142.338 82.5722Z" fill="#28EBCF"/>
<path fill-rule="evenodd" clip-rule="evenodd" d="M153.068 85.7111C152.804 85.6834 152.541 85.7615 152.334 85.9285C152.128 86.0954 151.997 86.3373 151.969 86.6011L150.192 103.508C150.134 104.057 149.642 104.456 149.093 104.398C148.544 104.34 148.145 103.848 148.203 103.299L149.98 86.392C150.063 85.6007 150.457 84.8749 151.076 84.3742C151.694 83.8735 152.486 83.6389 153.277 83.722L171.179 85.6035C171.97 85.6867 172.696 86.0808 173.196 86.6991C173.697 87.3175 173.932 88.1094 173.849 88.9007L172.072 105.808C172.014 106.357 171.522 106.755 170.973 106.698C170.423 106.64 170.025 106.148 170.083 105.599L171.86 88.6916C171.887 88.4279 171.809 88.1639 171.642 87.9578C171.475 87.7517 171.233 87.6203 170.97 87.5926L153.068 85.7111Z" fill="#28EBCF"/>
<path fill-rule="evenodd" clip-rule="evenodd" d="M154.535 90.8927C154.592 90.3435 155.084 89.945 155.634 90.0027L159.612 90.4208C160.161 90.4786 160.559 90.9706 160.502 91.5199C160.444 92.0691 159.952 92.4676 159.403 92.4099L155.425 91.9918C154.875 91.934 154.477 91.442 154.535 90.8927Z" fill="#28EBCF"/>
<path fill-rule="evenodd" clip-rule="evenodd" d="M154.117 94.8707C154.174 94.3215 154.666 93.923 155.216 93.9807L167.15 95.2351C167.699 95.2928 168.098 95.7849 168.04 96.3341C167.982 96.8834 167.49 97.2819 166.941 97.2241L155.007 95.9698C154.457 95.9121 154.059 95.42 154.117 94.8707Z" fill="#28EBCF"/>
<path fill-rule="evenodd" clip-rule="evenodd" d="M153.698 98.849C153.756 98.2998 154.248 97.9013 154.797 97.959L163.748 98.8998C164.297 98.9575 164.696 99.4496 164.638 99.9988C164.58 100.548 164.088 100.947 163.539 100.889L154.588 99.9481C154.039 99.8903 153.641 99.3983 153.698 98.849Z" fill="#28EBCF"/>
</g>
<path d="M112.668 153.01C111.485 152.885 110.48 152.529 109.653 151.941C108.838 151.342 108.242 150.562 107.865 149.599C107.488 148.625 107.365 147.518 107.496 146.278C107.626 145.038 107.976 143.987 108.545 143.124C109.116 142.249 109.861 141.61 110.781 141.205C111.712 140.801 112.77 140.662 113.953 140.786C115.137 140.911 116.136 141.266 116.952 141.853C117.779 142.442 118.381 143.223 118.757 144.197C119.134 145.16 119.258 146.261 119.128 147.501C118.997 148.741 118.647 149.798 118.076 150.672C117.507 151.535 116.756 152.175 115.824 152.589C114.904 152.994 113.852 153.134 112.668 153.01ZM112.884 150.964C113.875 151.068 114.69 150.801 115.327 150.161C115.975 149.523 116.369 148.544 116.507 147.225C116.646 145.907 116.469 144.874 115.978 144.127C115.488 143.369 114.741 142.937 113.738 142.832C112.735 142.726 111.915 142.994 111.278 143.633C110.653 144.263 110.272 145.237 110.133 146.555C109.995 147.874 110.17 148.913 110.661 149.671C111.151 150.429 111.892 150.86 112.884 150.964ZM126.345 145.695C127.055 145.77 127.667 146.022 128.18 146.452C128.705 146.872 129.085 147.431 129.32 148.128C129.567 148.815 129.645 149.586 129.555 150.443C129.465 151.299 129.228 152.038 128.844 152.659C128.472 153.269 127.991 153.72 127.402 154.011C126.813 154.303 126.158 154.411 125.437 154.335C124.873 154.275 124.372 154.109 123.934 153.835C123.508 153.551 123.193 153.187 122.989 152.744L122.544 156.971L119.991 156.702L121.184 145.358L123.703 145.623L123.58 146.789C123.873 146.387 124.263 146.092 124.75 145.904C125.239 145.704 125.77 145.635 126.345 145.695ZM124.897 152.312C125.495 152.375 125.977 152.226 126.346 151.866C126.715 151.495 126.94 150.932 127.019 150.176C127.1 149.41 126.998 148.801 126.715 148.35C126.434 147.887 125.994 147.624 125.397 147.561C124.799 147.499 124.315 147.659 123.944 148.041C123.575 148.413 123.35 148.982 123.269 149.748C123.19 150.503 123.292 151.106 123.575 151.558C123.859 151.998 124.3 152.249 124.897 152.312ZM138.538 151.866L133.128 151.297C133.137 151.97 133.3 152.478 133.618 152.819C133.948 153.15 134.44 153.349 135.093 153.418C135.522 153.463 135.951 153.44 136.383 153.348C136.826 153.247 137.237 153.085 137.613 152.862L138.11 154.641C137.671 154.914 137.149 155.11 136.544 155.229C135.95 155.349 135.36 155.378 134.774 155.316C133.377 155.169 132.312 154.67 131.581 153.818C130.863 152.956 130.573 151.86 130.713 150.53C130.802 149.685 131.055 148.954 131.474 148.337C131.892 147.72 132.43 147.264 133.088 146.968C133.747 146.661 134.471 146.549 135.26 146.632C136.42 146.754 137.299 147.228 137.896 148.055C138.504 148.882 138.74 149.944 138.604 151.24L138.538 151.866ZM135.142 148.398C134.658 148.347 134.252 148.464 133.926 148.748C133.612 149.023 133.391 149.45 133.262 150.029L136.525 150.372C136.554 149.771 136.449 149.304 136.21 148.971C135.983 148.64 135.627 148.449 135.142 148.398ZM145.796 147.74C146.788 147.844 147.495 148.215 147.918 148.852C148.343 149.477 148.493 150.376 148.37 151.549L147.844 156.553L145.291 156.285L145.805 151.399C145.864 150.835 145.8 150.412 145.613 150.131C145.437 149.85 145.13 149.687 144.69 149.641C144.16 149.585 143.714 149.709 143.352 150.013C143.001 150.318 142.796 150.752 142.736 151.315L142.248 155.965L139.695 155.697L140.567 147.395L143.053 147.656L142.928 148.84C143.269 148.42 143.682 148.116 144.169 147.928C144.668 147.741 145.21 147.678 145.796 147.74ZM159.051 149.133C160.291 149.263 161.173 149.652 161.698 150.3C162.234 150.949 162.437 151.888 162.308 153.116L161.792 158.019L159.375 157.765L159.505 156.531C159.29 156.941 158.973 157.25 158.553 157.456C158.133 157.652 157.659 157.721 157.129 157.666C156.565 157.606 156.064 157.44 155.626 157.166C155.199 156.893 154.871 156.54 154.643 156.105C154.427 155.672 154.345 155.208 154.397 154.712C154.461 154.103 154.663 153.64 155.004 153.323C155.357 153.007 155.885 152.806 156.589 152.72C157.293 152.635 158.242 152.655 159.437 152.78L159.877 152.826L159.909 152.522C159.961 152.026 159.891 151.665 159.698 151.44C159.505 151.215 159.144 151.074 158.614 151.018C158.208 150.976 157.75 151.002 157.238 151.096C156.727 151.191 156.232 151.344 155.754 151.555L155.257 149.777C155.761 149.534 156.367 149.352 157.075 149.233C157.795 149.103 158.454 149.07 159.051 149.133ZM157.872 155.966C158.368 156.018 158.785 155.897 159.124 155.602C159.463 155.296 159.661 154.878 159.717 154.348L159.747 154.061L159.46 154.03C158.547 153.934 157.896 153.94 157.509 154.048C157.133 154.156 156.925 154.402 156.885 154.785C156.853 155.09 156.927 155.354 157.109 155.578C157.302 155.804 157.556 155.933 157.872 155.966ZM172.508 150.752L174.588 150.971L174.387 152.881L172.307 152.663L171.636 159.054L169.083 158.785L169.754 152.395L168.182 152.229L168.383 150.319L169.955 150.484C170.101 149.314 170.531 148.471 171.247 147.953C171.975 147.426 173.019 147.194 174.38 147.257L175.315 147.304L175.27 149.197L174.472 149.147C173.816 149.101 173.34 149.176 173.046 149.373C172.764 149.56 172.597 149.907 172.544 150.414L172.508 150.752ZM181.388 153.6L179.935 153.601C179.217 153.594 178.694 153.744 178.366 154.052C178.038 154.348 177.846 154.772 177.788 155.324L177.333 159.652L174.78 159.384L175.652 151.083L178.104 151.341L177.956 152.744C178.474 151.83 179.391 151.396 180.708 151.443L181.458 151.471L181.388 153.6ZM189.259 157.197L183.849 156.628C183.858 157.301 184.021 157.808 184.338 158.15C184.668 158.48 185.16 158.68 185.814 158.749C186.242 158.794 186.672 158.771 187.103 158.679C187.547 158.578 187.957 158.416 188.334 158.193L188.831 159.972C188.392 160.245 187.87 160.441 187.265 160.56C186.671 160.679 186.081 160.709 185.495 160.647C184.097 160.5 183.033 160.001 182.302 159.149C181.583 158.287 181.294 157.191 181.434 155.861C181.523 155.016 181.776 154.285 182.194 153.668C182.612 153.051 183.15 152.595 183.808 152.299C184.467 151.992 185.191 151.88 185.98 151.963C187.141 152.085 188.02 152.559 188.617 153.386C189.225 154.213 189.461 155.275 189.325 156.571L189.259 157.197ZM185.863 153.729C185.378 153.678 184.973 153.795 184.647 154.079C184.333 154.354 184.111 154.781 183.982 155.36L187.245 155.703C187.274 155.102 187.169 154.635 186.931 154.302C186.704 153.971 186.348 153.78 185.863 153.729ZM198.274 158.144L192.864 157.575C192.873 158.249 193.036 158.756 193.353 159.097C193.683 159.428 194.175 159.628 194.829 159.697C195.257 159.742 195.687 159.718 196.118 159.627C196.562 159.525 196.972 159.363 197.349 159.141L197.845 160.92C197.406 161.192 196.884 161.388 196.279 161.507C195.686 161.627 195.096 161.656 194.51 161.595C193.112 161.448 192.048 160.948 191.317 160.097C190.598 159.235 190.309 158.139 190.449 156.809C190.537 155.963 190.791 155.232 191.209 154.615C191.627 153.998 192.165 153.542 192.823 153.247C193.482 152.94 194.206 152.828 194.995 152.911C196.156 153.033 197.035 153.507 197.632 154.333C198.24 155.161 198.476 156.222 198.34 157.519L198.274 158.144ZM194.878 154.676C194.393 154.625 193.988 154.742 193.661 155.027C193.348 155.302 193.126 155.728 192.997 156.307L196.26 156.65C196.289 156.049 196.184 155.583 195.946 155.25C195.718 154.918 195.362 154.727 194.878 154.676ZM101.628 167.23C102.868 167.36 103.75 167.749 104.275 168.397C104.811 169.046 105.014 169.984 104.885 171.213L104.369 176.116L101.952 175.862L102.082 174.628C101.867 175.038 101.55 175.347 101.13 175.553C100.71 175.748 100.236 175.818 99.7059 175.762C99.1423 175.703 98.6413 175.537 98.2029 175.263C97.7757 174.99 97.4482 174.636 97.2204 174.202C97.0038 173.769 96.9215 173.305 96.9737 172.809C97.0376 172.2 97.2401 171.737 97.5812 171.42C97.9335 171.103 98.4617 170.902 99.1659 170.817C99.87 170.731 100.819 170.751 102.014 170.877L102.454 170.923L102.486 170.619C102.538 170.123 102.468 169.762 102.275 169.537C102.082 169.311 101.721 169.171 101.191 169.115C100.785 169.073 100.327 169.099 99.8152 169.193C99.3038 169.287 98.8091 169.44 98.331 169.652L97.8342 167.874C98.3384 167.63 98.9444 167.449 99.652 167.33C100.372 167.2 101.031 167.167 101.628 167.23ZM100.449 174.063C100.945 174.115 101.362 173.994 101.701 173.699C102.04 173.393 102.238 172.975 102.294 172.445L102.324 172.157L102.037 172.127C101.124 172.031 100.473 172.037 100.086 172.144C99.7101 172.253 99.5019 172.499 99.4616 172.882C99.4296 173.186 99.5044 173.451 99.686 173.675C99.8788 173.9 100.133 174.03 100.449 174.063ZM110.22 176.868C108.868 176.725 107.843 176.23 107.146 175.382C106.449 174.534 106.169 173.45 106.308 172.132C106.399 171.264 106.665 170.523 107.106 169.908C107.547 169.282 108.126 168.824 108.84 168.535C109.554 168.245 110.356 168.147 111.247 168.241C111.855 168.305 112.431 168.462 112.975 168.713C113.519 168.952 113.95 169.248 114.266 169.601L113.407 171.271C113.107 170.977 112.767 170.742 112.387 170.566C112.019 170.379 111.649 170.266 111.277 170.227C110.612 170.157 110.073 170.3 109.66 170.655C109.257 171.012 109.015 171.579 108.934 172.356C108.852 173.134 108.97 173.745 109.288 174.188C109.619 174.622 110.116 174.874 110.781 174.944C111.153 174.983 111.538 174.955 111.935 174.86C112.345 174.755 112.727 174.59 113.082 174.365L113.573 176.194C113.168 176.471 112.668 176.669 112.075 176.789C111.481 176.909 110.863 176.935 110.22 176.868ZM118.575 177.746C117.222 177.604 116.197 177.108 115.5 176.26C114.803 175.412 114.524 174.328 114.662 173.01C114.753 172.142 115.019 171.401 115.46 170.786C115.902 170.16 116.48 169.702 117.194 169.413C117.908 169.123 118.711 169.025 119.601 169.119C120.21 169.183 120.786 169.34 121.329 169.591C121.874 169.83 122.304 170.126 122.62 170.479L121.761 172.149C121.461 171.855 121.121 171.62 120.741 171.444C120.373 171.257 120.004 171.144 119.632 171.105C118.967 171.035 118.427 171.178 118.014 171.533C117.612 171.89 117.37 172.457 117.288 173.234C117.206 174.012 117.325 174.623 117.643 175.067C117.973 175.5 118.471 175.752 119.136 175.822C119.508 175.861 119.892 175.833 120.29 175.738C120.7 175.633 121.082 175.468 121.436 175.243L121.927 177.072C121.522 177.349 121.023 177.547 120.429 177.667C119.835 177.787 119.217 177.813 118.575 177.746ZM126.963 178.627C126.084 178.535 125.33 178.279 124.702 177.86C124.075 177.429 123.614 176.874 123.321 176.193C123.029 175.502 122.93 174.716 123.022 173.837C123.114 172.958 123.375 172.216 123.803 171.612C124.232 170.996 124.798 170.548 125.499 170.269C126.201 169.989 126.992 169.895 127.871 169.988C128.75 170.08 129.504 170.336 130.132 170.755C130.76 171.175 131.22 171.73 131.512 172.422C131.806 173.102 131.906 173.882 131.813 174.761C131.721 175.64 131.46 176.388 131.031 177.004C130.603 177.608 130.037 178.056 129.334 178.347C128.632 178.626 127.842 178.72 126.963 178.627ZM127.167 176.683C128.407 176.813 129.11 176.084 129.277 174.495C129.362 173.694 129.261 173.08 128.976 172.651C128.701 172.223 128.266 171.978 127.668 171.915C126.428 171.785 125.725 172.514 125.558 174.104C125.391 175.693 125.927 176.553 127.167 176.683ZM141.796 171.657L140.923 179.958L138.438 179.697L138.562 178.513C138.258 178.914 137.88 179.205 137.428 179.385C136.987 179.567 136.502 179.63 135.972 179.574C134.924 179.464 134.171 179.094 133.713 178.465C133.267 177.826 133.106 176.92 133.229 175.748L133.748 170.811L136.301 171.079L135.777 176.067C135.725 176.563 135.788 176.94 135.966 177.198C136.155 177.457 136.464 177.609 136.892 177.654C137.388 177.706 137.806 177.579 138.146 177.273C138.497 176.968 138.701 176.539 138.76 175.987L139.243 171.388L141.796 171.657ZM148.983 172.207C149.975 172.311 150.683 172.682 151.106 173.319C151.53 173.945 151.681 174.844 151.557 176.016L151.031 181.02L148.478 180.752L148.992 175.866C149.051 175.302 148.987 174.88 148.8 174.598C148.625 174.317 148.317 174.154 147.878 174.108C147.348 174.052 146.902 174.176 146.539 174.48C146.188 174.785 145.983 175.219 145.924 175.783L145.435 180.432L142.882 180.164L143.755 171.862L146.24 172.124L146.116 173.307C146.456 172.887 146.87 172.583 147.357 172.395C147.855 172.208 148.397 172.145 148.983 172.207ZM157.719 179.963C157.978 179.99 158.25 180.001 158.536 179.997L158.205 181.843C157.873 181.853 157.544 181.842 157.217 181.807C155.955 181.674 155.06 181.301 154.532 180.687C154.015 180.075 153.816 179.205 153.934 178.078L154.268 174.899L152.696 174.734L152.897 172.823L154.469 172.989L154.725 170.554L157.278 170.822L157.022 173.257L159.102 173.475L158.901 175.386L156.821 175.167L156.489 178.329C156.385 179.321 156.795 179.865 157.719 179.963ZM164.197 182.404L165.07 174.103L167.623 174.371L166.75 182.672L164.197 182.404ZM165.405 170.104L168.144 170.392L167.893 172.776L165.154 172.488L165.405 170.104ZM174.806 174.921C175.798 175.025 176.505 175.396 176.928 176.033C177.353 176.659 177.503 177.558 177.38 178.73L176.854 183.734L174.301 183.466L174.815 178.58C174.874 178.016 174.81 177.594 174.623 177.312C174.447 177.031 174.14 176.868 173.7 176.822C173.171 176.766 172.724 176.89 172.362 177.194C172.011 177.499 171.806 177.933 171.746 178.497L171.258 183.146L168.705 182.878L169.577 174.577L172.063 174.838L171.938 176.021C172.279 175.601 172.692 175.297 173.179 175.109C173.678 174.922 174.22 174.859 174.806 174.921ZM188.264 183.173C188.523 183.2 188.795 183.212 189.08 183.207L188.75 185.053C188.418 185.064 188.089 185.052 187.762 185.018C186.5 184.885 185.604 184.512 185.076 183.898C184.56 183.285 184.36 182.415 184.479 181.288L184.813 178.109L183.241 177.944L183.441 176.034L185.014 176.199L185.27 173.764L187.823 174.033L187.567 176.467L189.646 176.686L189.445 178.596L187.366 178.378L187.034 181.539C186.929 182.531 187.339 183.076 188.264 183.173ZM196.121 177.161C197.113 177.266 197.821 177.636 198.244 178.273C198.668 178.899 198.818 179.798 198.695 180.97L198.169 185.975L195.616 185.706L196.13 180.82C196.189 180.257 196.125 179.834 195.938 179.552C195.763 179.272 195.455 179.108 195.015 179.062C194.486 179.006 194.04 179.13 193.677 179.434C193.326 179.739 193.121 180.174 193.062 180.737L192.573 185.386L190.02 185.118L191.273 173.199L193.826 173.467L193.33 178.184C193.668 177.787 194.074 177.504 194.547 177.338C195.033 177.161 195.558 177.102 196.121 177.161ZM207.933 183.292L202.523 182.723C202.532 183.396 202.696 183.903 203.013 184.244C203.343 184.575 203.835 184.775 204.488 184.844C204.917 184.889 205.346 184.866 205.778 184.774C206.221 184.673 206.632 184.511 207.008 184.288L207.505 186.067C207.066 186.34 206.544 186.536 205.939 186.655C205.345 186.774 204.755 186.804 204.169 186.742C202.772 186.595 201.707 186.096 200.976 185.244C200.258 184.382 199.968 183.286 200.108 181.956C200.197 181.111 200.451 180.38 200.869 179.763C201.287 179.146 201.825 178.69 202.483 178.394C203.142 178.087 203.866 177.975 204.655 178.058C205.816 178.18 206.694 178.654 207.291 179.481C207.9 180.308 208.135 181.37 207.999 182.666L207.933 183.292ZM204.537 179.824C204.053 179.773 203.647 179.89 203.321 180.174C203.007 180.449 202.786 180.876 202.657 181.455L205.92 181.798C205.949 181.197 205.844 180.73 205.605 180.397C205.378 180.066 205.022 179.875 204.537 179.824ZM90.4083 198.935C89.5066 198.84 88.6511 198.63 87.842 198.306C87.0339 197.97 86.3763 197.559 85.869 197.073L86.9116 195.285C87.9772 196.206 89.2257 196.742 90.6571 196.892C91.401 196.971 91.9827 196.912 92.402 196.717C92.8339 196.511 93.0723 196.195 93.1173 195.766C93.1576 195.383 93.003 195.065 92.6536 194.812C92.3154 194.56 91.6892 194.283 90.775 193.982C89.7493 193.657 88.9368 193.31 88.3376 192.939C87.7497 192.57 87.3323 192.15 87.0855 191.679C86.8511 191.199 86.7682 190.632 86.8369 189.978C86.9127 189.257 87.1775 188.635 87.6312 188.113C88.0962 187.592 88.706 187.212 89.4605 186.972C90.2163 186.721 91.0675 186.645 92.0143 186.745C92.8596 186.833 93.6581 187.043 94.4098 187.372C95.1727 187.703 95.7633 188.102 96.1816 188.567L95.139 190.355C94.1298 189.44 93.0222 188.919 91.8162 188.792C91.1286 188.72 90.5734 188.798 90.1505 189.027C89.7287 189.245 89.4936 189.585 89.445 190.047C89.4166 190.318 89.4661 190.551 89.5937 190.747C89.7337 190.932 89.9713 191.111 90.3065 191.283C90.653 191.456 91.1454 191.65 91.7837 191.866C93.2811 192.365 94.3344 192.914 94.9437 193.514C95.5643 194.115 95.8255 194.883 95.7272 195.818C95.6087 196.946 95.0812 197.79 94.1446 198.353C93.2091 198.904 91.9637 199.098 90.4083 198.935ZM101 200.031C99.6474 199.889 98.6226 199.393 97.9254 198.545C97.2283 197.697 96.949 196.614 97.0876 195.295C97.1788 194.427 97.4447 193.686 97.8854 193.071C98.3273 192.445 98.9053 191.987 99.6194 191.698C100.334 191.408 101.136 191.31 102.026 191.404C102.635 191.468 103.211 191.625 103.754 191.876C104.299 192.116 104.73 192.411 105.046 192.764L104.186 194.434C103.887 194.141 103.547 193.905 103.167 193.729C102.799 193.542 102.429 193.429 102.057 193.39C101.392 193.32 100.853 193.463 100.439 193.818C100.037 194.175 99.7952 194.742 99.7135 195.52C99.6317 196.297 99.7499 196.908 100.068 197.352C100.398 197.785 100.896 198.037 101.561 198.107C101.933 198.146 102.318 198.118 102.715 198.023C103.125 197.918 103.507 197.753 103.861 197.528L104.353 199.357C103.948 199.634 103.448 199.832 102.854 199.952C102.261 200.072 101.642 200.098 101 200.031ZM109.992 192.241C111.232 192.371 112.114 192.76 112.638 193.408C113.174 194.057 113.377 194.996 113.248 196.224L112.733 201.127L110.315 200.873L110.445 199.639C110.231 200.049 109.914 200.358 109.493 200.564C109.074 200.76 108.599 200.829 108.069 200.774C107.506 200.714 107.005 200.548 106.566 200.274C106.139 200.001 105.812 199.648 105.584 199.213C105.367 198.78 105.285 198.316 105.337 197.82C105.401 197.211 105.604 196.748 105.945 196.431C106.297 196.115 106.825 195.914 107.529 195.828C108.234 195.743 109.183 195.763 110.378 195.888L110.817 195.934L110.849 195.63C110.901 195.134 110.831 194.774 110.638 194.548C110.445 194.323 110.084 194.182 109.554 194.127C109.149 194.084 108.69 194.11 108.179 194.204C107.667 194.299 107.173 194.452 106.695 194.664L106.198 192.885C106.702 192.642 107.308 192.46 108.016 192.341C108.736 192.211 109.395 192.178 109.992 192.241ZM108.812 199.074C109.308 199.126 109.725 199.005 110.064 198.71C110.404 198.404 110.602 197.986 110.657 197.456L110.688 197.169L110.4 197.138C109.487 197.042 108.837 197.048 108.45 197.156C108.074 197.264 107.865 197.51 107.825 197.893C107.793 198.198 107.868 198.462 108.05 198.686C108.242 198.912 108.497 199.041 108.812 199.074ZM114.642 201.328L115.895 189.408L118.448 189.677L117.195 201.596L114.642 201.328ZM123.729 193.685C124.969 193.815 125.851 194.204 126.375 194.852C126.911 195.501 127.114 196.439 126.985 197.668L126.47 202.571L124.052 202.317L124.182 201.083C123.968 201.493 123.651 201.802 123.23 202.008C122.811 202.203 122.336 202.273 121.806 202.218C121.243 202.158 120.742 201.992 120.303 201.718C119.876 201.445 119.549 201.091 119.321 200.657C119.104 200.224 119.022 199.76 119.074 199.264C119.138 198.655 119.341 198.192 119.682 197.875C120.034 197.558 120.562 197.358 121.266 197.272C121.97 197.186 122.92 197.206 124.115 197.332L124.554 197.378L124.586 197.074C124.638 196.578 124.568 196.217 124.375 195.992C124.182 195.767 123.821 195.626 123.291 195.57C122.885 195.528 122.427 195.554 121.916 195.648C121.404 195.742 120.91 195.895 120.431 196.107L119.935 194.329C120.439 194.085 121.045 193.904 121.752 193.785C122.473 193.655 123.131 193.622 123.729 193.685ZM122.549 200.518C123.045 200.57 123.462 200.449 123.801 200.154C124.141 199.848 124.339 199.43 124.394 198.9L124.424 198.612L124.137 198.582C123.224 198.486 122.574 198.492 122.187 198.599C121.81 198.708 121.602 198.954 121.562 199.337C121.53 199.642 121.605 199.906 121.786 200.13C121.979 200.355 122.233 200.485 122.549 200.518ZM134.412 194.808C135.134 194.883 135.752 195.125 136.268 195.533C136.783 195.94 137.159 196.487 137.394 197.172C137.642 197.848 137.721 198.614 137.631 199.471C137.541 200.327 137.304 201.071 136.918 201.703C136.545 202.325 136.057 202.792 135.455 203.105C134.864 203.408 134.214 203.522 133.504 203.447C132.929 203.387 132.423 203.214 131.986 202.928C131.55 202.632 131.23 202.256 131.027 201.802L130.898 203.036L128.379 202.772L129.631 190.852L132.184 191.121L131.687 195.854C131.979 195.463 132.362 195.179 132.836 195.001C133.323 194.813 133.849 194.748 134.412 194.808ZM132.965 201.425C133.562 201.487 134.046 201.327 134.417 200.945C134.789 200.551 135.015 199.971 135.095 199.204C135.175 198.449 135.072 197.857 134.786 197.428C134.502 196.988 134.061 196.736 133.464 196.674C132.867 196.611 132.382 196.771 132.012 197.154C131.642 197.525 131.418 198.088 131.338 198.843C131.258 199.61 131.359 200.219 131.642 200.67C131.926 201.11 132.367 201.362 132.965 201.425ZM138.747 203.861L140 191.942L142.553 192.21L141.3 204.13L138.747 203.861ZM151.113 201.452L145.703 200.883C145.712 201.556 145.875 202.064 146.193 202.405C146.522 202.736 147.014 202.935 147.668 203.004C148.096 203.049 148.526 203.026 148.957 202.935C149.401 202.833 149.811 202.671 150.188 202.448L150.685 204.227C150.246 204.5 149.724 204.696 149.119 204.815C148.525 204.935 147.935 204.964 147.349 204.902C145.951 204.755 144.887 204.256 144.156 203.404C143.437 202.542 143.148 201.446 143.288 200.116C143.377 199.271 143.63 198.54 144.048 197.923C144.466 197.306 145.004 196.85 145.662 196.554C146.321 196.247 147.045 196.135 147.834 196.218C148.995 196.34 149.874 196.814 150.471 197.641C151.079 198.468 151.315 199.53 151.179 200.826L151.113 201.452ZM147.717 197.984C147.232 197.933 146.827 198.05 146.501 198.335C146.187 198.609 145.965 199.036 145.836 199.615L149.099 199.958C149.128 199.357 149.023 198.89 148.785 198.558C148.558 198.226 148.202 198.035 147.717 197.984ZM165.502 200.434C166.168 200.709 166.66 201.12 166.979 201.666C167.31 202.203 167.437 202.837 167.36 203.57C167.255 204.573 166.799 205.328 165.994 205.836C165.2 206.345 164.154 206.532 162.858 206.396L157.194 205.8L158.447 193.881L163.942 194.458C165.182 194.589 166.133 194.968 166.797 195.596C167.471 196.225 167.758 197.019 167.657 197.977C167.592 198.597 167.366 199.126 166.978 199.564C166.602 199.991 166.11 200.282 165.502 200.434ZM160.507 199.003L162.992 199.264C163.669 199.336 164.176 199.275 164.516 199.083C164.867 198.88 165.068 198.542 165.118 198.069C165.17 197.573 165.045 197.195 164.741 196.936C164.451 196.666 163.967 196.495 163.291 196.424L160.806 196.163L160.507 199.003ZM162.765 204.352C163.464 204.425 163.984 204.36 164.324 204.156C164.665 203.953 164.863 203.586 164.919 203.057C164.974 202.527 164.857 202.121 164.568 201.84C164.278 201.559 163.784 201.382 163.085 201.308L160.296 201.015L159.976 204.058L162.765 204.352ZM175.256 201.22L173.803 201.221C173.086 201.214 172.563 201.364 172.234 201.672C171.907 201.968 171.714 202.392 171.656 202.944L171.201 207.272L168.648 207.004L169.521 198.703L171.972 198.96L171.825 200.364C172.342 199.449 173.26 199.016 174.577 199.063L175.326 199.091L175.256 201.22ZM179.245 208.255C178.365 208.162 177.612 207.906 176.983 207.487C176.356 207.056 175.896 206.501 175.603 205.821C175.311 205.129 175.211 204.344 175.304 203.464C175.396 202.585 175.656 201.843 176.085 201.239C176.514 200.623 177.08 200.175 177.781 199.896C178.483 199.616 179.273 199.523 180.153 199.615C181.032 199.708 181.786 199.963 182.414 200.383C183.042 200.802 183.502 201.357 183.794 202.049C184.087 202.729 184.188 203.509 184.095 204.388C184.003 205.268 183.742 206.015 183.313 206.631C182.884 207.235 182.319 207.683 181.616 207.974C180.914 208.253 180.124 208.347 179.245 208.255ZM179.449 206.31C180.689 206.441 181.392 205.711 181.559 204.122C181.643 203.322 181.543 202.707 181.257 202.278C180.983 201.851 180.547 201.605 179.95 201.543C178.71 201.412 178.007 202.142 177.84 203.731C177.673 205.32 178.209 206.18 179.449 206.31ZM194.067 209.676L190.94 209.347L188.15 205.31L187.761 209.013L185.208 208.745L186.461 196.825L189.014 197.094L188.26 204.262L191.692 201.05L194.735 201.37L190.837 204.96L194.067 209.676ZM202.412 206.843L197.001 206.275C197.01 206.948 197.174 207.455 197.491 207.796C197.821 208.127 198.313 208.327 198.966 208.396C199.395 208.441 199.825 208.418 200.256 208.326C200.7 208.225 201.11 208.063 201.486 207.84L201.983 209.619C201.544 209.892 201.022 210.088 200.417 210.206C199.823 210.326 199.233 210.355 198.647 210.294C197.25 210.147 196.185 209.648 195.454 208.796C194.736 207.934 194.447 206.838 194.586 205.508C194.675 204.663 194.929 203.932 195.347 203.315C195.765 202.698 196.303 202.241 196.961 201.946C197.62 201.639 198.344 201.527 199.133 201.61C200.294 201.732 201.173 202.206 201.769 203.032C202.378 203.86 202.614 204.922 202.477 206.218L202.412 206.843ZM199.016 203.375C198.531 203.324 198.125 203.441 197.799 203.726C197.485 204.001 197.264 204.428 197.135 205.007L200.398 205.35C200.427 204.749 200.322 204.282 200.083 203.949C199.856 203.618 199.5 203.426 199.016 203.375ZM210.176 204.89L208.723 204.891C208.005 204.884 207.483 205.035 207.154 205.342C206.827 205.638 206.634 206.062 206.576 206.614L206.121 210.943L203.568 210.674L204.44 202.373L206.892 202.631L206.744 204.034C207.262 203.12 208.18 202.686 209.496 202.733L210.246 202.761L210.176 204.89ZM119.221 226.078C118.342 225.986 117.588 225.73 116.96 225.31C116.333 224.88 115.873 224.324 115.58 223.644C115.288 222.952 115.188 222.167 115.28 221.288C115.373 220.409 115.633 219.667 116.061 219.062C116.491 218.446 117.056 217.999 117.758 217.719C118.46 217.44 119.25 217.346 120.129 217.439C121.008 217.531 121.762 217.787 122.39 218.206C123.019 218.625 123.479 219.181 123.771 219.873C124.064 220.553 124.164 221.333 124.072 222.212C123.979 223.091 123.719 223.839 123.289 224.454C122.861 225.059 122.295 225.507 121.592 225.797C120.891 226.077 120.1 226.17 119.221 226.078ZM119.426 224.134C120.665 224.264 121.369 223.535 121.536 221.945C121.62 221.145 121.519 220.531 121.234 220.102C120.96 219.674 120.524 219.429 119.927 219.366C118.687 219.236 117.983 219.965 117.816 221.554C117.649 223.144 118.186 224.003 119.426 224.134ZM131.793 220.784L130.339 220.785C129.622 220.778 129.099 220.928 128.771 221.236C128.443 221.532 128.251 221.956 128.193 222.508L127.738 226.836L125.185 226.568L126.057 218.267L128.509 218.524L128.361 219.928C128.879 219.013 129.796 218.58 131.113 218.627L131.863 218.655L131.793 220.784ZM136.693 227.778L137.945 215.858L140.498 216.127L139.246 228.046L136.693 227.778ZM145.176 228.806C144.297 228.714 143.543 228.458 142.915 228.038C142.288 227.608 141.827 227.052 141.534 226.372C141.242 225.68 141.143 224.895 141.235 224.016C141.327 223.137 141.588 222.395 142.016 221.79C142.445 221.174 143.011 220.727 143.713 220.447C144.414 220.168 145.205 220.074 146.084 220.167C146.963 220.259 147.717 220.515 148.345 220.934C148.973 221.353 149.433 221.909 149.725 222.601C150.019 223.281 150.119 224.061 150.027 224.94C149.934 225.819 149.673 226.566 149.244 227.182C148.816 227.787 148.25 228.235 147.547 228.525C146.845 228.805 146.055 228.898 145.176 228.806ZM145.38 226.862C146.62 226.992 147.323 226.263 147.491 224.673C147.575 223.873 147.474 223.258 147.189 222.83C146.914 222.402 146.479 222.157 145.881 222.094C144.641 221.964 143.938 222.693 143.771 224.282C143.604 225.872 144.14 226.731 145.38 226.862ZM160.482 221.885L159.704 229.29C159.563 230.631 159.073 231.606 158.234 232.213C157.396 232.82 156.227 233.044 154.728 232.887C153.984 232.809 153.278 232.643 152.609 232.391C151.952 232.139 151.381 231.823 150.897 231.441L151.758 229.754C152.767 230.453 153.801 230.858 154.861 230.969C156.259 231.116 157.027 230.53 157.165 229.211L157.261 228.298C156.98 228.702 156.589 229.003 156.09 229.201C155.59 229.399 155.047 229.467 154.461 229.406C153.74 229.33 153.115 229.093 152.587 228.696C152.07 228.3 151.687 227.775 151.436 227.122C151.187 226.458 151.106 225.714 151.192 224.891C151.279 224.069 151.512 223.364 151.893 222.777C152.275 222.179 152.76 221.74 153.348 221.46C153.948 221.17 154.609 221.063 155.33 221.138C155.905 221.199 156.41 221.377 156.846 221.674C157.295 221.96 157.621 222.331 157.824 222.785L157.946 221.618L160.482 221.885ZM155.409 227.54C156.007 227.603 156.489 227.459 156.856 227.111C157.235 226.763 157.46 226.245 157.532 225.558C157.604 224.87 157.492 224.317 157.194 223.898C156.908 223.469 156.467 223.224 155.87 223.161C155.272 223.098 154.784 223.246 154.404 223.605C154.026 223.953 153.8 224.47 153.728 225.158C153.657 225.834 153.77 226.387 154.067 226.817C154.364 227.236 154.812 227.477 155.409 227.54ZM166.296 230.889L167.169 222.588L169.722 222.856L168.849 231.157L166.296 230.889ZM167.504 218.589L170.242 218.877L169.992 221.261L167.253 220.973L167.504 218.589ZM176.905 223.406C177.897 223.51 178.604 223.881 179.027 224.518C179.451 225.144 179.602 226.043 179.479 227.215L178.953 232.219L176.4 231.951L176.913 227.065C176.973 226.501 176.909 226.079 176.722 225.797C176.546 225.516 176.239 225.353 175.799 225.307C175.269 225.251 174.823 225.375 174.461 225.679C174.11 225.984 173.904 226.418 173.845 226.982L173.357 231.631L170.804 231.363L171.676 223.062L174.161 223.323L174.037 224.506C174.377 224.086 174.791 223.782 175.278 223.594C175.776 223.407 176.319 223.344 176.905 223.406Z" fill="white"/>
</g>
<defs>
<filter id="filter0_d_101_7472" x="-1.99999" y="391.546" width="284.874" height="235.1" filterUnits="userSpaceOnUse" color-interpolation-filters="sRGB">
<feFlood flood-opacity="0" result="BackgroundImageFix"/>
<feColorMatrix in="SourceAlpha" type="matrix" values="0 0 0 0 0 0 0 0 0 0 0 0 0 0 0 0 0 0 127 0" result="hardAlpha"/>
<feOffset/>
<feGaussianBlur stdDeviation="15"/>
<feComposite in2="hardAlpha" operator="out"/>
<feColorMatrix type="matrix" values="0 0 0 0 0 0 0 0 0 0 0 0 0 0 0 0 0 0 0.4 0"/>
<feBlend mode="normal" in2="BackgroundImageFix" result="effect1_dropShadow_101_7472"/>
<feBlend mode="normal" in="SourceGraphic" in2="effect1_dropShadow_101_7472" result="shape"/>
</filter>
<filter id="filter1_d_101_7472" x="50.3858" y="228.488" width="279.923" height="255.206" filterUnits="userSpaceOnUse" color-interpolation-filters="sRGB">
<feFlood flood-opacity="0" result="BackgroundImageFix"/>
<feColorMatrix in="SourceAlpha" type="matrix" values="0 0 0 0 0 0 0 0 0 0 0 0 0 0 0 0 0 0 127 0" result="hardAlpha"/>
<feOffset/>
<feGaussianBlur stdDeviation="15"/>
<feComposite in2="hardAlpha" operator="out"/>
<feColorMatrix type="matrix" values="0 0 0 0 0 0 0 0 0 0 0 0 0 0 0 0 0 0 0.4 0"/>
<feBlend mode="normal" in2="BackgroundImageFix" result="effect1_dropShadow_101_7472"/>
<feBlend mode="normal" in="SourceGraphic" in2="effect1_dropShadow_101_7472" result="shape"/>
</filter>
<filter id="filter2_d_101_7472" x="-1.81198e-05" y="-2" width="310.24" height="308.58" filterUnits="userSpaceOnUse" color-interpolation-filters="sRGB">
<feFlood flood-opacity="0" result="BackgroundImageFix"/>
<feColorMatrix in="SourceAlpha" type="matrix" values="0 0 0 0 0 0 0 0 0 0 0 0 0 0 0 0 0 0 127 0" result="hardAlpha"/>
<feOffset/>
<feGaussianBlur stdDeviation="15"/>
<feComposite in2="hardAlpha" operator="out"/>
<feColorMatrix type="matrix" values="0 0 0 0 0 0 0 0 0 0 0 0 0 0 0 0 0 0 0.4 0"/>
<feBlend mode="normal" in2="BackgroundImageFix" result="effect1_dropShadow_101_7472"/>
<feBlend mode="normal" in="SourceGraphic" in2="effect1_dropShadow_101_7472" result="shape"/>
</filter>
<linearGradient id="paint0_linear_101_7472" x1="262.767" y1="432.389" x2="234.37" y2="501.954" gradientUnits="userSpaceOnUse">
<stop stop-color="#28EBCF" stop-opacity="0"/>
<stop offset="1" stop-color="#28EBCF"/>
</linearGradient>
<linearGradient id="paint1_linear_101_7472" x1="77.8676" y1="249.723" x2="93.6351" y2="329.602" gradientUnits="userSpaceOnUse">
<stop stop-color="#28EBCF" stop-opacity="0"/>
<stop offset="1" stop-color="#28EBCF"/>
</linearGradient>
<clipPath id="clip0_101_7472">
<rect width="40" height="36" fill="white" transform="translate(124.414 470.208) rotate(6)"/>
</clipPath>
<clipPath id="clip1_101_7472">
<rect width="40" height="40" fill="white" transform="translate(165.979 307.029) rotate(-5)"/>
</clipPath>
<clipPath id="clip2_101_7472">
<rect width="40" height="36" fill="white" transform="translate(142.86 77.5996) rotate(6)"/>
</clipPath>
</defs>
</svg>
