<svg width="556" height="152" viewBox="0 0 556 152" fill="none" xmlns="http://www.w3.org/2000/svg">
<mask id="mask0_226_883" style="mask-type:alpha" maskUnits="userSpaceOnUse" x="0" y="0" width="556" height="152">
<path d="M540 0H16C7.16344 0 0 7.16344 0 16V136C0 144.837 7.16344 152 16 152H540C548.837 152 556 144.837 556 136V16C556 7.16344 548.837 0 540 0Z" fill="white"/>
</mask>
<g mask="url(#mask0_226_883)">
<path d="M540 0H16C7.16344 0 0 7.16344 0 16V136C0 144.837 7.16344 152 16 152H540C548.837 152 556 144.837 556 136V16C556 7.16344 548.837 0 540 0Z" fill="#1E1F21"/>
<path fill-rule="evenodd" clip-rule="evenodd" d="M507.482 -76.722V-69.3327L490.38 -72.4112L484.018 -61.371L460.95 -58.9075L438.679 -46.1828L431.917 -53.9817L441.464 -52.7518L445.043 -57.0188L423.168 -67.4854L386.977 -41.0103L389.364 -31.815L400.102 -35.4696L401.692 -28.1228L408.056 -30.1743L408.454 -42.9002L417.202 -52.341L421.18 -49.4667L413.623 -41.0103L419.987 -35.4696L415.214 -24.0161L392.545 -22.3742L375.443 -10.4711L380.217 -5.13453L378.625 -1.02907L365.737 -0.61953L372.66 12.928L380.613 9.23206L383 3.89673L388.17 -1.02907L395.33 -1.43987L406.465 7.18059L408.056 3.89673L399.704 -6.77521L403.681 -7.5968L411.237 1.02366L414.817 11.6956L418.794 8.82253V3.89673L422.373 4.30627L425.157 11.2848L436.293 10.8753L435.896 19.9053L429.133 23L415.214 18.6741L409.646 23L398.908 17.8538L396.757 11.9386L368.122 17.4806L355 35.9138V53.8072L372.298 69.8157L390.791 63.6575L396.757 69.8157L403.318 91.9799L398.546 106.756L411.671 132H422.407L433.145 120.302L437.916 104.909L445.671 98.1369L442.689 82.1283L455.813 67.3522L461.778 53.8072L448.655 57.5006L434.337 28.562L437.321 24.2537L449.847 50.7287L471.918 45.8029L467.743 32.8729L460.585 35.9138L456.409 23.6375L461.182 23.0213L468.937 28.562L482.656 31.6417L491.605 40.2622L502.939 63.0426L508.307 47.0341L522.026 35.9138L533.1 48.1575L534.451 57.9139L541.712 69.1995L545.292 67.3522L536.837 56.9007L537.538 50.7287L545.292 59.3467L551.854 52.3694L545.49 41.6975L551.854 35.9138H564.381L571.539 22.4063L569.153 8.8601L575.118 3.9343L578.699 16.8644L581.679 12.556V3.9343L591.225 -2.22138L599.62 -21.2858L593.61 -23.7719L603.156 -35.4696H619.858L620 -35.5886V-68.9282L599.751 -72.4112L583.046 -67.4854L574.296 -76.722H560.774L545.663 -86L507.482 -76.722Z" fill="#2E3133"/>
<path fill-rule="evenodd" clip-rule="evenodd" d="M449.731 100.681V118.141L457.79 115.75L461.148 99.4848L457.79 94.4624C456.447 95.4195 449.731 100.681 449.731 100.681Z" fill="#2E3133"/>
<path fill-rule="evenodd" clip-rule="evenodd" d="M531.306 64.6738L528.134 67.1115L543.595 83.7689L547.163 78.081L531.306 64.6738Z" fill="#2E3133"/>
<path fill-rule="evenodd" clip-rule="evenodd" d="M562.387 85.6793L547.634 82.2422L545.641 86.69L562.387 89.1165V85.6793Z" fill="#2E3133"/>
<path fill-rule="evenodd" clip-rule="evenodd" d="M556.178 72.3121L550.97 74.1216L555.777 79.9503H561.787L566.194 70.7044L563.389 64.6738L556.178 72.3121Z" fill="#2E3133"/>
</g>
<path d="M26.547 85.015H30.406C32.31 85.015 33.7777 85.5363 34.809 86.579C35.8403 87.6103 36.356 89.0836 36.356 90.999C36.356 92.9143 35.8347 94.3933 34.792 95.436C33.7607 96.4786 32.2987 97 30.406 97H26.547V85.015ZM30.355 96.082C31.9757 96.082 33.194 95.657 34.01 94.807C34.8373 93.957 35.251 92.6876 35.251 90.999C35.251 87.6216 33.619 85.933 30.355 85.933H27.601V96.082H30.355Z" fill="white"/>
<path d="M44.8041 88.755H45.8581L40.9961 100.06H39.9421L41.2851 97L37.7491 88.755H38.8541L41.8291 95.946L44.8041 88.755Z" fill="white"/>
<path d="M51.388 88.551C53.3713 88.551 54.363 89.6163 54.363 91.747V97H53.326V91.815C53.326 90.999 53.1617 90.404 52.833 90.03C52.5043 89.656 51.983 89.469 51.269 89.469C50.453 89.469 49.7957 89.7183 49.297 90.217C48.8097 90.7156 48.566 91.3843 48.566 92.223V97H47.529V88.755H48.549V90.166C48.8097 89.6446 49.1837 89.248 49.671 88.976C50.1697 88.6926 50.742 88.551 51.388 88.551Z" fill="white"/>
<path d="M60.3648 88.551C61.3621 88.551 62.1045 88.8116 62.5918 89.333C63.0905 89.8543 63.3398 90.642 63.3398 91.696V97H62.3198V95.521C62.0818 96.031 61.7361 96.4276 61.2828 96.711C60.8295 96.983 60.3081 97.119 59.7188 97.119C59.1861 97.119 58.6988 97.0113 58.2568 96.796C57.8148 96.5806 57.4635 96.2803 57.2028 95.895C56.9535 95.5096 56.8288 95.0846 56.8288 94.62C56.8288 94.008 56.9875 93.532 57.3048 93.192C57.6221 92.852 58.1491 92.6083 58.8858 92.461C59.6225 92.3136 60.6481 92.24 61.9628 92.24H62.3198V91.611C62.3198 90.863 62.1668 90.319 61.8608 89.979C61.5548 89.6276 61.0731 89.452 60.4158 89.452C59.9171 89.452 59.4355 89.5256 58.9708 89.673C58.5175 89.809 58.0471 90.0356 57.5598 90.353L57.1688 89.554C57.5881 89.248 58.0868 89.0043 58.6648 88.823C59.2428 88.6416 59.8095 88.551 60.3648 88.551ZM59.8038 96.218C60.5405 96.218 61.1411 95.9686 61.6058 95.47C62.0818 94.9713 62.3198 94.3366 62.3198 93.566V93.005H61.9968C60.9088 93.005 60.0758 93.0503 59.4978 93.141C58.9198 93.2316 58.5118 93.3903 58.2738 93.617C58.0358 93.8323 57.9168 94.1496 57.9168 94.569C57.9168 95.045 58.0981 95.4416 58.4608 95.759C58.8235 96.065 59.2711 96.218 59.8038 96.218Z" fill="white"/>
<path d="M74.9995 88.551C76.8242 88.551 77.7365 89.6163 77.7365 91.747V97H76.6995V91.815C76.6995 90.9876 76.5522 90.3926 76.2575 90.03C75.9629 89.656 75.4925 89.469 74.8465 89.469C74.1099 89.469 73.5205 89.7183 73.0785 90.217C72.6479 90.7156 72.4325 91.39 72.4325 92.24V97H71.3955V91.815C71.3955 90.9876 71.2482 90.3926 70.9535 90.03C70.6589 89.656 70.1885 89.469 69.5425 89.469C68.8059 89.469 68.2165 89.7183 67.7745 90.217C67.3439 90.7156 67.1285 91.39 67.1285 92.24V97H66.0915V88.755H67.1115V90.115C67.3495 89.605 67.6895 89.2196 68.1315 88.959C68.5849 88.687 69.1062 88.551 69.6955 88.551C71.0215 88.551 71.8659 89.095 72.2285 90.183C72.4665 89.673 72.8292 89.2763 73.3165 88.993C73.8039 88.6983 74.3649 88.551 74.9995 88.551Z" fill="white"/>
<path d="M80.4612 97V88.755H81.4982V97H80.4612ZM80.3082 85.27H81.6682V86.579H80.3082V85.27Z" fill="white"/>
<path d="M87.6212 97.119C86.8392 97.119 86.1536 96.9433 85.5642 96.592C84.9862 96.2406 84.5386 95.742 84.2212 95.096C83.9039 94.45 83.7452 93.7076 83.7452 92.869C83.7452 92.019 83.9039 91.2653 84.2212 90.608C84.5499 89.9506 85.0089 89.4463 85.5982 89.095C86.1876 88.7323 86.8789 88.551 87.6722 88.551C88.2276 88.551 88.7602 88.6473 89.2702 88.84C89.7916 89.0326 90.2109 89.299 90.5282 89.639L90.1372 90.455C89.7179 90.1036 89.3099 89.8486 88.9132 89.69C88.5279 89.5313 88.1256 89.452 87.7062 89.452C86.8222 89.452 86.1196 89.758 85.5982 90.37C85.0882 90.9706 84.8332 91.8036 84.8332 92.869C84.8332 93.923 85.0882 94.7446 85.5982 95.334C86.1082 95.912 86.8052 96.201 87.6892 96.201C88.1086 96.201 88.5109 96.1216 88.8962 95.963C89.2929 95.8043 89.7066 95.555 90.1372 95.215L90.5282 96.014C90.1882 96.354 89.7576 96.626 89.2362 96.83C88.7149 97.0226 88.1766 97.119 87.6212 97.119Z" fill="white"/>
<path d="M100.058 97.119C99.2758 97.119 98.5901 96.9433 98.0008 96.592C97.4228 96.2406 96.9751 95.742 96.6578 95.096C96.3405 94.45 96.1818 93.7076 96.1818 92.869C96.1818 92.019 96.3405 91.2653 96.6578 90.608C96.9865 89.9506 97.4455 89.4463 98.0348 89.095C98.6241 88.7323 99.3155 88.551 100.109 88.551C100.664 88.551 101.197 88.6473 101.707 88.84C102.228 89.0326 102.647 89.299 102.965 89.639L102.574 90.455C102.154 90.1036 101.746 89.8486 101.35 89.69C100.964 89.5313 100.562 89.452 100.143 89.452C99.2588 89.452 98.5561 89.758 98.0348 90.37C97.5248 90.9706 97.2698 91.8036 97.2698 92.869C97.2698 93.923 97.5248 94.7446 98.0348 95.334C98.5448 95.912 99.2418 96.201 100.126 96.201C100.545 96.201 100.947 96.1216 101.333 95.963C101.729 95.8043 102.143 95.555 102.574 95.215L102.965 96.014C102.625 96.354 102.194 96.626 101.673 96.83C101.151 97.0226 100.613 97.119 100.058 97.119Z" fill="white"/>
<path d="M108.101 97.119C107.341 97.119 106.673 96.9433 106.095 96.592C105.528 96.2406 105.086 95.742 104.769 95.096C104.451 94.45 104.293 93.6963 104.293 92.835C104.293 91.9736 104.451 91.22 104.769 90.574C105.086 89.928 105.528 89.4293 106.095 89.078C106.673 88.7266 107.341 88.551 108.101 88.551C108.849 88.551 109.512 88.7266 110.09 89.078C110.668 89.4293 111.11 89.928 111.416 90.574C111.733 91.22 111.892 91.9736 111.892 92.835C111.892 93.6963 111.733 94.45 111.416 95.096C111.11 95.742 110.668 96.2406 110.09 96.592C109.512 96.9433 108.849 97.119 108.101 97.119ZM108.084 96.201C108.956 96.201 109.631 95.912 110.107 95.334C110.583 94.756 110.821 93.923 110.821 92.835C110.821 91.7696 110.577 90.9423 110.09 90.353C109.614 89.7523 108.951 89.452 108.101 89.452C107.239 89.452 106.571 89.7523 106.095 90.353C105.619 90.9423 105.381 91.7696 105.381 92.835C105.381 93.923 105.613 94.756 106.078 95.334C106.542 95.912 107.211 96.201 108.084 96.201Z" fill="white"/>
<path d="M123.034 88.551C124.858 88.551 125.771 89.6163 125.771 91.747V97H124.734V91.815C124.734 90.9876 124.587 90.3926 124.292 90.03C123.997 89.656 123.527 89.469 122.881 89.469C122.144 89.469 121.555 89.7183 121.113 90.217C120.682 90.7156 120.467 91.39 120.467 92.24V97H119.43V91.815C119.43 90.9876 119.283 90.3926 118.988 90.03C118.693 89.656 118.223 89.469 117.577 89.469C116.84 89.469 116.251 89.7183 115.809 90.217C115.378 90.7156 115.163 91.39 115.163 92.24V97H114.126V88.755H115.146V90.115C115.384 89.605 115.724 89.2196 116.166 88.959C116.619 88.687 117.14 88.551 117.73 88.551C119.056 88.551 119.9 89.095 120.263 90.183C120.501 89.673 120.863 89.2763 121.351 88.993C121.838 88.6983 122.399 88.551 123.034 88.551Z" fill="white"/>
<path d="M132.371 88.551C133.097 88.551 133.737 88.7323 134.292 89.095C134.848 89.4463 135.278 89.9506 135.584 90.608C135.89 91.254 136.043 92.0076 136.043 92.869C136.043 93.719 135.89 94.467 135.584 95.113C135.278 95.7476 134.848 96.2406 134.292 96.592C133.737 96.9433 133.097 97.119 132.371 97.119C131.703 97.119 131.125 96.9773 130.637 96.694C130.15 96.3993 129.782 95.9743 129.532 95.419V100.06H128.495V88.755H129.532V90.251C129.782 89.6956 130.15 89.2763 130.637 88.993C131.125 88.6983 131.703 88.551 132.371 88.551ZM132.218 96.201C133.091 96.201 133.765 95.912 134.241 95.334C134.729 94.7446 134.972 93.923 134.972 92.869C134.972 91.7923 134.729 90.9536 134.241 90.353C133.765 89.7523 133.097 89.452 132.235 89.452C131.374 89.452 130.705 89.7466 130.229 90.336C129.765 90.9253 129.532 91.7583 129.532 92.835C129.532 93.9116 129.765 94.7446 130.229 95.334C130.694 95.912 131.357 96.201 132.218 96.201Z" fill="white"/>
<path d="M141.547 88.551C142.544 88.551 143.287 88.8116 143.774 89.333C144.273 89.8543 144.522 90.642 144.522 91.696V97H143.502V95.521C143.264 96.031 142.918 96.4276 142.465 96.711C142.012 96.983 141.49 97.119 140.901 97.119C140.368 97.119 139.881 97.0113 139.439 96.796C138.997 96.5806 138.646 96.2803 138.385 95.895C138.136 95.5096 138.011 95.0846 138.011 94.62C138.011 94.008 138.17 93.532 138.487 93.192C138.804 92.852 139.331 92.6083 140.068 92.461C140.805 92.3136 141.83 92.24 143.145 92.24H143.502V91.611C143.502 90.863 143.349 90.319 143.043 89.979C142.737 89.6276 142.255 89.452 141.598 89.452C141.099 89.452 140.618 89.5256 140.153 89.673C139.7 89.809 139.229 90.0356 138.742 90.353L138.351 89.554C138.77 89.248 139.269 89.0043 139.847 88.823C140.425 88.6416 140.992 88.551 141.547 88.551ZM140.986 96.218C141.723 96.218 142.323 95.9686 142.788 95.47C143.264 94.9713 143.502 94.3366 143.502 93.566V93.005H143.179C142.091 93.005 141.258 93.0503 140.68 93.141C140.102 93.2316 139.694 93.3903 139.456 93.617C139.218 93.8323 139.099 94.1496 139.099 94.569C139.099 95.045 139.28 95.4416 139.643 95.759C140.006 96.065 140.453 96.218 140.986 96.218Z" fill="white"/>
<path d="M151.133 88.551C153.116 88.551 154.108 89.6163 154.108 91.747V97H153.071V91.815C153.071 90.999 152.907 90.404 152.578 90.03C152.249 89.656 151.728 89.469 151.014 89.469C150.198 89.469 149.54 89.7183 149.042 90.217C148.554 90.7156 148.311 91.3843 148.311 92.223V97H147.274V88.755H148.294V90.166C148.554 89.6446 148.928 89.248 149.416 88.976C149.914 88.6926 150.487 88.551 151.133 88.551Z" fill="white"/>
<path d="M156.846 97V88.755H157.883V97H156.846ZM156.693 85.27H158.053V86.579H156.693V85.27Z" fill="white"/>
<path d="M167.44 93.005H161.201C161.235 94.0363 161.507 94.8296 162.017 95.385C162.527 95.929 163.252 96.201 164.193 96.201C165.19 96.201 166.091 95.861 166.896 95.181L167.304 95.997C166.941 96.337 166.476 96.609 165.91 96.813C165.354 97.017 164.782 97.119 164.193 97.119C162.935 97.119 161.943 96.7393 161.218 95.98C160.492 95.2206 160.13 94.178 160.13 92.852C160.13 92.002 160.288 91.254 160.606 90.608C160.934 89.9506 161.388 89.4463 161.966 89.095C162.555 88.7323 163.229 88.551 163.989 88.551C165.065 88.551 165.91 88.9023 166.522 89.605C167.134 90.3076 167.44 91.288 167.44 92.546V93.005ZM163.989 89.401C163.195 89.401 162.561 89.6503 162.085 90.149C161.609 90.6476 161.325 91.3446 161.235 92.24H166.488C166.465 91.3333 166.238 90.6363 165.808 90.149C165.377 89.6503 164.771 89.401 163.989 89.401Z" fill="white"/>
<path d="M172.333 97.119C171.03 97.119 169.965 96.7506 169.137 96.014L169.528 95.215C169.97 95.5776 170.412 95.8383 170.854 95.997C171.296 96.1443 171.806 96.218 172.384 96.218C173.053 96.218 173.563 96.099 173.914 95.861C174.277 95.623 174.458 95.2886 174.458 94.858C174.458 94.4953 174.339 94.2063 174.101 93.991C173.863 93.7643 173.484 93.5943 172.962 93.481L171.568 93.158C170.9 92.9993 170.373 92.7273 169.987 92.342C169.613 91.9453 169.426 91.4806 169.426 90.948C169.426 90.234 169.704 89.656 170.259 89.214C170.815 88.772 171.557 88.551 172.486 88.551C173.064 88.551 173.603 88.6473 174.101 88.84C174.611 89.0213 175.031 89.2876 175.359 89.639L174.968 90.438C174.583 90.098 174.186 89.8486 173.778 89.69C173.382 89.5313 172.951 89.452 172.486 89.452C171.863 89.452 171.376 89.5766 171.024 89.826C170.673 90.0753 170.497 90.421 170.497 90.863C170.497 91.2256 170.605 91.5203 170.82 91.747C171.047 91.9736 171.393 92.1436 171.857 92.257L173.268 92.597C174.764 92.937 175.512 93.6736 175.512 94.807C175.512 95.5096 175.223 96.0706 174.645 96.49C174.079 96.9093 173.308 97.119 172.333 97.119Z" fill="white"/>
<path d="M183.579 88.755H185.993V89.588H183.579V97H182.542V89.588H180.91V88.755H182.542V88.347C182.542 87.2816 182.802 86.477 183.324 85.933C183.845 85.3776 184.638 85.0716 185.704 85.015L186.299 84.981L186.384 85.831L185.602 85.865C184.91 85.9103 184.4 86.1313 184.072 86.528C183.743 86.9133 183.579 87.4856 183.579 88.245V88.755Z" fill="white"/>
<path d="M191.857 89.452L191.126 89.52C190.23 89.6106 189.579 89.8996 189.171 90.387C188.774 90.8743 188.576 91.4693 188.576 92.172V97H187.539V88.755H188.559V90.2C188.808 89.69 189.159 89.3103 189.613 89.061C190.077 88.8003 190.65 88.6416 191.33 88.585L191.772 88.551L191.857 89.452Z" fill="white"/>
<path d="M196.457 97.119C195.697 97.119 195.029 96.9433 194.451 96.592C193.884 96.2406 193.442 95.742 193.125 95.096C192.807 94.45 192.649 93.6963 192.649 92.835C192.649 91.9736 192.807 91.22 193.125 90.574C193.442 89.928 193.884 89.4293 194.451 89.078C195.029 88.7266 195.697 88.551 196.457 88.551C197.205 88.551 197.868 88.7266 198.446 89.078C199.024 89.4293 199.466 89.928 199.772 90.574C200.089 91.22 200.248 91.9736 200.248 92.835C200.248 93.6963 200.089 94.45 199.772 95.096C199.466 95.742 199.024 96.2406 198.446 96.592C197.868 96.9433 197.205 97.119 196.457 97.119ZM196.44 96.201C197.312 96.201 197.987 95.912 198.463 95.334C198.939 94.756 199.177 93.923 199.177 92.835C199.177 91.7696 198.933 90.9423 198.446 90.353C197.97 89.7523 197.307 89.452 196.457 89.452C195.596 89.452 194.927 89.7523 194.451 90.353C193.975 90.9423 193.737 91.7696 193.737 92.835C193.737 93.923 193.969 94.756 194.434 95.334C194.898 95.912 195.567 96.201 196.44 96.201Z" fill="white"/>
<path d="M211.39 88.551C213.215 88.551 214.127 89.6163 214.127 91.747V97H213.09V91.815C213.09 90.9876 212.943 90.3926 212.648 90.03C212.353 89.656 211.883 89.469 211.237 89.469C210.5 89.469 209.911 89.7183 209.469 90.217C209.038 90.7156 208.823 91.39 208.823 92.24V97H207.786V91.815C207.786 90.9876 207.639 90.3926 207.344 90.03C207.049 89.656 206.579 89.469 205.933 89.469C205.196 89.469 204.607 89.7183 204.165 90.217C203.734 90.7156 203.519 91.39 203.519 92.24V97H202.482V88.755H203.502V90.115C203.74 89.605 204.08 89.2196 204.522 88.959C204.975 88.687 205.497 88.551 206.086 88.551C207.412 88.551 208.256 89.095 208.619 90.183C208.857 89.673 209.22 89.2763 209.707 88.993C210.194 88.6983 210.755 88.551 211.39 88.551Z" fill="white"/>
<path d="M33.143 116.005H26.904C26.938 117.036 27.21 117.83 27.72 118.385C28.23 118.929 28.9553 119.201 29.896 119.201C30.8933 119.201 31.7943 118.861 32.599 118.181L33.007 118.997C32.6443 119.337 32.1797 119.609 31.613 119.813C31.0577 120.017 30.4853 120.119 29.896 120.119C28.638 120.119 27.6463 119.739 26.921 118.98C26.1957 118.221 25.833 117.178 25.833 115.852C25.833 115.002 25.9917 114.254 26.309 113.608C26.6377 112.951 27.091 112.446 27.669 112.095C28.2583 111.732 28.9327 111.551 29.692 111.551C30.7687 111.551 31.613 111.902 32.225 112.605C32.837 113.308 33.143 114.288 33.143 115.546V116.005ZM29.692 112.401C28.8987 112.401 28.264 112.65 27.788 113.149C27.312 113.648 27.0287 114.345 26.938 115.24H32.191C32.1683 114.333 31.9417 113.636 31.511 113.149C31.0803 112.65 30.474 112.401 29.692 112.401Z" fill="white"/>
<path d="M44.2588 111.551C46.0834 111.551 46.9958 112.616 46.9958 114.747V120H45.9587V114.815C45.9587 113.988 45.8114 113.393 45.5168 113.03C45.2221 112.656 44.7517 112.469 44.1057 112.469C43.3691 112.469 42.7797 112.718 42.3377 113.217C41.9071 113.716 41.6917 114.39 41.6917 115.24V120H40.6547V114.815C40.6547 113.988 40.5074 113.393 40.2127 113.03C39.9181 112.656 39.4478 112.469 38.8018 112.469C38.0651 112.469 37.4757 112.718 37.0337 113.217C36.6031 113.716 36.3877 114.39 36.3877 115.24V120H35.3507V111.755H36.3707V113.115C36.6087 112.605 36.9488 112.22 37.3907 111.959C37.8441 111.687 38.3654 111.551 38.9548 111.551C40.2808 111.551 41.1251 112.095 41.4878 113.183C41.7257 112.673 42.0884 112.276 42.5758 111.993C43.0631 111.698 43.6241 111.551 44.2588 111.551Z" fill="white"/>
<path d="M56.5034 116.005H50.2644C50.2984 117.036 50.5704 117.83 51.0804 118.385C51.5904 118.929 52.3157 119.201 53.2564 119.201C54.2537 119.201 55.1547 118.861 55.9594 118.181L56.3674 118.997C56.0047 119.337 55.5401 119.609 54.9734 119.813C54.4181 120.017 53.8457 120.119 53.2564 120.119C51.9984 120.119 51.0067 119.739 50.2814 118.98C49.5561 118.221 49.1934 117.178 49.1934 115.852C49.1934 115.002 49.3521 114.254 49.6694 113.608C49.9981 112.951 50.4514 112.446 51.0294 112.095C51.6187 111.732 52.2931 111.551 53.0524 111.551C54.1291 111.551 54.9734 111.902 55.5854 112.605C56.1974 113.308 56.5034 114.288 56.5034 115.546V116.005ZM53.0524 112.401C52.2591 112.401 51.6244 112.65 51.1484 113.149C50.6724 113.648 50.3891 114.345 50.2984 115.24H55.5514C55.5287 114.333 55.3021 113.636 54.8714 113.149C54.4407 112.65 53.8344 112.401 53.0524 112.401Z" fill="white"/>
<path d="M63.0291 112.452L62.2981 112.52C61.4028 112.611 60.7511 112.9 60.3431 113.387C59.9465 113.874 59.7481 114.469 59.7481 115.172V120H58.7111V111.755H59.7311V113.2C59.9805 112.69 60.3318 112.31 60.7851 112.061C61.2498 111.8 61.8221 111.642 62.5021 111.585L62.9441 111.551L63.0291 112.452Z" fill="white"/>
<path d="M71.4374 111.755V119.524C71.4374 120.725 71.137 121.632 70.5364 122.244C69.947 122.867 69.0687 123.179 67.9014 123.179C66.5187 123.179 65.3287 122.799 64.3314 122.04L64.7394 121.224C65.2947 121.609 65.8047 121.876 66.2694 122.023C66.7454 122.182 67.295 122.261 67.9184 122.261C68.7457 122.261 69.369 122.04 69.7884 121.598C70.2077 121.156 70.4174 120.499 70.4174 119.626V118.011C70.1794 118.566 69.811 118.997 69.3124 119.303C68.825 119.598 68.23 119.745 67.5274 119.745C66.802 119.745 66.156 119.575 65.5894 119.235C65.034 118.895 64.5977 118.413 64.2804 117.79C63.9744 117.167 63.8214 116.453 63.8214 115.648C63.8214 114.843 63.9744 114.129 64.2804 113.506C64.5977 112.883 65.034 112.401 65.5894 112.061C66.156 111.721 66.802 111.551 67.5274 111.551C68.2187 111.551 68.808 111.698 69.2954 111.993C69.7827 112.276 70.151 112.696 70.4004 113.251V111.755H71.4374ZM67.6634 118.827C68.5247 118.827 69.1934 118.544 69.6694 117.977C70.1567 117.41 70.4004 116.634 70.4004 115.648C70.4004 114.662 70.1567 113.886 69.6694 113.319C69.182 112.741 68.5134 112.452 67.6634 112.452C66.802 112.452 66.1277 112.735 65.6404 113.302C65.153 113.869 64.9094 114.651 64.9094 115.648C64.9094 116.645 65.153 117.427 65.6404 117.994C66.1277 118.549 66.802 118.827 67.6634 118.827Z" fill="white"/>
<path d="M74.2024 120V111.755H75.2394V120H74.2024ZM74.0494 108.27H75.4094V109.579H74.0494V108.27Z" fill="white"/>
<path d="M81.8724 111.551C83.8558 111.551 84.8474 112.616 84.8474 114.747V120H83.8104V114.815C83.8104 113.999 83.6461 113.404 83.3174 113.03C82.9888 112.656 82.4674 112.469 81.7534 112.469C80.9374 112.469 80.2801 112.718 79.7814 113.217C79.2941 113.716 79.0504 114.384 79.0504 115.223V120H78.0134V111.755H79.0334V113.166C79.2941 112.645 79.6681 112.248 80.1554 111.976C80.6541 111.693 81.2264 111.551 81.8724 111.551Z" fill="white"/>
<path d="M94.6742 111.755V119.524C94.6742 120.725 94.3739 121.632 93.7732 122.244C93.1839 122.867 92.3056 123.179 91.1382 123.179C89.7556 123.179 88.5656 122.799 87.5682 122.04L87.9762 121.224C88.5316 121.609 89.0416 121.876 89.5062 122.023C89.9822 122.182 90.5319 122.261 91.1552 122.261C91.9826 122.261 92.6059 122.04 93.0252 121.598C93.4446 121.156 93.6542 120.499 93.6542 119.626V118.011C93.4162 118.566 93.0479 118.997 92.5492 119.303C92.0619 119.598 91.4669 119.745 90.7642 119.745C90.0389 119.745 89.3929 119.575 88.8262 119.235C88.2709 118.895 87.8346 118.413 87.5172 117.79C87.2112 117.167 87.0582 116.453 87.0582 115.648C87.0582 114.843 87.2112 114.129 87.5172 113.506C87.8346 112.883 88.2709 112.401 88.8262 112.061C89.3929 111.721 90.0389 111.551 90.7642 111.551C91.4556 111.551 92.0449 111.698 92.5322 111.993C93.0196 112.276 93.3879 112.696 93.6372 113.251V111.755H94.6742ZM90.9002 118.827C91.7616 118.827 92.4302 118.544 92.9062 117.977C93.3936 117.41 93.6372 116.634 93.6372 115.648C93.6372 114.662 93.3936 113.886 92.9062 113.319C92.4189 112.741 91.7502 112.452 90.9002 112.452C90.0389 112.452 89.3646 112.735 88.8772 113.302C88.3899 113.869 88.1462 114.651 88.1462 115.648C88.1462 116.645 88.3899 117.427 88.8772 117.994C89.3646 118.549 90.0389 118.827 90.9002 118.827Z" fill="white"/>
<path d="M105.624 111.551C107.607 111.551 108.599 112.616 108.599 114.747V120H107.562V114.815C107.562 113.999 107.398 113.404 107.069 113.03C106.74 112.656 106.219 112.469 105.505 112.469C104.689 112.469 104.032 112.718 103.533 113.217C103.046 113.716 102.802 114.384 102.802 115.223V120H101.765V111.755H102.785V113.166C103.046 112.645 103.42 112.248 103.907 111.976C104.406 111.693 104.978 111.551 105.624 111.551Z" fill="white"/>
<path d="M114.601 111.551C115.598 111.551 116.34 111.812 116.828 112.333C117.326 112.854 117.576 113.642 117.576 114.696V120H116.556V118.521C116.318 119.031 115.972 119.428 115.519 119.711C115.065 119.983 114.544 120.119 113.955 120.119C113.422 120.119 112.935 120.011 112.493 119.796C112.051 119.581 111.699 119.28 111.439 118.895C111.189 118.51 111.065 118.085 111.065 117.62C111.065 117.008 111.223 116.532 111.541 116.192C111.858 115.852 112.385 115.608 113.122 115.461C113.858 115.314 114.884 115.24 116.199 115.24H116.556V114.611C116.556 113.863 116.403 113.319 116.097 112.979C115.791 112.628 115.309 112.452 114.652 112.452C114.153 112.452 113.671 112.526 113.207 112.673C112.753 112.809 112.283 113.036 111.796 113.353L111.405 112.554C111.824 112.248 112.323 112.004 112.901 111.823C113.479 111.642 114.045 111.551 114.601 111.551ZM114.04 119.218C114.776 119.218 115.377 118.969 115.842 118.47C116.318 117.971 116.556 117.337 116.556 116.566V116.005H116.233C115.145 116.005 114.312 116.05 113.734 116.141C113.156 116.232 112.748 116.39 112.51 116.617C112.272 116.832 112.153 117.15 112.153 117.569C112.153 118.045 112.334 118.442 112.697 118.759C113.059 119.065 113.507 119.218 114.04 119.218Z" fill="white"/>
<path d="M123.677 119.235C123.926 119.235 124.17 119.218 124.408 119.184L124.357 120.051C124.107 120.085 123.841 120.102 123.558 120.102C122.628 120.102 121.926 119.853 121.45 119.354C120.974 118.844 120.736 118.153 120.736 117.28V112.588H119.104V111.755H120.736V109.205H121.773V111.755H124.187V112.588H121.773V117.144C121.773 117.835 121.931 118.357 122.249 118.708C122.577 119.059 123.053 119.235 123.677 119.235Z" fill="white"/>
<path d="M125.932 120V111.755H126.969V120H125.932ZM125.779 108.27H127.139V109.579H125.779V108.27Z" fill="white"/>
<path d="M133.024 120.119C132.264 120.119 131.596 119.943 131.018 119.592C130.451 119.241 130.009 118.742 129.692 118.096C129.374 117.45 129.216 116.696 129.216 115.835C129.216 114.974 129.374 114.22 129.692 113.574C130.009 112.928 130.451 112.429 131.018 112.078C131.596 111.727 132.264 111.551 133.024 111.551C133.772 111.551 134.435 111.727 135.013 112.078C135.591 112.429 136.033 112.928 136.339 113.574C136.656 114.22 136.815 114.974 136.815 115.835C136.815 116.696 136.656 117.45 136.339 118.096C136.033 118.742 135.591 119.241 135.013 119.592C134.435 119.943 133.772 120.119 133.024 120.119ZM133.007 119.201C133.879 119.201 134.554 118.912 135.03 118.334C135.506 117.756 135.744 116.923 135.744 115.835C135.744 114.77 135.5 113.942 135.013 113.353C134.537 112.752 133.874 112.452 133.024 112.452C132.162 112.452 131.494 112.752 131.018 113.353C130.542 113.942 130.304 114.77 130.304 115.835C130.304 116.923 130.536 117.756 131.001 118.334C131.465 118.912 132.134 119.201 133.007 119.201Z" fill="white"/>
<path d="M142.908 111.551C144.891 111.551 145.883 112.616 145.883 114.747V120H144.846V114.815C144.846 113.999 144.681 113.404 144.353 113.03C144.024 112.656 143.503 112.469 142.789 112.469C141.973 112.469 141.315 112.718 140.817 113.217C140.329 113.716 140.086 114.384 140.086 115.223V120H139.049V111.755H140.069V113.166C140.329 112.645 140.703 112.248 141.191 111.976C141.689 111.693 142.262 111.551 142.908 111.551Z" fill="white"/>
<path d="M151.307 120.119C150.003 120.119 148.938 119.751 148.111 119.014L148.502 118.215C148.944 118.578 149.386 118.838 149.828 118.997C150.27 119.144 150.78 119.218 151.358 119.218C152.026 119.218 152.536 119.099 152.888 118.861C153.25 118.623 153.432 118.289 153.432 117.858C153.432 117.495 153.313 117.206 153.075 116.991C152.837 116.764 152.457 116.594 151.936 116.481L150.542 116.158C149.873 115.999 149.346 115.727 148.961 115.342C148.587 114.945 148.4 114.481 148.4 113.948C148.4 113.234 148.677 112.656 149.233 112.214C149.788 111.772 150.53 111.551 151.46 111.551C152.038 111.551 152.576 111.647 153.075 111.84C153.585 112.021 154.004 112.288 154.333 112.639L153.942 113.438C153.556 113.098 153.16 112.849 152.752 112.69C152.355 112.531 151.924 112.452 151.46 112.452C150.836 112.452 150.349 112.577 149.998 112.826C149.646 113.075 149.471 113.421 149.471 113.863C149.471 114.226 149.578 114.52 149.794 114.747C150.02 114.974 150.366 115.144 150.831 115.257L152.242 115.597C153.738 115.937 154.486 116.674 154.486 117.807C154.486 118.51 154.197 119.071 153.619 119.49C153.052 119.909 152.281 120.119 151.307 120.119Z" fill="white"/>
<path d="M25.75 48.0002V30.3752H37.9V33.4002H29.55V37.5252H37.4V40.5502H29.55V44.9752H37.9V48.0002H25.75Z" fill="white"/>
<path d="M55.2693 35.4252C56.6693 35.4252 57.711 35.8502 58.3943 36.7002C59.0777 37.5502 59.4193 38.8502 59.4193 40.6002V48.0002H55.6443V40.7252C55.6443 39.8919 55.511 39.2919 55.2443 38.9252C54.9943 38.5585 54.561 38.3752 53.9443 38.3752C53.2277 38.3752 52.6693 38.6252 52.2693 39.1252C51.8693 39.6252 51.6693 40.3252 51.6693 41.2252V48.0002H47.8943V40.7252C47.8943 39.8919 47.761 39.2919 47.4943 38.9252C47.2443 38.5585 46.811 38.3752 46.1943 38.3752C45.4777 38.3752 44.9193 38.6252 44.5193 39.1252C44.1193 39.6252 43.9193 40.3252 43.9193 41.2252V48.0002H40.1443V35.7252H43.8193V37.3752C44.2027 36.7419 44.711 36.2585 45.3443 35.9252C45.9943 35.5919 46.736 35.4252 47.5693 35.4252C49.386 35.4252 50.6027 36.1835 51.2193 37.7002C51.6193 37.0002 52.1777 36.4502 52.8943 36.0502C53.611 35.6335 54.4027 35.4252 55.2693 35.4252Z" fill="white"/>
<path d="M73.1885 42.5752H65.1885C65.3051 43.5585 65.6218 44.2752 66.1385 44.7252C66.6718 45.1585 67.4218 45.3752 68.3885 45.3752C69.0218 45.3752 69.6468 45.2752 70.2635 45.0752C70.8968 44.8585 71.4718 44.5585 71.9885 44.1752L72.9885 46.7002C72.3885 47.1669 71.6551 47.5335 70.7885 47.8002C69.9385 48.0669 69.0801 48.2002 68.2135 48.2002C66.1468 48.2002 64.5135 47.6335 63.3135 46.5002C62.1301 45.3502 61.5385 43.7919 61.5385 41.8252C61.5385 40.5752 61.7968 39.4669 62.3135 38.5002C62.8301 37.5335 63.5468 36.7835 64.4635 36.2502C65.3801 35.7002 66.4218 35.4252 67.5885 35.4252C69.3051 35.4252 70.6635 35.9835 71.6635 37.1002C72.6801 38.2169 73.1885 39.7335 73.1885 41.6502V42.5752ZM67.6885 38.0252C66.9718 38.0252 66.3968 38.2585 65.9635 38.7252C65.5468 39.1752 65.2885 39.8335 65.1885 40.7002H70.0135C69.9635 39.8169 69.7385 39.1502 69.3385 38.7002C68.9551 38.2502 68.4051 38.0252 67.6885 38.0252Z" fill="white"/>
<path d="M84.1186 38.5252L81.9936 38.7502C80.9436 38.8502 80.2019 39.1502 79.7686 39.6502C79.3352 40.1335 79.1186 40.7835 79.1186 41.6002V48.0002H75.3436V35.7252H78.9686V37.8002C79.5852 36.3835 80.8602 35.6085 82.7936 35.4752L83.8936 35.4002L84.1186 38.5252Z" fill="white"/>
<path d="M97.5336 35.7252V46.6752C97.5336 48.6585 96.9669 50.1585 95.8336 51.1752C94.7003 52.1919 93.0253 52.7002 90.8086 52.7002C89.7086 52.7002 88.6503 52.5669 87.6336 52.3002C86.6336 52.0335 85.7503 51.6585 84.9836 51.1752L85.9836 48.5752C87.5669 49.4419 89.1419 49.8752 90.7086 49.8752C92.7753 49.8752 93.8086 48.9002 93.8086 46.9502V45.6002C93.4586 46.2335 92.9336 46.7335 92.2336 47.1002C91.5336 47.4669 90.7503 47.6502 89.8836 47.6502C88.8169 47.6502 87.8669 47.4002 87.0336 46.9002C86.2169 46.4002 85.5753 45.6919 85.1086 44.7752C84.6419 43.8419 84.4086 42.7669 84.4086 41.5502C84.4086 40.3335 84.6419 39.2669 85.1086 38.3502C85.5753 37.4169 86.2169 36.7002 87.0336 36.2002C87.8669 35.6835 88.8169 35.4252 89.8836 35.4252C90.7336 35.4252 91.5003 35.6085 92.1836 35.9752C92.8836 36.3252 93.4169 36.8169 93.7836 37.4502V35.7252H97.5336ZM90.9836 44.7752C91.8669 44.7752 92.5503 44.4919 93.0336 43.9252C93.5336 43.3585 93.7836 42.5669 93.7836 41.5502C93.7836 40.5335 93.5336 39.7419 93.0336 39.1752C92.5503 38.5919 91.8669 38.3002 90.9836 38.3002C90.1003 38.3002 89.4086 38.5919 88.9086 39.1752C88.4086 39.7419 88.1586 40.5335 88.1586 41.5502C88.1586 42.5502 88.4086 43.3419 88.9086 43.9252C89.4086 44.4919 90.1003 44.7752 90.9836 44.7752Z" fill="white"/>
<path d="M100.313 48.0002V35.7252H104.088V48.0002H100.313ZM100.188 29.8252H104.238V33.3502H100.188V29.8252Z" fill="white"/>
<path d="M114.553 35.4252C116.02 35.4252 117.112 35.8585 117.828 36.7252C118.545 37.5752 118.903 38.8669 118.903 40.6002V48.0002H115.128V40.7752C115.128 39.9419 114.97 39.3335 114.653 38.9502C114.353 38.5669 113.878 38.3752 113.228 38.3752C112.445 38.3752 111.812 38.6252 111.328 39.1252C110.862 39.6252 110.628 40.2919 110.628 41.1252V48.0002H106.853V35.7252H110.528V37.4752C110.962 36.8085 111.52 36.3002 112.203 35.9502C112.903 35.6002 113.687 35.4252 114.553 35.4252Z" fill="white"/>
<path d="M134.121 35.7252V46.6752C134.121 48.6585 133.555 50.1585 132.421 51.1752C131.288 52.1919 129.613 52.7002 127.396 52.7002C126.296 52.7002 125.238 52.5669 124.221 52.3002C123.221 52.0335 122.338 51.6585 121.571 51.1752L122.571 48.5752C124.155 49.4419 125.73 49.8752 127.296 49.8752C129.363 49.8752 130.396 48.9002 130.396 46.9502V45.6002C130.046 46.2335 129.521 46.7335 128.821 47.1002C128.121 47.4669 127.338 47.6502 126.471 47.6502C125.405 47.6502 124.455 47.4002 123.621 46.9002C122.805 46.4002 122.163 45.6919 121.696 44.7752C121.23 43.8419 120.996 42.7669 120.996 41.5502C120.996 40.3335 121.23 39.2669 121.696 38.3502C122.163 37.4169 122.805 36.7002 123.621 36.2002C124.455 35.6835 125.405 35.4252 126.471 35.4252C127.321 35.4252 128.088 35.6085 128.771 35.9752C129.471 36.3252 130.005 36.8169 130.371 37.4502V35.7252H134.121ZM127.571 44.7752C128.455 44.7752 129.138 44.4919 129.621 43.9252C130.121 43.3585 130.371 42.5669 130.371 41.5502C130.371 40.5335 130.121 39.7419 129.621 39.1752C129.138 38.5919 128.455 38.3002 127.571 38.3002C126.688 38.3002 125.996 38.5919 125.496 39.1752C124.996 39.7419 124.746 40.5335 124.746 41.5502C124.746 42.5502 124.996 43.3419 125.496 43.9252C125.996 44.4919 126.688 44.7752 127.571 44.7752Z" fill="white"/>
<path d="M158.534 30.3752H161.559V48.0002H158.134V37.5502L154.084 45.1002H151.584L147.534 37.6502V48.0002H144.109V30.3752H147.184L152.859 41.1502L158.534 30.3752Z" fill="white"/>
<path d="M170.129 35.4252C171.962 35.4252 173.312 35.8585 174.179 36.7252C175.062 37.5919 175.504 38.9335 175.504 40.7502V48.0002H171.929V46.1752C171.679 46.8085 171.262 47.3085 170.679 47.6752C170.095 48.0252 169.412 48.2002 168.629 48.2002C167.795 48.2002 167.037 48.0335 166.354 47.7002C165.687 47.3669 165.154 46.9002 164.754 46.3002C164.37 45.7002 164.179 45.0335 164.179 44.3002C164.179 43.4002 164.404 42.6919 164.854 42.1752C165.32 41.6585 166.062 41.2835 167.079 41.0502C168.095 40.8169 169.487 40.7002 171.254 40.7002H171.904V40.2502C171.904 39.5169 171.745 39.0002 171.429 38.7002C171.112 38.4002 170.562 38.2502 169.779 38.2502C169.179 38.2502 168.512 38.3585 167.779 38.5752C167.045 38.7919 166.345 39.0919 165.679 39.4752L164.679 36.9502C165.379 36.5169 166.237 36.1585 167.254 35.8752C168.287 35.5752 169.245 35.4252 170.129 35.4252ZM169.454 45.6002C170.187 45.6002 170.779 45.3585 171.229 44.8752C171.679 44.3752 171.904 43.7335 171.904 42.9502V42.5252H171.479C170.129 42.5252 169.179 42.6335 168.629 42.8502C168.095 43.0669 167.829 43.4585 167.829 44.0252C167.829 44.4752 167.979 44.8502 168.279 45.1502C168.595 45.4502 168.987 45.6002 169.454 45.6002Z" fill="white"/>
<path d="M186.976 38.5252L184.851 38.7502C183.801 38.8502 183.059 39.1502 182.626 39.6502C182.193 40.1335 181.976 40.7835 181.976 41.6002V48.0002H178.201V35.7252H181.826V37.8002C182.443 36.3835 183.718 35.6085 185.651 35.4752L186.751 35.4002L186.976 38.5252Z" fill="white"/>
<path d="M201.21 48.0002H196.585L191.885 42.5252V48.0002H188.11V30.3752H191.885V40.9752L196.41 35.7502H200.91L195.76 41.6002L201.21 48.0002Z" fill="white"/>
<path d="M212.854 42.5752H204.854C204.97 43.5585 205.287 44.2752 205.804 44.7252C206.337 45.1585 207.087 45.3752 208.054 45.3752C208.687 45.3752 209.312 45.2752 209.929 45.0752C210.562 44.8585 211.137 44.5585 211.654 44.1752L212.654 46.7002C212.054 47.1669 211.32 47.5335 210.454 47.8002C209.604 48.0669 208.745 48.2002 207.879 48.2002C205.812 48.2002 204.179 47.6335 202.979 46.5002C201.795 45.3502 201.204 43.7919 201.204 41.8252C201.204 40.5752 201.462 39.4669 201.979 38.5002C202.495 37.5335 203.212 36.7835 204.129 36.2502C205.045 35.7002 206.087 35.4252 207.254 35.4252C208.97 35.4252 210.329 35.9835 211.329 37.1002C212.345 38.2169 212.854 39.7335 212.854 41.6502V42.5752ZM207.354 38.0252C206.637 38.0252 206.062 38.2585 205.629 38.7252C205.212 39.1752 204.954 39.8335 204.854 40.7002H209.679C209.629 39.8169 209.404 39.1502 209.004 38.7002C208.62 38.2502 208.07 38.0252 207.354 38.0252Z" fill="white"/>
<path d="M221.564 45.4252C221.948 45.4252 222.348 45.4002 222.764 45.3502L222.564 48.1002C222.081 48.1669 221.598 48.2002 221.114 48.2002C219.248 48.2002 217.881 47.7919 217.014 46.9752C216.164 46.1585 215.739 44.9169 215.739 43.2502V38.5502H213.414V35.7252H215.739V32.1252H219.514V35.7252H222.589V38.5502H219.514V43.2252C219.514 44.6919 220.198 45.4252 221.564 45.4252Z" fill="white"/>
<path d="M229.032 48.2002C227.899 48.2002 226.857 48.0752 225.907 47.8252C224.974 47.5585 224.166 47.1835 223.482 46.7002L224.482 44.1002C225.149 44.5502 225.882 44.9002 226.682 45.1502C227.482 45.4002 228.291 45.5252 229.107 45.5252C229.691 45.5252 230.141 45.4335 230.457 45.2502C230.791 45.0502 230.957 44.7835 230.957 44.4502C230.957 44.1502 230.841 43.9169 230.607 43.7502C230.391 43.5835 229.974 43.4335 229.357 43.3002L227.357 42.8502C226.174 42.5835 225.299 42.1752 224.732 41.6252C224.182 41.0585 223.907 40.2919 223.907 39.3252C223.907 38.5585 224.124 37.8835 224.557 37.3002C225.007 36.7169 225.632 36.2585 226.432 35.9252C227.249 35.5919 228.174 35.4252 229.207 35.4252C230.091 35.4252 230.949 35.5585 231.782 35.8252C232.616 36.0919 233.366 36.4669 234.032 36.9502L233.032 39.4502C231.732 38.5502 230.449 38.1002 229.182 38.1002C228.599 38.1002 228.141 38.2002 227.807 38.4002C227.474 38.6002 227.307 38.8835 227.307 39.2502C227.307 39.5169 227.407 39.7252 227.607 39.8752C227.807 40.0252 228.157 40.1669 228.657 40.3002L230.732 40.7752C231.982 41.0585 232.891 41.4919 233.457 42.0752C234.041 42.6419 234.332 43.4169 234.332 44.4002C234.332 45.5835 233.857 46.5169 232.907 47.2002C231.974 47.8669 230.682 48.2002 229.032 48.2002Z" fill="white"/>
<path d="M244.047 48.0002V30.3752H254.922V31.7002H245.572V38.3752H254.422V39.7252H245.572V46.6752H254.922V48.0002H244.047Z" fill="white"/>
<path d="M262.311 48.0002V31.7252H255.986V30.3752H270.136V31.7252H263.836V48.0002H262.311Z" fill="white"/>
<path d="M272.582 48.0002V30.3752H283.207V31.7002H274.132V38.3752H282.707V39.7252H274.132V48.0002H272.582Z" fill="white"/>
<path d="M289.706 48.1752C287.789 48.1752 286.223 47.6335 285.006 46.5502L285.581 45.3752C286.231 45.9085 286.881 46.2919 287.531 46.5252C288.181 46.7419 288.931 46.8502 289.781 46.8502C290.764 46.8502 291.514 46.6752 292.031 46.3252C292.564 45.9752 292.831 45.4835 292.831 44.8502C292.831 44.3169 292.656 43.8919 292.306 43.5752C291.956 43.2419 291.398 42.9919 290.631 42.8252L288.581 42.3502C287.598 42.1169 286.823 41.7169 286.256 41.1502C285.706 40.5669 285.431 39.8835 285.431 39.1002C285.431 38.0502 285.839 37.2002 286.656 36.5502C287.473 35.9002 288.564 35.5752 289.931 35.5752C290.781 35.5752 291.573 35.7169 292.306 36.0002C293.056 36.2669 293.673 36.6585 294.156 37.1752L293.581 38.3502C293.014 37.8502 292.431 37.4835 291.831 37.2502C291.248 37.0169 290.614 36.9002 289.931 36.9002C289.014 36.9002 288.298 37.0835 287.781 37.4502C287.264 37.8169 287.006 38.3252 287.006 38.9752C287.006 39.5085 287.164 39.9419 287.481 40.2752C287.814 40.6085 288.323 40.8585 289.006 41.0252L291.081 41.5252C293.281 42.0252 294.381 43.1085 294.381 44.7752C294.381 45.8085 293.956 46.6335 293.106 47.2502C292.273 47.8669 291.139 48.1752 289.706 48.1752Z" fill="white"/>
</svg>
