<svg width="556" height="152" viewBox="0 0 556 152" fill="none" xmlns="http://www.w3.org/2000/svg">
<mask id="mask0_226_903" style="mask-type:alpha" maskUnits="userSpaceOnUse" x="0" y="0" width="556" height="152">
<path d="M540 0H16C7.16344 0 0 7.16344 0 16V136C0 144.837 7.16344 152 16 152H540C548.837 152 556 144.837 556 136V16C556 7.16344 548.837 0 540 0Z" fill="white"/>
</mask>
<g mask="url(#mask0_226_903)">
<path d="M540 0H16C7.16344 0 0 7.16344 0 16V136C0 144.837 7.16344 152 16 152H540C548.837 152 556 144.837 556 136V16C556 7.16344 548.837 0 540 0Z" fill="#1E1F21"/>
<path fill-rule="evenodd" clip-rule="evenodd" d="M369 13.3889L382.893 20L397 10.9443L378.668 -4L369 2.82371V13.3889Z" fill="#2E3133"/>
<path fill-rule="evenodd" clip-rule="evenodd" d="M229.629 13L225 14.7598V35.2025L237.672 51.0454L236.331 65.0854L257.328 90.9021L279.22 99.0545V103.131L291.729 107.207L286.367 118.077L291.729 130.759L299.77 135.288L295.303 160.651L295.62 178H302.122L308.259 164.727L324.789 149.781V144.347L335.065 139.363L337.298 129.4L344 124.418L341.766 116.718L324.789 112.642L321.215 106.301L301.558 99.0545L290.389 102.677L284.58 101.32L283.687 94.5255L279.22 93.1661V88.6371L269.837 89.5427V79.1262L281.006 77.7678L288.155 83.2024L289.049 74.1434L295.303 68.7097L295.749 61.4619L310.493 56.0273L306.472 50.1389L319.874 46.0626L306.472 31.1162L301.558 34.2877L290.835 27.9465L289.942 43.7986L270.285 33.3811L279.22 25.2287H285.921L285.304 18.037L276.092 15.265L254.201 18.4347H245.712L239.012 13H229.629Z" fill="#2E3133"/>
<path fill-rule="evenodd" clip-rule="evenodd" d="M248.273 14H266L257.943 5.74976L250 8.49953L245.511 4.22233L236.762 3L234 9.87488H244.129L248.273 14Z" fill="#2E3133"/>
<path fill-rule="evenodd" clip-rule="evenodd" d="M302.342 29L311 19.769L300.748 13.308L290.494 5H277.735L275 9.15446L283.659 13.308H293L296.874 17L290.494 22.0765L302.342 29Z" fill="#2E3133"/>
<path fill-rule="evenodd" clip-rule="evenodd" d="M262 5L268.202 13L275 11.4608L272.31 9.15336L275 5H262Z" fill="#2E3133"/>
<path fill-rule="evenodd" clip-rule="evenodd" d="M269.653 -10L274.299 -4.9292L263.834 -7.71881L259.009 -5.51626L261.384 -1.84473L253.368 -2.72575V-7.13087L236 -0.523197L248.803 3L259.602 1.23795L286.323 3L294.339 -8.4524L297 -10H269.653Z" fill="#2E3133"/>
<path fill-rule="evenodd" clip-rule="evenodd" d="M307.739 -11L299 -2.77072L310.49 -0.959743L320.653 9.30307L319.77 23.0392L329.49 33L333.91 24.8501L352.911 13.5299L356.887 -7.75206L363 -11H307.739Z" fill="#2E3133"/>
<path fill-rule="evenodd" clip-rule="evenodd" d="M365.069 19H353L356.862 26L367 22.4995L365.069 19Z" fill="#2E3133"/>
<path fill-rule="evenodd" clip-rule="evenodd" d="M475.93 2.80953V8.23288L463.152 5.97346L458.398 14.0763L441.162 15.8844L424.522 25.2236L419.47 19.4997L426.603 20.4023L429.278 17.2706L412.933 9.58872L385.892 29.02L387.675 35.7688L395.699 33.0866L396.887 38.4787L401.642 36.973L401.939 27.6329L408.476 20.7038L411.448 22.8134L405.801 29.02L410.556 33.0866L406.99 41.4928L390.052 42.6978L377.274 51.434L380.841 55.3508L379.652 58.364L370.022 58.6646L375.195 68.6077L381.137 65.8951L382.921 61.9792L386.783 58.364L392.134 58.0625L400.453 64.3894L401.642 61.9792L395.401 54.1466L398.373 53.5436L404.018 59.8706L406.693 67.7032L409.665 65.5945V61.9792L412.339 62.2798L414.419 67.4017L422.74 67.1011L422.443 73.7286L417.39 76L406.99 72.825L402.83 76L394.807 72.223L393.199 67.8815L371.804 71.949L362 85.478V98.6108L374.925 110.36L388.742 105.84L393.199 110.36L398.102 126.627L394.536 137.472L404.343 156H412.364L420.387 147.415L423.953 136.117L429.747 131.146L427.519 119.397L437.324 108.552L441.781 98.6108L431.976 101.322L421.278 80.0822L423.508 76.9201L432.867 96.3514L449.358 92.7361L446.238 83.2462L440.89 85.478L437.77 76.4679L441.336 76.0156L447.13 80.0822L457.381 82.3426L464.067 88.6695L472.536 105.389L476.547 93.6397L486.797 85.478L495.071 94.4642L496.08 101.625L501.506 109.908L504.181 108.552L497.863 100.881L498.387 96.3514L504.181 102.676L509.083 97.5555L504.329 89.7229L509.083 85.478H518.443L523.792 75.5643L522.009 65.6221L526.466 62.0068L529.141 71.4968L531.368 68.3347V62.0068L538.5 57.4889L544.773 43.4966L540.282 41.672L547.415 33.0866H559.894L560 32.9992V8.52979L544.871 5.97346L532.389 9.58872L525.852 2.80953H515.748L504.458 -4L475.93 2.80953Z" fill="#2E3133"/>
<path fill-rule="evenodd" clip-rule="evenodd" d="M432 132.465V145L438.353 143.283L441 131.606L438.353 128C437.294 128.687 432 132.465 432 132.465Z" fill="#2E3133"/>
<path fill-rule="evenodd" clip-rule="evenodd" d="M383 44.838L376.593 35L369 42V46.7294L375.428 43.7032V49L383 44.838Z" fill="#2E3133"/>
<path fill-rule="evenodd" clip-rule="evenodd" d="M493.334 106L491 107.787L502.375 120L505 115.83L493.334 106Z" fill="#2E3133"/>
<path fill-rule="evenodd" clip-rule="evenodd" d="M517 121.5L505.547 119L504 122.235L517 124V121.5Z" fill="#2E3133"/>
<path fill-rule="evenodd" clip-rule="evenodd" d="M512.764 111.5L509 112.803L512.474 117H516.816L520 110.342L517.974 106L512.764 111.5Z" fill="#2E3133"/>
<path fill-rule="evenodd" clip-rule="evenodd" d="M520 120H521.922L522.196 116.659L523.569 120L525.764 119.088L524.392 115.747L525.764 112.861H524.118L522.607 114.532L523.019 110.431L527 109.368V108L521.922 108.912L520 117.265V120Z" fill="#2E3133"/>
<path fill-rule="evenodd" clip-rule="evenodd" d="M536.572 116.102L536.869 118.171L540.887 119.057L542.822 123.045L548.03 124.08L550.56 122.159L552.196 122.898V124.818L558 126V124.08L554.802 123.391L550.56 117.284L542.822 114.108L539.845 117.284L538.804 115.696V113H533.596L533 115.142L536.572 116.102Z" fill="#2E3133"/>
<mask id="mask1_226_903" style="mask-type:alpha" maskUnits="userSpaceOnUse" x="513" y="126" width="47" height="34">
<path d="M513 126H560V160H513V126Z" fill="white"/>
</mask>
<g mask="url(#mask1_226_903)">
<path fill-rule="evenodd" clip-rule="evenodd" d="M550.936 130.269L548.762 129.667L547.775 126L546.589 127.658L545.551 134.688L540.661 130.872L541.254 127.456L534.537 126L533.103 130.269H529.4L524.287 132.68L522.681 136.295L513 139.711L518.137 155.705L534.141 151.563L538.686 152.969L544.613 160H555.282L562 143L552.319 135.091L550.936 130.269Z" fill="#2E3133"/>
</g>
</g>
<path d="M35.234 85.015H36.271V97H35.234V91.373H27.584V97H26.547V85.015H27.584V90.455H35.234V85.015Z" fill="white"/>
<path d="M45.8999 88.755V97H44.8799V95.521C44.6192 96.0423 44.2452 96.439 43.7579 96.711C43.2819 96.983 42.7379 97.119 42.1259 97.119C41.1512 97.119 40.4146 96.8526 39.9159 96.32C39.4286 95.776 39.1849 94.977 39.1849 93.923V88.755H40.2219V93.855C40.2219 94.6596 40.3806 95.2546 40.6979 95.64C41.0266 96.014 41.5366 96.201 42.2279 96.201C43.0212 96.201 43.6559 95.9516 44.1319 95.453C44.6192 94.943 44.8629 94.2686 44.8629 93.43V88.755H45.8999Z" fill="white"/>
<path d="M52.5169 88.551C54.5002 88.551 55.4919 89.6163 55.4919 91.747V97H54.4549V91.815C54.4549 90.999 54.2905 90.404 53.9619 90.03C53.6332 89.656 53.1119 89.469 52.3979 89.469C51.5819 89.469 50.9245 89.7183 50.4259 90.217C49.9385 90.7156 49.6949 91.3843 49.6949 92.223V97H48.6579V88.755H49.6779V90.166C49.9385 89.6446 50.3125 89.248 50.7999 88.976C51.2985 88.6926 51.8709 88.551 52.5169 88.551Z" fill="white"/>
<path d="M65.2507 85.015V97H64.2137V95.419C63.9643 95.9743 63.596 96.3993 63.1087 96.694C62.6213 96.9773 62.0433 97.119 61.3747 97.119C60.6493 97.119 60.009 96.9433 59.4537 96.592C58.8983 96.2293 58.4677 95.725 58.1617 95.079C57.8557 94.4216 57.7027 93.6623 57.7027 92.801C57.7027 91.951 57.8557 91.2086 58.1617 90.574C58.4677 89.928 58.8983 89.4293 59.4537 89.078C60.009 88.7266 60.6493 88.551 61.3747 88.551C62.0433 88.551 62.6213 88.6983 63.1087 88.993C63.596 89.2763 63.9643 89.6956 64.2137 90.251V85.015H65.2507ZM61.5107 96.201C62.372 96.201 63.035 95.912 63.4997 95.334C63.9757 94.7446 64.2137 93.9116 64.2137 92.835C64.2137 91.7583 63.9813 90.9253 63.5167 90.336C63.052 89.7466 62.389 89.452 61.5277 89.452C60.655 89.452 59.9807 89.7466 59.5047 90.336C59.0287 90.914 58.7907 91.7356 58.7907 92.801C58.7907 93.8776 59.0287 94.7163 59.5047 95.317C59.9807 95.9063 60.6493 96.201 61.5107 96.201Z" fill="white"/>
<path d="M72.3353 89.452L71.6043 89.52C70.709 89.6106 70.0573 89.8996 69.6493 90.387C69.2526 90.8743 69.0543 91.4693 69.0543 92.172V97H68.0173V88.755H69.0373V90.2C69.2866 89.69 69.638 89.3103 70.0913 89.061C70.556 88.8003 71.1283 88.6416 71.8083 88.585L72.2503 88.551L72.3353 89.452Z" fill="white"/>
<path d="M80.4375 93.005H74.1985C74.2325 94.0363 74.5045 94.8296 75.0145 95.385C75.5245 95.929 76.2499 96.201 77.1905 96.201C78.1879 96.201 79.0889 95.861 79.8935 95.181L80.3015 95.997C79.9389 96.337 79.4742 96.609 78.9075 96.813C78.3522 97.017 77.7799 97.119 77.1905 97.119C75.9325 97.119 74.9409 96.7393 74.2155 95.98C73.4902 95.2206 73.1275 94.178 73.1275 92.852C73.1275 92.002 73.2862 91.254 73.6035 90.608C73.9322 89.9506 74.3855 89.4463 74.9635 89.095C75.5529 88.7323 76.2272 88.551 76.9865 88.551C78.0632 88.551 78.9075 88.9023 79.5195 89.605C80.1315 90.3076 80.4375 91.288 80.4375 92.546V93.005ZM76.9865 89.401C76.1932 89.401 75.5585 89.6503 75.0825 90.149C74.6065 90.6476 74.3232 91.3446 74.2325 92.24H79.4855C79.4629 91.3333 79.2362 90.6363 78.8055 90.149C78.3749 89.6503 77.7685 89.401 76.9865 89.401Z" fill="white"/>
<path d="M89.6663 85.015V97H88.6293V95.419C88.3799 95.9743 88.0116 96.3993 87.5243 96.694C87.0369 96.9773 86.4589 97.119 85.7903 97.119C85.0649 97.119 84.4246 96.9433 83.8693 96.592C83.3139 96.2293 82.8833 95.725 82.5773 95.079C82.2713 94.4216 82.1183 93.6623 82.1183 92.801C82.1183 91.951 82.2713 91.2086 82.5773 90.574C82.8833 89.928 83.3139 89.4293 83.8693 89.078C84.4246 88.7266 85.0649 88.551 85.7903 88.551C86.4589 88.551 87.0369 88.6983 87.5243 88.993C88.0116 89.2763 88.3799 89.6956 88.6293 90.251V85.015H89.6663ZM85.9263 96.201C86.7876 96.201 87.4506 95.912 87.9153 95.334C88.3913 94.7446 88.6293 93.9116 88.6293 92.835C88.6293 91.7583 88.3969 90.9253 87.9323 90.336C87.4676 89.7466 86.8046 89.452 85.9433 89.452C85.0706 89.452 84.3963 89.7466 83.9203 90.336C83.4443 90.914 83.2063 91.7356 83.2063 92.801C83.2063 93.8776 83.4443 94.7163 83.9203 95.317C84.3963 95.9063 85.0649 96.201 85.9263 96.201Z" fill="white"/>
<path d="M95.1189 97.119C93.8155 97.119 92.7502 96.7506 91.9229 96.014L92.3139 95.215C92.7559 95.5776 93.1979 95.8383 93.6399 95.997C94.0819 96.1443 94.5919 96.218 95.1699 96.218C95.8385 96.218 96.3485 96.099 96.6999 95.861C97.0625 95.623 97.2439 95.2886 97.2439 94.858C97.2439 94.4953 97.1249 94.2063 96.8869 93.991C96.6489 93.7643 96.2692 93.5943 95.7479 93.481L94.3539 93.158C93.6852 92.9993 93.1582 92.7273 92.7729 92.342C92.3989 91.9453 92.2119 91.4806 92.2119 90.948C92.2119 90.234 92.4895 89.656 93.0449 89.214C93.6002 88.772 94.3425 88.551 95.2719 88.551C95.8499 88.551 96.3882 88.6473 96.8869 88.84C97.3969 89.0213 97.8162 89.2876 98.1449 89.639L97.7539 90.438C97.3685 90.098 96.9719 89.8486 96.5639 89.69C96.1672 89.5313 95.7365 89.452 95.2719 89.452C94.6485 89.452 94.1612 89.5766 93.8099 89.826C93.4585 90.0753 93.2829 90.421 93.2829 90.863C93.2829 91.2256 93.3905 91.5203 93.6059 91.747C93.8326 91.9736 94.1782 92.1436 94.6429 92.257L96.0539 92.597C97.5499 92.937 98.2979 93.6736 98.2979 94.807C98.2979 95.5096 98.0089 96.0706 97.4309 96.49C96.8642 96.9093 96.0936 97.119 95.1189 97.119Z" fill="white"/>
<path d="M108.2 97.119C107.441 97.119 106.772 96.9433 106.194 96.592C105.628 96.2406 105.186 95.742 104.868 95.096C104.551 94.45 104.392 93.6963 104.392 92.835C104.392 91.9736 104.551 91.22 104.868 90.574C105.186 89.928 105.628 89.4293 106.194 89.078C106.772 88.7266 107.441 88.551 108.2 88.551C108.948 88.551 109.611 88.7266 110.189 89.078C110.767 89.4293 111.209 89.928 111.515 90.574C111.833 91.22 111.991 91.9736 111.991 92.835C111.991 93.6963 111.833 94.45 111.515 95.096C111.209 95.742 110.767 96.2406 110.189 96.592C109.611 96.9433 108.948 97.119 108.2 97.119ZM108.183 96.201C109.056 96.201 109.73 95.912 110.206 95.334C110.682 94.756 110.92 93.923 110.92 92.835C110.92 91.7696 110.677 90.9423 110.189 90.353C109.713 89.7523 109.05 89.452 108.2 89.452C107.339 89.452 106.67 89.7523 106.194 90.353C105.718 90.9423 105.48 91.7696 105.48 92.835C105.48 93.923 105.713 94.756 106.177 95.334C106.642 95.912 107.311 96.201 108.183 96.201Z" fill="white"/>
<path d="M115.67 88.755H118.084V89.588H115.67V97H114.633V89.588H113.001V88.755H114.633V88.347C114.633 87.2816 114.894 86.477 115.415 85.933C115.937 85.3776 116.73 85.0716 117.795 85.015L118.39 84.981L118.475 85.831L117.693 85.865C117.002 85.9103 116.492 86.1313 116.163 86.528C115.835 86.9133 115.67 87.4856 115.67 88.245V88.755Z" fill="white"/>
<path d="M127.305 97.119C126.523 97.119 125.837 96.9433 125.248 96.592C124.67 96.2406 124.222 95.742 123.905 95.096C123.588 94.45 123.429 93.7076 123.429 92.869C123.429 92.019 123.588 91.2653 123.905 90.608C124.234 89.9506 124.693 89.4463 125.282 89.095C125.871 88.7323 126.563 88.551 127.356 88.551C127.911 88.551 128.444 88.6473 128.954 88.84C129.475 89.0326 129.895 89.299 130.212 89.639L129.821 90.455C129.402 90.1036 128.994 89.8486 128.597 89.69C128.212 89.5313 127.809 89.452 127.39 89.452C126.506 89.452 125.803 89.758 125.282 90.37C124.772 90.9706 124.517 91.8036 124.517 92.869C124.517 93.923 124.772 94.7446 125.282 95.334C125.792 95.912 126.489 96.201 127.373 96.201C127.792 96.201 128.195 96.1216 128.58 95.963C128.977 95.8043 129.39 95.555 129.821 95.215L130.212 96.014C129.872 96.354 129.441 96.626 128.92 96.83C128.399 97.0226 127.86 97.119 127.305 97.119Z" fill="white"/>
<path d="M135.348 97.119C134.588 97.119 133.92 96.9433 133.342 96.592C132.775 96.2406 132.333 95.742 132.016 95.096C131.698 94.45 131.54 93.6963 131.54 92.835C131.54 91.9736 131.698 91.22 132.016 90.574C132.333 89.928 132.775 89.4293 133.342 89.078C133.92 88.7266 134.588 88.551 135.348 88.551C136.096 88.551 136.759 88.7266 137.337 89.078C137.915 89.4293 138.357 89.928 138.663 90.574C138.98 91.22 139.139 91.9736 139.139 92.835C139.139 93.6963 138.98 94.45 138.663 95.096C138.357 95.742 137.915 96.2406 137.337 96.592C136.759 96.9433 136.096 97.119 135.348 97.119ZM135.331 96.201C136.203 96.201 136.878 95.912 137.354 95.334C137.83 94.756 138.068 93.923 138.068 92.835C138.068 91.7696 137.824 90.9423 137.337 90.353C136.861 89.7523 136.198 89.452 135.348 89.452C134.486 89.452 133.818 89.7523 133.342 90.353C132.866 90.9423 132.628 91.7696 132.628 92.835C132.628 93.923 132.86 94.756 133.325 95.334C133.789 95.912 134.458 96.201 135.331 96.201Z" fill="white"/>
<path d="M150.281 88.551C152.106 88.551 153.018 89.6163 153.018 91.747V97H151.981V91.815C151.981 90.9876 151.834 90.3926 151.539 90.03C151.244 89.656 150.774 89.469 150.128 89.469C149.391 89.469 148.802 89.7183 148.36 90.217C147.929 90.7156 147.714 91.39 147.714 92.24V97H146.677V91.815C146.677 90.9876 146.53 90.3926 146.235 90.03C145.94 89.656 145.47 89.469 144.824 89.469C144.087 89.469 143.498 89.7183 143.056 90.217C142.625 90.7156 142.41 91.39 142.41 92.24V97H141.373V88.755H142.393V90.115C142.631 89.605 142.971 89.2196 143.413 88.959C143.866 88.687 144.388 88.551 144.977 88.551C146.303 88.551 147.147 89.095 147.51 90.183C147.748 89.673 148.111 89.2763 148.598 88.993C149.085 88.6983 149.646 88.551 150.281 88.551Z" fill="white"/>
<path d="M159.619 88.551C160.344 88.551 160.984 88.7323 161.54 89.095C162.095 89.4463 162.526 89.9506 162.832 90.608C163.138 91.254 163.291 92.0076 163.291 92.869C163.291 93.719 163.138 94.467 162.832 95.113C162.526 95.7476 162.095 96.2406 161.54 96.592C160.984 96.9433 160.344 97.119 159.619 97.119C158.95 97.119 158.372 96.9773 157.885 96.694C157.397 96.3993 157.029 95.9743 156.78 95.419V100.06H155.743V88.755H156.78V90.251C157.029 89.6956 157.397 89.2763 157.885 88.993C158.372 88.6983 158.95 88.551 159.619 88.551ZM159.466 96.201C160.338 96.201 161.013 95.912 161.489 95.334C161.976 94.7446 162.22 93.923 162.22 92.869C162.22 91.7923 161.976 90.9536 161.489 90.353C161.013 89.7523 160.344 89.452 159.483 89.452C158.621 89.452 157.953 89.7466 157.477 90.336C157.012 90.9253 156.78 91.7583 156.78 92.835C156.78 93.9116 157.012 94.7446 157.477 95.334C157.941 95.912 158.604 96.201 159.466 96.201Z" fill="white"/>
<path d="M168.794 88.551C169.792 88.551 170.534 88.8116 171.021 89.333C171.52 89.8543 171.769 90.642 171.769 91.696V97H170.749V95.521C170.511 96.031 170.166 96.4276 169.712 96.711C169.259 96.983 168.738 97.119 168.148 97.119C167.616 97.119 167.128 97.0113 166.686 96.796C166.244 96.5806 165.893 96.2803 165.632 95.895C165.383 95.5096 165.258 95.0846 165.258 94.62C165.258 94.008 165.417 93.532 165.734 93.192C166.052 92.852 166.579 92.6083 167.315 92.461C168.052 92.3136 169.078 92.24 170.392 92.24H170.749V91.611C170.749 90.863 170.596 90.319 170.29 89.979C169.984 89.6276 169.503 89.452 168.845 89.452C168.347 89.452 167.865 89.5256 167.4 89.673C166.947 89.809 166.477 90.0356 165.989 90.353L165.598 89.554C166.018 89.248 166.516 89.0043 167.094 88.823C167.672 88.6416 168.239 88.551 168.794 88.551ZM168.233 96.218C168.97 96.218 169.571 95.9686 170.035 95.47C170.511 94.9713 170.749 94.3366 170.749 93.566V93.005H170.426C169.338 93.005 168.505 93.0503 167.927 93.141C167.349 93.2316 166.941 93.3903 166.703 93.617C166.465 93.8323 166.346 94.1496 166.346 94.569C166.346 95.045 166.528 95.4416 166.89 95.759C167.253 96.065 167.701 96.218 168.233 96.218Z" fill="white"/>
<path d="M178.38 88.551C180.363 88.551 181.355 89.6163 181.355 91.747V97H180.318V91.815C180.318 90.999 180.154 90.404 179.825 90.03C179.496 89.656 178.975 89.469 178.261 89.469C177.445 89.469 176.788 89.7183 176.289 90.217C175.802 90.7156 175.558 91.3843 175.558 92.223V97H174.521V88.755H175.541V90.166C175.802 89.6446 176.176 89.248 176.663 88.976C177.162 88.6926 177.734 88.551 178.38 88.551Z" fill="white"/>
<path d="M184.093 97V88.755H185.13V97H184.093ZM183.94 85.27H185.3V86.579H183.94V85.27Z" fill="white"/>
<path d="M194.687 93.005H188.448C188.482 94.0363 188.754 94.8296 189.264 95.385C189.774 95.929 190.499 96.201 191.44 96.201C192.437 96.201 193.338 95.861 194.143 95.181L194.551 95.997C194.188 96.337 193.723 96.609 193.157 96.813C192.601 97.017 192.029 97.119 191.44 97.119C190.182 97.119 189.19 96.7393 188.465 95.98C187.739 95.2206 187.377 94.178 187.377 92.852C187.377 92.002 187.535 91.254 187.853 90.608C188.181 89.9506 188.635 89.4463 189.213 89.095C189.802 88.7323 190.476 88.551 191.236 88.551C192.312 88.551 193.157 88.9023 193.769 89.605C194.381 90.3076 194.687 91.288 194.687 92.546V93.005ZM191.236 89.401C190.442 89.401 189.808 89.6503 189.332 90.149C188.856 90.6476 188.572 91.3446 188.482 92.24H193.735C193.712 91.3333 193.485 90.6363 193.055 90.149C192.624 89.6503 192.018 89.401 191.236 89.401Z" fill="white"/>
<path d="M199.581 97.119C198.277 97.119 197.212 96.7506 196.385 96.014L196.776 95.215C197.218 95.5776 197.66 95.8383 198.102 95.997C198.544 96.1443 199.054 96.218 199.632 96.218C200.3 96.218 200.81 96.099 201.162 95.861C201.524 95.623 201.706 95.2886 201.706 94.858C201.706 94.4953 201.587 94.2063 201.349 93.991C201.111 93.7643 200.731 93.5943 200.21 93.481L198.816 93.158C198.147 92.9993 197.62 92.7273 197.235 92.342C196.861 91.9453 196.674 91.4806 196.674 90.948C196.674 90.234 196.951 89.656 197.507 89.214C198.062 88.772 198.804 88.551 199.734 88.551C200.312 88.551 200.85 88.6473 201.349 88.84C201.859 89.0213 202.278 89.2876 202.607 89.639L202.216 90.438C201.83 90.098 201.434 89.8486 201.026 89.69C200.629 89.5313 200.198 89.452 199.734 89.452C199.11 89.452 198.623 89.5766 198.272 89.826C197.92 90.0753 197.745 90.421 197.745 90.863C197.745 91.2256 197.852 91.5203 198.068 91.747C198.294 91.9736 198.64 92.1436 199.105 92.257L200.516 92.597C202.012 92.937 202.76 93.6736 202.76 94.807C202.76 95.5096 202.471 96.0706 201.893 96.49C201.326 96.9093 200.555 97.119 199.581 97.119Z" fill="white"/>
<path d="M27.805 111.755H30.219V112.588H27.805V120H26.768V112.588H25.136V111.755H26.768V111.347C26.768 110.282 27.0287 109.477 27.55 108.933C28.0713 108.378 28.8647 108.072 29.93 108.015L30.525 107.981L30.61 108.831L29.828 108.865C29.1367 108.91 28.6267 109.131 28.298 109.528C27.9693 109.913 27.805 110.486 27.805 111.245V111.755Z" fill="white"/>
<path d="M36.0828 112.452L35.3518 112.52C34.4565 112.611 33.8048 112.9 33.3968 113.387C33.0001 113.874 32.8018 114.469 32.8018 115.172V120H31.7648V111.755H32.7848V113.2C33.0341 112.69 33.3855 112.31 33.8388 112.061C34.3035 111.8 34.8758 111.642 35.5558 111.585L35.9978 111.551L36.0828 112.452Z" fill="white"/>
<path d="M40.683 120.119C39.9237 120.119 39.255 119.943 38.677 119.592C38.1104 119.241 37.6684 118.742 37.351 118.096C37.0337 117.45 36.875 116.696 36.875 115.835C36.875 114.974 37.0337 114.22 37.351 113.574C37.6684 112.928 38.1104 112.429 38.677 112.078C39.255 111.727 39.9237 111.551 40.683 111.551C41.431 111.551 42.094 111.727 42.672 112.078C43.25 112.429 43.692 112.928 43.998 113.574C44.3154 114.22 44.474 114.974 44.474 115.835C44.474 116.696 44.3154 117.45 43.998 118.096C43.692 118.742 43.25 119.241 42.672 119.592C42.094 119.943 41.431 120.119 40.683 120.119ZM40.666 119.201C41.5387 119.201 42.213 118.912 42.689 118.334C43.165 117.756 43.403 116.923 43.403 115.835C43.403 114.77 43.1594 113.942 42.672 113.353C42.196 112.752 41.533 112.452 40.683 112.452C39.8217 112.452 39.153 112.752 38.677 113.353C38.201 113.942 37.963 114.77 37.963 115.835C37.963 116.923 38.1954 117.756 38.66 118.334C39.1247 118.912 39.7934 119.201 40.666 119.201Z" fill="white"/>
<path d="M55.6162 111.551C57.4409 111.551 58.3532 112.616 58.3532 114.747V120H57.3162V114.815C57.3162 113.988 57.1689 113.393 56.8742 113.03C56.5795 112.656 56.1092 112.469 55.4632 112.469C54.7265 112.469 54.1372 112.718 53.6952 113.217C53.2645 113.716 53.0492 114.39 53.0492 115.24V120H52.0122V114.815C52.0122 113.988 51.8649 113.393 51.5702 113.03C51.2755 112.656 50.8052 112.469 50.1592 112.469C49.4225 112.469 48.8332 112.718 48.3912 113.217C47.9605 113.716 47.7452 114.39 47.7452 115.24V120H46.7082V111.755H47.7282V113.115C47.9662 112.605 48.3062 112.22 48.7482 111.959C49.2015 111.687 49.7229 111.551 50.3122 111.551C51.6382 111.551 52.4825 112.095 52.8452 113.183C53.0832 112.673 53.4459 112.276 53.9332 111.993C54.4205 111.698 54.9815 111.551 55.6162 111.551Z" fill="white"/>
<path d="M68.6675 111.551C69.6649 111.551 70.4072 111.812 70.8945 112.333C71.3932 112.854 71.6425 113.642 71.6425 114.696V120H70.6225V118.521C70.3845 119.031 70.0389 119.428 69.5855 119.711C69.1322 119.983 68.6109 120.119 68.0215 120.119C67.4889 120.119 67.0015 120.011 66.5595 119.796C66.1175 119.581 65.7662 119.28 65.5055 118.895C65.2562 118.51 65.1315 118.085 65.1315 117.62C65.1315 117.008 65.2902 116.532 65.6075 116.192C65.9249 115.852 66.4519 115.608 67.1885 115.461C67.9252 115.314 68.9509 115.24 70.2655 115.24H70.6225V114.611C70.6225 113.863 70.4695 113.319 70.1635 112.979C69.8575 112.628 69.3759 112.452 68.7185 112.452C68.2199 112.452 67.7382 112.526 67.2735 112.673C66.8202 112.809 66.3499 113.036 65.8625 113.353L65.4715 112.554C65.8909 112.248 66.3895 112.004 66.9675 111.823C67.5455 111.642 68.1122 111.551 68.6675 111.551ZM68.1065 119.218C68.8432 119.218 69.4439 118.969 69.9085 118.47C70.3845 117.971 70.6225 117.337 70.6225 116.566V116.005H70.2995C69.2115 116.005 68.3785 116.05 67.8005 116.141C67.2225 116.232 66.8145 116.39 66.5765 116.617C66.3385 116.832 66.2195 117.15 66.2195 117.569C66.2195 118.045 66.4009 118.442 66.7635 118.759C67.1262 119.065 67.5739 119.218 68.1065 119.218Z" fill="white"/>
<path d="M74.3943 120V108.015H75.4313V120H74.3943Z" fill="white"/>
<path d="M78.2053 120V108.015H79.2423V120H78.2053Z" fill="white"/>
<path d="M89.6231 120.119C88.8638 120.119 88.1951 119.943 87.6171 119.592C87.0504 119.241 86.6084 118.742 86.2911 118.096C85.9738 117.45 85.8151 116.696 85.8151 115.835C85.8151 114.974 85.9738 114.22 86.2911 113.574C86.6084 112.928 87.0504 112.429 87.6171 112.078C88.1951 111.727 88.8638 111.551 89.6231 111.551C90.3711 111.551 91.0341 111.727 91.6121 112.078C92.1901 112.429 92.6321 112.928 92.9381 113.574C93.2554 114.22 93.4141 114.974 93.4141 115.835C93.4141 116.696 93.2554 117.45 92.9381 118.096C92.6321 118.742 92.1901 119.241 91.6121 119.592C91.0341 119.943 90.3711 120.119 89.6231 120.119ZM89.6061 119.201C90.4788 119.201 91.1531 118.912 91.6291 118.334C92.1051 117.756 92.3431 116.923 92.3431 115.835C92.3431 114.77 92.0994 113.942 91.6121 113.353C91.1361 112.752 90.4731 112.452 89.6231 112.452C88.7618 112.452 88.0931 112.752 87.6171 113.353C87.1411 113.942 86.9031 114.77 86.9031 115.835C86.9031 116.923 87.1354 117.756 87.6001 118.334C88.0648 118.912 88.7334 119.201 89.6061 119.201Z" fill="white"/>
<path d="M101.532 111.755H102.586L99.0503 120H97.9963L94.4773 111.755H95.5823L98.5573 118.946L101.532 111.755Z" fill="white"/>
<path d="M110.957 116.005H104.718C104.752 117.036 105.024 117.83 105.534 118.385C106.044 118.929 106.77 119.201 107.71 119.201C108.707 119.201 109.608 118.861 110.413 118.181L110.821 118.997C110.459 119.337 109.994 119.609 109.427 119.813C108.872 120.017 108.299 120.119 107.71 120.119C106.452 120.119 105.461 119.739 104.735 118.98C104.01 118.221 103.647 117.178 103.647 115.852C103.647 115.002 103.806 114.254 104.123 113.608C104.452 112.951 104.905 112.446 105.483 112.095C106.072 111.732 106.747 111.551 107.506 111.551C108.583 111.551 109.427 111.902 110.039 112.605C110.651 113.308 110.957 114.288 110.957 115.546V116.005ZM107.506 112.401C106.713 112.401 106.078 112.65 105.602 113.149C105.126 113.648 104.843 114.345 104.752 115.24H110.005C109.982 114.333 109.756 113.636 109.325 113.149C108.895 112.65 108.288 112.401 107.506 112.401Z" fill="white"/>
<path d="M117.483 112.452L116.752 112.52C115.857 112.611 115.205 112.9 114.797 113.387C114.4 113.874 114.202 114.469 114.202 115.172V120H113.165V111.755H114.185V113.2C114.434 112.69 114.786 112.31 115.239 112.061C115.704 111.8 116.276 111.642 116.956 111.585L117.398 111.551L117.483 112.452Z" fill="white"/>
<path d="M126.643 119.235C126.892 119.235 127.136 119.218 127.374 119.184L127.323 120.051C127.074 120.085 126.807 120.102 126.524 120.102C125.595 120.102 124.892 119.853 124.416 119.354C123.94 118.844 123.702 118.153 123.702 117.28V112.588H122.07V111.755H123.702V109.205H124.739V111.755H127.153V112.588H124.739V117.144C124.739 117.835 124.898 118.357 125.215 118.708C125.544 119.059 126.02 119.235 126.643 119.235Z" fill="white"/>
<path d="M132.757 111.551C134.74 111.551 135.732 112.616 135.732 114.747V120H134.695V114.815C134.695 113.999 134.531 113.404 134.202 113.03C133.873 112.656 133.352 112.469 132.638 112.469C131.822 112.469 131.165 112.718 130.666 113.217C130.179 113.716 129.935 114.384 129.935 115.223V120H128.898V108.015H129.935V113.132C130.196 112.622 130.57 112.231 131.057 111.959C131.556 111.687 132.122 111.551 132.757 111.551Z" fill="white"/>
<path d="M145.253 116.005H139.014C139.048 117.036 139.32 117.83 139.83 118.385C140.34 118.929 141.065 119.201 142.006 119.201C143.003 119.201 143.904 118.861 144.709 118.181L145.117 118.997C144.754 119.337 144.289 119.609 143.723 119.813C143.167 120.017 142.595 120.119 142.006 120.119C140.748 120.119 139.756 119.739 139.031 118.98C138.305 118.221 137.943 117.178 137.943 115.852C137.943 115.002 138.101 114.254 138.419 113.608C138.747 112.951 139.201 112.446 139.779 112.095C140.368 111.732 141.042 111.551 141.802 111.551C142.878 111.551 143.723 111.902 144.335 112.605C144.947 113.308 145.253 114.288 145.253 115.546V116.005ZM141.802 112.401C141.008 112.401 140.374 112.65 139.898 113.149C139.422 113.648 139.138 114.345 139.048 115.24H144.301C144.278 114.333 144.051 113.636 143.621 113.149C143.19 112.65 142.584 112.401 141.802 112.401Z" fill="white"/>
<path d="M163.023 111.755H164.094L161.085 120H160.014L157.532 113.098L155.033 120H153.962L150.97 111.755H152.075L154.523 118.776L157.056 111.755H158.076L160.558 118.776L163.023 111.755Z" fill="white"/>
<path d="M169.238 120.119C168.478 120.119 167.81 119.943 167.232 119.592C166.665 119.241 166.223 118.742 165.906 118.096C165.588 117.45 165.43 116.696 165.43 115.835C165.43 114.974 165.588 114.22 165.906 113.574C166.223 112.928 166.665 112.429 167.232 112.078C167.81 111.727 168.478 111.551 169.238 111.551C169.986 111.551 170.649 111.727 171.227 112.078C171.805 112.429 172.247 112.928 172.553 113.574C172.87 114.22 173.029 114.974 173.029 115.835C173.029 116.696 172.87 117.45 172.553 118.096C172.247 118.742 171.805 119.241 171.227 119.592C170.649 119.943 169.986 120.119 169.238 120.119ZM169.221 119.201C170.093 119.201 170.768 118.912 171.244 118.334C171.72 117.756 171.958 116.923 171.958 115.835C171.958 114.77 171.714 113.942 171.227 113.353C170.751 112.752 170.088 112.452 169.238 112.452C168.376 112.452 167.708 112.752 167.232 113.353C166.756 113.942 166.518 114.77 166.518 115.835C166.518 116.923 166.75 117.756 167.215 118.334C167.679 118.912 168.348 119.201 169.221 119.201Z" fill="white"/>
<path d="M179.581 112.452L178.85 112.52C177.954 112.611 177.303 112.9 176.895 113.387C176.498 113.874 176.3 114.469 176.3 115.172V120H175.263V111.755H176.283V113.2C176.532 112.69 176.883 112.31 177.337 112.061C177.801 111.8 178.374 111.642 179.054 111.585L179.496 111.551L179.581 112.452Z" fill="white"/>
<path d="M181.066 120V108.015H182.103V120H181.066Z" fill="white"/>
<path d="M191.898 108.015V120H190.861V118.419C190.612 118.974 190.243 119.399 189.756 119.694C189.269 119.977 188.691 120.119 188.022 120.119C187.297 120.119 186.656 119.943 186.101 119.592C185.546 119.229 185.115 118.725 184.809 118.079C184.503 117.422 184.35 116.662 184.35 115.801C184.35 114.951 184.503 114.209 184.809 113.574C185.115 112.928 185.546 112.429 186.101 112.078C186.656 111.727 187.297 111.551 188.022 111.551C188.691 111.551 189.269 111.698 189.756 111.993C190.243 112.276 190.612 112.696 190.861 113.251V108.015H191.898ZM188.158 119.201C189.019 119.201 189.682 118.912 190.147 118.334C190.623 117.745 190.861 116.912 190.861 115.835C190.861 114.758 190.629 113.925 190.164 113.336C189.699 112.747 189.036 112.452 188.175 112.452C187.302 112.452 186.628 112.747 186.152 113.336C185.676 113.914 185.438 114.736 185.438 115.801C185.438 116.878 185.676 117.716 186.152 118.317C186.628 118.906 187.297 119.201 188.158 119.201Z" fill="white"/>
<path d="M47.725 30.375H51.425L45.15 48H42.025L37.95 36.325L33.825 48H30.7L24.45 30.375H28.4L32.425 42.55L36.7 30.375H39.425L43.55 42.675L47.725 30.375Z" fill="white"/>
<path d="M57.6166 48.2C56.3166 48.2 55.1749 47.9417 54.1916 47.425C53.2083 46.8917 52.4499 46.15 51.9166 45.2C51.3833 44.2333 51.1166 43.1 51.1166 41.8C51.1166 40.5 51.3833 39.375 51.9166 38.425C52.4499 37.4583 53.2083 36.7167 54.1916 36.2C55.1749 35.6833 56.3166 35.425 57.6166 35.425C58.9166 35.425 60.0583 35.6833 61.0416 36.2C62.0249 36.7167 62.7833 37.4583 63.3166 38.425C63.8499 39.375 64.1166 40.5 64.1166 41.8C64.1166 43.1 63.8499 44.2333 63.3166 45.2C62.7833 46.15 62.0249 46.8917 61.0416 47.425C60.0583 47.9417 58.9166 48.2 57.6166 48.2ZM57.6166 45.325C59.4499 45.325 60.3666 44.15 60.3666 41.8C60.3666 40.6167 60.1249 39.7333 59.6416 39.15C59.1749 38.5667 58.5 38.275 57.6166 38.275C55.7833 38.275 54.8666 39.45 54.8666 41.8C54.8666 44.15 55.7833 45.325 57.6166 45.325Z" fill="white"/>
<path d="M75.0639 38.525L72.9389 38.75C71.8889 38.85 71.1472 39.15 70.7139 39.65C70.2805 40.1333 70.0639 40.7833 70.0639 41.6V48H66.2889V35.725H69.9139V37.8C70.5305 36.3833 71.8055 35.6083 73.7389 35.475L74.8389 35.4L75.0639 38.525Z" fill="white"/>
<path d="M76.1981 48V30.375H79.9731V48H76.1981Z" fill="white"/>
<path d="M95.1631 30.375V48H91.4131V46.175C91.0464 46.8083 90.5214 47.3083 89.8381 47.675C89.1714 48.025 88.4131 48.2 87.5631 48.2C86.5131 48.2 85.5714 47.9333 84.7381 47.4C83.9214 46.85 83.2798 46.0917 82.8131 45.125C82.3631 44.1417 82.1381 43.0167 82.1381 41.75C82.1381 40.4833 82.3631 39.375 82.8131 38.425C83.2798 37.4583 83.9214 36.7167 84.7381 36.2C85.5548 35.6833 86.4964 35.425 87.5631 35.425C88.3964 35.425 89.1464 35.6 89.8131 35.95C90.4964 36.3 91.0214 36.7917 91.3881 37.425V30.375H95.1631ZM88.6631 45.325C89.5464 45.325 90.2214 45.025 90.6881 44.425C91.1714 43.8083 91.4131 42.9333 91.4131 41.8C91.4131 40.6667 91.1714 39.8 90.6881 39.2C90.2214 38.6 89.5464 38.3 88.6631 38.3C87.7798 38.3 87.0964 38.6 86.6131 39.2C86.1298 39.7833 85.8881 40.6333 85.8881 41.75C85.8881 42.8833 86.1298 43.7667 86.6131 44.4C87.0964 45.0167 87.7798 45.325 88.6631 45.325Z" fill="white"/>
<path d="M105.628 48V30.375H116.503V31.7H107.153V38.375H116.003V39.725H107.153V46.675H116.503V48H105.628Z" fill="white"/>
<path d="M123.891 48V31.725H117.566V30.375H131.716V31.725H125.416V48H123.891Z" fill="white"/>
<path d="M134.162 48V30.375H144.787V31.7H135.712V38.375H144.287V39.725H135.712V48H134.162Z" fill="white"/>
<path d="M151.286 48.175C149.369 48.175 147.803 47.6333 146.586 46.55L147.161 45.375C147.811 45.9083 148.461 46.2917 149.111 46.525C149.761 46.7417 150.511 46.85 151.361 46.85C152.344 46.85 153.094 46.675 153.611 46.325C154.144 45.975 154.411 45.4833 154.411 44.85C154.411 44.3167 154.236 43.8917 153.886 43.575C153.536 43.2417 152.978 42.9917 152.211 42.825L150.161 42.35C149.178 42.1167 148.403 41.7167 147.836 41.15C147.286 40.5667 147.011 39.8833 147.011 39.1C147.011 38.05 147.419 37.2 148.236 36.55C149.053 35.9 150.144 35.575 151.511 35.575C152.361 35.575 153.153 35.7167 153.886 36C154.636 36.2667 155.253 36.6583 155.736 37.175L155.161 38.35C154.594 37.85 154.011 37.4833 153.411 37.25C152.828 37.0167 152.194 36.9 151.511 36.9C150.594 36.9 149.878 37.0833 149.361 37.45C148.844 37.8167 148.586 38.325 148.586 38.975C148.586 39.5083 148.744 39.9417 149.061 40.275C149.394 40.6083 149.903 40.8583 150.586 41.025L152.661 41.525C154.861 42.025 155.961 43.1083 155.961 44.775C155.961 45.8083 155.536 46.6333 154.686 47.25C153.853 47.8667 152.719 48.175 151.286 48.175Z" fill="white"/>
</svg>
