<svg width="556" height="152" viewBox="0 0 556 152" fill="none" xmlns="http://www.w3.org/2000/svg">
<mask id="mask0_226_942" style="mask-type:alpha" maskUnits="userSpaceOnUse" x="0" y="0" width="556" height="152">
<path d="M540 0H16C7.16344 0 0 7.16344 0 16V136C0 144.837 7.16344 152 16 152H540C548.837 152 556 144.837 556 136V16C556 7.16344 548.837 0 540 0Z" fill="white"/>
</mask>
<g mask="url(#mask0_226_942)">
<path d="M540 0H16C7.16344 0 0 7.16344 0 16V136C0 144.837 7.16344 152 16 152H540C548.837 152 556 144.837 556 136V16C556 7.16344 548.837 0 540 0Z" fill="#1E1F21"/>
<path fill-rule="evenodd" clip-rule="evenodd" d="M395.026 54.4087L413.466 48.211L409.954 42.0122H388L395.026 54.4087Z" fill="#2E3133"/>
<path fill-rule="evenodd" clip-rule="evenodd" d="M825 37.6284L796.298 23.5421L773.972 31.0001L768.658 23.5421L730.388 16.9138L708.063 23.5421L696.369 11.1132H678.297L658.1 -1.37354L607.072 11.1132V21.0561L584.216 16.9138L575.712 31.772L544.883 35.0857L515.117 52.2101L506.081 41.715L518.838 43.3723L523.622 37.6284L494.388 23.5421L446.018 59.1716L449.208 71.5459L463.559 66.6276L465.685 76.5158L474.19 73.7543L474.721 56.6299L486.414 43.9244L491.729 47.7912L481.631 59.1716L490.135 66.6276L483.757 82.041L453.459 84.2504L430.603 100.271L436.983 107.452L434.856 112.976L417.63 113.528L426.883 131.758L437.513 126.786L440.703 119.605L447.612 112.976L457.18 112.423L472.064 124.023L470.865 129.5H473.022L475.72 125.19L477.733 124.316L474.19 119.605L463.026 105.243L468.342 104.137L478.441 115.739L483.225 130.1L488.541 126.234V119.605L493.325 120.156L497.045 129.547L511.928 128.996L511.397 141.15L502.36 145.313L483.757 139.491L476.316 145.313L461.963 138.387L459.088 130.428L420.819 137.886L403.28 162.693V186.772L426.4 208.314L451.116 200.028L459.088 208.314L467.857 238.143L461.48 258.028L479.02 292H493.37L507.721 276.256L514.099 255.543L524.462 246.43L520.476 224.885L538.016 205L545.989 186.772L528.449 191.742L509.314 152.8L513.301 147L530.044 182.628L559.543 176L553.962 158.6L544.395 162.693L538.814 146.171L545.193 145.343L555.557 152.8L573.893 156.943L585.851 168.543L601 199.201L608.175 177.656L626.512 162.693L641.311 179.169L643.117 192.298L652.82 207.486L657.605 205L646.305 190.934L647.24 182.628L657.605 194.228L666.374 184.838L657.87 170.476L666.374 162.693H683.117L692.684 144.514L689.495 126.285L697.468 119.657L702.252 137.057L706.237 131.257V119.657L718.994 111.37L730.215 85.7152L722.182 82.3712L734.939 66.6276H757.263L766.032 59.1716H777.194L762.843 77.4002L766.829 89.8282L777.194 79.0565V66.6276L785.167 63.3139L794.734 66.6276L812.775 55.0283L805.895 50.0563L825 37.6284Z" fill="#2E3133"/>
<path fill-rule="evenodd" clip-rule="evenodd" d="M428.768 94.696L441.989 87.0182L430.802 68.8706L417.541 81.7828V90.5081L428.768 84.9242V94.696Z" fill="#2E3133"/>
</g>
<path d="M26.547 97V85.015H33.942V85.916H27.584V90.455H33.602V91.373H27.584V96.099H33.942V97H26.547Z" fill="white"/>
<path d="M43.2682 88.755V100.06H42.2312V95.419C41.9819 95.9743 41.6136 96.3993 41.1262 96.694C40.6389 96.9773 40.0609 97.119 39.3922 97.119C38.6669 97.119 38.0266 96.9433 37.4712 96.592C36.9159 96.2406 36.4852 95.7476 36.1792 95.113C35.8732 94.467 35.7202 93.719 35.7202 92.869C35.7202 92.0076 35.8732 91.254 36.1792 90.608C36.4852 89.9506 36.9159 89.4463 37.4712 89.095C38.0266 88.7323 38.6669 88.551 39.3922 88.551C40.0609 88.551 40.6389 88.6983 41.1262 88.993C41.6136 89.2763 41.9819 89.6956 42.2312 90.251V88.755H43.2682ZM39.5452 96.201C40.4066 96.201 41.0696 95.912 41.5342 95.334C41.9989 94.7446 42.2312 93.9116 42.2312 92.835C42.2312 91.7583 41.9932 90.9253 41.5172 90.336C41.0526 89.7466 40.3896 89.452 39.5282 89.452C38.6669 89.452 37.9982 89.7523 37.5222 90.353C37.0462 90.9536 36.8082 91.7923 36.8082 92.869C36.8082 93.9343 37.0462 94.756 37.5222 95.334C37.9982 95.912 38.6726 96.201 39.5452 96.201Z" fill="white"/>
<path d="M52.7159 88.755V97H51.6959V95.521C51.4352 96.0423 51.0612 96.439 50.5739 96.711C50.0979 96.983 49.5539 97.119 48.9419 97.119C47.9672 97.119 47.2305 96.8526 46.7319 96.32C46.2445 95.776 46.0009 94.977 46.0009 93.923V88.755H47.0379V93.855C47.0379 94.6596 47.1965 95.2546 47.5139 95.64C47.8425 96.014 48.3525 96.201 49.0438 96.201C49.8372 96.201 50.4719 95.9516 50.9479 95.453C51.4352 94.943 51.6789 94.2686 51.6789 93.43V88.755H52.7159Z" fill="white"/>
<path d="M55.4738 97V88.755H56.5108V97H55.4738ZM55.3208 85.27H56.6808V86.579H55.3208V85.27Z" fill="white"/>
<path d="M62.6339 96.235C62.8832 96.235 63.1269 96.218 63.3649 96.184L63.3139 97.051C63.0646 97.085 62.7982 97.102 62.5149 97.102C61.5856 97.102 60.8829 96.8526 60.4069 96.354C59.9309 95.844 59.6929 95.1526 59.6929 94.28V89.588H58.0609V88.755H59.6929V86.205H60.7299V88.755H63.1439V89.588H60.7299V94.144C60.7299 94.8353 60.8886 95.3566 61.2059 95.708C61.5346 96.0593 62.0106 96.235 62.6339 96.235Z" fill="white"/>
<path d="M64.8889 97V88.755H65.9259V97H64.8889ZM64.7359 85.27H66.0959V86.579H64.7359V85.27Z" fill="white"/>
<path d="M75.483 93.005H69.244C69.278 94.0363 69.55 94.8296 70.06 95.385C70.57 95.929 71.2953 96.201 72.236 96.201C73.2333 96.201 74.1343 95.861 74.939 95.181L75.347 95.997C74.9843 96.337 74.5196 96.609 73.953 96.813C73.3976 97.017 72.8253 97.119 72.236 97.119C70.978 97.119 69.9863 96.7393 69.261 95.98C68.5356 95.2206 68.173 94.178 68.173 92.852C68.173 92.002 68.3316 91.254 68.649 90.608C68.9776 89.9506 69.431 89.4463 70.009 89.095C70.5983 88.7323 71.2726 88.551 72.032 88.551C73.1086 88.551 73.953 88.9023 74.565 89.605C75.177 90.3076 75.483 91.288 75.483 92.546V93.005ZM72.032 89.401C71.2386 89.401 70.604 89.6503 70.128 90.149C69.652 90.6476 69.3686 91.3446 69.278 92.24H74.531C74.5083 91.3333 74.2816 90.6363 73.851 90.149C73.4203 89.6503 72.814 89.401 72.032 89.401Z" fill="white"/>
<path d="M80.3767 97.119C79.0734 97.119 78.008 96.7506 77.1807 96.014L77.5717 95.215C78.0137 95.5776 78.4557 95.8383 78.8977 95.997C79.3397 96.1443 79.8497 96.218 80.4277 96.218C81.0964 96.218 81.6064 96.099 81.9577 95.861C82.3204 95.623 82.5017 95.2886 82.5017 94.858C82.5017 94.4953 82.3827 94.2063 82.1447 93.991C81.9067 93.7643 81.527 93.5943 81.0057 93.481L79.6117 93.158C78.943 92.9993 78.416 92.7273 78.0307 92.342C77.6567 91.9453 77.4697 91.4806 77.4697 90.948C77.4697 90.234 77.7474 89.656 78.3027 89.214C78.858 88.772 79.6004 88.551 80.5297 88.551C81.1077 88.551 81.646 88.6473 82.1447 88.84C82.6547 89.0213 83.074 89.2876 83.4027 89.639L83.0117 90.438C82.6264 90.098 82.2297 89.8486 81.8217 89.69C81.425 89.5313 80.9944 89.452 80.5297 89.452C79.9064 89.452 79.419 89.5766 79.0677 89.826C78.7164 90.0753 78.5407 90.421 78.5407 90.863C78.5407 91.2256 78.6484 91.5203 78.8637 91.747C79.0904 91.9736 79.436 92.1436 79.9007 92.257L81.3117 92.597C82.8077 92.937 83.5557 93.6736 83.5557 94.807C83.5557 95.5096 83.2667 96.0706 82.6887 96.49C82.122 96.9093 81.3514 97.119 80.3767 97.119Z" fill="white"/>
<path d="M93.4581 97.119C92.6987 97.119 92.0301 96.9433 91.4521 96.592C90.8854 96.2406 90.4434 95.742 90.1261 95.096C89.8087 94.45 89.6501 93.6963 89.6501 92.835C89.6501 91.9736 89.8087 91.22 90.1261 90.574C90.4434 89.928 90.8854 89.4293 91.4521 89.078C92.0301 88.7266 92.6987 88.551 93.4581 88.551C94.2061 88.551 94.8691 88.7266 95.4471 89.078C96.0251 89.4293 96.4671 89.928 96.7731 90.574C97.0904 91.22 97.2491 91.9736 97.2491 92.835C97.2491 93.6963 97.0904 94.45 96.7731 95.096C96.4671 95.742 96.0251 96.2406 95.4471 96.592C94.8691 96.9433 94.2061 97.119 93.4581 97.119ZM93.4411 96.201C94.3137 96.201 94.9881 95.912 95.4641 95.334C95.9401 94.756 96.1781 93.923 96.1781 92.835C96.1781 91.7696 95.9344 90.9423 95.4471 90.353C94.9711 89.7523 94.3081 89.452 93.4581 89.452C92.5967 89.452 91.9281 89.7523 91.4521 90.353C90.9761 90.9423 90.7381 91.7696 90.7381 92.835C90.7381 93.923 90.9704 94.756 91.4351 95.334C91.8997 95.912 92.5684 96.201 93.4411 96.201Z" fill="white"/>
<path d="M100.928 88.755H103.342V89.588H100.928V97H99.8913V89.588H98.2593V88.755H99.8913V88.347C99.8913 87.2816 100.152 86.477 100.673 85.933C101.195 85.3776 101.988 85.0716 103.053 85.015L103.648 84.981L103.733 85.831L102.951 85.865C102.26 85.9103 101.75 86.1313 101.421 86.528C101.093 86.9133 100.928 87.4856 100.928 88.245V88.755Z" fill="white"/>
<path d="M109.401 97V85.015H116.796V85.916H110.438V90.455H116.456V91.373H110.438V96.099H116.796V97H109.401Z" fill="white"/>
<path d="M125.782 88.755V97H124.762V95.521C124.501 96.0423 124.127 96.439 123.64 96.711C123.164 96.983 122.62 97.119 122.008 97.119C121.033 97.119 120.297 96.8526 119.798 96.32C119.311 95.776 119.067 94.977 119.067 93.923V88.755H120.104V93.855C120.104 94.6596 120.263 95.2546 120.58 95.64C120.909 96.014 121.419 96.201 122.11 96.201C122.903 96.201 123.538 95.9516 124.014 95.453C124.501 94.943 124.745 94.2686 124.745 93.43V88.755H125.782Z" fill="white"/>
<path d="M132.858 89.452L132.127 89.52C131.232 89.6106 130.58 89.8996 130.172 90.387C129.775 90.8743 129.577 91.4693 129.577 92.172V97H128.54V88.755H129.56V90.2C129.809 89.69 130.161 89.3103 130.614 89.061C131.079 88.8003 131.651 88.6416 132.331 88.585L132.773 88.551L132.858 89.452Z" fill="white"/>
<path d="M137.458 97.119C136.699 97.119 136.03 96.9433 135.452 96.592C134.886 96.2406 134.444 95.742 134.126 95.096C133.809 94.45 133.65 93.6963 133.65 92.835C133.65 91.9736 133.809 91.22 134.126 90.574C134.444 89.928 134.886 89.4293 135.452 89.078C136.03 88.7266 136.699 88.551 137.458 88.551C138.206 88.551 138.869 88.7266 139.447 89.078C140.025 89.4293 140.467 89.928 140.773 90.574C141.091 91.22 141.249 91.9736 141.249 92.835C141.249 93.6963 141.091 94.45 140.773 95.096C140.467 95.742 140.025 96.2406 139.447 96.592C138.869 96.9433 138.206 97.119 137.458 97.119ZM137.441 96.201C138.314 96.201 138.988 95.912 139.464 95.334C139.94 94.756 140.178 93.923 140.178 92.835C140.178 91.7696 139.935 90.9423 139.447 90.353C138.971 89.7523 138.308 89.452 137.458 89.452C136.597 89.452 135.928 89.7523 135.452 90.353C134.976 90.9423 134.738 91.7696 134.738 92.835C134.738 93.923 134.971 94.756 135.435 95.334C135.9 95.912 136.569 96.201 137.441 96.201Z" fill="white"/>
<path d="M147.359 88.551C148.085 88.551 148.725 88.7323 149.28 89.095C149.836 89.4463 150.266 89.9506 150.572 90.608C150.878 91.254 151.031 92.0076 151.031 92.869C151.031 93.719 150.878 94.467 150.572 95.113C150.266 95.7476 149.836 96.2406 149.28 96.592C148.725 96.9433 148.085 97.119 147.359 97.119C146.691 97.119 146.113 96.9773 145.625 96.694C145.138 96.3993 144.77 95.9743 144.52 95.419V100.06H143.483V88.755H144.52V90.251C144.77 89.6956 145.138 89.2763 145.625 88.993C146.113 88.6983 146.691 88.551 147.359 88.551ZM147.206 96.201C148.079 96.201 148.753 95.912 149.229 95.334C149.717 94.7446 149.96 93.923 149.96 92.869C149.96 91.7923 149.717 90.9536 149.229 90.353C148.753 89.7523 148.085 89.452 147.223 89.452C146.362 89.452 145.693 89.7466 145.217 90.336C144.753 90.9253 144.52 91.7583 144.52 92.835C144.52 93.9116 144.753 94.7446 145.217 95.334C145.682 95.912 146.345 96.201 147.206 96.201Z" fill="white"/>
<path d="M160.054 93.005H153.815C153.849 94.0363 154.121 94.8296 154.631 95.385C155.141 95.929 155.866 96.201 156.807 96.201C157.804 96.201 158.705 95.861 159.51 95.181L159.918 95.997C159.555 96.337 159.091 96.609 158.524 96.813C157.969 97.017 157.396 97.119 156.807 97.119C155.549 97.119 154.557 96.7393 153.832 95.98C153.107 95.2206 152.744 94.178 152.744 92.852C152.744 92.002 152.903 91.254 153.22 90.608C153.549 89.9506 154.002 89.4463 154.58 89.095C155.169 88.7323 155.844 88.551 156.603 88.551C157.68 88.551 158.524 88.9023 159.136 89.605C159.748 90.3076 160.054 91.288 160.054 92.546V93.005ZM156.603 89.401C155.81 89.401 155.175 89.6503 154.699 90.149C154.223 90.6476 153.94 91.3446 153.849 92.24H159.102C159.079 91.3333 158.853 90.6363 158.422 90.149C157.991 89.6503 157.385 89.401 156.603 89.401Z" fill="white"/>
<path d="M165.526 88.551C166.523 88.551 167.265 88.8116 167.753 89.333C168.251 89.8543 168.501 90.642 168.501 91.696V97H167.481V95.521C167.243 96.031 166.897 96.4276 166.444 96.711C165.99 96.983 165.469 97.119 164.88 97.119C164.347 97.119 163.86 97.0113 163.418 96.796C162.976 96.5806 162.624 96.2803 162.364 95.895C162.114 95.5096 161.99 95.0846 161.99 94.62C161.99 94.008 162.148 93.532 162.466 93.192C162.783 92.852 163.31 92.6083 164.047 92.461C164.783 92.3136 165.809 92.24 167.124 92.24H167.481V91.611C167.481 90.863 167.328 90.319 167.022 89.979C166.716 89.6276 166.234 89.452 165.577 89.452C165.078 89.452 164.596 89.5256 164.132 89.673C163.678 89.809 163.208 90.0356 162.721 90.353L162.33 89.554C162.749 89.248 163.248 89.0043 163.826 88.823C164.404 88.6416 164.97 88.551 165.526 88.551ZM164.965 96.218C165.701 96.218 166.302 95.9686 166.767 95.47C167.243 94.9713 167.481 94.3366 167.481 93.566V93.005H167.158C166.07 93.005 165.237 93.0503 164.659 93.141C164.081 93.2316 163.673 93.3903 163.435 93.617C163.197 93.8323 163.078 94.1496 163.078 94.569C163.078 95.045 163.259 95.4416 163.622 95.759C163.984 96.065 164.432 96.218 164.965 96.218Z" fill="white"/>
<path d="M175.111 88.551C177.095 88.551 178.086 89.6163 178.086 91.747V97H177.049V91.815C177.049 90.999 176.885 90.404 176.556 90.03C176.228 89.656 175.706 89.469 174.992 89.469C174.176 89.469 173.519 89.7183 173.02 90.217C172.533 90.7156 172.289 91.3843 172.289 92.223V97H171.252V88.755H172.272V90.166C172.533 89.6446 172.907 89.248 173.394 88.976C173.893 88.6926 174.465 88.551 175.111 88.551Z" fill="white"/>
<path d="M29.709 120.119C28.927 120.119 28.2413 119.943 27.652 119.592C27.074 119.241 26.6263 118.742 26.309 118.096C25.9917 117.45 25.833 116.708 25.833 115.869C25.833 115.019 25.9917 114.265 26.309 113.608C26.6377 112.951 27.0967 112.446 27.686 112.095C28.2753 111.732 28.9667 111.551 29.76 111.551C30.3153 111.551 30.848 111.647 31.358 111.84C31.8793 112.033 32.2987 112.299 32.616 112.639L32.225 113.455C31.8057 113.104 31.3977 112.849 31.001 112.69C30.6157 112.531 30.2133 112.452 29.794 112.452C28.91 112.452 28.2073 112.758 27.686 113.37C27.176 113.971 26.921 114.804 26.921 115.869C26.921 116.923 27.176 117.745 27.686 118.334C28.196 118.912 28.893 119.201 29.777 119.201C30.1963 119.201 30.5987 119.122 30.984 118.963C31.3807 118.804 31.7943 118.555 32.225 118.215L32.616 119.014C32.276 119.354 31.8453 119.626 31.324 119.83C30.8027 120.023 30.2643 120.119 29.709 120.119Z" fill="white"/>
<path d="M37.7519 120.119C36.9925 120.119 36.3239 119.943 35.7459 119.592C35.1792 119.241 34.7372 118.742 34.4199 118.096C34.1025 117.45 33.9439 116.696 33.9439 115.835C33.9439 114.974 34.1025 114.22 34.4199 113.574C34.7372 112.928 35.1792 112.429 35.7459 112.078C36.3239 111.727 36.9925 111.551 37.7519 111.551C38.4999 111.551 39.1629 111.727 39.7409 112.078C40.3189 112.429 40.7609 112.928 41.0669 113.574C41.3842 114.22 41.5429 114.974 41.5429 115.835C41.5429 116.696 41.3842 117.45 41.0669 118.096C40.7609 118.742 40.3189 119.241 39.7409 119.592C39.1629 119.943 38.4999 120.119 37.7519 120.119ZM37.7349 119.201C38.6075 119.201 39.2819 118.912 39.7579 118.334C40.2339 117.756 40.4719 116.923 40.4719 115.835C40.4719 114.77 40.2282 113.942 39.7409 113.353C39.2649 112.752 38.6019 112.452 37.7519 112.452C36.8905 112.452 36.2219 112.752 35.7459 113.353C35.2699 113.942 35.0319 114.77 35.0319 115.835C35.0319 116.923 35.2642 117.756 35.7289 118.334C36.1935 118.912 36.8622 119.201 37.7349 119.201Z" fill="white"/>
<path d="M52.685 111.551C54.5097 111.551 55.422 112.616 55.422 114.747V120H54.385V114.815C54.385 113.988 54.2377 113.393 53.943 113.03C53.6484 112.656 53.178 112.469 52.532 112.469C51.7954 112.469 51.206 112.718 50.764 113.217C50.3334 113.716 50.118 114.39 50.118 115.24V120H49.081V114.815C49.081 113.988 48.9337 113.393 48.639 113.03C48.3444 112.656 47.874 112.469 47.228 112.469C46.4914 112.469 45.902 112.718 45.46 113.217C45.0294 113.716 44.814 114.39 44.814 115.24V120H43.777V111.755H44.797V113.115C45.035 112.605 45.375 112.22 45.817 111.959C46.2704 111.687 46.7917 111.551 47.381 111.551C48.707 111.551 49.5514 112.095 49.914 113.183C50.152 112.673 50.5147 112.276 51.002 111.993C51.4894 111.698 52.0504 111.551 52.685 111.551Z" fill="white"/>
<path d="M62.0227 111.551C62.748 111.551 63.3884 111.732 63.9437 112.095C64.499 112.446 64.9297 112.951 65.2357 113.608C65.5417 114.254 65.6947 115.008 65.6947 115.869C65.6947 116.719 65.5417 117.467 65.2357 118.113C64.9297 118.748 64.499 119.241 63.9437 119.592C63.3884 119.943 62.748 120.119 62.0227 120.119C61.354 120.119 60.776 119.977 60.2887 119.694C59.8014 119.399 59.433 118.974 59.1837 118.419V123.06H58.1467V111.755H59.1837V113.251C59.433 112.696 59.8014 112.276 60.2887 111.993C60.776 111.698 61.354 111.551 62.0227 111.551ZM61.8697 119.201C62.7424 119.201 63.4167 118.912 63.8927 118.334C64.38 117.745 64.6237 116.923 64.6237 115.869C64.6237 114.792 64.38 113.954 63.8927 113.353C63.4167 112.752 62.748 112.452 61.8867 112.452C61.0254 112.452 60.3567 112.747 59.8807 113.336C59.416 113.925 59.1837 114.758 59.1837 115.835C59.1837 116.912 59.416 117.745 59.8807 118.334C60.3454 118.912 61.0084 119.201 61.8697 119.201Z" fill="white"/>
<path d="M71.1983 111.551C72.1956 111.551 72.938 111.812 73.4253 112.333C73.924 112.854 74.1733 113.642 74.1733 114.696V120H73.1533V118.521C72.9153 119.031 72.5696 119.428 72.1163 119.711C71.663 119.983 71.1416 120.119 70.5523 120.119C70.0196 120.119 69.5323 120.011 69.0903 119.796C68.6483 119.581 68.297 119.28 68.0363 118.895C67.787 118.51 67.6623 118.085 67.6623 117.62C67.6623 117.008 67.821 116.532 68.1383 116.192C68.4556 115.852 68.9826 115.608 69.7193 115.461C70.456 115.314 71.4816 115.24 72.7963 115.24H73.1533V114.611C73.1533 113.863 73.0003 113.319 72.6943 112.979C72.3883 112.628 71.9066 112.452 71.2493 112.452C70.7506 112.452 70.269 112.526 69.8043 112.673C69.351 112.809 68.8806 113.036 68.3933 113.353L68.0023 112.554C68.4216 112.248 68.9203 112.004 69.4983 111.823C70.0763 111.642 70.643 111.551 71.1983 111.551ZM70.6373 119.218C71.374 119.218 71.9746 118.969 72.4393 118.47C72.9153 117.971 73.1533 117.337 73.1533 116.566V116.005H72.8303C71.7423 116.005 70.9093 116.05 70.3313 116.141C69.7533 116.232 69.3453 116.39 69.1073 116.617C68.8693 116.832 68.7503 117.15 68.7503 117.569C68.7503 118.045 68.9316 118.442 69.2943 118.759C69.657 119.065 70.1046 119.218 70.6373 119.218Z" fill="white"/>
<path d="M80.784 111.551C82.7674 111.551 83.759 112.616 83.759 114.747V120H82.722V114.815C82.722 113.999 82.5577 113.404 82.229 113.03C81.9004 112.656 81.379 112.469 80.665 112.469C79.849 112.469 79.1917 112.718 78.6931 113.217C78.2057 113.716 77.962 114.384 77.962 115.223V120H76.925V111.755H77.945V113.166C78.2057 112.645 78.5797 112.248 79.067 111.976C79.5657 111.693 80.1381 111.551 80.784 111.551Z" fill="white"/>
<path d="M86.4968 120V111.755H87.5338V120H86.4968ZM86.3438 108.27H87.7038V109.579H86.3438V108.27Z" fill="white"/>
<path d="M97.0909 116.005H90.8519C90.8859 117.036 91.1579 117.83 91.6679 118.385C92.1779 118.929 92.9032 119.201 93.8439 119.201C94.8412 119.201 95.7422 118.861 96.5469 118.181L96.9549 118.997C96.5922 119.337 96.1276 119.609 95.5609 119.813C95.0056 120.017 94.4332 120.119 93.8439 120.119C92.5859 120.119 91.5942 119.739 90.8689 118.98C90.1436 118.221 89.7809 117.178 89.7809 115.852C89.7809 115.002 89.9396 114.254 90.2569 113.608C90.5856 112.951 91.0389 112.446 91.6169 112.095C92.2062 111.732 92.8806 111.551 93.6399 111.551C94.7166 111.551 95.5609 111.902 96.1729 112.605C96.7849 113.308 97.0909 114.288 97.0909 115.546V116.005ZM93.6399 112.401C92.8466 112.401 92.2119 112.65 91.7359 113.149C91.2599 113.648 90.9766 114.345 90.8859 115.24H96.1389C96.1162 114.333 95.8896 113.636 95.4589 113.149C95.0282 112.65 94.4219 112.401 93.6399 112.401Z" fill="white"/>
<path d="M101.985 120.119C100.681 120.119 99.616 119.751 98.7886 119.014L99.1796 118.215C99.6216 118.578 100.064 118.838 100.506 118.997C100.948 119.144 101.458 119.218 102.036 119.218C102.704 119.218 103.214 119.099 103.566 118.861C103.928 118.623 104.11 118.289 104.11 117.858C104.11 117.495 103.991 117.206 103.753 116.991C103.515 116.764 103.135 116.594 102.614 116.481L101.22 116.158C100.551 115.999 100.024 115.727 99.6386 115.342C99.2646 114.945 99.0776 114.481 99.0776 113.948C99.0776 113.234 99.3553 112.656 99.9106 112.214C100.466 111.772 101.208 111.551 102.138 111.551C102.716 111.551 103.254 111.647 103.753 111.84C104.263 112.021 104.682 112.288 105.011 112.639L104.62 113.438C104.234 113.098 103.838 112.849 103.43 112.69C103.033 112.531 102.602 112.452 102.138 112.452C101.514 112.452 101.027 112.577 100.676 112.826C100.324 113.075 100.149 113.421 100.149 113.863C100.149 114.226 100.256 114.52 100.472 114.747C100.698 114.974 101.044 115.144 101.509 115.257L102.92 115.597C104.416 115.937 105.164 116.674 105.164 117.807C105.164 118.51 104.875 119.071 104.297 119.49C103.73 119.909 102.959 120.119 101.985 120.119Z" fill="white"/>
<path d="M108.617 118.538V119.609C108.617 120.04 108.549 120.431 108.413 120.782C108.277 121.145 108.051 121.485 107.733 121.802L107.189 121.377C107.597 120.924 107.818 120.465 107.852 120H107.172V118.538H108.617Z" fill="white"/>
<path d="M119.356 111.551C120.081 111.551 120.722 111.727 121.277 112.078C121.832 112.429 122.263 112.928 122.569 113.574C122.875 114.209 123.028 114.951 123.028 115.801C123.028 116.662 122.875 117.422 122.569 118.079C122.263 118.725 121.832 119.229 121.277 119.592C120.722 119.943 120.081 120.119 119.356 120.119C118.687 120.119 118.109 119.977 117.622 119.694C117.135 119.399 116.766 118.974 116.517 118.419V120H115.48V108.015H116.517V113.251C116.766 112.696 117.135 112.276 117.622 111.993C118.109 111.698 118.687 111.551 119.356 111.551ZM119.22 119.201C120.081 119.201 120.75 118.901 121.226 118.3C121.713 117.699 121.957 116.866 121.957 115.801C121.957 114.736 121.713 113.914 121.226 113.336C120.75 112.747 120.076 112.452 119.203 112.452C118.342 112.452 117.679 112.747 117.214 113.336C116.749 113.925 116.517 114.758 116.517 115.835C116.517 116.912 116.749 117.745 117.214 118.334C117.69 118.912 118.359 119.201 119.22 119.201Z" fill="white"/>
<path d="M129.585 112.452L128.854 112.52C127.959 112.611 127.307 112.9 126.899 113.387C126.503 113.874 126.304 114.469 126.304 115.172V120H125.267V111.755H126.287V113.2C126.537 112.69 126.888 112.31 127.341 112.061C127.806 111.8 128.378 111.642 129.058 111.585L129.5 111.551L129.585 112.452Z" fill="white"/>
<path d="M134.186 120.119C133.426 120.119 132.758 119.943 132.18 119.592C131.613 119.241 131.171 118.742 130.854 118.096C130.536 117.45 130.378 116.696 130.378 115.835C130.378 114.974 130.536 114.22 130.854 113.574C131.171 112.928 131.613 112.429 132.18 112.078C132.758 111.727 133.426 111.551 134.186 111.551C134.934 111.551 135.597 111.727 136.175 112.078C136.753 112.429 137.195 112.928 137.501 113.574C137.818 114.22 137.977 114.974 137.977 115.835C137.977 116.696 137.818 117.45 137.501 118.096C137.195 118.742 136.753 119.241 136.175 119.592C135.597 119.943 134.934 120.119 134.186 120.119ZM134.169 119.201C135.041 119.201 135.716 118.912 136.192 118.334C136.668 117.756 136.906 116.923 136.906 115.835C136.906 114.77 136.662 113.942 136.175 113.353C135.699 112.752 135.036 112.452 134.186 112.452C133.324 112.452 132.656 112.752 132.18 113.353C131.704 113.942 131.466 114.77 131.466 115.835C131.466 116.923 131.698 117.756 132.163 118.334C132.627 118.912 133.296 119.201 134.169 119.201Z" fill="white"/>
<path d="M143.475 111.551C144.472 111.551 145.215 111.812 145.702 112.333C146.201 112.854 146.45 113.642 146.45 114.696V120H145.43V118.521C145.192 119.031 144.846 119.428 144.393 119.711C143.94 119.983 143.418 120.119 142.829 120.119C142.296 120.119 141.809 120.011 141.367 119.796C140.925 119.581 140.574 119.28 140.313 118.895C140.064 118.51 139.939 118.085 139.939 117.62C139.939 117.008 140.098 116.532 140.415 116.192C140.732 115.852 141.259 115.608 141.996 115.461C142.733 115.314 143.758 115.24 145.073 115.24H145.43V114.611C145.43 113.863 145.277 113.319 144.971 112.979C144.665 112.628 144.183 112.452 143.526 112.452C143.027 112.452 142.546 112.526 142.081 112.673C141.628 112.809 141.157 113.036 140.67 113.353L140.279 112.554C140.698 112.248 141.197 112.004 141.775 111.823C142.353 111.642 142.92 111.551 143.475 111.551ZM142.914 119.218C143.651 119.218 144.251 118.969 144.716 118.47C145.192 117.971 145.43 117.337 145.43 116.566V116.005H145.107C144.019 116.005 143.186 116.05 142.608 116.141C142.03 116.232 141.622 116.39 141.384 116.617C141.146 116.832 141.027 117.15 141.027 117.569C141.027 118.045 141.208 118.442 141.571 118.759C141.934 119.065 142.381 119.218 142.914 119.218Z" fill="white"/>
<path d="M156.223 108.015V120H155.186V118.419C154.936 118.974 154.568 119.399 154.081 119.694C153.593 119.977 153.015 120.119 152.347 120.119C151.621 120.119 150.981 119.943 150.426 119.592C149.87 119.229 149.44 118.725 149.134 118.079C148.828 117.422 148.675 116.662 148.675 115.801C148.675 114.951 148.828 114.209 149.134 113.574C149.44 112.928 149.87 112.429 150.426 112.078C150.981 111.727 151.621 111.551 152.347 111.551C153.015 111.551 153.593 111.698 154.081 111.993C154.568 112.276 154.936 112.696 155.186 113.251V108.015H156.223ZM152.483 119.201C153.344 119.201 154.007 118.912 154.472 118.334C154.948 117.745 155.186 116.912 155.186 115.835C155.186 114.758 154.953 113.925 154.489 113.336C154.024 112.747 153.361 112.452 152.5 112.452C151.627 112.452 150.953 112.747 150.477 113.336C150.001 113.914 149.763 114.736 149.763 115.801C149.763 116.878 150.001 117.716 150.477 118.317C150.953 118.906 151.621 119.201 152.483 119.201Z" fill="white"/>
<path d="M158.989 120V108.015H160.026V120H158.989Z" fill="white"/>
<path d="M168.767 111.755H169.821L164.959 123.06H163.905L165.248 120L161.712 111.755H162.817L165.792 118.946L168.767 111.755Z" fill="white"/>
<path d="M182.839 108.015V120H181.802V118.419C181.553 118.974 181.184 119.399 180.697 119.694C180.21 119.977 179.632 120.119 178.963 120.119C178.238 120.119 177.597 119.943 177.042 119.592C176.487 119.229 176.056 118.725 175.75 118.079C175.444 117.422 175.291 116.662 175.291 115.801C175.291 114.951 175.444 114.209 175.75 113.574C176.056 112.928 176.487 112.429 177.042 112.078C177.597 111.727 178.238 111.551 178.963 111.551C179.632 111.551 180.21 111.698 180.697 111.993C181.184 112.276 181.553 112.696 181.802 113.251V108.015H182.839ZM179.099 119.201C179.96 119.201 180.623 118.912 181.088 118.334C181.564 117.745 181.802 116.912 181.802 115.835C181.802 114.758 181.57 113.925 181.105 113.336C180.64 112.747 179.977 112.452 179.116 112.452C178.243 112.452 177.569 112.747 177.093 113.336C176.617 113.914 176.379 114.736 176.379 115.801C176.379 116.878 176.617 117.716 177.093 118.317C177.569 118.906 178.238 119.201 179.099 119.201Z" fill="white"/>
<path d="M185.606 120V111.755H186.643V120H185.606ZM185.453 108.27H186.813V109.579H185.453V108.27Z" fill="white"/>
<path d="M195.384 111.755H196.438L192.902 120H191.848L188.329 111.755H189.434L192.409 118.946L195.384 111.755Z" fill="white"/>
<path d="M204.808 116.005H198.569C198.603 117.036 198.875 117.83 199.385 118.385C199.895 118.929 200.621 119.201 201.561 119.201C202.559 119.201 203.46 118.861 204.264 118.181L204.672 118.997C204.31 119.337 203.845 119.609 203.278 119.813C202.723 120.017 202.151 120.119 201.561 120.119C200.303 120.119 199.312 119.739 198.586 118.98C197.861 118.221 197.498 117.178 197.498 115.852C197.498 115.002 197.657 114.254 197.974 113.608C198.303 112.951 198.756 112.446 199.334 112.095C199.924 111.732 200.598 111.551 201.357 111.551C202.434 111.551 203.278 111.902 203.89 112.605C204.502 113.308 204.808 114.288 204.808 115.546V116.005ZM201.357 112.401C200.564 112.401 199.929 112.65 199.453 113.149C198.977 113.648 198.694 114.345 198.603 115.24H203.856C203.834 114.333 203.607 113.636 203.176 113.149C202.746 112.65 202.139 112.401 201.357 112.401Z" fill="white"/>
<path d="M211.334 112.452L210.603 112.52C209.708 112.611 209.056 112.9 208.648 113.387C208.252 113.874 208.053 114.469 208.053 115.172V120H207.016V111.755H208.036V113.2C208.286 112.69 208.637 112.31 209.09 112.061C209.555 111.8 210.127 111.642 210.807 111.585L211.249 111.551L211.334 112.452Z" fill="white"/>
<path d="M215.422 120.119C214.119 120.119 213.054 119.751 212.226 119.014L212.617 118.215C213.059 118.578 213.501 118.838 213.943 118.997C214.385 119.144 214.895 119.218 215.473 119.218C216.142 119.218 216.652 119.099 217.003 118.861C217.366 118.623 217.547 118.289 217.547 117.858C217.547 117.495 217.428 117.206 217.19 116.991C216.952 116.764 216.573 116.594 216.051 116.481L214.657 116.158C213.989 115.999 213.462 115.727 213.076 115.342C212.702 114.945 212.515 114.481 212.515 113.948C212.515 113.234 212.793 112.656 213.348 112.214C213.904 111.772 214.646 111.551 215.575 111.551C216.153 111.551 216.692 111.647 217.19 111.84C217.7 112.021 218.12 112.288 218.448 112.639L218.057 113.438C217.672 113.098 217.275 112.849 216.867 112.69C216.471 112.531 216.04 112.452 215.575 112.452C214.952 112.452 214.465 112.577 214.113 112.826C213.762 113.075 213.586 113.421 213.586 113.863C213.586 114.226 213.694 114.52 213.909 114.747C214.136 114.974 214.482 115.144 214.946 115.257L216.357 115.597C217.853 115.937 218.601 116.674 218.601 117.807C218.601 118.51 218.312 119.071 217.734 119.49C217.168 119.909 216.397 120.119 215.422 120.119Z" fill="white"/>
<path d="M220.897 120V111.755H221.934V120H220.897ZM220.744 108.27H222.104V109.579H220.744V108.27Z" fill="white"/>
<path d="M226.153 111.755H231.066V120H230.029V112.588H226.153V120H225.116V112.588H223.484V111.755H225.116V111.347C225.116 110.282 225.371 109.477 225.881 108.933C226.402 108.378 227.202 108.072 228.278 108.015L228.873 107.981L228.958 108.831L228.176 108.865C227.473 108.91 226.958 109.131 226.629 109.528C226.312 109.913 226.153 110.486 226.153 111.245V111.755ZM229.859 108.253H231.253V109.596H229.859V108.253Z" fill="white"/>
<path d="M240.615 116.005H234.376C234.41 117.036 234.682 117.83 235.192 118.385C235.702 118.929 236.427 119.201 237.368 119.201C238.365 119.201 239.266 118.861 240.071 118.181L240.479 118.997C240.116 119.337 239.651 119.609 239.085 119.813C238.529 120.017 237.957 120.119 237.368 120.119C236.11 120.119 235.118 119.739 234.393 118.98C233.667 118.221 233.305 117.178 233.305 115.852C233.305 115.002 233.463 114.254 233.781 113.608C234.109 112.951 234.563 112.446 235.141 112.095C235.73 111.732 236.404 111.551 237.164 111.551C238.24 111.551 239.085 111.902 239.697 112.605C240.309 113.308 240.615 114.288 240.615 115.546V116.005ZM237.164 112.401C236.37 112.401 235.736 112.65 235.26 113.149C234.784 113.648 234.5 114.345 234.41 115.24H239.663C239.64 114.333 239.413 113.636 238.983 113.149C238.552 112.65 237.946 112.401 237.164 112.401Z" fill="white"/>
<path d="M249.843 108.015V120H248.806V118.419C248.557 118.974 248.189 119.399 247.701 119.694C247.214 119.977 246.636 120.119 245.967 120.119C245.242 120.119 244.602 119.943 244.046 119.592C243.491 119.229 243.06 118.725 242.754 118.079C242.448 117.422 242.295 116.662 242.295 115.801C242.295 114.951 242.448 114.209 242.754 113.574C243.06 112.928 243.491 112.429 244.046 112.078C244.602 111.727 245.242 111.551 245.967 111.551C246.636 111.551 247.214 111.698 247.701 111.993C248.189 112.276 248.557 112.696 248.806 113.251V108.015H249.843ZM246.103 119.201C246.965 119.201 247.628 118.912 248.092 118.334C248.568 117.745 248.806 116.912 248.806 115.835C248.806 114.758 248.574 113.925 248.109 113.336C247.645 112.747 246.982 112.452 246.12 112.452C245.248 112.452 244.573 112.747 244.097 113.336C243.621 113.914 243.383 114.736 243.383 115.801C243.383 116.878 243.621 117.716 244.097 118.317C244.573 118.906 245.242 119.201 246.103 119.201Z" fill="white"/>
<path d="M25.75 48V30.375H37.9V33.4H29.55V37.525H37.4V40.55H29.55V44.975H37.9V48H25.75Z" fill="white"/>
<path d="M51.9693 35.725V48H48.2943V46.25C47.911 46.8833 47.4027 47.3667 46.7693 47.7C46.1527 48.0333 45.4527 48.2 44.6693 48.2C43.1193 48.2 41.961 47.775 41.1943 46.925C40.4443 46.0583 40.0693 44.7583 40.0693 43.025V35.725H43.8443V43.1C43.8443 43.8333 43.9943 44.375 44.2943 44.725C44.611 45.075 45.086 45.25 45.7193 45.25C46.4527 45.25 47.0443 45 47.4943 44.5C47.961 44 48.1943 43.3417 48.1943 42.525V35.725H51.9693Z" fill="white"/>
<path d="M63.516 38.525L61.391 38.75C60.341 38.85 59.5993 39.15 59.166 39.65C58.7327 40.1333 58.516 40.7833 58.516 41.6V48H54.741V35.725H58.366V37.8C58.9827 36.3833 60.2577 35.6083 62.191 35.475L63.291 35.4L63.516 38.525Z" fill="white"/>
<path d="M70.3061 48.2C69.0061 48.2 67.8644 47.9417 66.8811 47.425C65.8977 46.8917 65.1394 46.15 64.6061 45.2C64.0727 44.2333 63.8061 43.1 63.8061 41.8C63.8061 40.5 64.0727 39.375 64.6061 38.425C65.1394 37.4583 65.8977 36.7167 66.8811 36.2C67.8644 35.6833 69.0061 35.425 70.3061 35.425C71.6061 35.425 72.7477 35.6833 73.7311 36.2C74.7144 36.7167 75.4727 37.4583 76.0061 38.425C76.5394 39.375 76.8061 40.5 76.8061 41.8C76.8061 43.1 76.5394 44.2333 76.0061 45.2C75.4727 46.15 74.7144 46.8917 73.7311 47.425C72.7477 47.9417 71.6061 48.2 70.3061 48.2ZM70.3061 45.325C72.1394 45.325 73.0561 44.15 73.0561 41.8C73.0561 40.6167 72.8144 39.7333 72.3311 39.15C71.8644 38.5667 71.1894 38.275 70.3061 38.275C68.4727 38.275 67.5561 39.45 67.5561 41.8C67.5561 44.15 68.4727 45.325 70.3061 45.325Z" fill="white"/>
<path d="M86.5783 35.425C87.6283 35.425 88.5617 35.7 89.3783 36.25C90.2117 36.7833 90.8533 37.5417 91.3033 38.525C91.77 39.4917 92.0033 40.6083 92.0033 41.875C92.0033 43.1417 91.77 44.2583 91.3033 45.225C90.8533 46.175 90.22 46.9083 89.4033 47.425C88.5867 47.9417 87.645 48.2 86.5783 48.2C85.745 48.2 84.9867 48.0333 84.3033 47.7C83.6367 47.35 83.12 46.8667 82.7533 46.25V52.5H78.9783V35.725H82.7033V37.45C83.07 36.8167 83.595 36.325 84.2783 35.975C84.9617 35.6083 85.7283 35.425 86.5783 35.425ZM85.4783 45.325C86.3617 45.325 87.045 45.0333 87.5283 44.45C88.0117 43.85 88.2533 42.9917 88.2533 41.875C88.2533 40.7417 88.0117 39.8667 87.5283 39.25C87.045 38.6167 86.3617 38.3 85.4783 38.3C84.595 38.3 83.9117 38.6083 83.4283 39.225C82.945 39.825 82.7033 40.6917 82.7033 41.825C82.7033 42.9417 82.945 43.8083 83.4283 44.425C83.9117 45.025 84.595 45.325 85.4783 45.325Z" fill="white"/>
<path d="M105.235 42.575H97.2354C97.352 43.5583 97.6687 44.275 98.1853 44.725C98.7187 45.1583 99.4687 45.375 100.435 45.375C101.069 45.375 101.694 45.275 102.31 45.075C102.944 44.8583 103.519 44.5583 104.035 44.175L105.035 46.7C104.435 47.1667 103.702 47.5333 102.835 47.8C101.985 48.0667 101.127 48.2 100.26 48.2C98.1937 48.2 96.5603 47.6333 95.3604 46.5C94.177 45.35 93.5854 43.7917 93.5854 41.825C93.5854 40.575 93.8437 39.4667 94.3604 38.5C94.877 37.5333 95.5937 36.7833 96.5104 36.25C97.427 35.7 98.4687 35.425 99.6354 35.425C101.352 35.425 102.71 35.9833 103.71 37.1C104.727 38.2167 105.235 39.7333 105.235 41.65V42.575ZM99.7354 38.025C99.0187 38.025 98.4437 38.2583 98.0104 38.725C97.5937 39.175 97.3354 39.8333 97.2354 40.7H102.06C102.01 39.8167 101.785 39.15 101.385 38.7C101.002 38.25 100.452 38.025 99.7354 38.025Z" fill="white"/>
<path d="M115.073 48V30.375H125.948V31.7H116.598V38.375H125.448V39.725H116.598V46.675H125.948V48H115.073Z" fill="white"/>
<path d="M133.336 48V31.725H127.011V30.375H141.161V31.725H134.861V48H133.336Z" fill="white"/>
<path d="M143.607 48V30.375H154.232V31.7H145.157V38.375H153.732V39.725H145.157V48H143.607Z" fill="white"/>
<path d="M160.731 48.175C158.815 48.175 157.248 47.6333 156.031 46.55L156.606 45.375C157.256 45.9083 157.906 46.2917 158.556 46.525C159.206 46.7417 159.956 46.85 160.806 46.85C161.79 46.85 162.54 46.675 163.056 46.325C163.59 45.975 163.856 45.4833 163.856 44.85C163.856 44.3167 163.681 43.8917 163.331 43.575C162.981 43.2417 162.423 42.9917 161.656 42.825L159.606 42.35C158.623 42.1167 157.848 41.7167 157.281 41.15C156.731 40.5667 156.456 39.8833 156.456 39.1C156.456 38.05 156.865 37.2 157.681 36.55C158.498 35.9 159.59 35.575 160.956 35.575C161.806 35.575 162.598 35.7167 163.331 36C164.081 36.2667 164.698 36.6583 165.181 37.175L164.606 38.35C164.04 37.85 163.456 37.4833 162.856 37.25C162.273 37.0167 161.64 36.9 160.956 36.9C160.04 36.9 159.323 37.0833 158.806 37.45C158.29 37.8167 158.031 38.325 158.031 38.975C158.031 39.5083 158.19 39.9417 158.506 40.275C158.84 40.6083 159.348 40.8583 160.031 41.025L162.106 41.525C164.306 42.025 165.406 43.1083 165.406 44.775C165.406 45.8083 164.981 46.6333 164.131 47.25C163.298 47.8667 162.165 48.175 160.731 48.175Z" fill="white"/>
</svg>
