<svg width="360" height="196" viewBox="0 0 360 196" fill="none" xmlns="http://www.w3.org/2000/svg">
<g clip-path="url(#clip0_1340_7286)">
<rect width="360" height="196" fill="#191A1C"/>
<g filter="url(#filter0_f_1340_7286)">
<circle opacity="0.4" cx="327.22" cy="-1.21975" r="157.529" transform="rotate(-45 327.22 -1.21975)" fill="#28EBCF" fill-opacity="0.2"/>
<circle cx="352.022" cy="-26.4649" r="122.14" transform="rotate(-45 352.022 -26.4649)" fill="#28EBCF" fill-opacity="0.2"/>
<circle cx="379.483" cy="-53.4824" r="83.619" transform="rotate(-45 379.483 -53.4824)" fill="#28EBCF" fill-opacity="0.4"/>
</g>
<path d="M32.474 65V43.872H24.456V38.21H47.56V43.872H39.542V65H32.474ZM61.3077 51.358L57.6217 51.738C56.1524 51.89 55.1264 52.2827 54.5437 52.916C53.961 53.5493 53.6697 54.4487 53.6697 55.614V65H46.9057V46.304H53.3277V49.534C53.7584 48.394 54.4677 47.5327 55.4557 46.95C56.4437 46.342 57.647 46 59.0657 45.924L60.9277 45.772L61.3077 51.358ZM71.4127 45.848C74.3514 45.848 76.5174 46.532 77.9107 47.9C79.3294 49.2427 80.0387 51.3453 80.0387 54.208V65H73.6927V62.378C73.3381 63.29 72.7427 64.012 71.9067 64.544C71.0707 65.0507 70.0701 65.304 68.9047 65.304C67.6127 65.304 66.4474 65.0507 65.4087 64.544C64.3701 64.012 63.5467 63.29 62.9387 62.378C62.3561 61.4407 62.0647 60.3893 62.0647 59.224C62.0647 57.8813 62.4067 56.8173 63.0907 56.032C63.8001 55.2213 64.9147 54.6387 66.4347 54.284C67.9547 53.9293 70.0067 53.752 72.5907 53.752H73.6167V53.296C73.6167 52.3587 73.4014 51.7127 72.9707 51.358C72.5401 50.978 71.7801 50.788 70.6907 50.788C69.8294 50.788 68.8287 50.9653 67.6887 51.32C66.5741 51.6493 65.5227 52.08 64.5347 52.612L62.8247 48.166C63.9141 47.5073 65.2694 46.9627 66.8907 46.532C68.5374 46.076 70.0447 45.848 71.4127 45.848ZM70.5007 60.782C71.4127 60.782 72.1601 60.4653 72.7427 59.832C73.3254 59.1733 73.6167 58.3373 73.6167 57.324V56.868H73.0087C71.3874 56.868 70.2347 57.02 69.5507 57.324C68.8667 57.6027 68.5247 58.084 68.5247 58.768C68.5247 59.3507 68.7021 59.832 69.0567 60.212C69.4367 60.592 69.9181 60.782 70.5007 60.782ZM103.628 38.21V65H96.9775V62.454C96.4455 63.3407 95.6602 64.0373 94.6215 64.544C93.6082 65.0507 92.4808 65.304 91.2395 65.304C89.6435 65.304 88.2122 64.8987 86.9455 64.088C85.7042 63.252 84.7288 62.0867 84.0195 60.592C83.3102 59.0973 82.9555 57.3873 82.9555 55.462C82.9555 53.5367 83.2975 51.852 83.9815 50.408C84.6908 48.9387 85.6662 47.8113 86.9075 47.026C88.1742 46.2407 89.6182 45.848 91.2395 45.848C92.4302 45.848 93.5195 46.0887 94.5075 46.57C95.5208 47.0513 96.3062 47.6973 96.8635 48.508V38.21H103.628ZM93.2915 60.25C94.4822 60.25 95.3942 59.8447 96.0275 59.034C96.6609 58.2233 96.9775 57.058 96.9775 55.538C96.9775 54.0433 96.6609 52.9033 96.0275 52.118C95.3942 51.3073 94.4822 50.902 93.2915 50.902C92.1262 50.902 91.2268 51.2947 90.5935 52.08C89.9602 52.8653 89.6435 53.9927 89.6435 55.462C89.6435 56.982 89.9602 58.16 90.5935 58.996C91.2522 59.832 92.1515 60.25 93.2915 60.25ZM107.58 65V46.304H114.344V65H107.58ZM107.428 36.956H114.496V43.074H107.428V36.956ZM130.845 45.848C133.074 45.848 134.734 46.5193 135.823 47.862C136.912 49.1793 137.457 51.1933 137.457 53.904V65H130.693V54.208C130.693 53.0933 130.49 52.2827 130.085 51.776C129.705 51.2693 129.122 51.016 128.337 51.016C127.324 51.016 126.513 51.3453 125.905 52.004C125.322 52.6373 125.031 53.4987 125.031 54.588V65H118.267V46.304H124.841V48.812C125.5 47.8493 126.348 47.1147 127.387 46.608C128.426 46.1013 129.578 45.848 130.845 45.848ZM161.225 46.304V62.72C161.225 65.8107 160.3 68.154 158.451 69.75C156.627 71.346 153.916 72.144 150.319 72.144C148.621 72.144 146.975 71.9413 145.379 71.536C143.783 71.156 142.402 70.6113 141.237 69.902L142.947 65.304C144.112 65.912 145.315 66.3807 146.557 66.71C147.823 67.0393 149.014 67.204 150.129 67.204C151.623 67.204 152.725 66.8747 153.435 66.216C154.169 65.5827 154.537 64.5693 154.537 63.176V61.732C153.979 62.568 153.181 63.2393 152.143 63.746C151.104 64.2273 149.977 64.468 148.761 64.468C147.139 64.468 145.695 64.088 144.429 63.328C143.162 62.568 142.174 61.4913 141.465 60.098C140.755 58.6793 140.401 57.0453 140.401 55.196C140.401 53.3467 140.755 51.7127 141.465 50.294C142.174 48.8753 143.162 47.786 144.429 47.026C145.695 46.2407 147.139 45.848 148.761 45.848C150.002 45.848 151.142 46.1013 152.181 46.608C153.219 47.1147 154.017 47.8113 154.575 48.698V46.304H161.225ZM150.813 59.414C152.003 59.414 152.928 59.0467 153.587 58.312C154.245 57.552 154.575 56.5133 154.575 55.196C154.575 53.8533 154.245 52.802 153.587 52.042C152.928 51.282 152.003 50.902 150.813 50.902C149.647 50.902 148.735 51.282 148.077 52.042C147.418 52.7767 147.089 53.828 147.089 55.196C147.089 56.5133 147.418 57.552 148.077 58.312C148.761 59.0467 149.673 59.414 150.813 59.414ZM199.91 45.848C202.089 45.848 203.698 46.5067 204.736 47.824C205.8 49.1413 206.332 51.168 206.332 53.904V65H199.568V54.094C199.568 53.0047 199.404 52.2193 199.074 51.738C198.745 51.2567 198.2 51.016 197.44 51.016C196.503 51.016 195.781 51.3453 195.274 52.004C194.793 52.6627 194.552 53.6 194.552 54.816V65H187.788V54.094C187.788 53.0047 187.624 52.2193 187.294 51.738C186.965 51.2567 186.42 51.016 185.66 51.016C184.723 51.016 184.014 51.3453 183.532 52.004C183.051 52.6627 182.81 53.6 182.81 54.816V65H176.046V46.304H182.62V48.66C183.862 46.7853 185.762 45.848 188.32 45.848C191.006 45.848 192.817 46.95 193.754 49.154C194.413 48.1153 195.274 47.3047 196.338 46.722C197.428 46.1393 198.618 45.848 199.91 45.848ZM218.7 45.848C221.638 45.848 223.804 46.532 225.198 47.9C226.616 49.2427 227.326 51.3453 227.326 54.208V65H220.98V62.378C220.625 63.29 220.03 64.012 219.194 64.544C218.358 65.0507 217.357 65.304 216.192 65.304C214.9 65.304 213.734 65.0507 212.696 64.544C211.657 64.012 210.834 63.29 210.226 62.378C209.643 61.4407 209.352 60.3893 209.352 59.224C209.352 57.8813 209.694 56.8173 210.378 56.032C211.087 55.2213 212.202 54.6387 213.722 54.284C215.242 53.9293 217.294 53.752 219.878 53.752H220.904V53.296C220.904 52.3587 220.688 51.7127 220.258 51.358C219.827 50.978 219.067 50.788 217.978 50.788C217.116 50.788 216.116 50.9653 214.976 51.32C213.861 51.6493 212.81 52.08 211.822 52.612L210.112 48.166C211.201 47.5073 212.556 46.9627 214.178 46.532C215.824 46.076 217.332 45.848 218.7 45.848ZM217.788 60.782C218.7 60.782 219.447 60.4653 220.03 59.832C220.612 59.1733 220.904 58.3373 220.904 57.324V56.868H220.296C218.674 56.868 217.522 57.02 216.838 57.324C216.154 57.6027 215.812 58.084 215.812 58.768C215.812 59.3507 215.989 59.832 216.344 60.212C216.724 60.592 217.205 60.782 217.788 60.782ZM250.915 38.21V65H244.265V62.454C243.733 63.3407 242.947 64.0373 241.909 64.544C240.895 65.0507 239.768 65.304 238.527 65.304C236.931 65.304 235.499 64.8987 234.233 64.088C232.991 63.252 232.016 62.0867 231.307 60.592C230.597 59.0973 230.243 57.3873 230.243 55.462C230.243 53.5367 230.585 51.852 231.269 50.408C231.978 48.9387 232.953 47.8113 234.195 47.026C235.461 46.2407 236.905 45.848 238.527 45.848C239.717 45.848 240.807 46.0887 241.795 46.57C242.808 47.0513 243.593 47.6973 244.151 48.508V38.21H250.915ZM240.579 60.25C241.769 60.25 242.681 59.8447 243.315 59.034C243.948 58.2233 244.265 57.058 244.265 55.538C244.265 54.0433 243.948 52.9033 243.315 52.118C242.681 51.3073 241.769 50.902 240.579 50.902C239.413 50.902 238.514 51.2947 237.881 52.08C237.247 52.8653 236.931 53.9927 236.931 55.462C236.931 56.982 237.247 58.16 237.881 58.996C238.539 59.832 239.439 60.25 240.579 60.25ZM272.119 56.944H260.567C260.769 58.16 261.213 59.034 261.897 59.566C262.581 60.098 263.556 60.364 264.823 60.364C265.735 60.364 266.659 60.212 267.597 59.908C268.534 59.604 269.37 59.186 270.105 58.654L271.815 63.1C270.877 63.784 269.75 64.3287 268.433 64.734C267.115 65.114 265.798 65.304 264.481 65.304C262.327 65.304 260.465 64.9113 258.895 64.126C257.324 63.3407 256.108 62.2133 255.247 60.744C254.411 59.2747 253.993 57.552 253.993 55.576C253.993 53.7013 254.385 52.0293 255.171 50.56C255.981 49.0653 257.096 47.9127 258.515 47.102C259.959 46.266 261.58 45.848 263.379 45.848C266.064 45.848 268.192 46.7093 269.763 48.432C271.333 50.1293 272.119 52.46 272.119 55.424V56.944ZM263.569 50.408C261.77 50.408 260.744 51.5227 260.491 53.752H266.457C266.305 51.5227 265.342 50.408 263.569 50.408ZM33.5 107.304C31.7013 107.304 30.042 107.114 28.522 106.734C27.002 106.354 25.7227 105.797 24.684 105.062L26.394 100.464C27.4073 101.123 28.56 101.655 29.852 102.06C31.144 102.44 32.3853 102.63 33.576 102.63C34.3107 102.63 34.8807 102.529 35.286 102.326C35.6913 102.098 35.894 101.794 35.894 101.414C35.894 101.085 35.742 100.831 35.438 100.654C35.1593 100.477 34.5767 100.287 33.69 100.084L30.688 99.4C28.788 98.9693 27.42 98.336 26.584 97.5C25.748 96.664 25.33 95.4733 25.33 93.928C25.33 92.7373 25.6847 91.686 26.394 90.774C27.1033 89.8367 28.0913 89.1147 29.358 88.608C30.65 88.1013 32.1067 87.848 33.728 87.848C35.0707 87.848 36.4007 88.0507 37.718 88.456C39.0607 88.836 40.2767 89.3807 41.366 90.09L39.618 94.498C38.6047 93.8647 37.5787 93.3833 36.54 93.054C35.5267 92.6993 34.564 92.522 33.652 92.522C32.9173 92.522 32.3473 92.636 31.942 92.864C31.5367 93.092 31.334 93.4213 31.334 93.852C31.334 94.1053 31.4607 94.3207 31.714 94.498C31.9673 94.65 32.4107 94.802 33.044 94.954L36.198 95.676C38.174 96.1067 39.6053 96.778 40.492 97.69C41.3787 98.5767 41.822 99.7927 41.822 101.338C41.822 103.187 41.0747 104.644 39.58 105.708C38.1107 106.772 36.084 107.304 33.5 107.304ZM44.6049 107V88.304H51.3689V107H44.6049ZM44.4529 78.956H51.5209V85.074H44.4529V78.956ZM79.1564 87.848C81.3351 87.848 82.9437 88.5067 83.9824 89.824C85.0464 91.1413 85.5784 93.168 85.5784 95.904V107H78.8144V96.094C78.8144 95.0047 78.6497 94.2193 78.3204 93.738C77.9911 93.2567 77.4464 93.016 76.6864 93.016C75.7491 93.016 75.0271 93.3453 74.5204 94.004C74.0391 94.6627 73.7984 95.6 73.7984 96.816V107H67.0344V96.094C67.0344 95.0047 66.8697 94.2193 66.5404 93.738C66.2111 93.2567 65.6664 93.016 64.9064 93.016C63.9691 93.016 63.2597 93.3453 62.7784 94.004C62.2971 94.6627 62.0564 95.6 62.0564 96.816V107H55.2924V88.304H61.8664V90.66C63.1077 88.7853 65.0077 87.848 67.5664 87.848C70.2517 87.848 72.0631 88.95 73.0004 91.154C73.6591 90.1153 74.5204 89.3047 75.5844 88.722C76.6737 88.1393 77.8644 87.848 79.1564 87.848ZM101.784 87.848C103.38 87.848 104.799 88.266 106.04 89.102C107.307 89.9127 108.282 91.0653 108.966 92.56C109.675 94.0547 110.03 95.7647 110.03 97.69C110.03 99.6153 109.675 101.313 108.966 102.782C108.282 104.226 107.319 105.341 106.078 106.126C104.837 106.911 103.405 107.304 101.784 107.304C100.593 107.304 99.4913 107.063 98.4779 106.582C97.4899 106.101 96.7173 105.455 96.1599 104.644V113.84H89.3959V88.304H96.0459V90.698C96.5779 89.8113 97.3506 89.1147 98.3639 88.608C99.4026 88.1013 100.543 87.848 101.784 87.848ZM99.7319 102.25C100.897 102.25 101.784 101.857 102.392 101.072C103.025 100.287 103.342 99.1593 103.342 97.69C103.342 96.1447 103.025 94.9667 102.392 94.156C101.759 93.32 100.859 92.902 99.6939 92.902C98.5286 92.902 97.6293 93.3073 96.9959 94.118C96.3626 94.9287 96.0459 96.094 96.0459 97.614C96.0459 99.1087 96.3626 100.261 96.9959 101.072C97.6293 101.857 98.5413 102.25 99.7319 102.25ZM113.146 107V80.21H119.91V107H113.146ZM141.085 98.944H129.533C129.736 100.16 130.179 101.034 130.863 101.566C131.547 102.098 132.523 102.364 133.789 102.364C134.701 102.364 135.626 102.212 136.563 101.908C137.501 101.604 138.337 101.186 139.071 100.654L140.781 105.1C139.844 105.784 138.717 106.329 137.399 106.734C136.082 107.114 134.765 107.304 133.447 107.304C131.294 107.304 129.432 106.911 127.861 106.126C126.291 105.341 125.075 104.213 124.213 102.744C123.377 101.275 122.959 99.552 122.959 97.576C122.959 95.7013 123.352 94.0293 124.137 92.56C124.948 91.0653 126.063 89.9127 127.481 89.102C128.925 88.266 130.547 87.848 132.345 87.848C135.031 87.848 137.159 88.7093 138.729 90.432C140.3 92.1293 141.085 94.46 141.085 97.424V98.944ZM132.535 92.408C130.737 92.408 129.711 93.5227 129.457 95.752H135.423C135.271 93.5227 134.309 92.408 132.535 92.408Z" fill="white"/>
<path d="M25.479 126.015H29.508C31.4233 126.015 32.9023 126.536 33.945 127.579C34.999 128.61 35.526 130.084 35.526 131.999C35.526 133.914 34.999 135.393 33.945 136.436C32.9023 137.479 31.4233 138 29.508 138H25.479V126.015ZM29.423 136.81C32.5283 136.81 34.081 135.206 34.081 131.999C34.081 128.803 32.5283 127.205 29.423 127.205H26.873V136.81H29.423ZM37.8424 138V129.721H39.2194V138H37.8424ZM37.7064 126.134H39.3724V127.681H37.7064V126.134ZM44.5986 138.119C43.2046 138.119 42.0996 137.762 41.2836 137.048L41.7426 136.028C42.1846 136.379 42.6322 136.634 43.0856 136.793C43.5502 136.94 44.0716 137.014 44.6496 137.014C45.2616 137.014 45.7262 136.912 46.0436 136.708C46.3722 136.493 46.5366 136.187 46.5366 135.79C46.5366 135.461 46.4289 135.201 46.2136 135.008C45.9982 134.815 45.6412 134.662 45.1426 134.549L43.7486 134.226C43.0459 134.067 42.5076 133.795 42.1336 133.41C41.7596 133.025 41.5726 132.549 41.5726 131.982C41.5726 131.245 41.8616 130.65 42.4396 130.197C43.0176 129.744 43.7882 129.517 44.7516 129.517C45.3296 129.517 45.8792 129.613 46.4006 129.806C46.9219 129.987 47.3582 130.254 47.7096 130.605L47.2506 131.608C46.4912 130.962 45.6582 130.639 44.7516 130.639C44.1736 130.639 43.7202 130.752 43.3916 130.979C43.0742 131.194 42.9156 131.5 42.9156 131.897C42.9156 132.226 43.0119 132.492 43.2046 132.696C43.4086 132.889 43.7316 133.036 44.1736 133.138L45.5846 133.478C46.3552 133.659 46.9276 133.937 47.3016 134.311C47.6756 134.674 47.8626 135.15 47.8626 135.739C47.8626 136.464 47.5679 137.042 46.9786 137.473C46.4006 137.904 45.6072 138.119 44.5986 138.119ZM53.4635 138.119C52.6475 138.119 51.9392 137.943 51.3385 137.592C50.7379 137.241 50.2732 136.748 49.9445 136.113C49.6272 135.467 49.4685 134.713 49.4685 133.852C49.4685 132.991 49.6329 132.237 49.9615 131.591C50.3015 130.934 50.7719 130.424 51.3725 130.061C51.9845 129.698 52.6985 129.517 53.5145 129.517C54.0699 129.517 54.6139 129.619 55.1465 129.823C55.6792 130.016 56.1099 130.276 56.4385 130.605L55.9795 131.625C55.1975 130.99 54.4042 130.673 53.5995 130.673C52.7495 130.673 52.0865 130.951 51.6105 131.506C51.1345 132.061 50.8965 132.843 50.8965 133.852C50.8965 134.849 51.1345 135.62 51.6105 136.164C52.0865 136.708 52.7495 136.98 53.5995 136.98C54.4042 136.98 55.1975 136.663 55.9795 136.028L56.4385 137.048C56.0872 137.377 55.6452 137.637 55.1125 137.83C54.5799 138.023 54.0302 138.119 53.4635 138.119ZM61.5303 138.119C60.7483 138.119 60.057 137.943 59.4563 137.592C58.867 137.241 58.408 136.742 58.0793 136.096C57.762 135.439 57.6033 134.679 57.6033 133.818C57.6033 132.957 57.762 132.203 58.0793 131.557C58.408 130.9 58.867 130.395 59.4563 130.044C60.057 129.693 60.7483 129.517 61.5303 129.517C62.3123 129.517 63.0036 129.693 63.6043 130.044C64.205 130.395 64.664 130.9 64.9813 131.557C65.31 132.203 65.4743 132.957 65.4743 133.818C65.4743 134.679 65.31 135.439 64.9813 136.096C64.664 136.742 64.205 137.241 63.6043 137.592C63.0036 137.943 62.3123 138.119 61.5303 138.119ZM61.5303 136.98C62.3463 136.98 62.9696 136.714 63.4003 136.181C63.8423 135.637 64.0633 134.849 64.0633 133.818C64.0633 132.809 63.8423 132.033 63.4003 131.489C62.9583 130.934 62.335 130.656 61.5303 130.656C60.7256 130.656 60.1023 130.934 59.6603 131.489C59.2183 132.033 58.9973 132.809 58.9973 133.818C58.9973 134.838 59.2126 135.62 59.6433 136.164C60.0853 136.708 60.7143 136.98 61.5303 136.98ZM73.3594 129.738H74.7364L71.1664 138H69.8744L66.3214 129.738H67.7834L70.5544 136.504L73.3594 129.738ZM82.9952 134.073H76.9432C76.9885 135.036 77.2492 135.767 77.7252 136.266C78.2012 136.753 78.8755 136.997 79.7482 136.997C80.7115 136.997 81.5955 136.668 82.4002 136.011L82.8592 137.014C82.4965 137.354 82.0318 137.626 81.4652 137.83C80.8985 138.023 80.3205 138.119 79.7312 138.119C78.4392 138.119 77.4192 137.739 76.6712 136.98C75.9345 136.221 75.5662 135.172 75.5662 133.835C75.5662 132.985 75.7305 132.237 76.0592 131.591C76.3878 130.934 76.8468 130.424 77.4362 130.061C78.0368 129.698 78.7168 129.517 79.4762 129.517C80.5755 129.517 81.4368 129.88 82.0602 130.605C82.6835 131.319 82.9952 132.305 82.9952 133.563V134.073ZM79.4932 130.588C78.7678 130.588 78.1842 130.815 77.7422 131.268C77.3115 131.721 77.0565 132.362 76.9772 133.189H81.7882C81.7655 132.35 81.5558 131.71 81.1592 131.268C80.7625 130.815 80.2072 130.588 79.4932 130.588ZM89.716 130.707L88.815 130.792C87.965 130.871 87.3474 131.138 86.962 131.591C86.588 132.044 86.401 132.605 86.401 133.274V138H85.024V129.721H86.367V131.166C86.8317 130.203 87.744 129.664 89.104 129.551L89.597 129.517L89.716 130.707ZM98.766 129.517C99.82 129.517 100.602 129.789 101.112 130.333C101.633 130.866 101.894 131.682 101.894 132.781V138H100.551V136.589C100.336 137.076 100.007 137.456 99.565 137.728C99.123 137.989 98.613 138.119 98.035 138.119C97.5023 138.119 97.0093 138.011 96.556 137.796C96.114 137.581 95.7627 137.28 95.502 136.895C95.2413 136.51 95.111 136.085 95.111 135.62C95.111 134.997 95.2697 134.515 95.587 134.175C95.9043 133.824 96.4257 133.574 97.151 133.427C97.8763 133.268 98.885 133.189 100.177 133.189H100.551V132.628C100.551 131.937 100.409 131.438 100.126 131.132C99.8427 130.815 99.3837 130.656 98.749 130.656C97.797 130.656 96.8507 130.951 95.91 131.54L95.451 130.537C95.8817 130.231 96.3973 129.987 96.998 129.806C97.61 129.613 98.1993 129.517 98.766 129.517ZM98.222 137.031C98.902 137.031 99.4573 136.804 99.888 136.351C100.33 135.886 100.551 135.291 100.551 134.566V134.073H100.245C99.2477 134.073 98.4883 134.118 97.967 134.209C97.4457 134.288 97.0717 134.43 96.845 134.634C96.6297 134.827 96.522 135.116 96.522 135.501C96.522 135.943 96.6807 136.311 96.998 136.606C97.3267 136.889 97.7347 137.031 98.222 137.031ZM104.415 138V126.015H105.792V138H104.415ZM108.366 138V126.015H109.743V138H108.366ZM118.536 129.721H120.882V130.809H118.536V138H117.159V130.809H115.544V129.721H117.159V129.449C117.159 128.35 117.431 127.517 117.975 126.95C118.53 126.383 119.38 126.066 120.525 125.998L121.205 125.964L121.307 127.035L120.525 127.086C119.833 127.131 119.329 127.33 119.012 127.681C118.694 128.021 118.536 128.548 118.536 129.262V129.721ZM129.131 134.073H123.079C123.124 135.036 123.385 135.767 123.861 136.266C124.337 136.753 125.011 136.997 125.884 136.997C126.847 136.997 127.731 136.668 128.536 136.011L128.995 137.014C128.632 137.354 128.168 137.626 127.601 137.83C127.034 138.023 126.456 138.119 125.867 138.119C124.575 138.119 123.555 137.739 122.807 136.98C122.07 136.221 121.702 135.172 121.702 133.835C121.702 132.985 121.866 132.237 122.195 131.591C122.524 130.934 122.983 130.424 123.572 130.061C124.173 129.698 124.853 129.517 125.612 129.517C126.711 129.517 127.573 129.88 128.196 130.605C128.819 131.319 129.131 132.305 129.131 133.563V134.073ZM125.629 130.588C124.904 130.588 124.32 130.815 123.878 131.268C123.447 131.721 123.192 132.362 123.113 133.189H127.924C127.901 132.35 127.692 131.71 127.295 131.268C126.898 130.815 126.343 130.588 125.629 130.588ZM134.526 129.517C135.58 129.517 136.362 129.789 136.872 130.333C137.393 130.866 137.654 131.682 137.654 132.781V138H136.311V136.589C136.095 137.076 135.767 137.456 135.325 137.728C134.883 137.989 134.373 138.119 133.795 138.119C133.262 138.119 132.769 138.011 132.316 137.796C131.874 137.581 131.522 137.28 131.262 136.895C131.001 136.51 130.871 136.085 130.871 135.62C130.871 134.997 131.029 134.515 131.347 134.175C131.664 133.824 132.185 133.574 132.911 133.427C133.636 133.268 134.645 133.189 135.937 133.189H136.311V132.628C136.311 131.937 136.169 131.438 135.886 131.132C135.602 130.815 135.143 130.656 134.509 130.656C133.557 130.656 132.61 130.951 131.67 131.54L131.211 130.537C131.641 130.231 132.157 129.987 132.758 129.806C133.37 129.613 133.959 129.517 134.526 129.517ZM133.982 137.031C134.662 137.031 135.217 136.804 135.648 136.351C136.09 135.886 136.311 135.291 136.311 134.566V134.073H136.005C135.007 134.073 134.248 134.118 133.727 134.209C133.205 134.288 132.831 134.43 132.605 134.634C132.389 134.827 132.282 135.116 132.282 135.501C132.282 135.943 132.44 136.311 132.758 136.606C133.086 136.889 133.494 137.031 133.982 137.031ZM143.812 137.014C144.062 137.014 144.311 136.997 144.56 136.963L144.492 138.051C144.232 138.096 143.948 138.119 143.642 138.119C142.645 138.119 141.891 137.858 141.381 137.337C140.883 136.816 140.633 136.09 140.633 135.161V130.809H139.018V129.721H140.633V127.205H142.01V129.721H144.356V130.809H142.01V135.059C142.01 136.362 142.611 137.014 143.812 137.014ZM152.922 129.721V138H151.579V136.589C151.318 137.088 150.95 137.467 150.474 137.728C150.009 137.989 149.482 138.119 148.893 138.119C147.907 138.119 147.164 137.847 146.666 137.303C146.167 136.748 145.918 135.932 145.918 134.855V129.721H147.295V134.821C147.295 135.558 147.442 136.102 147.737 136.453C148.031 136.793 148.496 136.963 149.131 136.963C149.856 136.963 150.44 136.731 150.882 136.266C151.324 135.79 151.545 135.167 151.545 134.396V129.721H152.922ZM160.173 130.707L159.272 130.792C158.422 130.871 157.804 131.138 157.419 131.591C157.045 132.044 156.858 132.605 156.858 133.274V138H155.481V129.721H156.824V131.166C157.289 130.203 158.201 129.664 159.561 129.551L160.054 129.517L160.173 130.707ZM168.244 134.073H162.192C162.238 135.036 162.498 135.767 162.974 136.266C163.45 136.753 164.125 136.997 164.997 136.997C165.961 136.997 166.845 136.668 167.649 136.011L168.108 137.014C167.746 137.354 167.281 137.626 166.714 137.83C166.148 138.023 165.57 138.119 164.98 138.119C163.688 138.119 162.668 137.739 161.92 136.98C161.184 136.221 160.815 135.172 160.815 133.835C160.815 132.985 160.98 132.237 161.308 131.591C161.637 130.934 162.096 130.424 162.685 130.061C163.286 129.698 163.966 129.517 164.725 129.517C165.825 129.517 166.686 129.88 167.309 130.605C167.933 131.319 168.244 132.305 168.244 133.563V134.073ZM164.742 130.588C164.017 130.588 163.433 130.815 162.991 131.268C162.561 131.721 162.306 132.362 162.226 133.189H167.037C167.015 132.35 166.805 131.71 166.408 131.268C166.012 130.815 165.456 130.588 164.742 130.588ZM173.078 138.119C171.684 138.119 170.579 137.762 169.763 137.048L170.222 136.028C170.664 136.379 171.112 136.634 171.565 136.793C172.03 136.94 172.551 137.014 173.129 137.014C173.741 137.014 174.206 136.912 174.523 136.708C174.852 136.493 175.016 136.187 175.016 135.79C175.016 135.461 174.908 135.201 174.693 135.008C174.478 134.815 174.121 134.662 173.622 134.549L172.228 134.226C171.525 134.067 170.987 133.795 170.613 133.41C170.239 133.025 170.052 132.549 170.052 131.982C170.052 131.245 170.341 130.65 170.919 130.197C171.497 129.744 172.268 129.517 173.231 129.517C173.809 129.517 174.359 129.613 174.88 129.806C175.401 129.987 175.838 130.254 176.189 130.605L175.73 131.608C174.971 130.962 174.138 130.639 173.231 130.639C172.653 130.639 172.2 130.752 171.871 130.979C171.554 131.194 171.395 131.5 171.395 131.897C171.395 132.226 171.491 132.492 171.684 132.696C171.888 132.889 172.211 133.036 172.653 133.138L174.064 133.478C174.835 133.659 175.407 133.937 175.781 134.311C176.155 134.674 176.342 135.15 176.342 135.739C176.342 136.464 176.047 137.042 175.458 137.473C174.88 137.904 174.087 138.119 173.078 138.119ZM182.824 138V129.721H184.201V138H182.824ZM182.688 126.134H184.354V127.681H182.688V126.134ZM190.94 129.517C192.923 129.517 193.915 130.611 193.915 132.798V138H192.538V132.883C192.538 132.112 192.385 131.551 192.079 131.2C191.784 130.849 191.308 130.673 190.651 130.673C189.892 130.673 189.285 130.905 188.832 131.37C188.379 131.835 188.152 132.464 188.152 133.257V138H186.775V129.721H188.135V131.081C188.407 130.571 188.787 130.186 189.274 129.925C189.761 129.653 190.317 129.517 190.94 129.517ZM204.458 137.014C204.707 137.014 204.957 136.997 205.206 136.963L205.138 138.051C204.877 138.096 204.594 138.119 204.288 138.119C203.291 138.119 202.537 137.858 202.027 137.337C201.528 136.816 201.279 136.09 201.279 135.161V130.809H199.664V129.721H201.279V127.205H202.656V129.721H205.002V130.809H202.656V135.059C202.656 136.362 203.257 137.014 204.458 137.014ZM210.762 129.517C212.746 129.517 213.737 130.611 213.737 132.798V138H212.36V132.883C212.36 132.112 212.207 131.551 211.901 131.2C211.607 130.849 211.131 130.673 210.473 130.673C209.714 130.673 209.108 130.905 208.654 131.37C208.201 131.835 207.974 132.464 207.974 133.257V138H206.597V126.015H207.974V131.047C208.246 130.548 208.62 130.169 209.096 129.908C209.584 129.647 210.139 129.517 210.762 129.517ZM223.195 134.073H217.143C217.189 135.036 217.449 135.767 217.925 136.266C218.401 136.753 219.076 136.997 219.948 136.997C220.912 136.997 221.796 136.668 222.6 136.011L223.059 137.014C222.697 137.354 222.232 137.626 221.665 137.83C221.099 138.023 220.521 138.119 219.931 138.119C218.639 138.119 217.619 137.739 216.871 136.98C216.135 136.221 215.766 135.172 215.766 133.835C215.766 132.985 215.931 132.237 216.259 131.591C216.588 130.934 217.047 130.424 217.636 130.061C218.237 129.698 218.917 129.517 219.676 129.517C220.776 129.517 221.637 129.88 222.26 130.605C222.884 131.319 223.195 132.305 223.195 133.563V134.073ZM219.693 130.588C218.968 130.588 218.384 130.815 217.942 131.268C217.512 131.721 217.257 132.362 217.177 133.189H221.988C221.966 132.35 221.756 131.71 221.359 131.268C220.963 130.815 220.407 130.588 219.693 130.588ZM29.287 160.136C27.417 160.136 25.921 159.632 24.799 158.623L25.343 157.552C25.9323 158.051 26.533 158.408 27.145 158.623C27.7683 158.838 28.488 158.946 29.304 158.946C30.2673 158.946 31.0097 158.759 31.531 158.385C32.0523 158.011 32.313 157.484 32.313 156.804C32.313 156.407 32.1883 156.084 31.939 155.835C31.6897 155.586 31.361 155.387 30.953 155.24C30.545 155.093 29.9953 154.94 29.304 154.781C28.3747 154.566 27.6097 154.339 27.009 154.101C26.4197 153.863 25.938 153.523 25.564 153.081C25.2013 152.639 25.02 152.061 25.02 151.347C25.02 150.667 25.1957 150.066 25.547 149.545C25.9097 149.012 26.4197 148.604 27.077 148.321C27.7457 148.026 28.5163 147.879 29.389 147.879C30.2163 147.879 30.987 148.009 31.701 148.27C32.4263 148.531 33.0383 148.905 33.537 149.392L33.01 150.463C32.4433 149.976 31.8653 149.624 31.276 149.409C30.698 149.182 30.069 149.069 29.389 149.069C28.4597 149.069 27.7287 149.267 27.196 149.664C26.6747 150.049 26.414 150.593 26.414 151.296C26.414 151.897 26.6463 152.35 27.111 152.656C27.5757 152.962 28.2783 153.223 29.219 153.438C30.2503 153.687 31.0607 153.92 31.65 154.135C32.2393 154.339 32.7267 154.651 33.112 155.07C33.5087 155.489 33.707 156.05 33.707 156.753C33.707 157.433 33.5257 158.028 33.163 158.538C32.8117 159.048 32.3017 159.445 31.633 159.728C30.9643 160 30.1823 160.136 29.287 160.136ZM39.2692 160.119C38.4532 160.119 37.7449 159.943 37.1442 159.592C36.5435 159.241 36.0789 158.748 35.7502 158.113C35.4329 157.467 35.2742 156.713 35.2742 155.852C35.2742 154.991 35.4385 154.237 35.7672 153.591C36.1072 152.934 36.5775 152.424 37.1782 152.061C37.7902 151.698 38.5042 151.517 39.3202 151.517C39.8755 151.517 40.4195 151.619 40.9522 151.823C41.4849 152.016 41.9155 152.276 42.2442 152.605L41.7852 153.625C41.0032 152.99 40.2099 152.673 39.4052 152.673C38.5552 152.673 37.8922 152.951 37.4162 153.506C36.9402 154.061 36.7022 154.843 36.7022 155.852C36.7022 156.849 36.9402 157.62 37.4162 158.164C37.8922 158.708 38.5552 158.98 39.4052 158.98C40.2099 158.98 41.0032 158.663 41.7852 158.028L42.2442 159.048C41.8929 159.377 41.4509 159.637 40.9182 159.83C40.3855 160.023 39.8359 160.119 39.2692 160.119ZM47.268 151.517C48.322 151.517 49.104 151.789 49.614 152.333C50.1353 152.866 50.396 153.682 50.396 154.781V160H49.053V158.589C48.8376 159.076 48.509 159.456 48.067 159.728C47.625 159.989 47.115 160.119 46.537 160.119C46.0043 160.119 45.5113 160.011 45.058 159.796C44.616 159.581 44.2646 159.28 44.004 158.895C43.7433 158.51 43.613 158.085 43.613 157.62C43.613 156.997 43.7716 156.515 44.089 156.175C44.4063 155.824 44.9276 155.574 45.653 155.427C46.3783 155.268 47.387 155.189 48.679 155.189H49.053V154.628C49.053 153.937 48.9113 153.438 48.628 153.132C48.3446 152.815 47.8856 152.656 47.251 152.656C46.299 152.656 45.3526 152.951 44.412 153.54L43.953 152.537C44.3836 152.231 44.8993 151.987 45.5 151.806C46.112 151.613 46.7013 151.517 47.268 151.517ZM46.724 159.031C47.404 159.031 47.9593 158.804 48.39 158.351C48.832 157.886 49.053 157.291 49.053 156.566V156.073H48.747C47.7496 156.073 46.9903 156.118 46.469 156.209C45.9476 156.288 45.5736 156.43 45.347 156.634C45.1316 156.827 45.024 157.116 45.024 157.501C45.024 157.943 45.1826 158.311 45.5 158.606C45.8286 158.889 46.2366 159.031 46.724 159.031ZM52.9166 160V148.015H54.2936V160H52.9166ZM60.2338 151.517C61.2878 151.517 62.0698 151.789 62.5798 152.333C63.1011 152.866 63.3618 153.682 63.3618 154.781V160H62.0188V158.589C61.8034 159.076 61.4748 159.456 61.0328 159.728C60.5908 159.989 60.0808 160.119 59.5028 160.119C58.9701 160.119 58.4771 160.011 58.0238 159.796C57.5818 159.581 57.2304 159.28 56.9698 158.895C56.7091 158.51 56.5788 158.085 56.5788 157.62C56.5788 156.997 56.7374 156.515 57.0548 156.175C57.3721 155.824 57.8934 155.574 58.6188 155.427C59.3441 155.268 60.3528 155.189 61.6448 155.189H62.0188V154.628C62.0188 153.937 61.8771 153.438 61.5938 153.132C61.3104 152.815 60.8514 152.656 60.2168 152.656C59.2648 152.656 58.3184 152.951 57.3778 153.54L56.9188 152.537C57.3494 152.231 57.8651 151.987 58.4658 151.806C59.0778 151.613 59.6671 151.517 60.2338 151.517ZM59.6898 159.031C60.3698 159.031 60.9251 158.804 61.3558 158.351C61.7978 157.886 62.0188 157.291 62.0188 156.566V156.073H61.7128C60.7154 156.073 59.9561 156.118 59.4348 156.209C58.9134 156.288 58.5394 156.43 58.3128 156.634C58.0974 156.827 57.9898 157.116 57.9898 157.501C57.9898 157.943 58.1484 158.311 58.4658 158.606C58.7944 158.889 59.2024 159.031 59.6898 159.031ZM70.0474 151.517C70.7728 151.517 71.4131 151.693 71.9684 152.044C72.5238 152.395 72.9544 152.894 73.2604 153.54C73.5664 154.186 73.7194 154.934 73.7194 155.784C73.7194 156.645 73.5664 157.405 73.2604 158.062C72.9544 158.708 72.5238 159.212 71.9684 159.575C71.4131 159.938 70.7728 160.119 70.0474 160.119C69.4014 160.119 68.8348 159.977 68.3474 159.694C67.8714 159.411 67.5088 159.008 67.2594 158.487V160H65.8824V148.015H67.2594V153.149C67.5088 152.628 67.8714 152.225 68.3474 151.942C68.8348 151.659 69.4014 151.517 70.0474 151.517ZM69.7754 158.98C70.5801 158.98 71.2034 158.702 71.6454 158.147C72.0874 157.58 72.3084 156.793 72.3084 155.784C72.3084 154.798 72.0874 154.033 71.6454 153.489C71.2034 152.945 70.5801 152.673 69.7754 152.673C68.9708 152.673 68.3474 152.945 67.9054 153.489C67.4748 154.033 67.2594 154.809 67.2594 155.818C67.2594 156.827 67.4748 157.609 67.9054 158.164C68.3474 158.708 68.9708 158.98 69.7754 158.98ZM75.777 160V148.015H77.154V160H75.777ZM86.6641 156.073H80.6121C80.6575 157.036 80.9181 157.767 81.3941 158.266C81.8701 158.753 82.5445 158.997 83.4171 158.997C84.3805 158.997 85.2645 158.668 86.0691 158.011L86.5281 159.014C86.1655 159.354 85.7008 159.626 85.1341 159.83C84.5675 160.023 83.9895 160.119 83.4001 160.119C82.1081 160.119 81.0881 159.739 80.3401 158.98C79.6035 158.221 79.2351 157.172 79.2351 155.835C79.2351 154.985 79.3995 154.237 79.7281 153.591C80.0568 152.934 80.5158 152.424 81.1051 152.061C81.7058 151.698 82.3858 151.517 83.1451 151.517C84.2445 151.517 85.1058 151.88 85.7291 152.605C86.3525 153.319 86.6641 154.305 86.6641 155.563V156.073ZM83.1621 152.588C82.4368 152.588 81.8531 152.815 81.4111 153.268C80.9805 153.721 80.7255 154.362 80.6461 155.189H85.4571C85.4345 154.35 85.2248 153.71 84.8281 153.268C84.4315 152.815 83.8761 152.588 83.1621 152.588ZM100.08 153.846C100.771 154.027 101.304 154.367 101.678 154.866C102.063 155.365 102.256 155.988 102.256 156.736C102.256 157.79 101.91 158.6 101.219 159.167C100.527 159.722 99.5471 160 98.2778 160H93.2798V148.015H98.0908C99.3261 148.015 100.284 148.287 100.964 148.831C101.644 149.375 101.984 150.146 101.984 151.143C101.984 151.789 101.814 152.344 101.474 152.809C101.145 153.274 100.68 153.619 100.08 153.846ZM94.6568 153.336H97.8868C98.7821 153.336 99.4564 153.155 99.9098 152.792C100.374 152.429 100.607 151.902 100.607 151.211C100.607 149.851 99.7001 149.171 97.8868 149.171H94.6568V153.336ZM98.1418 158.844C99.0824 158.844 99.7738 158.674 100.216 158.334C100.669 157.983 100.896 157.439 100.896 156.702C100.896 155.229 99.9778 154.492 98.1418 154.492H94.6568V158.844H98.1418ZM109.223 152.707L108.322 152.792C107.472 152.871 106.854 153.138 106.469 153.591C106.095 154.044 105.908 154.605 105.908 155.274V160H104.531V151.721H105.874V153.166C106.339 152.203 107.251 151.664 108.611 151.551L109.104 151.517L109.223 152.707ZM113.792 160.119C113.01 160.119 112.319 159.943 111.718 159.592C111.129 159.241 110.67 158.742 110.341 158.096C110.024 157.439 109.865 156.679 109.865 155.818C109.865 154.957 110.024 154.203 110.341 153.557C110.67 152.9 111.129 152.395 111.718 152.044C112.319 151.693 113.01 151.517 113.792 151.517C114.574 151.517 115.265 151.693 115.866 152.044C116.467 152.395 116.926 152.9 117.243 153.557C117.572 154.203 117.736 154.957 117.736 155.818C117.736 156.679 117.572 157.439 117.243 158.096C116.926 158.742 116.467 159.241 115.866 159.592C115.265 159.943 114.574 160.119 113.792 160.119ZM113.792 158.98C114.608 158.98 115.231 158.714 115.662 158.181C116.104 157.637 116.325 156.849 116.325 155.818C116.325 154.809 116.104 154.033 115.662 153.489C115.22 152.934 114.597 152.656 113.792 152.656C112.987 152.656 112.364 152.934 111.922 153.489C111.48 154.033 111.259 154.809 111.259 155.818C111.259 156.838 111.474 157.62 111.905 158.164C112.347 158.708 112.976 158.98 113.792 158.98ZM127.166 160H125.381L121.165 156.039V160H119.788V148.015H121.165V155.478L125.024 151.738H126.775L122.661 155.699L127.166 160ZM135.074 156.073H129.022C129.068 157.036 129.328 157.767 129.804 158.266C130.28 158.753 130.955 158.997 131.827 158.997C132.791 158.997 133.675 158.668 134.479 158.011L134.938 159.014C134.576 159.354 134.111 159.626 133.544 159.83C132.978 160.023 132.4 160.119 131.81 160.119C130.518 160.119 129.498 159.739 128.75 158.98C128.014 158.221 127.645 157.172 127.645 155.835C127.645 154.985 127.81 154.237 128.138 153.591C128.467 152.934 128.926 152.424 129.515 152.061C130.116 151.698 130.796 151.517 131.555 151.517C132.655 151.517 133.516 151.88 134.139 152.605C134.763 153.319 135.074 154.305 135.074 155.563V156.073ZM131.572 152.588C130.847 152.588 130.263 152.815 129.821 153.268C129.391 153.721 129.136 154.362 129.056 155.189H133.867C133.845 154.35 133.635 153.71 133.238 153.268C132.842 152.815 132.286 152.588 131.572 152.588ZM141.795 152.707L140.894 152.792C140.044 152.871 139.426 153.138 139.041 153.591C138.667 154.044 138.48 154.605 138.48 155.274V160H137.103V151.721H138.446V153.166C138.911 152.203 139.823 151.664 141.183 151.551L141.676 151.517L141.795 152.707ZM142.527 158.266H144.261V160H142.527V158.266Z" fill="white"/>
</g>
<defs>
<filter id="filter0_f_1340_7286" x="114.383" y="-214.057" width="425.674" height="425.674" filterUnits="userSpaceOnUse" color-interpolation-filters="sRGB">
<feFlood flood-opacity="0" result="BackgroundImageFix"/>
<feBlend mode="normal" in="SourceGraphic" in2="BackgroundImageFix" result="shape"/>
<feGaussianBlur stdDeviation="27.6537" result="effect1_foregroundBlur_1340_7286"/>
</filter>
<clipPath id="clip0_1340_7286">
<rect width="360" height="196" rx="30" fill="white"/>
</clipPath>
</defs>
</svg>
