<svg width="360" height="196" viewBox="0 0 360 196" fill="none" xmlns="http://www.w3.org/2000/svg">
<g clip-path="url(#clip0_1340_7301)">
<rect width="360" height="196" fill="#191A1C"/>
<g filter="url(#filter0_f_1340_7301)">
<circle opacity="0.4" cx="327.22" cy="-1.21975" r="157.529" transform="rotate(-45 327.22 -1.21975)" fill="#28EBCF" fill-opacity="0.2"/>
<circle cx="352.022" cy="-26.4649" r="122.14" transform="rotate(-45 352.022 -26.4649)" fill="#28EBCF" fill-opacity="0.2"/>
<circle cx="379.483" cy="-53.4824" r="83.619" transform="rotate(-45 379.483 -53.4824)" fill="#28EBCF" fill-opacity="0.4"/>
</g>
<path d="M44.216 38.21H51.056V65H44.216V54.17H33.272V65H26.432V38.21H33.272V48.622H44.216V38.21ZM64.902 65.304C62.85 65.304 61.0386 64.9113 59.468 64.126C57.9226 63.3153 56.7193 62.1753 55.858 60.706C55.022 59.2367 54.604 57.514 54.604 55.538C54.604 53.562 55.022 51.852 55.858 50.408C56.7193 48.9387 57.9226 47.8113 59.468 47.026C61.0133 46.2407 62.8246 45.848 64.902 45.848C66.9793 45.848 68.7906 46.2407 70.336 47.026C71.8813 47.8113 73.072 48.9387 73.908 50.408C74.7693 51.852 75.2 53.562 75.2 55.538C75.2 57.514 74.7693 59.2367 73.908 60.706C73.072 62.1753 71.8813 63.3153 70.336 64.126C68.7906 64.9113 66.9793 65.304 64.902 65.304ZM64.902 60.25C67.3086 60.25 68.512 58.6793 68.512 55.538C68.512 52.3967 67.3086 50.826 64.902 50.826C62.4953 50.826 61.292 52.3967 61.292 55.538C61.292 58.6793 62.4953 60.25 64.902 60.25ZM102.897 46.304H109.433L101.605 65H96.0569L92.3329 55.842L88.8369 65H83.2509L75.4229 46.304H82.2629L86.4049 56.906L90.4329 46.304H94.7649L98.8309 57.096L102.897 46.304ZM110.855 57.438V52.156H123.015V57.438H110.855ZM138.568 60.44C139.125 60.44 139.746 60.402 140.43 60.326L140.088 65.152C139.277 65.2533 138.492 65.304 137.732 65.304C134.692 65.304 132.475 64.6707 131.082 63.404C129.714 62.112 129.03 60.1233 129.03 57.438V51.282H125.534V46.304H129.03V40.87H135.794V46.304H140.278V51.282H135.794V57.476C135.794 59.452 136.719 60.44 138.568 60.44ZM152.22 65.304C150.168 65.304 148.357 64.9113 146.786 64.126C145.241 63.3153 144.038 62.1753 143.176 60.706C142.34 59.2367 141.922 57.514 141.922 55.538C141.922 53.562 142.34 51.852 143.176 50.408C144.038 48.9387 145.241 47.8113 146.786 47.026C148.332 46.2407 150.143 45.848 152.22 45.848C154.298 45.848 156.109 46.2407 157.654 47.026C159.2 47.8113 160.39 48.9387 161.226 50.408C162.088 51.852 162.518 53.562 162.518 55.538C162.518 57.514 162.088 59.2367 161.226 60.706C160.39 62.1753 159.2 63.3153 157.654 64.126C156.109 64.9113 154.298 65.304 152.22 65.304ZM152.22 60.25C154.627 60.25 155.83 58.6793 155.83 55.538C155.83 52.3967 154.627 50.826 152.22 50.826C149.814 50.826 148.61 52.3967 148.61 55.538C148.61 58.6793 149.814 60.25 152.22 60.25ZM176.455 65V46.304H183.219V65H176.455ZM176.303 36.956H183.371V43.074H176.303V36.956ZM199.72 45.848C201.949 45.848 203.609 46.5193 204.698 47.862C205.787 49.1793 206.332 51.1933 206.332 53.904V65H199.568V54.208C199.568 53.0933 199.365 52.2827 198.96 51.776C198.58 51.2693 197.997 51.016 197.212 51.016C196.199 51.016 195.388 51.3453 194.78 52.004C194.197 52.6373 193.906 53.4987 193.906 54.588V65H187.142V46.304H193.716V48.812C194.375 47.8493 195.223 47.1147 196.262 46.608C197.301 46.1013 198.453 45.848 199.72 45.848ZM222.918 46.342H229.53L221.208 65H215.622L207.414 46.342H214.482L218.586 56.868L222.918 46.342ZM247.552 56.944H236C236.203 58.16 236.646 59.034 237.33 59.566C238.014 60.098 238.99 60.364 240.256 60.364C241.168 60.364 242.093 60.212 243.03 59.908C243.968 59.604 244.804 59.186 245.538 58.654L247.248 63.1C246.311 63.784 245.184 64.3287 243.866 64.734C242.549 65.114 241.232 65.304 239.914 65.304C237.761 65.304 235.899 64.9113 234.328 64.126C232.758 63.3407 231.542 62.2133 230.68 60.744C229.844 59.2747 229.426 57.552 229.426 55.576C229.426 53.7013 229.819 52.0293 230.604 50.56C231.415 49.0653 232.53 47.9127 233.948 47.102C235.392 46.266 237.014 45.848 238.812 45.848C241.498 45.848 243.626 46.7093 245.196 48.432C246.767 50.1293 247.552 52.46 247.552 55.424V56.944ZM239.002 50.408C237.204 50.408 236.178 51.5227 235.924 53.752H241.89C241.738 51.5227 240.776 50.408 239.002 50.408ZM258.16 65.304C256.361 65.304 254.702 65.114 253.182 64.734C251.662 64.354 250.383 63.7967 249.344 63.062L251.054 58.464C252.067 59.1227 253.22 59.6547 254.512 60.06C255.804 60.44 257.045 60.63 258.236 60.63C258.971 60.63 259.541 60.5287 259.946 60.326C260.351 60.098 260.554 59.794 260.554 59.414C260.554 59.0847 260.402 58.8313 260.098 58.654C259.819 58.4767 259.237 58.2867 258.35 58.084L255.348 57.4C253.448 56.9693 252.08 56.336 251.244 55.5C250.408 54.664 249.99 53.4733 249.99 51.928C249.99 50.7373 250.345 49.686 251.054 48.774C251.763 47.8367 252.751 47.1147 254.018 46.608C255.31 46.1013 256.767 45.848 258.388 45.848C259.731 45.848 261.061 46.0507 262.378 46.456C263.721 46.836 264.937 47.3807 266.026 48.09L264.278 52.498C263.265 51.8647 262.239 51.3833 261.2 51.054C260.187 50.6993 259.224 50.522 258.312 50.522C257.577 50.522 257.007 50.636 256.602 50.864C256.197 51.092 255.994 51.4213 255.994 51.852C255.994 52.1053 256.121 52.3207 256.374 52.498C256.627 52.65 257.071 52.802 257.704 52.954L260.858 53.676C262.834 54.1067 264.265 54.778 265.152 55.69C266.039 56.5767 266.482 57.7927 266.482 59.338C266.482 61.1873 265.735 62.644 264.24 63.708C262.771 64.772 260.744 65.304 258.16 65.304ZM280.252 60.44C280.809 60.44 281.43 60.402 282.114 60.326L281.772 65.152C280.961 65.2533 280.176 65.304 279.416 65.304C276.376 65.304 274.159 64.6707 272.766 63.404C271.398 62.112 270.714 60.1233 270.714 57.438V51.282H267.218V46.304H270.714V40.87H277.478V46.304H281.962V51.282H277.478V57.476C277.478 59.452 278.402 60.44 280.252 60.44ZM33.5 107.304C31.7013 107.304 30.042 107.114 28.522 106.734C27.002 106.354 25.7227 105.797 24.684 105.062L26.394 100.464C27.4073 101.123 28.56 101.655 29.852 102.06C31.144 102.44 32.3853 102.63 33.576 102.63C34.3107 102.63 34.8807 102.529 35.286 102.326C35.6913 102.098 35.894 101.794 35.894 101.414C35.894 101.085 35.742 100.831 35.438 100.654C35.1593 100.477 34.5767 100.287 33.69 100.084L30.688 99.4C28.788 98.9693 27.42 98.336 26.584 97.5C25.748 96.664 25.33 95.4733 25.33 93.928C25.33 92.7373 25.6847 91.686 26.394 90.774C27.1033 89.8367 28.0913 89.1147 29.358 88.608C30.65 88.1013 32.1067 87.848 33.728 87.848C35.0707 87.848 36.4007 88.0507 37.718 88.456C39.0607 88.836 40.2767 89.3807 41.366 90.09L39.618 94.498C38.6047 93.8647 37.5787 93.3833 36.54 93.054C35.5267 92.6993 34.564 92.522 33.652 92.522C32.9173 92.522 32.3473 92.636 31.942 92.864C31.5367 93.092 31.334 93.4213 31.334 93.852C31.334 94.1053 31.4607 94.3207 31.714 94.498C31.9673 94.65 32.4107 94.802 33.044 94.954L36.198 95.676C38.174 96.1067 39.6053 96.778 40.492 97.69C41.3787 98.5767 41.822 99.7927 41.822 101.338C41.822 103.187 41.0747 104.644 39.58 105.708C38.1107 106.772 36.084 107.304 33.5 107.304ZM63.4529 88.304V107H56.8789V104.492C56.2962 105.404 55.5489 106.101 54.6369 106.582C53.7502 107.063 52.7242 107.304 51.5589 107.304C49.1522 107.304 47.3662 106.645 46.2009 105.328C45.0356 103.985 44.4529 101.959 44.4529 99.248V88.304H51.2169V99.4C51.2169 101.224 52.0022 102.136 53.5729 102.136C54.4849 102.136 55.2322 101.807 55.8149 101.148C56.3976 100.489 56.6889 99.628 56.6889 98.564V88.304H63.4529ZM76.7001 107.304C73.5081 107.304 71.0127 106.443 69.2141 104.72C67.4154 102.997 66.5161 100.654 66.5161 97.69C66.5161 95.7393 66.9467 94.0167 67.8081 92.522C68.6947 91.0273 69.9234 89.8747 71.4941 89.064C73.0901 88.2533 74.9267 87.848 77.0041 87.848C78.3974 87.848 79.7401 88.0507 81.0321 88.456C82.3494 88.8613 83.4134 89.406 84.2241 90.09L82.5141 94.65C81.8807 94.1433 81.1081 93.738 80.1961 93.434C79.3094 93.1047 78.4734 92.94 77.6881 92.94C76.3201 92.94 75.2687 93.32 74.5341 94.08C73.8247 94.84 73.4701 95.9927 73.4701 97.538C73.4701 99.0833 73.8247 100.249 74.5341 101.034C75.2687 101.819 76.3201 102.212 77.6881 102.212C78.4734 102.212 79.3094 102.06 80.1961 101.756C81.1081 101.427 81.8807 100.996 82.5141 100.464L84.2241 105.062C83.3627 105.771 82.2607 106.329 80.9181 106.734C79.6007 107.114 78.1947 107.304 76.7001 107.304ZM95.7001 107.304C92.5081 107.304 90.0127 106.443 88.2141 104.72C86.4154 102.997 85.5161 100.654 85.5161 97.69C85.5161 95.7393 85.9467 94.0167 86.8081 92.522C87.6947 91.0273 88.9234 89.8747 90.4941 89.064C92.0901 88.2533 93.9267 87.848 96.0041 87.848C97.3974 87.848 98.7401 88.0507 100.032 88.456C101.349 88.8613 102.413 89.406 103.224 90.09L101.514 94.65C100.881 94.1433 100.108 93.738 99.1961 93.434C98.3094 93.1047 97.4734 92.94 96.6881 92.94C95.3201 92.94 94.2687 93.32 93.5341 94.08C92.8247 94.84 92.4701 95.9927 92.4701 97.538C92.4701 99.0833 92.8247 100.249 93.5341 101.034C94.2687 101.819 95.3201 102.212 96.6881 102.212C97.4734 102.212 98.3094 102.06 99.1961 101.756C100.108 101.427 100.881 100.996 101.514 100.464L103.224 105.062C102.363 105.771 101.261 106.329 99.9181 106.734C98.6007 107.114 97.1947 107.304 95.7001 107.304ZM122.642 98.944H111.09C111.293 100.16 111.736 101.034 112.42 101.566C113.104 102.098 114.079 102.364 115.346 102.364C116.258 102.364 117.183 102.212 118.12 101.908C119.057 101.604 119.893 101.186 120.628 100.654L122.338 105.1C121.401 105.784 120.273 106.329 118.956 106.734C117.639 107.114 116.321 107.304 115.004 107.304C112.851 107.304 110.989 106.911 109.418 106.126C107.847 105.341 106.631 104.213 105.77 102.744C104.934 101.275 104.516 99.552 104.516 97.576C104.516 95.7013 104.909 94.0293 105.694 92.56C106.505 91.0653 107.619 89.9127 109.038 89.102C110.482 88.266 112.103 87.848 113.902 87.848C116.587 87.848 118.715 88.7093 120.286 90.432C121.857 92.1293 122.642 94.46 122.642 97.424V98.944ZM114.092 92.408C112.293 92.408 111.267 93.5227 111.014 95.752H116.98C116.828 93.5227 115.865 92.408 114.092 92.408ZM133.25 107.304C131.451 107.304 129.792 107.114 128.272 106.734C126.752 106.354 125.473 105.797 124.434 105.062L126.144 100.464C127.157 101.123 128.31 101.655 129.602 102.06C130.894 102.44 132.135 102.63 133.326 102.63C134.061 102.63 134.631 102.529 135.036 102.326C135.441 102.098 135.644 101.794 135.644 101.414C135.644 101.085 135.492 100.831 135.188 100.654C134.909 100.477 134.327 100.287 133.44 100.084L130.438 99.4C128.538 98.9693 127.17 98.336 126.334 97.5C125.498 96.664 125.08 95.4733 125.08 93.928C125.08 92.7373 125.435 91.686 126.144 90.774C126.853 89.8367 127.841 89.1147 129.108 88.608C130.4 88.1013 131.857 87.848 133.478 87.848C134.821 87.848 136.151 88.0507 137.468 88.456C138.811 88.836 140.027 89.3807 141.116 90.09L139.368 94.498C138.355 93.8647 137.329 93.3833 136.29 93.054C135.277 92.6993 134.314 92.522 133.402 92.522C132.667 92.522 132.097 92.636 131.692 92.864C131.287 93.092 131.084 93.4213 131.084 93.852C131.084 94.1053 131.211 94.3207 131.464 94.498C131.717 94.65 132.161 94.802 132.794 94.954L135.948 95.676C137.924 96.1067 139.355 96.778 140.242 97.69C141.129 98.5767 141.572 99.7927 141.572 101.338C141.572 103.187 140.825 104.644 139.33 105.708C137.861 106.772 135.834 107.304 133.25 107.304ZM151.879 107.304C150.08 107.304 148.421 107.114 146.901 106.734C145.381 106.354 144.102 105.797 143.063 105.062L144.773 100.464C145.786 101.123 146.939 101.655 148.231 102.06C149.523 102.44 150.764 102.63 151.955 102.63C152.69 102.63 153.26 102.529 153.665 102.326C154.07 102.098 154.273 101.794 154.273 101.414C154.273 101.085 154.121 100.831 153.817 100.654C153.538 100.477 152.956 100.287 152.069 100.084L149.067 99.4C147.167 98.9693 145.799 98.336 144.963 97.5C144.127 96.664 143.709 95.4733 143.709 93.928C143.709 92.7373 144.064 91.686 144.773 90.774C145.482 89.8367 146.47 89.1147 147.737 88.608C149.029 88.1013 150.486 87.848 152.107 87.848C153.45 87.848 154.78 88.0507 156.097 88.456C157.44 88.836 158.656 89.3807 159.745 90.09L157.997 94.498C156.984 93.8647 155.958 93.3833 154.919 93.054C153.906 92.6993 152.943 92.522 152.031 92.522C151.296 92.522 150.726 92.636 150.321 92.864C149.916 93.092 149.713 93.4213 149.713 93.852C149.713 94.1053 149.84 94.3207 150.093 94.498C150.346 94.65 150.79 94.802 151.423 94.954L154.577 95.676C156.553 96.1067 157.984 96.778 158.871 97.69C159.758 98.5767 160.201 99.7927 160.201 101.338C160.201 103.187 159.454 104.644 157.959 105.708C156.49 106.772 154.463 107.304 151.879 107.304ZM171.382 88.304H175.866V93.282H171.382V107H164.618V93.282H161.122V88.304H164.618C164.744 85.6947 165.593 83.7313 167.164 82.414C168.76 81.0713 171.141 80.3113 174.308 80.134L176.626 79.982L177.006 84.884L175.22 84.96C173.776 85.0107 172.775 85.226 172.218 85.606C171.66 85.986 171.382 86.6573 171.382 87.62V88.304ZM196.787 88.304V107H190.213V104.492C189.63 105.404 188.883 106.101 187.971 106.582C187.084 107.063 186.058 107.304 184.893 107.304C182.486 107.304 180.7 106.645 179.535 105.328C178.37 103.985 177.787 101.959 177.787 99.248V88.304H184.551V99.4C184.551 101.224 185.336 102.136 186.907 102.136C187.819 102.136 188.566 101.807 189.149 101.148C189.732 100.489 190.023 99.628 190.023 98.564V88.304H196.787ZM200.724 107V80.21H207.488V107H200.724ZM211.412 107V80.21H218.176V107H211.412ZM234.867 88.342H241.479L230.079 113.84H223.239L227.001 105.708L219.363 88.342H226.431L230.535 98.868L234.867 88.342ZM247.078 95.676C247.078 94.4853 247.293 93.4973 247.724 92.712C248.18 91.9013 248.801 91.078 249.586 90.242C250.169 89.6087 250.599 89.0767 250.878 88.646C251.157 88.19 251.296 87.6833 251.296 87.126C251.296 85.8847 250.485 85.264 248.864 85.264C247.927 85.264 246.875 85.4793 245.71 85.91C244.545 86.3407 243.392 86.9233 242.252 87.658L240.124 82.718C241.137 81.8567 242.505 81.1727 244.228 80.666C245.976 80.134 247.724 79.868 249.472 79.868C251.144 79.868 252.639 80.1467 253.956 80.704C255.273 81.2613 256.299 82.0467 257.034 83.06C257.769 84.048 258.136 85.188 258.136 86.48C258.136 87.4173 257.946 88.2787 257.566 89.064C257.186 89.824 256.717 90.4953 256.16 91.078C255.628 91.6353 254.931 92.2813 254.07 93.016C253.209 93.7507 252.55 94.3713 252.094 94.878C251.663 95.3847 251.385 95.9167 251.258 96.474L250.992 97.956H247.078V95.676ZM245.634 107V100.084H252.664V107H245.634Z" fill="white"/>
<path d="M25.479 138V126.015H26.873V136.81H32.874V138H25.479ZM41.3751 134.073H35.3231C35.3684 135.036 35.6291 135.767 36.1051 136.266C36.5811 136.753 37.2554 136.997 38.1281 136.997C39.0914 136.997 39.9754 136.668 40.7801 136.011L41.2391 137.014C40.8764 137.354 40.4117 137.626 39.8451 137.83C39.2784 138.023 38.7004 138.119 38.1111 138.119C36.8191 138.119 35.7991 137.739 35.0511 136.98C34.3144 136.221 33.9461 135.172 33.9461 133.835C33.9461 132.985 34.1104 132.237 34.4391 131.591C34.7677 130.934 35.2267 130.424 35.8161 130.061C36.4167 129.698 37.0967 129.517 37.8561 129.517C38.9554 129.517 39.8167 129.88 40.4401 130.605C41.0634 131.319 41.3751 132.305 41.3751 133.563V134.073ZM37.8731 130.588C37.1477 130.588 36.5641 130.815 36.1221 131.268C35.6914 131.721 35.4364 132.362 35.3571 133.189H40.1681C40.1454 132.35 39.9357 131.71 39.5391 131.268C39.1424 130.815 38.5871 130.588 37.8731 130.588ZM46.7699 129.517C47.8239 129.517 48.6059 129.789 49.1159 130.333C49.6372 130.866 49.8979 131.682 49.8979 132.781V138H48.5549V136.589C48.3396 137.076 48.0109 137.456 47.5689 137.728C47.1269 137.989 46.6169 138.119 46.0389 138.119C45.5062 138.119 45.0132 138.011 44.5599 137.796C44.1179 137.581 43.7666 137.28 43.5059 136.895C43.2452 136.51 43.1149 136.085 43.1149 135.62C43.1149 134.997 43.2736 134.515 43.5909 134.175C43.9082 133.824 44.4296 133.574 45.1549 133.427C45.8802 133.268 46.8889 133.189 48.1809 133.189H48.5549V132.628C48.5549 131.937 48.4132 131.438 48.1299 131.132C47.8466 130.815 47.3876 130.656 46.7529 130.656C45.8009 130.656 44.8546 130.951 43.9139 131.54L43.4549 130.537C43.8856 130.231 44.4012 129.987 45.0019 129.806C45.6139 129.613 46.2032 129.517 46.7699 129.517ZM46.2259 137.031C46.9059 137.031 47.4612 136.804 47.8919 136.351C48.3339 135.886 48.5549 135.291 48.5549 134.566V134.073H48.2489C47.2516 134.073 46.4922 134.118 45.9709 134.209C45.4496 134.288 45.0756 134.43 44.8489 134.634C44.6336 134.827 44.5259 135.116 44.5259 135.501C44.5259 135.943 44.6846 136.311 45.0019 136.606C45.3306 136.889 45.7386 137.031 46.2259 137.031ZM57.1106 130.707L56.2096 130.792C55.3596 130.871 54.7419 131.138 54.3566 131.591C53.9826 132.044 53.7956 132.605 53.7956 133.274V138H52.4186V129.721H53.7616V131.166C54.2262 130.203 55.1386 129.664 56.4986 129.551L56.9916 129.517L57.1106 130.707ZM62.5767 129.517C64.5601 129.517 65.5517 130.611 65.5517 132.798V138H64.1747V132.883C64.1747 132.112 64.0217 131.551 63.7157 131.2C63.4211 130.849 62.9451 130.673 62.2877 130.673C61.5284 130.673 60.9221 130.905 60.4687 131.37C60.0154 131.835 59.7887 132.464 59.7887 133.257V138H58.4117V129.721H59.7717V131.081C60.0437 130.571 60.4234 130.186 60.9107 129.925C61.3981 129.653 61.9534 129.517 62.5767 129.517ZM81.6706 129.517C83.5066 129.517 84.4246 130.611 84.4246 132.798V138H83.0476V132.866C83.0476 132.107 82.9116 131.551 82.6396 131.2C82.379 130.849 81.954 130.673 81.3646 130.673C80.6733 130.673 80.1293 130.905 79.7326 131.37C79.336 131.835 79.1376 132.469 79.1376 133.274V138H77.7606V132.866C77.7606 132.095 77.6246 131.54 77.3526 131.2C77.0806 130.849 76.65 130.673 76.0606 130.673C75.3693 130.673 74.8253 130.905 74.4286 131.37C74.032 131.835 73.8336 132.469 73.8336 133.274V138H72.4566V129.721H73.8166V131.03C74.066 130.543 74.4116 130.169 74.8536 129.908C75.2956 129.647 75.8056 129.517 76.3836 129.517C77.6643 129.517 78.5086 130.061 78.9166 131.149C79.1546 130.639 79.5173 130.242 80.0046 129.959C80.492 129.664 81.0473 129.517 81.6706 129.517ZM90.3672 138.119C89.5852 138.119 88.8939 137.943 88.2932 137.592C87.7039 137.241 87.2449 136.742 86.9162 136.096C86.5989 135.439 86.4402 134.679 86.4402 133.818C86.4402 132.957 86.5989 132.203 86.9162 131.557C87.2449 130.9 87.7039 130.395 88.2932 130.044C88.8939 129.693 89.5852 129.517 90.3672 129.517C91.1492 129.517 91.8405 129.693 92.4412 130.044C93.0419 130.395 93.5009 130.9 93.8182 131.557C94.1469 132.203 94.3112 132.957 94.3112 133.818C94.3112 134.679 94.1469 135.439 93.8182 136.096C93.5009 136.742 93.0419 137.241 92.4412 137.592C91.8405 137.943 91.1492 138.119 90.3672 138.119ZM90.3672 136.98C91.1832 136.98 91.8065 136.714 92.2372 136.181C92.6792 135.637 92.9002 134.849 92.9002 133.818C92.9002 132.809 92.6792 132.033 92.2372 131.489C91.7952 130.934 91.1719 130.656 90.3672 130.656C89.5625 130.656 88.9392 130.934 88.4972 131.489C88.0552 132.033 87.8342 132.809 87.8342 133.818C87.8342 134.838 88.0495 135.62 88.4802 136.164C88.9222 136.708 89.5512 136.98 90.3672 136.98ZM101.055 130.707L100.154 130.792C99.3039 130.871 98.6862 131.138 98.3009 131.591C97.9269 132.044 97.7399 132.605 97.7399 133.274V138H96.3629V129.721H97.7059V131.166C98.1706 130.203 99.0829 129.664 100.443 129.551L100.936 129.517L101.055 130.707ZM109.126 134.073H103.074C103.119 135.036 103.38 135.767 103.856 136.266C104.332 136.753 105.006 136.997 105.879 136.997C106.842 136.997 107.726 136.668 108.531 136.011L108.99 137.014C108.627 137.354 108.163 137.626 107.596 137.83C107.029 138.023 106.451 138.119 105.862 138.119C104.57 138.119 103.55 137.739 102.802 136.98C102.065 136.221 101.697 135.172 101.697 133.835C101.697 132.985 101.861 132.237 102.19 131.591C102.519 130.934 102.978 130.424 103.567 130.061C104.168 129.698 104.848 129.517 105.607 129.517C106.706 129.517 107.568 129.88 108.191 130.605C108.814 131.319 109.126 132.305 109.126 133.563V134.073ZM105.624 130.588C104.899 130.588 104.315 130.815 103.873 131.268C103.442 131.721 103.187 132.362 103.108 133.189H107.919C107.896 132.35 107.687 131.71 107.29 131.268C106.893 130.815 106.338 130.588 105.624 130.588ZM118.904 129.517C119.958 129.517 120.74 129.789 121.25 130.333C121.771 130.866 122.032 131.682 122.032 132.781V138H120.689V136.589C120.473 137.076 120.145 137.456 119.703 137.728C119.261 137.989 118.751 138.119 118.173 138.119C117.64 138.119 117.147 138.011 116.694 137.796C116.252 137.581 115.9 137.28 115.64 136.895C115.379 136.51 115.249 136.085 115.249 135.62C115.249 134.997 115.407 134.515 115.725 134.175C116.042 133.824 116.563 133.574 117.289 133.427C118.014 133.268 119.023 133.189 120.315 133.189H120.689V132.628C120.689 131.937 120.547 131.438 120.264 131.132C119.98 130.815 119.521 130.656 118.887 130.656C117.935 130.656 116.988 130.951 116.048 131.54L115.589 130.537C116.019 130.231 116.535 129.987 117.136 129.806C117.748 129.613 118.337 129.517 118.904 129.517ZM118.36 137.031C119.04 137.031 119.595 136.804 120.026 136.351C120.468 135.886 120.689 135.291 120.689 134.566V134.073H120.383C119.385 134.073 118.626 134.118 118.105 134.209C117.583 134.288 117.209 134.43 116.983 134.634C116.767 134.827 116.66 135.116 116.66 135.501C116.66 135.943 116.818 136.311 117.136 136.606C117.464 136.889 117.872 137.031 118.36 137.031ZM128.717 129.517C129.443 129.517 130.083 129.693 130.638 130.044C131.194 130.395 131.624 130.894 131.93 131.54C132.236 132.186 132.389 132.934 132.389 133.784C132.389 134.645 132.236 135.405 131.93 136.062C131.624 136.708 131.194 137.212 130.638 137.575C130.083 137.938 129.443 138.119 128.717 138.119C128.071 138.119 127.505 137.977 127.017 137.694C126.541 137.411 126.179 137.008 125.929 136.487V138H124.552V126.015H125.929V131.149C126.179 130.628 126.541 130.225 127.017 129.942C127.505 129.659 128.071 129.517 128.717 129.517ZM128.445 136.98C129.25 136.98 129.873 136.702 130.315 136.147C130.757 135.58 130.978 134.793 130.978 133.784C130.978 132.798 130.757 132.033 130.315 131.489C129.873 130.945 129.25 130.673 128.445 130.673C127.641 130.673 127.017 130.945 126.575 131.489C126.145 132.033 125.929 132.809 125.929 133.818C125.929 134.827 126.145 135.609 126.575 136.164C127.017 136.708 127.641 136.98 128.445 136.98ZM137.881 138.119C137.099 138.119 136.408 137.943 135.807 137.592C135.218 137.241 134.759 136.742 134.43 136.096C134.113 135.439 133.954 134.679 133.954 133.818C133.954 132.957 134.113 132.203 134.43 131.557C134.759 130.9 135.218 130.395 135.807 130.044C136.408 129.693 137.099 129.517 137.881 129.517C138.663 129.517 139.354 129.693 139.955 130.044C140.556 130.395 141.015 130.9 141.332 131.557C141.661 132.203 141.825 132.957 141.825 133.818C141.825 134.679 141.661 135.439 141.332 136.096C141.015 136.742 140.556 137.241 139.955 137.592C139.354 137.943 138.663 138.119 137.881 138.119ZM137.881 136.98C138.697 136.98 139.32 136.714 139.751 136.181C140.193 135.637 140.414 134.849 140.414 133.818C140.414 132.809 140.193 132.033 139.751 131.489C139.309 130.934 138.686 130.656 137.881 130.656C137.076 130.656 136.453 130.934 136.011 131.489C135.569 132.033 135.348 132.809 135.348 133.818C135.348 134.838 135.563 135.62 135.994 136.164C136.436 136.708 137.065 136.98 137.881 136.98ZM150.847 129.721V138H149.504V136.589C149.243 137.088 148.875 137.467 148.399 137.728C147.934 137.989 147.407 138.119 146.818 138.119C145.832 138.119 145.089 137.847 144.591 137.303C144.092 136.748 143.843 135.932 143.843 134.855V129.721H145.22V134.821C145.22 135.558 145.367 136.102 145.662 136.453C145.956 136.793 146.421 136.963 147.056 136.963C147.781 136.963 148.365 136.731 148.807 136.266C149.249 135.79 149.47 135.167 149.47 134.396V129.721H150.847ZM157.044 137.014C157.293 137.014 157.543 136.997 157.792 136.963L157.724 138.051C157.463 138.096 157.18 138.119 156.874 138.119C155.877 138.119 155.123 137.858 154.613 137.337C154.114 136.816 153.865 136.09 153.865 135.161V130.809H152.25V129.721H153.865V127.205H155.242V129.721H157.588V130.809H155.242V135.059C155.242 136.362 155.843 137.014 157.044 137.014ZM166.371 138.119C164.977 138.119 163.872 137.762 163.056 137.048L163.515 136.028C163.957 136.379 164.405 136.634 164.858 136.793C165.323 136.94 165.844 137.014 166.422 137.014C167.034 137.014 167.499 136.912 167.816 136.708C168.145 136.493 168.309 136.187 168.309 135.79C168.309 135.461 168.201 135.201 167.986 135.008C167.771 134.815 167.414 134.662 166.915 134.549L165.521 134.226C164.818 134.067 164.28 133.795 163.906 133.41C163.532 133.025 163.345 132.549 163.345 131.982C163.345 131.245 163.634 130.65 164.212 130.197C164.79 129.744 165.561 129.517 166.524 129.517C167.102 129.517 167.652 129.613 168.173 129.806C168.694 129.987 169.131 130.254 169.482 130.605L169.023 131.608C168.264 130.962 167.431 130.639 166.524 130.639C165.946 130.639 165.493 130.752 165.164 130.979C164.847 131.194 164.688 131.5 164.688 131.897C164.688 132.226 164.784 132.492 164.977 132.696C165.181 132.889 165.504 133.036 165.946 133.138L167.357 133.478C168.128 133.659 168.7 133.937 169.074 134.311C169.448 134.674 169.635 135.15 169.635 135.739C169.635 136.464 169.34 137.042 168.751 137.473C168.173 137.904 167.38 138.119 166.371 138.119ZM175.289 137.014C175.538 137.014 175.788 136.997 176.037 136.963L175.969 138.051C175.708 138.096 175.425 138.119 175.119 138.119C174.122 138.119 173.368 137.858 172.858 137.337C172.359 136.816 172.11 136.09 172.11 135.161V130.809H170.495V129.721H172.11V127.205H173.487V129.721H175.833V130.809H173.487V135.059C173.487 136.362 174.088 137.014 175.289 137.014ZM180.862 138.119C180.08 138.119 179.389 137.943 178.788 137.592C178.199 137.241 177.74 136.742 177.411 136.096C177.094 135.439 176.935 134.679 176.935 133.818C176.935 132.957 177.094 132.203 177.411 131.557C177.74 130.9 178.199 130.395 178.788 130.044C179.389 129.693 180.08 129.517 180.862 129.517C181.644 129.517 182.336 129.693 182.936 130.044C183.537 130.395 183.996 130.9 184.313 131.557C184.642 132.203 184.806 132.957 184.806 133.818C184.806 134.679 184.642 135.439 184.313 136.096C183.996 136.742 183.537 137.241 182.936 137.592C182.336 137.943 181.644 138.119 180.862 138.119ZM180.862 136.98C181.678 136.98 182.302 136.714 182.732 136.181C183.174 135.637 183.395 134.849 183.395 133.818C183.395 132.809 183.174 132.033 182.732 131.489C182.29 130.934 181.667 130.656 180.862 130.656C180.058 130.656 179.434 130.934 178.992 131.489C178.55 132.033 178.329 132.809 178.329 133.818C178.329 134.838 178.545 135.62 178.975 136.164C179.417 136.708 180.046 136.98 180.862 136.98ZM190.36 138.119C189.544 138.119 188.836 137.943 188.235 137.592C187.634 137.241 187.17 136.748 186.841 136.113C186.524 135.467 186.365 134.713 186.365 133.852C186.365 132.991 186.529 132.237 186.858 131.591C187.198 130.934 187.668 130.424 188.269 130.061C188.881 129.698 189.595 129.517 190.411 129.517C190.966 129.517 191.51 129.619 192.043 129.823C192.576 130.016 193.006 130.276 193.335 130.605L192.876 131.625C192.094 130.99 191.301 130.673 190.496 130.673C189.646 130.673 188.983 130.951 188.507 131.506C188.031 132.061 187.793 132.843 187.793 133.852C187.793 134.849 188.031 135.62 188.507 136.164C188.983 136.708 189.646 136.98 190.496 136.98C191.301 136.98 192.094 136.663 192.876 136.028L193.335 137.048C192.984 137.377 192.542 137.637 192.009 137.83C191.476 138.023 190.927 138.119 190.36 138.119ZM202.371 138H200.586L196.37 134.039V138H194.993V126.015H196.37V133.478L200.229 129.738H201.98L197.866 133.699L202.371 138ZM217.09 129.517C218.926 129.517 219.844 130.611 219.844 132.798V138H218.467V132.866C218.467 132.107 218.331 131.551 218.059 131.2C217.798 130.849 217.373 130.673 216.784 130.673C216.092 130.673 215.548 130.905 215.152 131.37C214.755 131.835 214.557 132.469 214.557 133.274V138H213.18V132.866C213.18 132.095 213.044 131.54 212.772 131.2C212.5 130.849 212.069 130.673 211.48 130.673C210.788 130.673 210.244 130.905 209.848 131.37C209.451 131.835 209.253 132.469 209.253 133.274V138H207.876V129.721H209.236V131.03C209.485 130.543 209.831 130.169 210.273 129.908C210.715 129.647 211.225 129.517 211.803 129.517C213.083 129.517 213.928 130.061 214.336 131.149C214.574 130.639 214.936 130.242 215.424 129.959C215.911 129.664 216.466 129.517 217.09 129.517ZM225.718 129.517C226.772 129.517 227.554 129.789 228.064 130.333C228.585 130.866 228.846 131.682 228.846 132.781V138H227.503V136.589C227.288 137.076 226.959 137.456 226.517 137.728C226.075 137.989 225.565 138.119 224.987 138.119C224.454 138.119 223.961 138.011 223.508 137.796C223.066 137.581 222.715 137.28 222.454 136.895C222.193 136.51 222.063 136.085 222.063 135.62C222.063 134.997 222.222 134.515 222.539 134.175C222.856 133.824 223.378 133.574 224.103 133.427C224.828 133.268 225.837 133.189 227.129 133.189H227.503V132.628C227.503 131.937 227.361 131.438 227.078 131.132C226.795 130.815 226.336 130.656 225.701 130.656C224.749 130.656 223.803 130.951 222.862 131.54L222.403 130.537C222.834 130.231 223.349 129.987 223.95 129.806C224.562 129.613 225.151 129.517 225.718 129.517ZM225.174 137.031C225.854 137.031 226.409 136.804 226.84 136.351C227.282 135.886 227.503 135.291 227.503 134.566V134.073H227.197C226.2 134.073 225.44 134.118 224.919 134.209C224.398 134.288 224.024 134.43 223.797 134.634C223.582 134.827 223.474 135.116 223.474 135.501C223.474 135.943 223.633 136.311 223.95 136.606C224.279 136.889 224.687 137.031 225.174 137.031ZM236.059 130.707L235.158 130.792C234.308 130.871 233.69 131.138 233.305 131.591C232.931 132.044 232.744 132.605 232.744 133.274V138H231.367V129.721H232.71V131.166C233.174 130.203 234.087 129.664 235.447 129.551L235.94 129.517L236.059 130.707ZM244.738 138H242.953L238.737 134.039V138H237.36V126.015H238.737V133.478L242.596 129.738H244.347L240.233 133.699L244.738 138ZM252.647 134.073H246.595C246.64 135.036 246.901 135.767 247.377 136.266C247.853 136.753 248.527 136.997 249.4 136.997C250.363 136.997 251.247 136.668 252.052 136.011L252.511 137.014C252.148 137.354 251.683 137.626 251.117 137.83C250.55 138.023 249.972 138.119 249.383 138.119C248.091 138.119 247.071 137.739 246.323 136.98C245.586 136.221 245.218 135.172 245.218 133.835C245.218 132.985 245.382 132.237 245.711 131.591C246.039 130.934 246.498 130.424 247.088 130.061C247.688 129.698 248.368 129.517 249.128 129.517C250.227 129.517 251.088 129.88 251.712 130.605C252.335 131.319 252.647 132.305 252.647 133.563V134.073ZM249.145 130.588C248.419 130.588 247.836 130.815 247.394 131.268C246.963 131.721 246.708 132.362 246.629 133.189H251.44C251.417 132.35 251.207 131.71 250.811 131.268C250.414 130.815 249.859 130.588 249.145 130.588ZM258.264 137.014C258.513 137.014 258.762 136.997 259.012 136.963L258.944 138.051C258.683 138.096 258.4 138.119 258.094 138.119C257.096 138.119 256.343 137.858 255.833 137.337C255.334 136.816 255.085 136.09 255.085 135.161V130.809H253.47V129.721H255.085V127.205H256.462V129.721H258.808V130.809H256.462V135.059C256.462 136.362 257.062 137.014 258.264 137.014ZM263.208 138.119C261.814 138.119 260.709 137.762 259.893 137.048L260.352 136.028C260.794 136.379 261.242 136.634 261.695 136.793C262.16 136.94 262.681 137.014 263.259 137.014C263.871 137.014 264.336 136.912 264.653 136.708C264.982 136.493 265.146 136.187 265.146 135.79C265.146 135.461 265.038 135.201 264.823 135.008C264.608 134.815 264.251 134.662 263.752 134.549L262.358 134.226C261.655 134.067 261.117 133.795 260.743 133.41C260.369 133.025 260.182 132.549 260.182 131.982C260.182 131.245 260.471 130.65 261.049 130.197C261.627 129.744 262.398 129.517 263.361 129.517C263.939 129.517 264.489 129.613 265.01 129.806C265.531 129.987 265.968 130.254 266.319 130.605L265.86 131.608C265.101 130.962 264.268 130.639 263.361 130.639C262.783 130.639 262.33 130.752 262.001 130.979C261.684 131.194 261.525 131.5 261.525 131.897C261.525 132.226 261.621 132.492 261.814 132.696C262.018 132.889 262.341 133.036 262.783 133.138L264.194 133.478C264.965 133.659 265.537 133.937 265.911 134.311C266.285 134.674 266.472 135.15 266.472 135.739C266.472 136.464 266.177 137.042 265.588 137.473C265.01 137.904 264.217 138.119 263.208 138.119ZM28.641 151.517C29.695 151.517 30.477 151.789 30.987 152.333C31.5083 152.866 31.769 153.682 31.769 154.781V160H30.426V158.589C30.2107 159.076 29.882 159.456 29.44 159.728C28.998 159.989 28.488 160.119 27.91 160.119C27.3773 160.119 26.8843 160.011 26.431 159.796C25.989 159.581 25.6377 159.28 25.377 158.895C25.1163 158.51 24.986 158.085 24.986 157.62C24.986 156.997 25.1447 156.515 25.462 156.175C25.7793 155.824 26.3007 155.574 27.026 155.427C27.7513 155.268 28.76 155.189 30.052 155.189H30.426V154.628C30.426 153.937 30.2843 153.438 30.001 153.132C29.7177 152.815 29.2587 152.656 28.624 152.656C27.672 152.656 26.7257 152.951 25.785 153.54L25.326 152.537C25.7567 152.231 26.2723 151.987 26.873 151.806C27.485 151.613 28.0743 151.517 28.641 151.517ZM28.097 159.031C28.777 159.031 29.3323 158.804 29.763 158.351C30.205 157.886 30.426 157.291 30.426 156.566V156.073H30.12C29.1227 156.073 28.3633 156.118 27.842 156.209C27.3207 156.288 26.9467 156.43 26.72 156.634C26.5047 156.827 26.397 157.116 26.397 157.501C26.397 157.943 26.5557 158.311 26.873 158.606C27.2017 158.889 27.6097 159.031 28.097 159.031ZM38.4546 151.517C40.438 151.517 41.4296 152.611 41.4296 154.798V160H40.0526V154.883C40.0526 154.112 39.8996 153.551 39.5936 153.2C39.299 152.849 38.823 152.673 38.1656 152.673C37.4063 152.673 36.8 152.905 36.3466 153.37C35.8933 153.835 35.6666 154.464 35.6666 155.257V160H34.2896V151.721H35.6496V153.081C35.9216 152.571 36.3013 152.186 36.7886 151.925C37.276 151.653 37.8313 151.517 38.4546 151.517ZM51.2958 148.015V160H49.9188V158.487C49.6694 159.008 49.3011 159.411 48.8138 159.694C48.3378 159.977 47.7768 160.119 47.1308 160.119C46.4054 160.119 45.7651 159.938 45.2098 159.575C44.6544 159.212 44.2238 158.708 43.9178 158.062C43.6118 157.405 43.4588 156.645 43.4588 155.784C43.4588 154.934 43.6118 154.186 43.9178 153.54C44.2238 152.894 44.6544 152.395 45.2098 152.044C45.7651 151.693 46.4054 151.517 47.1308 151.517C47.7768 151.517 48.3378 151.659 48.8138 151.942C49.3011 152.225 49.6694 152.628 49.9188 153.149V148.015H51.2958ZM47.4028 158.98C48.2074 158.98 48.8251 158.708 49.2558 158.164C49.6978 157.609 49.9188 156.827 49.9188 155.818C49.9188 154.809 49.6978 154.033 49.2558 153.489C48.8251 152.945 48.2074 152.673 47.4028 152.673C46.5981 152.673 45.9691 152.945 45.5158 153.489C45.0738 154.033 44.8528 154.798 44.8528 155.784C44.8528 156.793 45.0738 157.58 45.5158 158.147C45.9691 158.702 46.5981 158.98 47.4028 158.98ZM58.2291 160V151.721H59.6061V160H58.2291ZM58.0931 148.134H59.7591V149.681H58.0931V148.134ZM66.3453 151.517C68.3286 151.517 69.3203 152.611 69.3203 154.798V160H67.9433V154.883C67.9433 154.112 67.7903 153.551 67.4843 153.2C67.1896 152.849 66.7136 152.673 66.0563 152.673C65.2969 152.673 64.6906 152.905 64.2373 153.37C63.7839 153.835 63.5573 154.464 63.5573 155.257V160H62.1803V151.721H63.5403V153.081C63.8123 152.571 64.1919 152.186 64.6793 151.925C65.1666 151.653 65.7219 151.517 66.3453 151.517ZM77.7754 151.738H79.1524L75.5824 160H74.2904L70.7374 151.738H72.1994L74.9704 158.504L77.7754 151.738ZM87.4112 156.073H81.3592C81.4045 157.036 81.6652 157.767 82.1412 158.266C82.6172 158.753 83.2915 158.997 84.1642 158.997C85.1275 158.997 86.0115 158.668 86.8162 158.011L87.2752 159.014C86.9125 159.354 86.4479 159.626 85.8812 159.83C85.3145 160.023 84.7365 160.119 84.1472 160.119C82.8552 160.119 81.8352 159.739 81.0872 158.98C80.3505 158.221 79.9822 157.172 79.9822 155.835C79.9822 154.985 80.1465 154.237 80.4752 153.591C80.8039 152.934 81.2629 152.424 81.8522 152.061C82.4529 151.698 83.1329 151.517 83.8922 151.517C84.9915 151.517 85.8529 151.88 86.4762 152.605C87.0995 153.319 87.4112 154.305 87.4112 155.563V156.073ZM83.9092 152.588C83.1839 152.588 82.6002 152.815 82.1582 153.268C81.7275 153.721 81.4725 154.362 81.3932 155.189H86.2042C86.1815 154.35 85.9719 153.71 85.5752 153.268C85.1785 152.815 84.6232 152.588 83.9092 152.588ZM92.245 160.119C90.851 160.119 89.746 159.762 88.93 159.048L89.389 158.028C89.831 158.379 90.2787 158.634 90.732 158.793C91.1967 158.94 91.718 159.014 92.296 159.014C92.908 159.014 93.3727 158.912 93.69 158.708C94.0187 158.493 94.183 158.187 94.183 157.79C94.183 157.461 94.0754 157.201 93.86 157.008C93.6447 156.815 93.2877 156.662 92.789 156.549L91.395 156.226C90.6924 156.067 90.154 155.795 89.78 155.41C89.406 155.025 89.219 154.549 89.219 153.982C89.219 153.245 89.508 152.65 90.086 152.197C90.664 151.744 91.4347 151.517 92.398 151.517C92.976 151.517 93.5257 151.613 94.047 151.806C94.5684 151.987 95.0047 152.254 95.356 152.605L94.897 153.608C94.1377 152.962 93.3047 152.639 92.398 152.639C91.82 152.639 91.3667 152.752 91.038 152.979C90.7207 153.194 90.562 153.5 90.562 153.897C90.562 154.226 90.6584 154.492 90.851 154.696C91.055 154.889 91.378 155.036 91.82 155.138L93.231 155.478C94.0017 155.659 94.574 155.937 94.948 156.311C95.322 156.674 95.509 157.15 95.509 157.739C95.509 158.464 95.2144 159.042 94.625 159.473C94.047 159.904 93.2537 160.119 92.245 160.119ZM101.163 159.014C101.412 159.014 101.662 158.997 101.911 158.963L101.843 160.051C101.582 160.096 101.299 160.119 100.993 160.119C99.9957 160.119 99.242 159.858 98.732 159.337C98.2333 158.816 97.984 158.09 97.984 157.161V152.809H96.369V151.721H97.984V149.205H99.361V151.721H101.707V152.809H99.361V157.059C99.361 158.362 99.9617 159.014 101.163 159.014ZM103.302 160V151.721H104.679V160H103.302ZM103.166 148.134H104.832V149.681H103.166V148.134ZM111.419 151.517C113.402 151.517 114.394 152.611 114.394 154.798V160H113.017V154.883C113.017 154.112 112.864 153.551 112.558 153.2C112.263 152.849 111.787 152.673 111.13 152.673C110.37 152.673 109.764 152.905 109.311 153.37C108.857 153.835 108.631 154.464 108.631 155.257V160H107.254V151.721H108.614V153.081C108.886 152.571 109.265 152.186 109.753 151.925C110.24 151.653 110.795 151.517 111.419 151.517ZM124.328 151.721V159.439C124.328 160.674 124.01 161.604 123.376 162.227C122.741 162.862 121.8 163.179 120.554 163.179C119.103 163.179 117.885 162.805 116.899 162.057L117.358 161.037C117.913 161.4 118.434 161.66 118.922 161.819C119.409 161.978 119.953 162.057 120.554 162.057C121.347 162.057 121.948 161.842 122.356 161.411C122.764 160.992 122.968 160.374 122.968 159.558V158.096C122.73 158.629 122.361 159.037 121.863 159.32C121.375 159.603 120.797 159.745 120.129 159.745C119.403 159.745 118.757 159.575 118.191 159.235C117.635 158.895 117.199 158.413 116.882 157.79C116.576 157.167 116.423 156.447 116.423 155.631C116.423 154.815 116.576 154.095 116.882 153.472C117.199 152.849 117.635 152.367 118.191 152.027C118.757 151.687 119.403 151.517 120.129 151.517C120.786 151.517 121.358 151.659 121.846 151.942C122.333 152.225 122.701 152.628 122.951 153.149V151.721H124.328ZM120.401 158.606C121.194 158.606 121.817 158.345 122.271 157.824C122.724 157.291 122.951 156.56 122.951 155.631C122.951 154.713 122.724 153.993 122.271 153.472C121.829 152.939 121.205 152.673 120.401 152.673C119.596 152.673 118.961 152.939 118.497 153.472C118.043 153.993 117.817 154.713 117.817 155.631C117.817 156.56 118.043 157.291 118.497 157.824C118.961 158.345 119.596 158.606 120.401 158.606ZM126.673 158.266H128.407V160H126.673V158.266Z" fill="white"/>
</g>
<defs>
<filter id="filter0_f_1340_7301" x="114.383" y="-214.057" width="425.674" height="425.674" filterUnits="userSpaceOnUse" color-interpolation-filters="sRGB">
<feFlood flood-opacity="0" result="BackgroundImageFix"/>
<feBlend mode="normal" in="SourceGraphic" in2="BackgroundImageFix" result="shape"/>
<feGaussianBlur stdDeviation="27.6537" result="effect1_foregroundBlur_1340_7301"/>
</filter>
<clipPath id="clip0_1340_7301">
<rect width="360" height="196" rx="30" fill="white"/>
</clipPath>
</defs>
</svg>
