<svg width="337" height="780" viewBox="0 0 337 780" fill="none" xmlns="http://www.w3.org/2000/svg">
<g filter="url(#filter0_d_105_236)">
<rect x="75.9535" y="509" width="218.075" height="218" rx="30" transform="rotate(6 75.9535 509)" fill="#191A1C" shape-rendering="crispEdges"/>
<g clip-path="url(#clip0_105_236)">
<path fill-rule="evenodd" clip-rule="evenodd" d="M175.924 581.849C173.178 581.56 170.717 583.552 170.429 586.299C170.14 589.045 172.132 591.505 174.879 591.794C177.625 592.083 180.085 590.09 180.374 587.344C180.662 584.598 178.67 582.137 175.924 581.849ZM168.44 586.09C168.844 582.245 172.288 579.456 176.133 579.86C179.978 580.264 182.767 583.708 182.363 587.553C181.959 591.398 178.514 594.187 174.669 593.783C170.825 593.379 168.035 589.935 168.44 586.09Z" fill="#28EBCF"/>
<path fill-rule="evenodd" clip-rule="evenodd" d="M175.506 585.827C174.956 585.769 174.464 586.168 174.407 586.717C174.349 587.266 174.747 587.758 175.297 587.816C175.846 587.874 176.338 587.475 176.396 586.926C176.453 586.377 176.055 585.885 175.506 585.827ZM172.418 586.508C172.591 584.86 174.067 583.665 175.715 583.838C177.363 584.011 178.558 585.487 178.385 587.135C178.212 588.783 176.735 589.978 175.088 589.805C173.44 589.632 172.244 588.156 172.418 586.508Z" fill="#28EBCF"/>
<path fill-rule="evenodd" clip-rule="evenodd" d="M169.727 587.397C170.193 587.694 170.329 588.313 170.032 588.778L166.124 594.896L169.886 595.291L172.038 592.108C172.347 591.651 172.969 591.531 173.426 591.84C173.884 592.149 174.004 592.771 173.695 593.229L171.206 596.909C170.999 597.215 170.641 597.382 170.273 597.343L164.306 596.716C163.961 596.68 163.66 596.468 163.51 596.155C163.359 595.843 163.381 595.475 163.568 595.183L168.346 587.702C168.643 587.236 169.262 587.1 169.727 587.397Z" fill="#28EBCF"/>
<path fill-rule="evenodd" clip-rule="evenodd" d="M180.928 588.581C181.447 588.391 182.021 588.658 182.211 589.177L185.24 597.469C185.359 597.793 185.302 598.155 185.09 598.427C184.877 598.699 184.54 598.843 184.197 598.806L178.229 598.179C177.856 598.14 177.535 597.894 177.401 597.544L175.821 593.436C175.623 592.921 175.88 592.342 176.396 592.144C176.911 591.946 177.49 592.203 177.688 592.718L179.048 596.254L182.812 596.65L180.332 589.863C180.142 589.344 180.409 588.77 180.928 588.581Z" fill="#28EBCF"/>
<path fill-rule="evenodd" clip-rule="evenodd" d="M162.888 562.38C162.624 562.352 162.36 562.43 162.154 562.597C161.948 562.764 161.816 563.006 161.788 563.269L159.593 584.154C159.566 584.418 159.644 584.682 159.811 584.888C159.978 585.094 160.22 585.226 160.483 585.254L168.44 586.09C168.989 586.147 169.387 586.64 169.33 587.189C169.272 587.738 168.78 588.137 168.23 588.079L160.274 587.243C159.483 587.159 158.757 586.765 158.256 586.147C157.756 585.529 157.521 584.737 157.604 583.945L159.799 563.06C159.883 562.269 160.277 561.543 160.895 561.043C161.513 560.542 162.305 560.307 163.097 560.39L192.932 563.526C193.724 563.609 194.449 564.004 194.95 564.622C195.451 565.24 195.685 566.032 195.602 566.823L193.407 587.708C193.324 588.5 192.93 589.226 192.312 589.726C191.693 590.227 190.901 590.462 190.11 590.378L182.154 589.542C181.605 589.484 181.206 588.992 181.264 588.443C181.322 587.894 181.814 587.495 182.363 587.553L190.319 588.389C190.583 588.417 190.847 588.339 191.053 588.172C191.259 588.005 191.39 587.763 191.418 587.499L193.613 566.614C193.641 566.351 193.563 566.087 193.396 565.881C193.229 565.674 192.987 565.543 192.723 565.515L162.888 562.38Z" fill="#28EBCF"/>
<path fill-rule="evenodd" clip-rule="evenodd" d="M167.284 558.82C167.02 558.792 166.756 558.87 166.55 559.037C166.344 559.204 166.212 559.446 166.185 559.71L165.976 561.699C165.918 562.248 165.426 562.646 164.877 562.589C164.327 562.531 163.929 562.039 163.987 561.49L164.196 559.5C164.279 558.709 164.673 557.983 165.291 557.483C165.91 556.982 166.701 556.747 167.493 556.83L197.328 559.966C198.12 560.05 198.846 560.444 199.346 561.062C199.847 561.68 200.082 562.472 199.998 563.263L197.803 584.148C197.72 584.94 197.326 585.666 196.708 586.166C196.089 586.667 195.297 586.902 194.506 586.818L193.512 586.714C192.962 586.656 192.564 586.164 192.622 585.615C192.679 585.066 193.171 584.667 193.721 584.725L194.715 584.829C194.979 584.857 195.243 584.779 195.449 584.612C195.655 584.445 195.787 584.203 195.814 583.939L198.009 563.054C198.037 562.791 197.959 562.527 197.792 562.321C197.625 562.114 197.383 561.983 197.119 561.955L167.284 558.82Z" fill="#28EBCF"/>
<path fill-rule="evenodd" clip-rule="evenodd" d="M168.018 570.963C168.076 570.414 168.568 570.015 169.117 570.073L185.03 571.745C185.579 571.803 185.978 572.295 185.92 572.844C185.862 573.394 185.37 573.792 184.821 573.734L168.908 572.062C168.359 572.004 167.961 571.512 168.018 570.963Z" fill="#28EBCF"/>
<path fill-rule="evenodd" clip-rule="evenodd" d="M167.6 574.941C167.658 574.392 168.15 573.993 168.699 574.051L184.612 575.723C185.161 575.781 185.559 576.273 185.502 576.822C185.444 577.372 184.952 577.77 184.403 577.712L168.49 576.04C167.941 575.982 167.543 575.49 167.6 574.941Z" fill="#28EBCF"/>
<path fill-rule="evenodd" clip-rule="evenodd" d="M164.194 565.117C164.607 564.783 165.134 564.627 165.662 564.682L189.531 567.191C190.058 567.246 190.542 567.509 190.876 567.921C191.21 568.333 191.366 568.861 191.311 569.389L189.743 584.307C189.687 584.834 189.424 585.318 189.012 585.652C188.6 585.986 188.072 586.142 187.545 586.087L181.577 585.46C181.028 585.402 180.63 584.91 180.687 584.361C180.745 583.811 181.237 583.413 181.786 583.471L187.754 584.098L189.321 569.18L165.453 566.671L163.885 581.589L169.852 582.216C170.401 582.274 170.8 582.766 170.742 583.315C170.684 583.864 170.192 584.263 169.643 584.205L163.676 583.578C163.148 583.523 162.665 583.26 162.331 582.848C161.997 582.435 161.841 581.908 161.896 581.38L163.464 566.462C163.519 565.935 163.782 565.451 164.194 565.117Z" fill="#28EBCF"/>
</g>
<path d="M128.347 619.804L130.781 620.059L129.602 631.278L127.168 631.022L127.663 626.312L122.491 625.768L121.996 630.478L119.561 630.222L120.741 619.004L123.175 619.26L122.698 623.795L127.87 624.339L128.347 619.804ZM135.389 632.015C134.561 631.928 133.852 631.687 133.26 631.292C132.67 630.887 132.237 630.364 131.961 629.724C131.686 629.073 131.593 628.334 131.68 627.506C131.766 626.679 132.011 625.98 132.415 625.411C132.819 624.832 133.351 624.411 134.011 624.147C134.672 623.884 135.416 623.796 136.243 623.883C137.071 623.97 137.78 624.211 138.371 624.606C138.963 625 139.396 625.523 139.671 626.174C139.946 626.814 140.041 627.548 139.954 628.376C139.867 629.203 139.621 629.907 139.217 630.486C138.814 631.055 138.282 631.477 137.62 631.75C136.96 632.013 136.216 632.102 135.389 632.015ZM135.581 630.185C136.748 630.307 137.41 629.621 137.567 628.125C137.646 627.372 137.552 626.793 137.283 626.39C137.025 625.987 136.615 625.756 136.053 625.697C134.886 625.575 134.224 626.261 134.066 627.757C133.909 629.253 134.414 630.062 135.581 630.185ZM141.001 632.476L142.18 621.258L144.583 621.51L143.404 632.728L141.001 632.476ZM154.331 622.535L153.152 633.753L150.765 633.502L150.887 632.34C150.612 632.719 150.244 633.002 149.784 633.19C149.337 633.368 148.842 633.429 148.301 633.372C147.633 633.301 147.051 633.069 146.557 632.674C146.074 632.269 145.716 631.743 145.484 631.097C145.263 630.441 145.195 629.71 145.28 628.903C145.365 628.097 145.582 627.407 145.932 626.832C146.294 626.248 146.752 625.819 147.306 625.545C147.86 625.271 148.477 625.169 149.156 625.241C149.686 625.296 150.152 625.458 150.553 625.725C150.964 625.994 151.266 626.342 151.457 626.769L151.928 622.282L154.331 622.535ZM149.194 631.615C149.756 631.674 150.206 631.529 150.543 631.178C150.892 630.818 151.104 630.277 151.18 629.556C151.256 628.834 151.16 628.267 150.892 627.852C150.636 627.439 150.226 627.203 149.664 627.144C149.102 627.085 148.647 627.23 148.299 627.58C147.952 627.919 147.741 628.444 147.667 629.154C147.591 629.876 147.686 630.454 147.951 630.889C148.217 631.314 148.632 631.556 149.194 631.615ZM163.947 633.23C164.191 633.256 164.447 633.267 164.716 633.263L164.405 635C164.093 635.01 163.783 634.999 163.475 634.967C162.287 634.842 161.444 634.49 160.947 633.913C160.461 633.336 160.273 632.517 160.385 631.456L160.699 628.465L159.22 628.309L159.409 626.511L160.888 626.667L161.129 624.375L163.532 624.628L163.291 626.919L165.248 627.125L165.059 628.923L163.102 628.717L162.789 631.693C162.691 632.626 163.077 633.139 163.947 633.23ZM171.343 627.572C172.276 627.671 172.942 628.019 173.34 628.619C173.739 629.208 173.881 630.054 173.765 631.157L173.27 635.867L170.867 635.615L171.351 631.016C171.406 630.486 171.346 630.088 171.17 629.823C171.005 629.559 170.716 629.405 170.302 629.361C169.803 629.309 169.383 629.426 169.042 629.712C168.712 629.999 168.519 630.407 168.463 630.938L168.003 635.314L165.6 635.061L166.779 623.843L169.182 624.096L168.715 628.535C169.034 628.161 169.416 627.895 169.861 627.738C170.318 627.572 170.812 627.517 171.343 627.572ZM182.46 633.342L177.368 632.807C177.376 633.441 177.53 633.918 177.829 634.239C178.139 634.55 178.602 634.739 179.217 634.803C179.621 634.846 180.025 634.824 180.431 634.738C180.849 634.642 181.235 634.49 181.589 634.28L182.057 635.954C181.644 636.211 181.152 636.395 180.583 636.507C180.024 636.62 179.469 636.648 178.917 636.59C177.602 636.451 176.6 635.981 175.912 635.18C175.236 634.369 174.963 633.337 175.095 632.085C175.179 631.29 175.417 630.602 175.811 630.021C176.204 629.44 176.711 629.011 177.33 628.733C177.95 628.444 178.631 628.339 179.374 628.417C180.467 628.531 181.294 628.978 181.856 629.755C182.428 630.534 182.65 631.533 182.522 632.753L182.46 633.342ZM179.264 630.078C178.807 630.03 178.426 630.14 178.119 630.408C177.824 630.667 177.615 631.069 177.493 631.614L180.564 631.936C180.592 631.371 180.493 630.931 180.269 630.618C180.055 630.306 179.72 630.126 179.264 630.078ZM191.837 629.92L193.794 630.125L193.605 631.923L191.648 631.718L191.016 637.733L188.613 637.48L189.245 631.465L187.765 631.31L187.954 629.511L189.434 629.667C189.571 628.566 189.977 627.772 190.65 627.285C191.335 626.789 192.318 626.57 193.599 626.63L194.479 626.674L194.436 628.455L193.685 628.408C193.068 628.365 192.62 628.436 192.344 628.621C192.078 628.797 191.921 629.124 191.871 629.601L191.837 629.92ZM202.323 631.022L201.502 638.835L199.163 638.589L199.28 637.475C198.993 637.852 198.637 638.126 198.212 638.296C197.797 638.467 197.341 638.526 196.842 638.474C195.855 638.37 195.147 638.022 194.715 637.43C194.296 636.828 194.144 635.975 194.26 634.872L194.749 630.226L197.151 630.478L196.658 635.172C196.609 635.639 196.668 635.994 196.836 636.237C197.014 636.481 197.305 636.624 197.708 636.666C198.174 636.715 198.568 636.596 198.888 636.308C199.218 636.02 199.411 635.617 199.465 635.097L199.92 630.769L202.323 631.022ZM209.088 631.54C210.021 631.638 210.687 631.987 211.085 632.586C211.485 633.175 211.626 634.021 211.51 635.124L211.015 639.835L208.612 639.582L209.096 634.983C209.152 634.453 209.091 634.055 208.916 633.79C208.75 633.526 208.461 633.372 208.047 633.329C207.548 633.276 207.129 633.393 206.787 633.679C206.457 633.966 206.264 634.375 206.208 634.905L205.748 639.281L203.345 639.028L204.167 631.215L206.506 631.461L206.389 632.575C206.709 632.18 207.098 631.894 207.557 631.717C208.026 631.541 208.536 631.482 209.088 631.54ZM221.896 629.636L220.717 640.854L218.331 640.603L218.453 639.442C218.177 639.82 217.809 640.103 217.35 640.291C216.902 640.469 216.408 640.53 215.867 640.473C215.198 640.403 214.617 640.17 214.122 639.775C213.639 639.37 213.281 638.845 213.049 638.198C212.828 637.542 212.76 636.811 212.845 636.005C212.93 635.199 213.147 634.508 213.497 633.934C213.859 633.35 214.317 632.92 214.871 632.646C215.426 632.372 216.042 632.271 216.721 632.342C217.252 632.398 217.717 632.559 218.118 632.827C218.53 633.095 218.831 633.443 219.022 633.871L219.494 629.384L221.896 629.636ZM216.759 638.717C217.321 638.776 217.771 638.63 218.108 638.279C218.457 637.919 218.67 637.378 218.745 636.657C218.821 635.936 218.725 635.368 218.458 634.954C218.201 634.541 217.791 634.305 217.229 634.245C216.667 634.186 216.212 634.332 215.864 634.681C215.517 635.02 215.307 635.545 215.232 636.256C215.156 636.977 215.251 637.555 215.516 637.991C215.783 638.416 216.197 638.658 216.759 638.717ZM107.499 651.076L108.32 643.263L110.723 643.515L109.901 651.328L107.499 651.076ZM108.635 639.499L111.213 639.77L110.977 642.014L108.399 641.743L108.635 639.499ZM117.483 644.033C118.417 644.131 119.083 644.48 119.481 645.079C119.88 645.668 120.022 646.514 119.906 647.618L119.411 652.328L117.008 652.075L117.491 647.476C117.547 646.946 117.487 646.548 117.311 646.283C117.146 646.019 116.856 645.865 116.442 645.822C115.944 645.769 115.524 645.886 115.183 646.172C114.852 646.459 114.659 646.868 114.604 647.398L114.144 651.774L111.741 651.522L112.562 643.709L114.901 643.954L114.784 645.068C115.105 644.673 115.494 644.387 115.952 644.21C116.421 644.034 116.932 643.975 117.483 644.033ZM131.878 645.755L134.233 646.002L128.403 656.169L125.968 655.913L127.81 652.776L125.37 645.071L127.868 645.333L129.32 650.505L131.878 645.755ZM137.735 654.382C136.908 654.295 136.198 654.055 135.607 653.66C135.017 653.255 134.584 652.732 134.308 652.092C134.033 651.441 133.939 650.701 134.026 649.874C134.113 649.047 134.358 648.348 134.761 647.779C135.165 647.2 135.698 646.778 136.358 646.515C137.018 646.252 137.762 646.164 138.59 646.251C139.417 646.338 140.127 646.579 140.718 646.974C141.309 647.368 141.742 647.891 142.017 648.542C142.293 649.182 142.388 649.916 142.301 650.744C142.214 651.571 141.968 652.275 141.564 652.854C141.161 653.423 140.629 653.845 139.967 654.118C139.307 654.381 138.563 654.469 137.735 654.382ZM137.928 652.552C139.094 652.675 139.757 651.989 139.914 650.493C139.993 649.74 139.898 649.161 139.63 648.758C139.372 648.355 138.961 648.124 138.399 648.065C137.232 647.943 136.57 648.629 136.413 650.125C136.256 651.621 136.761 652.43 137.928 652.552ZM151.696 647.822L150.875 655.635L148.535 655.389L148.653 654.275C148.366 654.652 148.01 654.926 147.585 655.096C147.17 655.267 146.713 655.326 146.215 655.274C145.228 655.17 144.519 654.822 144.088 654.23C143.669 653.628 143.517 652.775 143.633 651.672L144.121 647.026L146.524 647.278L146.031 651.972C145.982 652.439 146.041 652.794 146.209 653.037C146.387 653.281 146.677 653.424 147.08 653.466C147.547 653.515 147.941 653.396 148.26 653.108C148.591 652.821 148.783 652.417 148.838 651.897L149.293 647.569L151.696 647.822ZM158.937 650.385L157.57 650.386C156.895 650.379 156.403 650.52 156.093 650.81C155.785 651.088 155.604 651.488 155.549 652.007L155.121 656.081L152.718 655.828L153.539 648.015L155.847 648.258L155.708 649.579C156.195 648.718 157.059 648.31 158.298 648.355L159.003 648.381L158.937 650.385ZM166.543 657.41C165.822 657.334 165.167 657.185 164.579 656.962C164.003 656.73 163.514 656.438 163.111 656.084L163.922 654.496C164.316 654.827 164.759 655.099 165.252 655.312C165.744 655.524 166.25 655.658 166.77 655.713C167.141 655.752 167.434 655.723 167.648 655.628C167.873 655.523 167.997 655.364 168.019 655.152C168.039 654.961 167.981 654.805 167.843 654.683C167.717 654.563 167.462 654.439 167.078 654.313L165.835 653.893C165.1 653.644 164.57 653.326 164.246 652.938C163.934 652.54 163.81 652.034 163.875 651.418C163.926 650.931 164.109 650.515 164.424 650.173C164.75 649.832 165.178 649.582 165.71 649.423C166.252 649.266 166.852 649.222 167.509 649.291C168.072 649.35 168.609 649.492 169.122 649.718C169.634 649.943 170.086 650.232 170.478 650.584L169.675 652.108C168.907 651.449 168.121 651.076 167.314 650.992C166.943 650.953 166.645 650.986 166.419 651.091C166.194 651.196 166.069 651.365 166.044 651.598C166.026 651.768 166.076 651.907 166.193 652.016C166.31 652.125 166.524 652.239 166.833 652.357L168.122 652.798C168.899 653.062 169.448 653.399 169.77 653.808C170.103 654.207 170.237 654.72 170.171 655.346C170.092 656.099 169.727 656.662 169.077 657.033C168.438 657.395 167.594 657.521 166.543 657.41ZM178.7 655.068L173.608 654.533C173.616 655.167 173.77 655.644 174.068 655.965C174.379 656.276 174.842 656.464 175.457 656.529C175.86 656.572 176.265 656.55 176.671 656.464C177.088 656.368 177.474 656.216 177.829 656.006L178.296 657.68C177.883 657.937 177.392 658.121 176.822 658.233C176.264 658.346 175.708 658.374 175.157 658.316C173.841 658.177 172.84 657.707 172.152 656.906C171.475 656.095 171.203 655.063 171.335 653.811C171.418 653.016 171.657 652.328 172.05 651.747C172.444 651.166 172.95 650.737 173.569 650.459C174.19 650.17 174.871 650.064 175.614 650.143C176.706 650.257 177.533 650.704 178.095 651.481C178.668 652.26 178.89 653.259 178.761 654.479L178.7 655.068ZM175.503 651.804C175.047 651.756 174.666 651.866 174.358 652.134C174.063 652.393 173.855 652.795 173.733 653.339L176.804 653.662C176.831 653.097 176.733 652.657 176.508 652.344C176.294 652.032 175.959 651.852 175.503 651.804ZM183.498 659.192C182.225 659.058 181.26 658.592 180.604 657.794C179.948 656.996 179.685 655.976 179.816 654.735C179.902 653.918 180.152 653.22 180.567 652.642C180.983 652.053 181.527 651.622 182.199 651.349C182.871 651.077 183.626 650.985 184.464 651.073C185.037 651.133 185.579 651.281 186.091 651.517C186.603 651.743 187.008 652.021 187.306 652.353L186.497 653.925C186.215 653.649 185.895 653.427 185.537 653.261C185.191 653.085 184.843 652.979 184.493 652.942C183.867 652.876 183.359 653.011 182.97 653.345C182.592 653.681 182.364 654.214 182.287 654.946C182.21 655.678 182.321 656.253 182.621 656.671C182.932 657.079 183.4 657.316 184.026 657.382C184.376 657.418 184.738 657.392 185.112 657.303C185.498 657.204 185.858 657.048 186.191 656.837L186.654 658.559C186.272 658.819 185.802 659.005 185.243 659.118C184.684 659.231 184.103 659.256 183.498 659.192ZM195.999 652.478L195.177 660.291L192.838 660.045L192.955 658.931C192.669 659.309 192.313 659.582 191.888 659.752C191.473 659.923 191.016 659.982 190.518 659.93C189.531 659.826 188.822 659.478 188.391 658.886C187.972 658.284 187.82 657.432 187.936 656.328L188.424 651.682L190.827 651.935L190.334 656.629C190.285 657.095 190.344 657.45 190.511 657.693C190.69 657.937 190.98 658.08 191.383 658.123C191.85 658.172 192.243 658.052 192.563 657.764C192.894 657.477 193.086 657.074 193.141 656.554L193.596 652.226L195.999 652.478ZM203.24 655.041L201.873 655.042C201.198 655.036 200.705 655.177 200.396 655.466C200.088 655.745 199.907 656.144 199.852 656.664L199.424 660.737L197.021 660.485L197.842 652.672L200.15 652.914L200.011 654.235C200.498 653.375 201.361 652.967 202.601 653.011L203.306 653.037L203.24 655.041ZM203.408 661.156L204.229 653.343L206.632 653.596L205.811 661.409L203.408 661.156ZM204.544 649.579L207.122 649.85L206.886 652.094L204.308 651.823L204.544 649.579ZM212.151 660.418C212.394 660.444 212.651 660.454 212.919 660.45L212.608 662.187C212.296 662.198 211.986 662.186 211.678 662.154C210.49 662.029 209.648 661.678 209.151 661.1C208.664 660.523 208.477 659.705 208.588 658.644L208.903 655.652L207.423 655.497L207.612 653.699L209.092 653.854L209.333 651.563L211.735 651.815L211.495 654.107L213.452 654.313L213.263 656.111L211.306 655.905L210.993 658.881C210.895 659.814 211.281 660.327 212.151 660.418ZM213.804 662.249L214.625 654.436L217.028 654.688L216.206 662.501L213.804 662.249ZM214.94 650.672L217.518 650.943L217.282 653.187L214.704 652.916L214.94 650.672ZM225.442 659.981L220.35 659.446C220.359 660.079 220.512 660.557 220.811 660.878C221.121 661.189 221.584 661.377 222.2 661.442C222.603 661.484 223.007 661.463 223.413 661.376C223.831 661.281 224.217 661.128 224.571 660.919L225.039 662.593C224.626 662.85 224.134 663.034 223.565 663.146C223.006 663.259 222.451 663.286 221.899 663.228C220.584 663.09 219.582 662.62 218.894 661.819C218.218 661.007 217.946 659.976 218.077 658.724C218.161 657.929 218.399 657.24 218.793 656.66C219.186 656.079 219.693 655.65 220.312 655.371C220.932 655.083 221.614 654.977 222.356 655.055C223.449 655.17 224.276 655.616 224.838 656.394C225.41 657.173 225.632 658.172 225.504 659.392L225.442 659.981ZM222.246 656.717C221.79 656.669 221.408 656.779 221.101 657.047C220.806 657.306 220.597 657.707 220.476 658.252L223.547 658.575C223.574 658.009 223.475 657.57 223.251 657.257C223.037 656.945 222.702 656.765 222.246 656.717ZM229.525 664.03C228.803 663.954 228.149 663.805 227.561 663.582C226.984 663.35 226.495 663.057 226.092 662.704L226.903 661.116C227.297 661.447 227.74 661.719 228.233 661.931C228.725 662.144 229.231 662.278 229.751 662.332C230.122 662.371 230.415 662.343 230.629 662.247C230.854 662.142 230.978 661.984 231.001 661.772C231.021 661.581 230.962 661.424 230.825 661.303C230.698 661.182 230.443 661.059 230.059 660.933L228.816 660.513C228.081 660.264 227.551 659.945 227.227 659.557C226.915 659.16 226.792 658.653 226.856 658.038C226.907 657.55 227.091 657.135 227.405 656.793C227.731 656.451 228.159 656.202 228.691 656.043C229.233 655.885 229.833 655.841 230.491 655.91C231.053 655.969 231.59 656.112 232.103 656.337C232.615 656.563 233.068 656.852 233.46 657.204L232.656 658.728C231.889 658.068 231.102 657.696 230.296 657.611C229.924 657.572 229.626 657.605 229.4 657.71C229.175 657.815 229.05 657.984 229.025 658.218C229.007 658.388 229.057 658.527 229.174 658.636C229.292 658.745 229.505 658.858 229.814 658.976L231.103 659.418C231.88 659.682 232.429 660.018 232.751 660.427C233.084 660.827 233.218 661.34 233.152 661.966C233.073 662.719 232.708 663.281 232.058 663.653C231.419 664.014 230.575 664.14 229.525 664.03ZM116.626 666.064C117.793 666.187 118.623 666.553 119.117 667.162C119.621 667.773 119.813 668.656 119.691 669.813L119.206 674.427L116.931 674.188L117.053 673.027C116.851 673.413 116.553 673.703 116.157 673.898C115.762 674.081 115.315 674.147 114.817 674.095C114.286 674.039 113.815 673.882 113.402 673.624C113 673.368 112.692 673.035 112.478 672.626C112.274 672.219 112.196 671.781 112.245 671.315C112.306 670.742 112.496 670.306 112.817 670.007C113.149 669.71 113.646 669.521 114.309 669.44C114.971 669.36 115.865 669.378 116.989 669.497L117.403 669.54L117.433 669.254C117.482 668.787 117.416 668.447 117.235 668.235C117.053 668.023 116.713 667.891 116.214 667.839C115.833 667.798 115.401 667.823 114.92 667.912C114.438 668 113.973 668.145 113.523 668.344L113.055 666.67C113.53 666.441 114.1 666.27 114.766 666.158C115.444 666.036 116.064 666.005 116.626 666.064ZM115.516 672.495C115.983 672.544 116.375 672.43 116.694 672.152C117.014 671.864 117.2 671.471 117.253 670.972L117.281 670.702L117.01 670.673C116.151 670.583 115.539 670.588 115.175 670.689C114.821 670.792 114.625 671.023 114.587 671.384C114.557 671.67 114.627 671.919 114.798 672.13C114.98 672.342 115.219 672.464 115.516 672.495ZM124.713 675.135C123.44 675.001 122.475 674.535 121.819 673.737C121.163 672.938 120.9 671.919 121.03 670.678C121.116 669.861 121.367 669.163 121.781 668.585C122.197 667.995 122.741 667.565 123.413 667.292C124.086 667.019 124.841 666.927 125.679 667.015C126.252 667.076 126.794 667.224 127.305 667.46C127.818 667.685 128.223 667.964 128.52 668.295L127.712 669.867C127.43 669.591 127.11 669.37 126.752 669.203C126.406 669.028 126.058 668.921 125.707 668.885C125.082 668.819 124.574 668.953 124.185 669.288C123.807 669.623 123.579 670.157 123.502 670.889C123.425 671.621 123.536 672.196 123.835 672.613C124.146 673.021 124.615 673.258 125.241 673.324C125.591 673.361 125.953 673.335 126.327 673.245C126.713 673.146 127.072 672.991 127.406 672.779L127.868 674.501C127.487 674.761 127.017 674.948 126.458 675.061C125.899 675.174 125.317 675.198 124.713 675.135ZM132.576 675.961C131.303 675.827 130.338 675.361 129.682 674.563C129.026 673.765 128.763 672.745 128.893 671.504C128.979 670.687 129.23 669.989 129.644 669.411C130.06 668.822 130.604 668.391 131.276 668.118C131.948 667.846 132.704 667.754 133.542 667.842C134.114 667.902 134.657 668.05 135.168 668.286C135.681 668.512 136.086 668.79 136.383 669.122L135.575 670.694C135.293 670.418 134.973 670.196 134.615 670.03C134.269 669.854 133.92 669.748 133.57 669.711C132.945 669.645 132.437 669.78 132.048 670.114C131.669 670.45 131.442 670.983 131.365 671.715C131.288 672.447 131.399 673.022 131.698 673.44C132.009 673.848 132.478 674.085 133.104 674.151C133.454 674.187 133.816 674.161 134.19 674.072C134.576 673.973 134.935 673.817 135.269 673.606L135.731 675.328C135.35 675.588 134.88 675.774 134.321 675.887C133.762 676 133.18 676.025 132.576 675.961ZM140.47 676.791C139.643 676.704 138.934 676.463 138.342 676.069C137.752 675.663 137.319 675.141 137.043 674.5C136.768 673.849 136.674 673.11 136.761 672.283C136.848 671.455 137.093 670.757 137.496 670.188C137.9 669.608 138.433 669.187 139.093 668.924C139.754 668.661 140.498 668.573 141.325 668.66C142.152 668.747 142.862 668.988 143.453 669.382C144.044 669.777 144.478 670.3 144.752 670.951C145.028 671.591 145.123 672.325 145.036 673.152C144.949 673.98 144.703 674.683 144.299 675.263C143.896 675.832 143.364 676.253 142.702 676.527C142.042 676.79 141.298 676.878 140.47 676.791ZM140.663 674.961C141.83 675.084 142.492 674.397 142.649 672.901C142.728 672.148 142.633 671.57 142.365 671.166C142.107 670.764 141.697 670.533 141.134 670.474C139.967 670.351 139.305 671.038 139.148 672.533C138.991 674.029 139.496 674.838 140.663 674.961ZM154.431 670.23L153.61 678.043L151.271 677.797L151.388 676.684C151.101 677.061 150.745 677.335 150.32 677.505C149.905 677.675 149.449 677.735 148.95 677.682C147.963 677.579 147.255 677.231 146.823 676.638C146.404 676.036 146.252 675.184 146.368 674.081L146.857 669.434L149.259 669.687L148.766 674.381C148.717 674.848 148.776 675.203 148.944 675.445C149.122 675.689 149.412 675.832 149.816 675.875C150.282 675.924 150.676 675.804 150.996 675.516C151.326 675.229 151.519 674.826 151.573 674.306L152.028 669.978L154.431 670.23ZM161.196 670.748C162.129 670.846 162.795 671.195 163.193 671.795C163.593 672.384 163.734 673.23 163.618 674.333L163.123 679.043L160.72 678.791L161.204 674.192C161.26 673.662 161.199 673.264 161.024 672.999C160.858 672.735 160.569 672.581 160.155 672.537C159.656 672.485 159.237 672.602 158.895 672.888C158.565 673.175 158.372 673.583 158.316 674.114L157.856 678.49L155.453 678.237L156.275 670.424L158.614 670.67L158.497 671.784C158.817 671.389 159.206 671.102 159.665 670.925C160.134 670.749 160.644 670.69 161.196 670.748ZM169.417 678.048C169.661 678.073 169.918 678.084 170.186 678.08L169.875 679.817C169.563 679.827 169.253 679.816 168.945 679.784C167.757 679.659 166.915 679.308 166.418 678.73C165.931 678.153 165.744 677.334 165.855 676.274L166.17 673.282L164.69 673.127L164.879 671.328L166.359 671.484L166.6 669.193L169.002 669.445L168.761 671.737L170.719 671.942L170.53 673.74L168.572 673.535L168.26 676.51C168.162 677.444 168.547 677.956 169.417 678.048ZM179.257 680.868C178.429 680.781 177.72 680.54 177.129 680.145C176.538 679.74 176.105 679.217 175.829 678.577C175.555 677.926 175.461 677.187 175.548 676.359C175.635 675.532 175.88 674.834 176.283 674.265C176.687 673.685 177.219 673.264 177.88 673.001C178.54 672.738 179.284 672.649 180.111 672.736C180.939 672.823 181.648 673.064 182.24 673.459C182.831 673.853 183.264 674.376 183.539 675.027C183.815 675.668 183.909 676.401 183.822 677.229C183.735 678.056 183.49 678.76 183.085 679.339C182.682 679.908 182.15 680.33 181.489 680.603C180.828 680.867 180.084 680.955 179.257 680.868ZM179.449 679.038C180.616 679.16 181.278 678.474 181.435 676.978C181.514 676.225 181.42 675.646 181.151 675.243C180.893 674.84 180.483 674.61 179.921 674.55C178.754 674.428 178.092 675.114 177.935 676.61C177.777 678.106 178.282 678.915 179.449 679.038ZM191.089 675.885L189.721 675.886C189.046 675.88 188.554 676.021 188.245 676.31C187.936 676.589 187.755 676.988 187.7 677.508L187.272 681.581L184.87 681.329L185.691 673.516L187.998 673.758L187.859 675.079C188.346 674.219 189.21 673.811 190.449 673.855L191.154 673.881L191.089 675.885ZM198.695 682.911C197.973 682.835 197.319 682.686 196.731 682.463C196.154 682.231 195.665 681.938 195.262 681.585L196.073 679.997C196.467 680.328 196.91 680.599 197.403 680.812C197.895 681.025 198.401 681.158 198.921 681.213C199.293 681.252 199.585 681.224 199.799 681.128C200.024 681.023 200.148 680.865 200.171 680.653C200.191 680.462 200.132 680.305 199.995 680.184C199.868 680.063 199.613 679.94 199.229 679.814L197.986 679.393C197.251 679.144 196.721 678.826 196.397 678.438C196.085 678.041 195.962 677.534 196.026 676.919C196.078 676.431 196.261 676.016 196.575 675.673C196.901 675.332 197.329 675.082 197.861 674.924C198.403 674.766 199.003 674.722 199.661 674.791C200.223 674.85 200.76 674.993 201.273 675.218C201.785 675.443 202.238 675.732 202.63 676.085L201.826 677.609C201.059 676.949 200.272 676.577 199.466 676.492C199.094 676.453 198.796 676.486 198.57 676.591C198.345 676.696 198.22 676.865 198.195 677.099C198.177 677.268 198.227 677.408 198.344 677.516C198.462 677.625 198.675 677.739 198.984 677.857L200.273 678.298C201.05 678.562 201.599 678.899 201.921 679.308C202.254 679.708 202.388 680.221 202.322 680.847C202.243 681.6 201.878 682.162 201.228 682.533C200.589 682.895 199.745 683.021 198.695 682.911ZM210.851 680.568L205.759 680.033C205.767 680.667 205.921 681.144 206.22 681.465C206.53 681.777 206.993 681.965 207.608 682.03C208.011 682.072 208.416 682.05 208.822 681.964C209.239 681.869 209.626 681.716 209.98 681.507L210.448 683.181C210.034 683.438 209.543 683.622 208.974 683.734C208.415 683.846 207.86 683.874 207.308 683.816C205.993 683.678 204.991 683.208 204.303 682.406C203.627 681.595 203.354 680.564 203.486 679.312C203.569 678.516 203.808 677.828 204.202 677.247C204.595 676.667 205.101 676.237 205.721 675.959C206.341 675.67 207.022 675.565 207.765 675.643C208.857 675.758 209.685 676.204 210.246 676.982C210.819 677.76 211.041 678.76 210.913 679.98L210.851 680.568ZM207.655 677.304C207.198 677.257 206.817 677.367 206.51 677.635C206.214 677.893 206.006 678.295 205.884 678.84L208.955 679.163C208.983 678.597 208.884 678.158 208.66 677.845C208.446 677.532 208.111 677.352 207.655 677.304ZM211.939 684.174L213.118 672.956L215.521 673.208L214.342 684.427L211.939 684.174ZM216.181 684.62L217.361 673.402L219.763 673.654L218.584 684.872L216.181 684.62ZM128.934 689.479C130.101 689.601 130.931 689.967 131.424 690.577C131.929 691.188 132.12 692.071 131.999 693.228L131.514 697.842L129.238 697.603L129.36 696.441C129.159 696.828 128.86 697.118 128.464 697.312C128.069 697.496 127.623 697.562 127.124 697.509C126.594 697.454 126.122 697.297 125.71 697.039C125.308 696.782 124.999 696.45 124.785 696.041C124.581 695.633 124.504 695.196 124.553 694.729C124.613 694.157 124.804 693.721 125.125 693.422C125.456 693.124 125.953 692.935 126.616 692.855C127.279 692.774 128.172 692.793 129.297 692.911L129.71 692.955L129.741 692.668C129.79 692.202 129.723 691.862 129.542 691.65C129.36 691.438 129.02 691.306 128.522 691.253C128.14 691.213 127.708 691.238 127.227 691.326C126.746 691.415 126.28 691.559 125.83 691.759L125.363 690.085C125.837 689.856 126.408 689.685 127.074 689.573C127.751 689.451 128.371 689.42 128.934 689.479ZM127.823 695.91C128.29 695.959 128.683 695.845 129.002 695.567C129.321 695.279 129.508 694.886 129.56 694.387L129.588 694.116L129.318 694.088C128.459 693.998 127.847 694.003 127.482 694.104C127.128 694.206 126.932 694.438 126.894 694.799C126.864 695.085 126.935 695.334 127.105 695.545C127.287 695.757 127.526 695.879 127.823 695.91ZM137.81 696.847C138.054 696.872 138.311 696.883 138.579 696.879L138.268 698.616C137.956 698.626 137.646 698.615 137.338 698.583C136.15 698.458 135.308 698.107 134.811 697.529C134.324 696.952 134.137 696.134 134.248 695.073L134.563 692.081L133.083 691.926L133.272 690.128L134.752 690.283L134.993 687.992L137.395 688.244L137.155 690.536L139.112 690.741L138.923 692.54L136.966 692.334L136.653 695.309C136.555 696.243 136.941 696.755 137.81 696.847ZM148.218 691.505C149.385 691.628 150.215 691.994 150.709 692.604C151.213 693.215 151.404 694.098 151.283 695.254L150.798 699.869L148.522 699.63L148.645 698.468C148.443 698.855 148.144 699.145 147.749 699.339C147.354 699.523 146.907 699.589 146.409 699.536C145.878 699.481 145.407 699.324 144.994 699.066C144.592 698.809 144.284 698.476 144.069 698.068C143.865 697.66 143.788 697.223 143.837 696.756C143.897 696.183 144.088 695.748 144.409 695.449C144.741 695.151 145.238 694.962 145.9 694.882C146.563 694.801 147.457 694.82 148.581 694.938L148.995 694.982L149.025 694.695C149.074 694.229 149.008 693.889 148.826 693.677C148.645 693.465 148.305 693.333 147.806 693.28C147.424 693.24 146.993 693.264 146.512 693.353C146.03 693.442 145.565 693.586 145.115 693.786L144.647 692.112C145.122 691.883 145.692 691.712 146.358 691.6C147.036 691.478 147.656 691.446 148.218 691.505ZM147.108 697.937C147.574 697.986 147.967 697.871 148.286 697.594C148.606 697.306 148.792 696.912 148.844 696.414L148.873 696.143L148.602 696.115C147.743 696.025 147.131 696.03 146.767 696.131C146.413 696.233 146.217 696.465 146.179 696.825C146.149 697.112 146.219 697.361 146.39 697.572C146.571 697.784 146.811 697.905 147.108 697.937ZM158.337 692.569C159.27 692.667 159.936 693.016 160.334 693.616C160.733 694.204 160.875 695.051 160.759 696.154L160.264 700.864L157.861 700.611L158.345 696.013C158.4 695.482 158.34 695.084 158.164 694.819C157.999 694.555 157.71 694.401 157.296 694.358C156.797 694.306 156.378 694.422 156.036 694.708C155.706 694.995 155.513 695.404 155.457 695.934L154.997 700.31L152.594 700.058L153.416 692.245L155.755 692.491L155.638 693.605C155.958 693.209 156.347 692.923 156.806 692.746C157.275 692.57 157.785 692.511 158.337 692.569ZM168.288 693.824L170.643 694.072L164.812 704.238L162.377 703.982L164.219 700.845L161.779 693.14L164.278 693.403L165.729 698.575L168.288 693.824ZM179.503 701.229C179.747 701.255 180.003 701.265 180.271 701.261L179.96 702.998C179.648 703.009 179.338 702.997 179.031 702.965C177.842 702.84 177 702.489 176.503 701.911C176.017 701.334 175.829 700.516 175.941 699.455L176.255 696.463L174.775 696.308L174.964 694.51L176.444 694.665L176.685 692.374L179.088 692.626L178.847 694.918L180.804 695.123L180.615 696.922L178.658 696.716L178.345 699.691C178.247 700.625 178.633 701.137 179.503 701.229ZM181.156 703.06L181.977 695.247L184.38 695.499L183.559 703.312L181.156 703.06ZM182.292 691.483L184.87 691.754L184.634 693.998L182.056 693.727L182.292 691.483ZM195.866 696.514C196.757 696.607 197.392 696.947 197.77 697.534C198.148 698.121 198.279 698.971 198.162 700.085L197.666 704.795L195.264 704.543L195.75 699.912C195.806 699.382 195.761 698.991 195.616 698.74C195.482 698.489 195.218 698.344 194.826 698.303C194.369 698.255 193.997 698.376 193.709 698.668C193.421 698.959 193.247 699.392 193.187 699.964L192.734 704.277L190.331 704.024L190.818 699.394C190.873 698.863 190.829 698.472 190.683 698.221C190.549 697.971 190.285 697.825 189.893 697.784C189.437 697.736 189.065 697.858 188.776 698.149C188.488 698.441 188.314 698.873 188.254 699.446L187.801 703.758L185.398 703.506L186.219 695.693L188.558 695.938L188.448 696.989C188.734 696.611 189.09 696.338 189.516 696.168C189.952 695.999 190.435 695.943 190.965 695.998C192.122 696.12 192.845 696.684 193.136 697.691C193.438 697.272 193.83 696.959 194.313 696.752C194.797 696.535 195.315 696.456 195.866 696.514ZM206.873 702.272L201.781 701.736C201.789 702.37 201.943 702.847 202.242 703.168C202.552 703.48 203.015 703.668 203.63 703.733C204.034 703.775 204.438 703.753 204.844 703.667C205.262 703.572 205.648 703.419 206.002 703.21L206.47 704.884C206.057 705.141 205.565 705.325 204.996 705.437C204.437 705.55 203.882 705.577 203.33 705.519C202.015 705.381 201.013 704.911 200.325 704.109C199.649 703.298 199.376 702.267 199.508 701.015C199.592 700.219 199.83 699.531 200.224 698.95C200.617 698.37 201.124 697.94 201.743 697.662C202.363 697.373 203.044 697.268 203.787 697.346C204.88 697.461 205.707 697.907 206.269 698.685C206.841 699.464 207.063 700.463 206.935 701.683L206.873 702.272ZM203.677 699.008C203.22 698.96 202.839 699.07 202.532 699.338C202.237 699.596 202.028 699.998 201.906 700.543L204.978 700.866C205.005 700.3 204.906 699.861 204.682 699.548C204.468 699.236 204.133 699.056 203.677 699.008Z" fill="white"/>
</g>
<path d="M88.7889 537.836L88.1952 538.641L88.1952 538.641L88.7889 537.836ZM94.8828 543.211C95.4289 543.128 95.8048 542.619 95.7224 542.073L94.3797 533.174C94.2973 532.627 93.7878 532.252 93.2417 532.334C92.6956 532.416 92.3197 532.926 92.4021 533.472L93.5956 541.382L85.6851 542.576C85.139 542.658 84.7631 543.168 84.8455 543.714C84.9279 544.26 85.4374 544.636 85.9835 544.554L94.8828 543.211ZM88.1952 538.641L94.1399 543.027L95.3273 541.417L89.3826 537.031L88.1952 538.641ZM99.6784 429.634C55.4924 449.671 49.1544 509.836 88.1952 538.641L89.3826 537.031C51.5706 509.133 57.7091 450.862 100.504 431.456L99.6784 429.634Z" fill="url(#paint0_linear_105_236)"/>
<path d="M214.898 313.126C213.918 313.126 213.064 312.921 212.336 312.51C211.617 312.09 211.062 311.502 210.67 310.746C210.278 309.981 210.082 309.085 210.082 308.058C210.082 307.031 210.278 306.14 210.67 305.384C211.062 304.619 211.617 304.031 212.336 303.62C213.064 303.209 213.918 303.004 214.898 303.004C215.878 303.004 216.727 303.209 217.446 303.62C218.174 304.031 218.734 304.619 219.126 305.384C219.518 306.14 219.714 307.031 219.714 308.058C219.714 309.085 219.518 309.981 219.126 310.746C218.734 311.502 218.174 312.09 217.446 312.51C216.727 312.921 215.878 313.126 214.898 313.126ZM214.898 311.432C215.719 311.432 216.363 311.143 216.83 310.564C217.306 309.985 217.544 309.15 217.544 308.058C217.544 306.966 217.311 306.135 216.844 305.566C216.377 304.987 215.729 304.698 214.898 304.698C214.067 304.698 213.419 304.987 212.952 305.566C212.495 306.135 212.266 306.966 212.266 308.058C212.266 309.15 212.499 309.985 212.966 310.564C213.433 311.143 214.077 311.432 214.898 311.432ZM231.35 313H228.97L227.262 309.85C227.122 309.607 226.954 309.435 226.758 309.332C226.562 309.22 226.314 309.164 226.016 309.164H224.938V313H222.782V303.13H227.318C228.475 303.13 229.348 303.387 229.936 303.9C230.533 304.404 230.832 305.137 230.832 306.098C230.832 306.845 230.622 307.47 230.202 307.974C229.791 308.478 229.208 308.809 228.452 308.968C228.965 309.099 229.399 309.467 229.754 310.074L231.35 313ZM226.996 307.512C227.621 307.512 228.074 307.405 228.354 307.19C228.634 306.966 228.774 306.621 228.774 306.154C228.774 305.678 228.634 305.333 228.354 305.118C228.074 304.903 227.621 304.796 226.996 304.796H224.91V307.512H226.996Z" fill="white" fill-opacity="0.6"/>
<g filter="url(#filter1_d_105_236)">
<rect x="28" y="238.873" width="135" height="163" rx="30" transform="rotate(-5.89827 28 238.873)" fill="#191A1C" shape-rendering="crispEdges"/>
<g clip-path="url(#clip1_105_236)">
<path fill-rule="evenodd" clip-rule="evenodd" d="M82.6185 266.406C82.5618 265.857 82.9611 265.365 83.5105 265.308L113.352 262.226C113.901 262.169 114.392 262.568 114.449 263.118L117.532 292.959C117.559 293.222 117.481 293.486 117.313 293.692L110.178 302.472C110.01 302.678 109.768 302.809 109.504 302.836L87.621 305.097C87.0716 305.153 86.5802 304.754 86.5235 304.205L82.6185 266.406ZM84.7107 267.195L88.4101 303.004L108.887 300.889L115.5 292.752L112.562 264.318L84.7107 267.195Z" fill="#28EBCF"/>
<path fill-rule="evenodd" clip-rule="evenodd" d="M109.677 294.776L110.148 299.337L114.239 294.304L109.677 294.776ZM107.585 293.986C107.528 293.437 107.927 292.946 108.477 292.889L116.435 292.067C116.837 292.025 117.225 292.23 117.417 292.586C117.609 292.942 117.568 293.378 117.313 293.692L110.178 302.472C109.923 302.786 109.504 302.915 109.116 302.8C108.728 302.684 108.449 302.346 108.407 301.944L107.585 293.986Z" fill="#28EBCF"/>
<path fill-rule="evenodd" clip-rule="evenodd" d="M94.0303 272.56C94.458 272.91 94.5215 273.54 94.1721 273.968L92.3782 276.163C92.0295 276.59 91.4009 276.655 90.9731 276.307L89.8756 275.415C89.447 275.067 89.382 274.437 89.7303 274.008C90.0786 273.58 90.7084 273.515 91.137 273.863L91.4604 274.126L92.6232 272.702C92.9726 272.275 93.6025 272.211 94.0303 272.56Z" fill="#28EBCF"/>
<path fill-rule="evenodd" clip-rule="evenodd" d="M96.4746 274.022C96.4178 273.473 96.8171 272.982 97.3665 272.925L107.314 271.897C107.863 271.841 108.354 272.24 108.411 272.789C108.468 273.339 108.068 273.83 107.519 273.887L97.572 274.914C97.0227 274.971 96.5313 274.572 96.4746 274.022Z" fill="#28EBCF"/>
<path fill-rule="evenodd" clip-rule="evenodd" d="M97.9132 287.948C97.8565 287.399 98.2558 286.908 98.8052 286.851L108.752 285.823C109.302 285.766 109.793 286.166 109.85 286.715C109.906 287.264 109.507 287.756 108.958 287.813L99.0107 288.84C98.4613 288.897 97.97 288.498 97.9132 287.948Z" fill="#28EBCF"/>
<path fill-rule="evenodd" clip-rule="evenodd" d="M91.8751 297.62C91.8184 297.071 92.2177 296.579 92.7671 296.522L96.7459 296.111C97.2953 296.055 97.7866 296.454 97.8434 297.003C97.9001 297.553 97.5008 298.044 96.9514 298.101L92.9726 298.512C92.4233 298.569 91.9319 298.169 91.8751 297.62Z" fill="#28EBCF"/>
<path fill-rule="evenodd" clip-rule="evenodd" d="M91.945 288.565C91.8882 288.015 92.2876 287.524 92.8369 287.467L92.9364 287.457C93.4858 287.4 93.9771 287.8 94.0339 288.349C94.0906 288.898 93.6913 289.39 93.1419 289.447L93.0425 289.457C92.4931 289.514 92.0017 289.114 91.945 288.565Z" fill="#28EBCF"/>
<path fill-rule="evenodd" clip-rule="evenodd" d="M94.7496 279.523C95.1773 279.873 95.2408 280.503 94.8914 280.93L93.0976 283.126C92.7488 283.553 92.1203 283.618 91.6924 283.27L90.595 282.378C90.1664 282.03 90.1013 281.4 90.4496 280.971C90.798 280.543 91.4278 280.478 91.8564 280.826L92.1797 281.089L93.3425 279.665C93.6919 279.237 94.3219 279.174 94.7496 279.523Z" fill="#28EBCF"/>
<path fill-rule="evenodd" clip-rule="evenodd" d="M97.1939 280.985C97.1371 280.436 97.5365 279.945 98.0858 279.888L105.049 279.169C105.598 279.112 106.089 279.511 106.146 280.06C106.203 280.61 105.804 281.101 105.254 281.158L98.2914 281.877C97.742 281.934 97.2506 281.535 97.1939 280.985Z" fill="#28EBCF"/>
</g>
<path d="M77.1272 344.528C75.9919 344.645 74.9752 344.509 74.077 344.119C73.1895 343.728 72.4727 343.121 71.9266 342.298C71.391 341.474 71.0641 340.49 70.9457 339.344C70.8273 338.198 70.946 337.167 71.3018 336.251C71.6681 335.333 72.2463 334.598 73.0363 334.045C73.8357 333.48 74.8031 333.138 75.9384 333.021C76.6811 332.944 77.4041 332.988 78.1073 333.151C78.8093 333.304 79.3987 333.559 79.8754 333.917L79.2621 335.766C78.7357 335.445 78.2197 335.225 77.714 335.106C77.219 334.985 76.7116 334.952 76.1917 335.006C75.1943 335.109 74.458 335.506 73.9826 336.199C73.5179 336.89 73.3491 337.851 73.4762 339.082C73.6034 340.313 73.9657 341.225 74.563 341.817C75.1699 342.398 75.972 342.637 76.9694 342.533C77.4893 342.48 77.9792 342.343 78.4391 342.124C78.9097 341.904 79.3698 341.583 79.8195 341.161L80.7978 342.846C80.4044 343.294 79.8802 343.67 79.2253 343.973C78.5693 344.266 77.8699 344.451 77.1272 344.528ZM87.4029 337.225L86.0649 337.508C85.403 337.641 84.9506 337.881 84.7076 338.227C84.4636 338.564 84.3684 338.992 84.4221 339.512L84.843 343.586L82.4398 343.834L81.6325 336.02L83.9402 335.781L84.0767 337.102C84.3761 336.16 85.1368 335.583 86.3588 335.371L87.0541 335.251L87.4029 337.225ZM95.35 339.01L90.2571 339.536C90.3961 340.154 90.6448 340.59 91.0033 340.842C91.3713 341.083 91.863 341.172 92.4784 341.108C92.8816 341.067 93.2729 340.962 93.6523 340.794C94.0413 340.614 94.3876 340.386 94.6913 340.107L95.494 341.649C95.1427 341.986 94.7 342.267 94.1658 342.494C93.6422 342.72 93.1045 342.861 92.5528 342.918C91.2371 343.054 90.1601 342.801 89.3216 342.158C88.4926 341.504 88.0135 340.551 87.8842 339.299C87.8019 338.503 87.8935 337.78 88.1588 337.131C88.4242 336.482 88.8311 335.957 89.3796 335.557C89.927 335.147 90.572 334.903 91.3147 334.827C92.4076 334.714 93.309 334.98 94.0191 335.625C94.7398 336.269 95.1631 337.201 95.2892 338.421L95.35 339.01ZM91.5494 336.475C91.0932 336.522 90.7425 336.709 90.4973 337.034C90.2616 337.348 90.1405 337.784 90.1338 338.342L93.2054 338.025C93.1155 337.466 92.9284 337.057 92.6442 336.796C92.3706 336.535 92.0056 336.428 91.5494 336.475ZM99.8008 333.95C100.968 333.829 101.856 334.016 102.465 334.511C103.084 335.005 103.453 335.83 103.573 336.986L104.05 341.602L101.774 341.837L101.654 340.675C101.536 341.095 101.304 341.44 100.957 341.712C100.608 341.973 100.185 342.13 99.6861 342.181C99.1556 342.236 98.6619 342.18 98.2049 342.013C97.7586 341.844 97.3884 341.582 97.0943 341.226C96.8108 340.87 96.6449 340.458 96.5967 339.991C96.5375 339.418 96.6341 338.952 96.8866 338.594C97.1497 338.234 97.5972 337.947 98.2291 337.731C98.861 337.516 99.7393 337.35 100.864 337.234L101.278 337.191L101.248 336.905C101.2 336.438 101.065 336.119 100.844 335.949C100.622 335.779 100.262 335.72 99.7638 335.771C99.3818 335.811 98.9646 335.924 98.512 336.11C98.0594 336.296 97.6335 336.533 97.2343 336.821L96.4316 335.279C96.8487 334.957 97.3716 334.673 98.0002 334.425C98.6383 334.166 99.2385 334.008 99.8008 333.95ZM100.04 340.472C100.507 340.424 100.868 340.231 101.123 339.893C101.376 339.546 101.477 339.122 101.426 338.624L101.398 338.353L101.127 338.381C100.268 338.47 99.6701 338.601 99.3342 338.775C99.009 338.948 98.865 339.215 98.9022 339.576C98.9318 339.862 99.052 340.091 99.2627 340.263C99.484 340.433 99.7432 340.502 100.04 340.472ZM110.006 339.33C110.25 339.304 110.503 339.262 110.765 339.203L110.819 340.967C110.515 341.041 110.21 341.094 109.902 341.126C108.714 341.249 107.817 341.078 107.211 340.616C106.617 340.152 106.264 339.389 106.155 338.328L105.846 335.336L104.366 335.489L104.18 333.69L105.66 333.538L105.423 331.246L107.826 330.997L108.063 333.289L110.021 333.087L110.206 334.885L108.249 335.088L108.556 338.064C108.653 338.998 109.136 339.419 110.006 339.33ZM118.679 336.6L113.586 337.126C113.725 337.744 113.974 338.18 114.332 338.432C114.7 338.673 115.192 338.762 115.807 338.698C116.211 338.656 116.602 338.552 116.981 338.384C117.37 338.204 117.717 337.975 118.02 337.697L118.823 339.239C118.472 339.576 118.029 339.857 117.495 340.084C116.971 340.31 116.434 340.451 115.882 340.508C114.566 340.644 113.489 340.391 112.651 339.748C111.822 339.094 111.342 338.141 111.213 336.889C111.131 336.093 111.222 335.37 111.488 334.721C111.753 334.072 112.16 333.547 112.709 333.147C113.256 332.737 113.901 332.493 114.644 332.416C115.737 332.304 116.638 332.57 117.348 333.215C118.069 333.859 118.492 334.791 118.618 336.011L118.679 336.6ZM114.878 334.065C114.422 334.112 114.071 334.299 113.826 334.624C113.591 334.938 113.469 335.374 113.463 335.932L116.534 335.615C116.444 335.056 116.257 334.646 115.973 334.386C115.7 334.125 115.335 334.018 114.878 334.065ZM127.575 331.081C128.742 330.96 129.63 331.147 130.239 331.642C130.858 332.135 131.227 332.96 131.347 334.117L131.824 338.732L129.548 338.968L129.428 337.806C129.31 338.225 129.078 338.571 128.731 338.843C128.382 339.104 127.959 339.26 127.46 339.312C126.93 339.367 126.436 339.31 125.979 339.143C125.533 338.975 125.162 338.713 124.868 338.357C124.585 338 124.419 337.589 124.371 337.122C124.312 336.549 124.408 336.083 124.661 335.725C124.924 335.365 125.371 335.077 126.003 334.862C126.635 334.647 127.513 334.481 128.638 334.365L129.052 334.322L129.022 334.035C128.974 333.569 128.839 333.25 128.618 333.08C128.397 332.91 128.037 332.85 127.538 332.902C127.156 332.941 126.739 333.054 126.286 333.24C125.833 333.427 125.408 333.664 125.008 333.951L124.206 332.41C124.623 332.088 125.146 331.803 125.774 331.556C126.412 331.297 127.013 331.139 127.575 331.081ZM127.814 337.602C128.281 337.554 128.642 337.361 128.897 337.024C129.15 336.676 129.251 336.253 129.2 335.754L129.172 335.484L128.901 335.512C128.042 335.6 127.444 335.732 127.108 335.906C126.783 336.079 126.639 336.346 126.676 336.707C126.706 336.993 126.826 337.222 127.037 337.393C127.258 337.563 127.517 337.633 127.814 337.602ZM137.695 330.035C138.629 329.939 139.353 330.143 139.866 330.647C140.378 331.141 140.691 331.94 140.805 333.043L141.292 337.754L138.888 338.003L138.413 333.403C138.358 332.873 138.218 332.496 137.991 332.272C137.775 332.048 137.46 331.957 137.046 332C136.547 332.052 136.16 332.252 135.886 332.603C135.621 332.952 135.517 333.391 135.572 333.922L136.024 338.299L133.621 338.547L132.813 330.732L135.153 330.491L135.268 331.605C135.5 331.152 135.822 330.792 136.234 330.524C136.656 330.255 137.144 330.092 137.695 330.035ZM93.2878 364.959C92.4602 365.045 91.7164 364.955 91.0565 364.691C90.3954 364.416 89.8638 363.994 89.4618 363.424C89.0587 362.844 88.8144 362.14 88.7289 361.312C88.6434 360.485 88.7392 359.751 89.0163 359.111C89.2922 358.461 89.7262 357.939 90.3182 357.545C90.9102 357.152 91.62 356.912 92.4476 356.827C93.2752 356.741 94.019 356.83 94.679 357.095C95.339 357.359 95.8705 357.781 96.2736 358.362C96.6756 358.931 96.9194 359.63 97.0049 360.457C97.0904 361.285 96.9952 362.024 96.7192 362.675C96.4422 363.314 96.0082 363.836 95.4173 364.241C94.8252 364.634 94.1154 364.874 93.2878 364.959ZM93.0987 363.129C94.2659 363.008 94.7721 362.2 94.6176 360.704C94.5398 359.951 94.3278 359.404 93.9818 359.065C93.6463 358.724 93.1974 358.583 92.6351 358.641C91.468 358.761 90.9617 359.57 91.1162 361.066C91.2708 362.562 91.9316 363.25 93.0987 363.129ZM103.838 357.644L102.5 357.927C101.838 358.06 101.386 358.3 101.143 358.647C100.899 358.983 100.804 359.411 100.857 359.931L101.278 364.005L98.8751 364.253L98.0678 356.439L100.376 356.201L100.512 357.522C100.811 356.579 101.572 356.002 102.794 355.79L103.489 355.67L103.838 357.644ZM111.858 351.572L113.017 362.792L110.63 363.039L110.51 361.877C110.318 362.304 110.017 362.657 109.606 362.936C109.205 363.202 108.733 363.364 108.192 363.42C107.524 363.489 106.907 363.381 106.341 363.096C105.785 362.8 105.327 362.359 104.966 361.774C104.615 361.178 104.398 360.477 104.315 359.67C104.231 358.864 104.302 358.143 104.526 357.509C104.759 356.863 105.119 356.349 105.605 355.966C106.091 355.583 106.673 355.357 107.352 355.287C107.883 355.232 108.372 355.294 108.819 355.473C109.277 355.651 109.644 355.929 109.919 356.308L109.455 351.82L111.858 351.572ZM108.704 361.517C109.266 361.459 109.676 361.223 109.934 360.811C110.201 360.386 110.297 359.813 110.222 359.092C110.148 358.37 109.937 357.835 109.59 357.484C109.253 357.133 108.804 356.987 108.242 357.045C107.679 357.103 107.264 357.339 106.996 357.752C106.726 358.156 106.628 358.713 106.702 359.424C106.776 360.145 106.988 360.691 107.338 361.063C107.686 361.424 108.141 361.575 108.704 361.517ZM121.546 358.421L116.453 358.947C116.592 359.565 116.841 360.001 117.199 360.253C117.567 360.494 118.059 360.583 118.674 360.519C119.077 360.477 119.469 360.373 119.848 360.205C120.237 360.025 120.583 359.796 120.887 359.518L121.69 361.06C121.339 361.397 120.896 361.678 120.362 361.905C119.838 362.131 119.3 362.272 118.749 362.329C117.433 362.465 116.356 362.212 115.517 361.569C114.689 360.915 114.209 359.962 114.08 358.71C113.998 357.914 114.089 357.191 114.355 356.542C114.62 355.892 115.027 355.368 115.575 354.968C116.123 354.558 116.768 354.314 117.511 354.237C118.603 354.124 119.505 354.391 120.215 355.036C120.936 355.68 121.359 356.612 121.485 357.832L121.546 358.421ZM117.745 355.886C117.289 355.933 116.938 356.119 116.693 356.445C116.458 356.759 116.336 357.195 116.33 357.753L119.401 357.436C119.311 356.877 119.124 356.467 118.84 356.207C118.566 355.946 118.202 355.839 117.745 355.886ZM128.317 355.115L126.979 355.398C126.317 355.531 125.865 355.771 125.622 356.118C125.378 356.454 125.283 356.882 125.337 357.402L125.757 361.476L123.354 361.724L122.547 353.91L124.855 353.672L124.991 354.993C125.29 354.05 126.051 353.473 127.273 353.261L127.969 353.141L128.317 355.115Z" fill="white"/>
</g>
<path d="M166.458 266.284L166.411 267.283L166.411 267.283L166.458 266.284ZM159.26 266.652C158.889 266.244 158.918 265.611 159.327 265.24L165.984 259.183C166.393 258.811 167.025 258.841 167.397 259.25C167.768 259.658 167.739 260.291 167.33 260.662L161.413 266.046L166.796 271.963C167.168 272.372 167.138 273.004 166.73 273.376C166.321 273.748 165.689 273.718 165.317 273.309L159.26 266.652ZM166.411 267.283L159.953 266.978L160.047 264.98L166.505 265.285L166.411 267.283ZM219.574 177.478C244.3 217.901 213.744 269.519 166.411 267.283L166.505 265.285C212.235 267.445 241.757 217.576 217.868 178.522L219.574 177.478Z" fill="url(#paint1_linear_105_236)"/>
<g filter="url(#filter2_d_105_236)">
<rect x="156.071" y="329" width="147.26" height="163" rx="30" transform="rotate(7.78218 156.071 329)" fill="#191A1C" shape-rendering="crispEdges"/>
<g clip-path="url(#clip2_105_236)">
<path fill-rule="evenodd" clip-rule="evenodd" d="M228.179 382.254C231.417 382.661 234.375 384.294 236.444 386.817C238.514 389.342 239.535 392.566 239.298 395.822L239.296 395.842C239.102 397.928 238.387 399.933 237.216 401.67C236.161 403.236 234.767 404.54 233.14 405.487L233.191 411.054C233.193 411.344 233.069 411.621 232.852 411.813C232.634 412.005 232.343 412.093 232.055 412.054L228.092 411.512C227.752 411.466 227.459 411.248 227.317 410.935L225.59 407.133L215.787 405.793L213.123 408.992C212.903 409.257 212.561 409.389 212.22 409.343L208.256 408.801C207.97 408.762 207.714 408.601 207.555 408.359C207.397 408.117 207.351 407.818 207.429 407.539L208.76 402.816C207.64 401.851 206.697 400.697 205.976 399.406L202.52 398.934C202.02 398.865 201.649 398.435 201.655 397.931L201.741 390.865C201.748 390.598 201.81 390.336 201.925 390.096C202.039 389.855 202.203 389.641 202.406 389.468C202.608 389.294 202.845 389.166 203.1 389.09C203.356 389.014 203.625 388.993 203.889 389.028L203.894 389.028L205.146 389.199C205.829 387.249 206.986 385.494 208.519 384.094C210.27 382.496 212.439 381.429 214.773 381.016C215.317 380.919 215.836 381.282 215.932 381.826C216.028 382.37 215.665 382.889 215.121 382.985C213.16 383.332 211.339 384.229 209.868 385.572C208.397 386.914 207.338 388.647 206.814 390.568C206.681 391.052 206.211 391.364 205.713 391.296L203.739 391.026L203.666 397.072L206.754 397.494C207.08 397.538 207.363 397.74 207.511 398.034C208.227 399.453 209.252 400.693 210.511 401.663C210.835 401.913 210.974 402.334 210.863 402.727L209.666 406.975L211.941 407.286L214.605 404.087C214.826 403.822 215.167 403.69 215.509 403.737L226.408 405.226C226.748 405.273 227.041 405.491 227.183 405.803L228.91 409.605L231.18 409.915L231.135 404.908C231.131 404.531 231.34 404.184 231.675 404.01C233.239 403.201 234.574 402.012 235.557 400.553C236.539 399.096 237.14 397.416 237.304 395.667C237.501 392.925 236.64 390.211 234.897 388.086C233.152 385.957 230.656 384.58 227.925 384.238L227.914 384.237L219.839 383.133C219.292 383.058 218.909 382.554 218.983 382.007C219.058 381.46 219.562 381.077 220.11 381.152L228.179 382.254Z" fill="#28EBCF"/>
<path fill-rule="evenodd" clip-rule="evenodd" d="M240.688 393.048C241.236 393.122 241.618 393.627 241.544 394.174C241.436 394.962 241.019 395.675 240.386 396.157C239.752 396.638 238.953 396.848 238.165 396.74C237.618 396.665 237.235 396.161 237.31 395.614C237.385 395.067 237.889 394.684 238.436 394.758C238.699 394.794 238.965 394.724 239.176 394.564C239.387 394.403 239.526 394.166 239.562 393.903C239.637 393.356 240.141 392.973 240.688 393.048Z" fill="#28EBCF"/>
<path fill-rule="evenodd" clip-rule="evenodd" d="M215.162 376.586C215.482 376.446 215.851 376.483 216.137 376.684L216.418 376.881C217.6 377.693 218.594 378.749 219.332 379.978C220.072 381.209 220.537 382.585 220.697 384.012C220.759 384.561 220.364 385.056 219.815 385.118C219.266 385.179 218.771 384.784 218.71 384.235C218.582 383.094 218.209 381.993 217.618 381.008C217.256 380.406 216.818 379.856 216.316 379.371L215.605 384.573C215.53 385.12 215.026 385.503 214.479 385.428C213.931 385.354 213.548 384.849 213.623 384.302L214.571 377.367C214.618 377.021 214.842 376.725 215.162 376.586Z" fill="#28EBCF"/>
<path fill-rule="evenodd" clip-rule="evenodd" d="M225.291 372.776C223.65 372.552 222.137 373.701 221.913 375.342C221.688 376.984 222.837 378.496 224.479 378.721C226.121 378.945 227.633 377.796 227.858 376.155C228.082 374.513 226.933 373 225.291 372.776ZM219.931 375.071C220.305 372.335 222.826 370.421 225.562 370.794C228.298 371.168 230.213 373.689 229.839 376.425C229.465 379.161 226.944 381.076 224.208 380.702C221.472 380.328 219.557 377.807 219.931 375.071Z" fill="#28EBCF"/>
<path fill-rule="evenodd" clip-rule="evenodd" d="M210.948 389.992C211.023 389.445 211.527 389.062 212.074 389.137L212.075 389.137C212.623 389.212 213.005 389.716 212.931 390.263C212.856 390.811 212.352 391.194 211.804 391.119L211.803 391.119C211.256 391.044 210.873 390.54 210.948 389.992Z" fill="#28EBCF"/>
</g>
<path d="M189.604 444.751C188.474 444.596 187.518 444.223 186.737 443.632C185.968 443.043 185.415 442.283 185.079 441.355C184.753 440.427 184.668 439.393 184.824 438.252C184.98 437.11 185.34 436.137 185.902 435.331C186.475 434.526 187.21 433.948 188.109 433.597C189.019 433.237 190.04 433.135 191.171 433.289C191.911 433.39 192.603 433.603 193.247 433.928C193.893 434.243 194.406 434.63 194.784 435.091L193.751 436.742C193.315 436.306 192.866 435.97 192.403 435.735C191.951 435.501 191.465 435.348 190.948 435.277C189.954 435.142 189.145 435.354 188.519 435.914C187.904 436.476 187.513 437.37 187.345 438.596C187.177 439.822 187.314 440.793 187.754 441.51C188.206 442.218 188.929 442.64 189.923 442.776C190.441 442.846 190.949 442.83 191.448 442.726C191.957 442.623 192.48 442.42 193.017 442.116L193.569 443.984C193.081 444.327 192.482 444.568 191.774 444.708C191.067 444.838 190.344 444.852 189.604 444.751ZM201.316 440.086L199.949 440.044C199.274 440.016 198.778 440.142 198.46 440.422C198.143 440.691 197.95 441.084 197.879 441.602L197.324 445.66L194.93 445.333L195.994 437.55L198.293 437.864L198.113 439.18C198.627 438.335 199.502 437.954 200.74 438.037L201.444 438.084L201.316 440.086ZM208.615 443.699L203.542 443.006C203.531 443.64 203.67 444.121 203.959 444.452C204.259 444.773 204.716 444.975 205.329 445.059C205.731 445.114 206.136 445.104 206.544 445.031C206.964 444.949 207.355 444.808 207.716 444.61L208.131 446.298C207.71 446.542 207.213 446.71 206.641 446.804C206.079 446.9 205.523 446.91 204.973 446.835C203.663 446.656 202.676 446.155 202.013 445.332C201.363 444.501 201.123 443.461 201.293 442.214C201.401 441.421 201.661 440.741 202.073 440.173C202.484 439.605 203.003 439.191 203.631 438.932C204.26 438.663 204.944 438.579 205.684 438.68C206.772 438.829 207.585 439.301 208.123 440.095C208.671 440.892 208.862 441.897 208.695 443.113L208.615 443.699ZM205.522 440.337C205.068 440.275 204.683 440.373 204.368 440.632C204.064 440.881 203.843 441.276 203.705 441.817L206.764 442.235C206.809 441.671 206.724 441.228 206.51 440.908C206.306 440.59 205.976 440.4 205.522 440.337ZM214.137 439.835C215.299 439.994 216.118 440.386 216.592 441.011C217.077 441.637 217.241 442.526 217.083 443.678L216.455 448.275L214.188 447.965L214.346 446.808C214.133 447.188 213.825 447.469 213.424 447.651C213.024 447.822 212.575 447.874 212.078 447.806C211.55 447.734 211.083 447.562 210.679 447.292C210.285 447.023 209.987 446.681 209.786 446.265C209.595 445.852 209.531 445.412 209.595 444.947C209.673 444.377 209.877 443.947 210.207 443.658C210.547 443.371 211.05 443.198 211.715 443.138C212.38 443.078 213.273 443.125 214.393 443.278L214.805 443.334L214.844 443.049C214.908 442.584 214.852 442.242 214.677 442.025C214.502 441.807 214.167 441.664 213.67 441.596C213.289 441.544 212.857 441.555 212.373 441.629C211.89 441.703 211.42 441.832 210.964 442.018L210.549 440.33C211.03 440.116 211.605 439.963 212.275 439.871C212.956 439.771 213.576 439.759 214.137 439.835ZM212.827 446.229C213.292 446.292 213.688 446.19 214.015 445.923C214.344 445.645 214.542 445.257 214.61 444.761L214.647 444.491L214.377 444.454C213.521 444.337 212.91 444.324 212.542 444.414C212.185 444.505 211.982 444.73 211.933 445.089C211.894 445.375 211.956 445.625 212.121 445.842C212.296 446.059 212.531 446.188 212.827 446.229ZM222.78 447.476C223.023 447.509 223.279 447.528 223.547 447.532L223.182 449.259C222.87 449.259 222.561 449.239 222.254 449.197C221.07 449.035 220.239 448.658 219.76 448.065C219.292 447.473 219.13 446.649 219.275 445.592L219.682 442.612L218.208 442.41L218.453 440.619L219.927 440.82L220.239 438.538L222.633 438.865L222.321 441.148L224.271 441.414L224.026 443.205L222.076 442.939L221.671 445.903C221.544 446.833 221.913 447.358 222.78 447.476ZM231.852 446.875L226.78 446.182C226.768 446.815 226.907 447.297 227.196 447.627C227.496 447.948 227.953 448.151 228.566 448.234C228.968 448.289 229.373 448.28 229.781 448.207C230.201 448.124 230.592 447.984 230.953 447.786L231.368 449.473C230.947 449.717 230.45 449.886 229.878 449.98C229.316 450.076 228.76 450.086 228.21 450.011C226.9 449.832 225.913 449.331 225.25 448.508C224.6 447.676 224.36 446.637 224.53 445.39C224.638 444.597 224.898 443.917 225.31 443.349C225.721 442.78 226.24 442.367 226.868 442.108C227.497 441.839 228.181 441.755 228.921 441.856C230.01 442.005 230.823 442.476 231.36 443.271C231.908 444.067 232.099 445.073 231.933 446.288L231.852 446.875ZM228.759 443.513C228.305 443.451 227.92 443.549 227.605 443.808C227.301 444.057 227.081 444.452 226.942 444.993L230.002 445.411C230.046 444.846 229.962 444.404 229.747 444.084C229.543 443.766 229.214 443.575 228.759 443.513ZM241.801 443.616C242.964 443.775 243.782 444.167 244.257 444.791C244.742 445.418 244.906 446.307 244.748 447.459L244.12 452.056L241.853 451.746L242.011 450.589C241.798 450.969 241.49 451.25 241.088 451.432C240.688 451.603 240.24 451.655 239.743 451.587C239.215 451.515 238.748 451.343 238.344 451.073C237.95 450.803 237.652 450.461 237.451 450.046C237.259 449.633 237.196 449.193 237.259 448.728C237.337 448.157 237.541 447.728 237.871 447.439C238.212 447.152 238.715 446.978 239.38 446.919C240.045 446.859 240.937 446.905 242.058 447.059L242.47 447.115L242.509 446.829C242.572 446.364 242.517 446.023 242.342 445.805C242.167 445.588 241.831 445.445 241.335 445.377C240.954 445.325 240.522 445.336 240.038 445.41C239.554 445.484 239.085 445.613 238.629 445.799L238.213 444.111C238.695 443.897 239.27 443.744 239.939 443.652C240.62 443.552 241.241 443.54 241.801 443.616ZM240.492 450.01C240.957 450.073 241.353 449.971 241.68 449.704C242.009 449.426 242.207 449.038 242.275 448.542L242.312 448.272L242.042 448.235C241.186 448.118 240.574 448.105 240.207 448.194C239.85 448.286 239.647 448.511 239.598 448.87C239.559 449.155 239.621 449.406 239.785 449.622C239.96 449.84 240.196 449.969 240.492 450.01ZM168.814 464.098C168.095 463.999 167.445 463.83 166.865 463.589C166.296 463.339 165.816 463.031 165.424 462.666L166.284 461.104C166.667 461.447 167.102 461.732 167.588 461.96C168.073 462.188 168.575 462.337 169.093 462.408C169.463 462.458 169.756 462.439 169.973 462.351C170.202 462.253 170.33 462.098 170.359 461.887C170.385 461.696 170.331 461.538 170.198 461.412C170.075 461.288 169.824 461.157 169.444 461.019L168.215 460.56C167.488 460.288 166.968 459.954 166.657 459.556C166.357 459.149 166.249 458.639 166.333 458.026C166.399 457.54 166.595 457.13 166.921 456.798C167.256 456.467 167.693 456.231 168.229 456.089C168.775 455.948 169.376 455.923 170.032 456.012C170.592 456.089 171.125 456.248 171.63 456.489C172.135 456.73 172.578 457.033 172.959 457.397L172.108 458.896C171.362 458.213 170.587 457.816 169.784 457.706C169.414 457.656 169.115 457.679 168.886 457.777C168.657 457.875 168.527 458.04 168.495 458.273C168.472 458.442 168.518 458.583 168.631 458.695C168.745 458.808 168.955 458.928 169.26 459.056L170.535 459.537C171.303 459.825 171.842 460.178 172.15 460.597C172.471 461.007 172.589 461.524 172.504 462.147C172.401 462.898 172.019 463.448 171.357 463.799C170.708 464.141 169.86 464.241 168.814 464.098ZM178.105 457.116C179.268 457.274 180.087 457.666 180.561 458.291C181.046 458.917 181.21 459.806 181.052 460.958L180.424 465.555L178.157 465.245L178.315 464.088C178.102 464.468 177.794 464.749 177.393 464.931C176.992 465.102 176.544 465.154 176.047 465.086C175.519 465.014 175.052 464.843 174.648 464.572C174.254 464.303 173.956 463.961 173.755 463.546C173.564 463.132 173.5 462.693 173.563 462.228C173.641 461.657 173.845 461.227 174.176 460.939C174.516 460.651 175.019 460.478 175.684 460.418C176.349 460.358 177.241 460.405 178.362 460.558L178.774 460.614L178.813 460.329C178.876 459.864 178.821 459.523 178.646 459.305C178.471 459.087 178.135 458.944 177.639 458.877C177.258 458.825 176.826 458.835 176.342 458.909C175.859 458.983 175.389 459.113 174.933 459.298L174.517 457.61C174.999 457.396 175.574 457.243 176.243 457.152C176.925 457.051 177.545 457.039 178.105 457.116ZM176.796 463.509C177.261 463.573 177.657 463.471 177.984 463.203C178.313 462.925 178.511 462.538 178.579 462.041L178.616 461.772L178.346 461.735C177.49 461.618 176.878 461.604 176.511 461.694C176.154 461.785 175.951 462.01 175.902 462.37C175.863 462.655 175.925 462.906 176.09 463.122C176.264 463.34 176.5 463.469 176.796 463.509ZM188.665 458.769L191.011 459.089L186.526 466.389L184.497 466.112L182.182 457.883L184.67 458.223L185.96 463.437L188.665 458.769ZM190.682 466.957L191.746 459.173L194.139 459.501L193.076 467.284L190.682 466.957ZM192.178 455.421L194.746 455.772L194.44 458.008L191.872 457.657L192.178 455.421ZM200.881 460.228C201.811 460.355 202.465 460.725 202.845 461.336C203.225 461.937 203.341 462.788 203.191 463.887L202.549 468.579L200.156 468.252L200.782 463.67C200.854 463.142 200.806 462.743 200.639 462.472C200.482 462.203 200.197 462.04 199.785 461.984C199.288 461.916 198.865 462.02 198.515 462.295C198.176 462.571 197.97 462.974 197.898 463.502L197.302 467.862L194.908 467.535L195.972 459.751L198.302 460.07L198.151 461.179C198.483 460.794 198.881 460.52 199.345 460.357C199.819 460.196 200.331 460.153 200.881 460.228ZM213.342 462.125L212.393 469.068C212.221 470.326 211.732 471.228 210.925 471.775C210.119 472.321 209.012 472.498 207.607 472.306C206.909 472.211 206.25 472.035 205.628 471.777C205.017 471.522 204.49 471.207 204.045 470.834L204.905 469.272C205.834 469.959 206.795 470.37 207.788 470.506C209.099 470.685 209.838 470.157 210.007 468.92L210.124 468.064C209.848 468.435 209.471 468.707 208.996 468.879C208.52 469.05 208.007 469.099 207.458 469.024C206.781 468.931 206.201 468.69 205.716 468.301C205.241 467.913 204.896 467.409 204.679 466.787C204.464 466.155 204.409 465.453 204.515 464.681C204.62 463.91 204.861 463.254 205.236 462.713C205.613 462.161 206.082 461.763 206.643 461.516C207.216 461.261 207.841 461.179 208.517 461.272C209.056 461.345 209.527 461.528 209.928 461.82C210.342 462.102 210.637 462.46 210.815 462.894L210.964 461.8L213.342 462.125ZM208.405 467.296C208.965 467.373 209.423 467.252 209.778 466.935C210.144 466.619 210.371 466.138 210.46 465.494C210.548 464.849 210.458 464.325 210.19 463.923C209.934 463.511 209.526 463.267 208.966 463.19C208.406 463.114 207.942 463.239 207.574 463.565C207.208 463.881 206.981 464.362 206.893 465.006C206.806 465.64 206.896 466.164 207.162 466.577C207.43 466.98 207.844 467.219 208.405 467.296ZM217.099 470.697C216.38 470.598 215.731 470.429 215.15 470.188C214.581 469.938 214.101 469.63 213.71 469.265L214.569 467.703C214.953 468.046 215.388 468.331 215.873 468.559C216.359 468.787 216.861 468.936 217.379 469.007C217.748 469.057 218.042 469.038 218.258 468.95C218.487 468.852 218.616 468.697 218.645 468.486C218.671 468.295 218.617 468.137 218.483 468.011C218.361 467.887 218.109 467.756 217.73 467.618L216.501 467.159C215.773 466.887 215.254 466.553 214.942 466.155C214.643 465.748 214.535 465.238 214.618 464.625C214.685 464.139 214.881 463.729 215.206 463.397C215.542 463.066 215.978 462.83 216.514 462.688C217.061 462.547 217.662 462.522 218.317 462.611C218.877 462.688 219.41 462.847 219.915 463.088C220.421 463.329 220.864 463.632 221.245 463.996L220.394 465.495C219.647 464.812 218.873 464.415 218.07 464.305C217.7 464.255 217.4 464.278 217.172 464.376C216.943 464.474 216.813 464.639 216.781 464.872C216.758 465.041 216.803 465.182 216.917 465.294C217.031 465.407 217.24 465.527 217.546 465.655L218.821 466.136C219.589 466.424 220.127 466.777 220.436 467.196C220.757 467.606 220.874 468.123 220.789 468.746C220.687 469.497 220.305 470.047 219.643 470.398C218.993 470.74 218.145 470.84 217.099 470.697ZM232.182 464.506C232.848 464.597 233.416 464.852 233.886 465.272C234.368 465.682 234.709 466.219 234.909 466.881C235.122 467.535 235.173 468.263 235.063 469.066C234.953 469.869 234.709 470.557 234.329 471.13C233.961 471.693 233.496 472.103 232.933 472.36C232.371 472.617 231.751 472.699 231.075 472.607C230.546 472.534 230.08 472.363 229.676 472.092C229.283 471.813 228.997 471.461 228.818 471.039L228.277 475.002L225.883 474.675L227.337 464.038L229.699 464.36L229.549 465.454C229.837 465.084 230.212 464.818 230.676 464.655C231.141 464.482 231.643 464.432 232.182 464.506ZM230.626 470.688C231.187 470.765 231.645 470.639 232.002 470.311C232.361 469.973 232.588 469.449 232.685 468.741C232.783 468.022 232.706 467.447 232.453 467.014C232.201 466.57 231.795 466.31 231.235 466.234C230.675 466.157 230.215 466.293 229.855 466.643C229.497 466.981 229.268 467.51 229.17 468.228C229.073 468.937 229.152 469.507 229.405 469.94C229.659 470.362 230.066 470.612 230.626 470.688ZM235.995 473.15L237.522 461.974L239.916 462.301L238.389 473.477L235.995 473.15ZM244.767 466.226C245.93 466.385 246.748 466.777 247.223 467.401C247.708 468.027 247.871 468.916 247.714 470.068L247.086 474.666L244.819 474.356L244.977 473.199C244.763 473.578 244.456 473.859 244.054 474.041C243.654 474.213 243.206 474.265 242.709 474.197C242.18 474.124 241.714 473.953 241.31 473.682C240.916 473.413 240.618 473.071 240.416 472.656C240.225 472.242 240.161 471.803 240.225 471.338C240.303 470.767 240.507 470.338 240.837 470.049C241.178 469.762 241.681 469.588 242.346 469.528C243.01 469.469 243.903 469.515 245.023 469.668L245.435 469.725L245.474 469.439C245.538 468.974 245.482 468.633 245.308 468.415C245.133 468.198 244.797 468.055 244.3 467.987C243.92 467.935 243.488 467.946 243.004 468.02C242.52 468.094 242.05 468.223 241.594 468.408L241.179 466.721C241.66 466.507 242.236 466.354 242.905 466.262C243.586 466.161 244.207 466.149 244.767 466.226ZM243.457 472.619C243.922 472.683 244.318 472.581 244.646 472.314C244.974 472.036 245.173 471.648 245.24 471.151L245.277 470.882L245.008 470.845C244.152 470.728 243.54 470.714 243.172 470.804C242.815 470.895 242.612 471.121 242.563 471.48C242.524 471.765 242.587 472.016 242.751 472.232C242.926 472.45 243.161 472.579 243.457 472.619ZM254.848 467.604C255.778 467.731 256.432 468.1 256.812 468.712C257.193 469.313 257.308 470.163 257.158 471.262L256.516 475.954L254.123 475.627L254.749 471.046C254.821 470.517 254.773 470.118 254.606 469.848C254.449 469.578 254.164 469.416 253.752 469.359C253.255 469.292 252.832 469.395 252.482 469.67C252.143 469.947 251.937 470.349 251.865 470.878L251.269 475.237L248.875 474.91L249.939 467.127L252.269 467.445L252.118 468.555C252.45 468.17 252.848 467.896 253.312 467.733C253.786 467.572 254.298 467.529 254.848 467.604Z" fill="white"/>
</g>
<g filter="url(#filter3_d_105_236)">
<rect x="101" y="41.1061" width="193.1" height="174" rx="30" transform="rotate(-3 101 41.1061)" fill="#191A1C" shape-rendering="crispEdges"/>
<g clip-path="url(#clip3_105_236)">
<path fill-rule="evenodd" clip-rule="evenodd" d="M182.534 76.8879C182.269 76.9018 182.021 77.0203 181.843 77.2174C181.666 77.4145 181.574 77.674 181.588 77.9389L182.896 102.905C182.91 103.169 183.029 103.418 183.226 103.595C183.423 103.773 183.682 103.865 183.947 103.851L193.934 103.328C194.485 103.299 194.956 103.722 194.985 104.274C195.013 104.825 194.59 105.296 194.038 105.325L184.052 105.848C183.257 105.89 182.479 105.614 181.888 105.082C181.296 104.549 180.941 103.804 180.899 103.009L179.591 78.0436C179.549 77.249 179.825 76.4704 180.357 75.8792C180.889 75.2879 181.635 74.9323 182.43 74.8907L216.383 73.1112C217.177 73.0696 217.956 73.3453 218.547 73.8777C219.139 74.4101 219.494 75.1556 219.536 75.9501L220.844 100.916C220.886 101.71 220.61 102.489 220.078 103.08C219.545 103.672 218.8 104.027 218.005 104.069L207.759 104.606C207.208 104.635 206.737 104.211 206.708 103.659C206.68 103.108 207.103 102.637 207.655 102.608L217.901 102.071C218.166 102.058 218.414 101.939 218.591 101.742C218.769 101.545 218.861 101.285 218.847 101.021L217.539 76.0548C217.525 75.7899 217.406 75.5414 217.209 75.364C217.012 75.1865 216.752 75.0946 216.488 75.1085L182.534 76.8879Z" fill="#28EBCF"/>
<path fill-rule="evenodd" clip-rule="evenodd" d="M200.662 97.9681C197.905 98.1126 195.786 100.465 195.931 103.223C196.075 105.981 198.428 108.099 201.186 107.954C203.943 107.81 206.062 105.457 205.917 102.7C205.773 99.9419 203.42 97.8235 200.662 97.9681ZM193.934 103.328C193.731 99.4669 196.697 96.1731 200.558 95.9708C204.418 95.7685 207.712 98.7342 207.914 102.595C208.117 106.456 205.151 109.749 201.29 109.952C197.43 110.154 194.136 107.188 193.934 103.328Z" fill="#28EBCF"/>
<path fill-rule="evenodd" clip-rule="evenodd" d="M200.872 101.963C200.32 101.991 199.896 102.462 199.925 103.014C199.954 103.565 200.425 103.989 200.976 103.96C201.528 103.931 201.951 103.46 201.923 102.909C201.894 102.357 201.423 101.934 200.872 101.963ZM197.928 103.118C197.841 101.464 199.112 100.052 200.767 99.9653C202.422 99.8786 203.833 101.15 203.92 102.804C204.007 104.459 202.736 105.87 201.081 105.957C199.426 106.044 198.015 104.773 197.928 103.118Z" fill="#28EBCF"/>
<path fill-rule="evenodd" clip-rule="evenodd" d="M190.1 87.5065C190.071 86.955 190.495 86.4844 191.047 86.4555L209.022 85.5135C209.573 85.4846 210.044 85.9083 210.073 86.4598C210.102 87.0113 209.678 87.4818 209.127 87.5107L191.151 88.4528C190.6 88.4817 190.129 88.058 190.1 87.5065Z" fill="#28EBCF"/>
<path fill-rule="evenodd" clip-rule="evenodd" d="M190.362 92.4997C190.333 91.9481 190.757 91.4776 191.308 91.4487L209.284 90.5067C209.835 90.4778 210.306 90.9014 210.335 91.4529C210.363 92.0045 209.94 92.475 209.388 92.5039L191.413 93.446C190.861 93.4749 190.391 93.0512 190.362 92.4997Z" fill="#28EBCF"/>
<path fill-rule="evenodd" clip-rule="evenodd" d="M195.41 104.417C195.916 104.638 196.147 105.228 195.927 105.734L193.024 112.388L196.801 112.19L198.429 108.709C198.663 108.209 199.258 107.993 199.758 108.227C200.259 108.461 200.475 109.056 200.241 109.556L198.359 113.58C198.202 113.915 197.874 114.136 197.505 114.155L191.513 114.469C191.167 114.488 190.836 114.325 190.639 114.04C190.442 113.755 190.406 113.389 190.544 113.071L194.093 104.934C194.314 104.428 194.904 104.197 195.41 104.417Z" fill="#28EBCF"/>
<path fill-rule="evenodd" clip-rule="evenodd" d="M206.658 103.834C207.141 103.566 207.75 103.739 208.018 104.222L212.308 111.938C212.475 112.24 212.476 112.606 212.309 112.908C212.141 113.21 211.831 113.405 211.486 113.423L205.494 113.737C205.119 113.756 204.764 113.564 204.576 113.239L202.374 109.429C202.097 108.951 202.261 108.339 202.739 108.062C203.217 107.786 203.829 107.95 204.105 108.428L206.001 111.707L209.781 111.509L206.27 105.194C206.002 104.711 206.175 104.102 206.658 103.834Z" fill="#28EBCF"/>
<path fill-rule="evenodd" clip-rule="evenodd" d="M185.304 80.3335C185.659 79.9393 186.156 79.7022 186.686 79.6744L212.65 78.3137C213.18 78.2859 213.699 78.4698 214.093 78.8247C214.487 79.1796 214.724 79.6765 214.752 80.2063L215.642 97.183C215.669 97.7128 215.486 98.2318 215.131 98.6259C214.776 99.0201 214.279 99.2572 213.749 99.2849L205.76 99.7036C205.209 99.7325 204.738 99.3088 204.709 98.7573C204.68 98.2058 205.104 97.7353 205.655 97.7064L213.644 97.2877L212.755 80.311L186.79 81.6717L187.68 98.6484L195.669 98.2297C196.221 98.2008 196.691 98.6245 196.72 99.176C196.749 99.7275 196.325 100.198 195.774 100.227L187.785 100.646C187.255 100.673 186.736 100.49 186.342 100.135C185.948 99.7798 185.711 99.2828 185.683 98.7531L184.793 81.7764C184.765 81.2466 184.949 80.7276 185.304 80.3335Z" fill="#28EBCF"/>
</g>
<path d="M163.163 154.152C162.023 154.211 161.014 154.024 160.137 153.589C159.27 153.154 158.585 152.512 158.081 151.662C157.588 150.812 157.311 149.812 157.251 148.661C157.191 147.511 157.362 146.487 157.763 145.59C158.175 144.693 158.79 143.988 159.607 143.475C160.434 142.951 161.417 142.659 162.557 142.599C163.303 142.56 164.023 142.64 164.717 142.839C165.41 143.027 165.986 143.312 166.444 143.694L165.738 145.509C165.228 145.162 164.724 144.916 164.225 144.771C163.737 144.626 163.232 144.567 162.71 144.594C161.709 144.647 160.953 145.007 160.443 145.674C159.944 146.341 159.727 147.293 159.792 148.528C159.856 149.764 160.172 150.693 160.739 151.315C161.316 151.925 162.105 152.204 163.106 152.152C163.628 152.125 164.124 152.013 164.594 151.818C165.075 151.621 165.551 151.324 166.022 150.926L166.914 152.657C166.498 153.085 165.956 153.434 165.286 153.704C164.616 153.963 163.908 154.113 163.163 154.152ZM173.004 145.433C173.941 145.384 174.653 145.624 175.14 146.154C175.627 146.673 175.899 147.487 175.957 148.594L176.205 153.324L173.792 153.45L173.55 148.833C173.522 148.3 173.401 147.917 173.186 147.682C172.981 147.447 172.671 147.341 172.256 147.362C171.755 147.389 171.358 147.57 171.066 147.905C170.785 148.241 170.658 148.675 170.686 149.207L170.916 153.601L168.503 153.728L167.913 142.463L170.326 142.337L170.559 146.794C170.815 146.375 171.151 146.053 171.566 145.828C171.992 145.592 172.471 145.461 173.004 145.433ZM181.784 153.16C180.953 153.203 180.214 153.076 179.569 152.779C178.922 152.471 178.413 152.023 178.04 151.433C177.667 150.833 177.458 150.118 177.415 149.287C177.371 148.456 177.504 147.728 177.813 147.103C178.122 146.468 178.581 145.968 179.193 145.605C179.804 145.242 180.525 145.038 181.356 144.995C182.187 144.951 182.925 145.078 183.571 145.376C184.216 145.673 184.726 146.121 185.099 146.721C185.472 147.311 185.68 148.021 185.724 148.852C185.767 149.682 185.635 150.416 185.326 151.051C185.017 151.676 184.557 152.176 183.947 152.55C183.335 152.913 182.614 153.116 181.784 153.16ZM181.687 151.322C182.859 151.261 183.406 150.479 183.327 148.977C183.287 148.221 183.103 147.664 182.775 147.308C182.457 146.951 182.016 146.787 181.451 146.816C180.279 146.878 179.733 147.66 179.812 149.161C179.89 150.663 180.516 151.384 181.687 151.322ZM191.177 152.667C190.346 152.711 189.608 152.584 188.962 152.287C188.316 151.979 187.806 151.53 187.433 150.941C187.06 150.341 186.852 149.626 186.808 148.795C186.765 147.964 186.897 147.236 187.207 146.611C187.515 145.975 187.975 145.476 188.586 145.113C189.197 144.75 189.918 144.546 190.749 144.503C191.58 144.459 192.318 144.586 192.964 144.883C193.61 145.181 194.119 145.629 194.493 146.229C194.865 146.818 195.073 147.528 195.117 148.359C195.16 149.19 195.028 149.923 194.719 150.559C194.41 151.184 193.951 151.684 193.34 152.057C192.729 152.421 192.008 152.624 191.177 152.667ZM191.081 150.83C192.252 150.769 192.799 149.987 192.72 148.485C192.681 147.729 192.496 147.172 192.168 146.816C191.85 146.458 191.409 146.295 190.845 146.324C189.673 146.386 189.126 147.167 189.205 148.669C189.284 150.171 189.909 150.891 191.081 150.83ZM199.819 152.215C199.095 152.252 198.425 152.207 197.81 152.08C197.204 151.94 196.675 151.728 196.222 151.442L196.774 149.747C197.215 150.012 197.696 150.211 198.215 150.344C198.735 150.477 199.256 150.53 199.778 150.502C200.15 150.483 200.435 150.409 200.631 150.281C200.838 150.142 200.935 149.966 200.924 149.753C200.914 149.562 200.832 149.416 200.677 149.318C200.533 149.218 200.262 149.136 199.863 149.072L198.57 148.851C197.804 148.721 197.231 148.489 196.851 148.156C196.48 147.813 196.279 147.332 196.247 146.714C196.221 146.224 196.337 145.785 196.594 145.398C196.862 145.01 197.246 144.696 197.746 144.456C198.257 144.216 198.843 144.078 199.503 144.044C200.068 144.014 200.621 144.071 201.162 144.213C201.704 144.356 202.196 144.57 202.638 144.857L202.083 146.488C201.222 145.957 200.386 145.712 199.577 145.754C199.204 145.774 198.915 145.853 198.708 145.992C198.502 146.131 198.405 146.318 198.417 146.552C198.426 146.723 198.497 146.852 198.63 146.942C198.763 147.031 198.991 147.11 199.315 147.178L200.657 147.412C201.466 147.551 202.061 147.798 202.442 148.152C202.834 148.494 203.046 148.98 203.079 149.608C203.119 150.365 202.847 150.977 202.262 151.446C201.688 151.903 200.874 152.159 199.819 152.215ZM211.46 148L206.347 148.267C206.454 148.892 206.68 149.339 207.026 149.61C207.381 149.869 207.868 149.982 208.486 149.95C208.89 149.929 209.286 149.844 209.674 149.695C210.071 149.536 210.429 149.325 210.746 149.062L211.47 150.643C211.102 150.961 210.646 151.22 210.101 151.419C209.566 151.618 209.022 151.732 208.468 151.761C207.147 151.83 206.085 151.523 205.28 150.839C204.485 150.144 204.055 149.167 203.989 147.91C203.947 147.112 204.075 146.394 204.373 145.759C204.67 145.124 205.103 144.621 205.671 144.249C206.239 143.867 206.895 143.656 207.641 143.617C208.738 143.56 209.625 143.871 210.302 144.551C210.989 145.231 211.364 146.183 211.429 147.408L211.46 148ZM207.792 145.276C207.334 145.3 206.974 145.468 206.713 145.781C206.462 146.082 206.319 146.512 206.284 147.069L209.368 146.908C209.306 146.345 209.14 145.926 208.869 145.652C208.609 145.377 208.25 145.252 207.792 145.276ZM222.583 143.043L224.948 142.919L220.78 153.872L218.335 154L219.664 150.614L216.048 143.385L218.557 143.254L220.799 148.135L222.583 143.043ZM229.718 150.648C228.887 150.691 228.149 150.564 227.503 150.267C226.857 149.959 226.347 149.51 225.974 148.921C225.601 148.321 225.393 147.606 225.349 146.775C225.306 145.944 225.438 145.216 225.747 144.591C226.056 143.955 226.516 143.456 227.127 143.093C227.738 142.73 228.459 142.526 229.29 142.483C230.121 142.439 230.859 142.566 231.505 142.863C232.151 143.161 232.66 143.609 233.033 144.209C233.406 144.799 233.614 145.509 233.658 146.339C233.701 147.17 233.569 147.904 233.26 148.539C232.951 149.164 232.491 149.664 231.881 150.038C231.27 150.401 230.549 150.604 229.718 150.648ZM229.622 148.81C230.793 148.749 231.34 147.967 231.261 146.465C231.221 145.709 231.037 145.152 230.709 144.796C230.391 144.439 229.95 144.275 229.385 144.304C228.214 144.366 227.667 145.147 227.746 146.649C227.825 148.151 228.45 148.872 229.622 148.81ZM242.48 141.984L242.891 149.829L240.542 149.952L240.484 148.834C240.26 149.251 239.951 149.577 239.558 149.811C239.175 150.045 238.733 150.175 238.232 150.201C237.242 150.253 236.487 150.02 235.969 149.503C235.46 148.974 235.177 148.156 235.119 147.048L234.875 142.382L237.287 142.256L237.534 146.969C237.559 147.438 237.673 147.779 237.876 147.993C238.09 148.206 238.4 148.302 238.805 148.281C239.273 148.256 239.643 148.077 239.914 147.742C240.195 147.407 240.323 146.978 240.295 146.456L240.067 142.11L242.48 141.984ZM250.034 143.382L248.683 143.597C248.015 143.696 247.551 143.913 247.291 144.247C247.03 144.571 246.914 144.993 246.941 145.515L247.155 149.606L244.743 149.732L244.331 141.887L246.648 141.765L246.718 143.092C247.064 142.165 247.853 141.627 249.085 141.477L249.785 141.393L250.034 143.382ZM165.857 164.601L166.447 175.865L164.051 175.991L163.989 174.825C163.776 175.242 163.457 175.579 163.033 175.836C162.619 176.082 162.14 176.219 161.597 176.248C160.926 176.283 160.315 176.144 159.764 175.831C159.224 175.507 158.788 175.044 158.458 174.442C158.137 173.828 157.956 173.117 157.913 172.307C157.871 171.498 157.978 170.782 158.233 170.16C158.499 169.526 158.884 169.031 159.389 168.673C159.894 168.315 160.487 168.119 161.169 168.083C161.701 168.055 162.186 168.142 162.624 168.343C163.073 168.544 163.425 168.841 163.68 169.233L163.444 164.727L165.857 164.601ZM162.203 174.374C162.768 174.344 163.189 174.13 163.467 173.731C163.756 173.32 163.881 172.753 163.843 172.029C163.805 171.304 163.621 170.758 163.292 170.391C162.974 170.023 162.533 169.854 161.968 169.884C161.403 169.913 160.977 170.128 160.688 170.528C160.399 170.917 160.273 171.468 160.31 172.182C160.348 172.906 160.532 173.462 160.862 173.851C161.192 174.229 161.639 174.403 162.203 174.374ZM175.186 171.931L170.073 172.199C170.18 172.823 170.407 173.271 170.752 173.541C171.107 173.8 171.594 173.913 172.212 173.881C172.617 173.86 173.013 173.775 173.4 173.627C173.798 173.467 174.155 173.256 174.472 172.994L175.196 174.574C174.828 174.892 174.372 175.151 173.827 175.351C173.293 175.549 172.748 175.663 172.195 175.692C170.874 175.762 169.811 175.454 169.006 174.77C168.211 174.075 167.781 173.099 167.715 171.842C167.673 171.043 167.801 170.326 168.099 169.691C168.397 169.055 168.83 168.552 169.398 168.181C169.965 167.798 170.622 167.588 171.367 167.549C172.464 167.491 173.351 167.802 174.028 168.483C174.715 169.162 175.091 170.115 175.155 171.34L175.186 171.931ZM171.518 169.207C171.06 169.231 170.7 169.399 170.439 169.712C170.188 170.014 170.045 170.443 170.01 171L173.094 170.839C173.032 170.276 172.866 169.857 172.595 169.583C172.335 169.308 171.976 169.183 171.518 169.207ZM179.851 175.291C179.127 175.329 178.457 175.284 177.841 175.156C177.236 175.017 176.707 174.804 176.254 174.518L176.806 172.823C177.247 173.088 177.728 173.288 178.247 173.421C178.767 173.554 179.288 173.606 179.81 173.579C180.182 173.559 180.467 173.486 180.663 173.358C180.87 173.219 180.967 173.043 180.956 172.83C180.946 172.638 180.864 172.493 180.709 172.394C180.565 172.295 180.293 172.213 179.895 172.149L178.602 171.928C177.836 171.797 177.263 171.566 176.883 171.233C176.512 170.889 176.311 170.408 176.279 169.791C176.253 169.301 176.369 168.862 176.626 168.475C176.894 168.087 177.278 167.773 177.778 167.533C178.289 167.293 178.875 167.155 179.535 167.121C180.1 167.091 180.653 167.147 181.194 167.29C181.736 167.432 182.228 167.647 182.67 167.934L182.115 169.565C181.254 169.033 180.418 168.789 179.609 168.831C179.236 168.851 178.946 168.93 178.74 169.069C178.534 169.208 178.437 169.394 178.449 169.629C178.458 169.799 178.529 169.929 178.662 170.018C178.795 170.107 179.023 170.186 179.347 170.255L180.689 170.489C181.497 170.628 182.093 170.875 182.474 171.228C182.866 171.571 183.078 172.057 183.111 172.685C183.151 173.441 182.879 174.054 182.294 174.522C181.72 174.98 180.906 175.236 179.851 175.291ZM184.611 174.914L184.2 167.068L186.612 166.942L187.024 174.787L184.611 174.914ZM183.922 163.302L186.511 163.166L186.629 165.419L184.04 165.555L183.922 163.302ZM194.162 168.341L192.811 168.556C192.143 168.655 191.679 168.871 191.419 169.205C191.158 169.529 191.042 169.952 191.069 170.473L191.283 174.564L188.871 174.69L188.46 166.845L190.776 166.724L190.846 168.05C191.193 167.124 191.981 166.586 193.213 166.436L193.913 166.351L194.162 168.341ZM202.008 170.525L196.895 170.793C197.003 171.418 197.229 171.865 197.575 172.135C197.93 172.394 198.417 172.508 199.034 172.475C199.439 172.454 199.835 172.369 200.223 172.221C200.62 172.061 200.978 171.85 201.295 171.588L202.019 173.168C201.651 173.486 201.194 173.745 200.649 173.945C200.115 174.144 199.571 174.258 199.017 174.287C197.696 174.356 196.633 174.049 195.828 173.364C195.034 172.669 194.603 171.693 194.537 170.436C194.496 169.637 194.624 168.92 194.921 168.285C195.219 167.65 195.652 167.146 196.22 166.775C196.788 166.393 197.444 166.182 198.19 166.143C199.287 166.085 200.174 166.397 200.85 167.077C201.537 167.757 201.913 168.709 201.977 169.934L202.008 170.525ZM198.341 167.801C197.883 167.825 197.523 167.994 197.262 168.306C197.01 168.608 196.867 169.037 196.833 169.595L199.916 169.433C199.855 168.87 199.689 168.452 199.418 168.177C199.158 167.903 198.799 167.777 198.341 167.801ZM210.998 162.235L211.588 173.5L209.192 173.625L209.131 172.459C208.917 172.876 208.599 173.213 208.174 173.47C207.76 173.716 207.281 173.854 206.738 173.882C206.067 173.917 205.456 173.778 204.905 173.465C204.365 173.141 203.93 172.678 203.599 172.076C203.278 171.463 203.097 170.751 203.054 169.941C203.012 169.132 203.119 168.416 203.375 167.794C203.64 167.16 204.026 166.665 204.53 166.307C205.035 165.95 205.628 165.753 206.31 165.717C206.842 165.689 207.328 165.776 207.765 165.978C208.214 166.178 208.566 166.475 208.821 166.867L208.585 162.362L210.998 162.235ZM207.344 172.008C207.909 171.978 208.33 171.764 208.609 171.365C208.897 170.954 209.022 170.387 208.984 169.663C208.946 168.938 208.763 168.393 208.434 168.025C208.115 167.658 207.674 167.488 207.109 167.518C206.545 167.548 206.118 167.762 205.829 168.162C205.54 168.551 205.414 169.102 205.451 169.816C205.489 170.54 205.673 171.097 206.003 171.485C206.333 171.863 206.78 172.037 207.344 172.008ZM220.534 165.164L222.499 165.061L222.594 166.867L220.628 166.97L220.945 173.009L218.532 173.136L218.216 167.096L216.73 167.174L216.635 165.368L218.121 165.291C218.084 164.182 218.36 163.334 218.949 162.748C219.548 162.15 220.485 161.781 221.759 161.639L222.635 161.545L222.872 163.311L222.123 163.383C221.506 163.436 221.075 163.576 220.831 163.803C220.596 164.018 220.492 164.365 220.517 164.845L220.534 165.164ZM231.063 164.612L231.474 172.458L229.125 172.581L229.067 171.462C228.843 171.88 228.534 172.206 228.14 172.44C227.758 172.674 227.316 172.804 226.815 172.83C225.824 172.882 225.07 172.649 224.551 172.131C224.043 171.603 223.76 170.784 223.702 169.677L223.457 165.011L225.87 164.884L226.117 169.598C226.142 170.067 226.256 170.408 226.459 170.622C226.673 170.835 226.983 170.931 227.387 170.909C227.856 170.885 228.226 170.705 228.497 170.371C228.778 170.035 228.905 169.607 228.878 169.085L228.65 164.739L231.063 164.612ZM237.825 164.066C238.763 164.017 239.475 164.257 239.962 164.787C240.449 165.306 240.721 166.12 240.779 167.227L241.027 171.957L238.614 172.083L238.372 167.466C238.344 166.933 238.223 166.55 238.007 166.315C237.803 166.08 237.493 165.974 237.077 165.995C236.577 166.022 236.18 166.203 235.888 166.538C235.607 166.874 235.48 167.308 235.508 167.84L235.738 172.234L233.325 172.361L232.914 164.515L235.263 164.392L235.322 165.511C235.576 165.07 235.916 164.727 236.341 164.48C236.777 164.233 237.271 164.095 237.825 164.066ZM250.179 160.182L250.769 171.446L248.372 171.572L248.311 170.406C248.098 170.823 247.779 171.16 247.355 171.417C246.94 171.663 246.462 171.8 245.918 171.829C245.247 171.864 244.637 171.725 244.086 171.412C243.546 171.088 243.11 170.625 242.78 170.023C242.459 169.409 242.278 168.698 242.235 167.888C242.193 167.079 242.299 166.363 242.555 165.74C242.821 165.107 243.206 164.611 243.711 164.254C244.216 163.896 244.809 163.7 245.49 163.664C246.023 163.636 246.508 163.723 246.946 163.924C247.395 164.125 247.747 164.422 248.002 164.814L247.766 160.308L250.179 160.182ZM246.525 169.954C247.09 169.925 247.511 169.711 247.789 169.311C248.077 168.901 248.203 168.334 248.165 167.609C248.127 166.885 247.943 166.339 247.614 165.972C247.296 165.604 246.854 165.435 246.29 165.465C245.725 165.494 245.299 165.709 245.01 166.108C244.72 166.497 244.594 167.049 244.632 167.763C244.67 168.487 244.854 169.043 245.184 169.432C245.513 169.81 245.961 169.984 246.525 169.954Z" fill="white"/>
</g>
<defs>
<filter id="filter0_d_105_236" x="23.1663" y="479" width="299.667" height="299.601" filterUnits="userSpaceOnUse" color-interpolation-filters="sRGB">
<feFlood flood-opacity="0" result="BackgroundImageFix"/>
<feColorMatrix in="SourceAlpha" type="matrix" values="0 0 0 0 0 0 0 0 0 0 0 0 0 0 0 0 0 0 127 0" result="hardAlpha"/>
<feOffset/>
<feGaussianBlur stdDeviation="15"/>
<feComposite in2="hardAlpha" operator="out"/>
<feColorMatrix type="matrix" values="0 0 0 0 0 0 0 0 0 0 0 0 0 0 0 0 0 0 0.4 0"/>
<feBlend mode="normal" in2="BackgroundImageFix" result="effect1_dropShadow_105_236"/>
<feBlend mode="normal" in="SourceGraphic" in2="effect1_dropShadow_105_236" result="shape"/>
</filter>
<filter id="filter1_d_105_236" x="-2" y="195" width="211.036" height="236.01" filterUnits="userSpaceOnUse" color-interpolation-filters="sRGB">
<feFlood flood-opacity="0" result="BackgroundImageFix"/>
<feColorMatrix in="SourceAlpha" type="matrix" values="0 0 0 0 0 0 0 0 0 0 0 0 0 0 0 0 0 0 127 0" result="hardAlpha"/>
<feOffset/>
<feGaussianBlur stdDeviation="15"/>
<feComposite in2="hardAlpha" operator="out"/>
<feColorMatrix type="matrix" values="0 0 0 0 0 0 0 0 0 0 0 0 0 0 0 0 0 0 0.4 0"/>
<feBlend mode="normal" in2="BackgroundImageFix" result="effect1_dropShadow_105_236"/>
<feBlend mode="normal" in="SourceGraphic" in2="effect1_dropShadow_105_236" result="shape"/>
</filter>
<filter id="filter2_d_105_236" x="104" y="299" width="227.976" height="241.439" filterUnits="userSpaceOnUse" color-interpolation-filters="sRGB">
<feFlood flood-opacity="0" result="BackgroundImageFix"/>
<feColorMatrix in="SourceAlpha" type="matrix" values="0 0 0 0 0 0 0 0 0 0 0 0 0 0 0 0 0 0 127 0" result="hardAlpha"/>
<feOffset/>
<feGaussianBlur stdDeviation="15"/>
<feComposite in2="hardAlpha" operator="out"/>
<feColorMatrix type="matrix" values="0 0 0 0 0 0 0 0 0 0 0 0 0 0 0 0 0 0 0.4 0"/>
<feBlend mode="normal" in2="BackgroundImageFix" result="effect1_dropShadow_105_236"/>
<feBlend mode="normal" in="SourceGraphic" in2="effect1_dropShadow_105_236" result="shape"/>
</filter>
<filter id="filter3_d_105_236" x="71" y="1.00006" width="261.941" height="243.868" filterUnits="userSpaceOnUse" color-interpolation-filters="sRGB">
<feFlood flood-opacity="0" result="BackgroundImageFix"/>
<feColorMatrix in="SourceAlpha" type="matrix" values="0 0 0 0 0 0 0 0 0 0 0 0 0 0 0 0 0 0 127 0" result="hardAlpha"/>
<feOffset/>
<feGaussianBlur stdDeviation="15"/>
<feComposite in2="hardAlpha" operator="out"/>
<feColorMatrix type="matrix" values="0 0 0 0 0 0 0 0 0 0 0 0 0 0 0 0 0 0 0.4 0"/>
<feBlend mode="normal" in2="BackgroundImageFix" result="effect1_dropShadow_105_236"/>
<feBlend mode="normal" in="SourceGraphic" in2="effect1_dropShadow_105_236" result="shape"/>
</filter>
<linearGradient id="paint0_linear_105_236" x1="88.2776" y1="453.474" x2="85.2343" y2="541.964" gradientUnits="userSpaceOnUse">
<stop stop-color="#28EBCF" stop-opacity="0"/>
<stop offset="1" stop-color="#28EBCF"/>
</linearGradient>
<linearGradient id="paint1_linear_105_236" x1="215.726" y1="202.696" x2="168.373" y2="271.796" gradientUnits="userSpaceOnUse">
<stop stop-color="#28EBCF" stop-opacity="0"/>
<stop offset="1" stop-color="#28EBCF"/>
</linearGradient>
<clipPath id="clip0_105_236">
<rect width="40" height="40" fill="white" transform="translate(160.531 556.099) rotate(6)"/>
</clipPath>
<clipPath id="clip1_105_236">
<rect width="40" height="40" fill="white" transform="translate(78.5369 265.822) rotate(-5.89827)"/>
</clipPath>
<clipPath id="clip2_105_236">
<rect width="39.88" height="40" fill="white" transform="translate(204.875 367.967) rotate(7.78218)"/>
</clipPath>
<clipPath id="clip3_105_236">
<rect width="40" height="40" fill="white" transform="translate(179.434 75.0477) rotate(-3)"/>
</clipPath>
</defs>
</svg>
