<svg width="44" height="44" viewBox="0 0 44 44" fill="none" xmlns="http://www.w3.org/2000/svg">
<g clip-path="url(#clip0_150_11929)">
<path fill-rule="evenodd" clip-rule="evenodd" d="M6.27735 27H16.9227C17.6298 26.9906 18.3178 27.2313 18.8649 27.6799C19.4142 28.1304 19.7859 28.7613 19.9137 29.4602L21.1837 36.4599C21.1836 36.4598 21.1837 36.46 21.1837 36.4599C21.2636 36.8965 21.2456 37.3455 21.1312 37.7743C21.0166 38.2031 20.8084 38.6012 20.5214 38.9398C20.2344 39.2785 19.8759 39.5492 19.4716 39.7325C19.0701 39.9146 18.6334 40.0059 18.1926 40H5.00737C4.56657 40.0059 4.12989 39.9146 3.72839 39.7325C3.32414 39.5492 2.96559 39.2785 2.6786 38.9398C2.39162 38.6012 2.18337 38.2031 2.06885 37.7743C1.95443 37.3458 1.93642 36.8972 2.01618 36.4609C2.01612 36.4612 2.01624 36.4605 2.01618 36.4609L3.28632 29.4602C3.41411 28.7613 3.78576 28.1304 4.33516 27.6799C4.88223 27.2313 5.57016 26.9906 6.27735 27ZM6.25371 28.9999C6.0169 28.996 5.78642 29.0763 5.60331 29.2265C5.42034 29.3765 5.29649 29.5866 5.2538 29.8194C5.25377 29.8196 5.25383 29.8192 5.2538 29.8194L3.98364 36.8202C3.95699 36.9657 3.96297 37.1153 4.00115 37.2583C4.03932 37.4012 4.10873 37.5339 4.20439 37.6468C4.30004 37.7597 4.41955 37.8499 4.55432 37.911C4.6891 37.9721 4.83573 38.0026 4.98364 38.0002L5 38H18.2L18.2164 38.0002C18.3643 38.0026 18.5109 37.9721 18.6457 37.911C18.7805 37.8499 18.9 37.7597 18.9956 37.6468C19.0913 37.5339 19.1607 37.4012 19.1989 37.2583C19.237 37.1153 19.243 36.9657 19.2164 36.8202L17.9463 29.8199C17.9463 29.8197 17.9463 29.8201 17.9463 29.8199C17.9036 29.5872 17.7796 29.3765 17.5967 29.2265C17.4136 29.0763 17.1831 28.996 16.9463 28.9999L16.93 29H6.27002L6.25371 28.9999Z" fill="#28EBCF"/>
<path fill-rule="evenodd" clip-rule="evenodd" d="M16.2773 13H26.9227C27.6298 12.9906 28.3178 13.2313 28.8649 13.6799C29.4142 14.1304 29.7859 14.7613 29.9137 15.4602L31.1837 22.4599C31.1836 22.4598 31.1837 22.46 31.1837 22.4599C31.2636 22.8965 31.2456 23.3455 31.1312 23.7743C31.0166 24.2031 30.8084 24.6012 30.5214 24.9398C30.2344 25.2785 29.8759 25.5492 29.4716 25.7325C29.0701 25.9146 28.6334 26.0059 28.1926 26H15.0074C14.5666 26.0059 14.1299 25.9146 13.7284 25.7325C13.3241 25.5492 12.9656 25.2785 12.6786 24.9398C12.3916 24.6012 12.1834 24.2031 12.0689 23.7743C11.9544 23.3458 11.9364 22.8972 12.0162 22.4609C12.0161 22.4612 12.0162 22.4605 12.0162 22.4609L13.2863 15.4602C13.4141 14.7613 13.7858 14.1304 14.3352 13.6799C14.8822 13.2313 15.5702 12.9906 16.2773 13ZM16.2537 14.9999C16.0169 14.996 15.7864 15.0763 15.6033 15.2265C15.4203 15.3765 15.2965 15.5866 15.2538 15.8194C15.2538 15.8196 15.2538 15.8192 15.2538 15.8194L13.9836 22.8202C13.957 22.9657 13.963 23.1153 14.0011 23.2583C14.0393 23.4012 14.1087 23.5339 14.2044 23.6468C14.3 23.7597 14.4196 23.8499 14.5543 23.911C14.6891 23.9721 14.8357 24.0026 14.9836 24.0002L15 24H28.2L28.2164 24.0002C28.3643 24.0026 28.5109 23.9721 28.6457 23.911C28.7805 23.8499 28.9 23.7597 28.9956 23.6468C29.0913 23.5339 29.1607 23.4012 29.1989 23.2583C29.237 23.1153 29.243 22.9657 29.2164 22.8202L27.9463 15.8199C27.9463 15.8197 27.9463 15.8201 27.9463 15.8199C27.9036 15.5872 27.7796 15.3765 27.5967 15.2265C27.4136 15.0763 27.1831 14.996 26.9463 14.9999L26.93 15H16.27L16.2537 14.9999Z" fill="#28EBCF"/>
<path fill-rule="evenodd" clip-rule="evenodd" d="M26.2773 27H36.9227C37.6298 26.9906 38.3178 27.2313 38.8649 27.6799C39.4142 28.1304 39.7859 28.7613 39.9137 29.4602L41.1837 36.4599C41.1836 36.4598 41.1837 36.46 41.1837 36.4599C41.2636 36.8965 41.2456 37.3455 41.1312 37.7743C41.0166 38.2031 40.8084 38.6012 40.5214 38.9398C40.2344 39.2785 39.8759 39.5492 39.4716 39.7325C39.0701 39.9146 38.6334 40.0059 38.1926 40H25.0074C24.5666 40.0059 24.1299 39.9146 23.7284 39.7325C23.3241 39.5492 22.9656 39.2785 22.6786 38.9398C22.3916 38.6012 22.1834 38.2031 22.0689 37.7743C21.9544 37.3458 21.9364 36.8972 22.0162 36.4609C22.0161 36.4612 22.0162 36.4605 22.0162 36.4609L23.2863 29.4602C23.4141 28.7613 23.7858 28.1304 24.3352 27.6799C24.8822 27.2313 25.5702 26.9906 26.2773 27ZM26.2537 28.9999C26.0169 28.996 25.7864 29.0763 25.6033 29.2265C25.4203 29.3765 25.2965 29.5866 25.2538 29.8194C25.2538 29.8196 25.2538 29.8192 25.2538 29.8194L23.9836 36.8202C23.957 36.9657 23.963 37.1153 24.0011 37.2583C24.0393 37.4012 24.1087 37.5339 24.2044 37.6468C24.3 37.7597 24.4196 37.8499 24.5543 37.911C24.6891 37.9721 24.8357 38.0026 24.9836 38.0002L25 38H38.2L38.2164 38.0002C38.3643 38.0026 38.5109 37.9721 38.6457 37.911C38.7805 37.8499 38.9 37.7597 38.9956 37.6468C39.0913 37.5339 39.1607 37.4012 39.1989 37.2583C39.237 37.1153 39.243 36.9657 39.2164 36.8202L37.9463 29.8199C37.9463 29.8197 37.9463 29.8201 37.9463 29.8199C37.9036 29.5872 37.7796 29.3765 37.5967 29.2265C37.4136 29.0763 37.1831 28.996 36.9463 28.9999L36.93 29H26.27L26.2537 28.9999Z" fill="#28EBCF"/>
<path fill-rule="evenodd" clip-rule="evenodd" d="M38.6 13C39.1523 13 39.6 13.4477 39.6 14V16C39.6 16.5523 39.1523 17 38.6 17C38.0477 17 37.6 16.5523 37.6 16V14C37.6 13.4477 38.0477 13 38.6 13Z" fill="#28EBCF"/>
<path fill-rule="evenodd" clip-rule="evenodd" d="M36.6 15C36.6 14.4477 37.0477 14 37.6 14H39.6C40.1523 14 40.6 14.4477 40.6 15C40.6 15.5523 40.1523 16 39.6 16H37.6C37.0477 16 36.6 15.5523 36.6 15Z" fill="#28EBCF"/>
<path fill-rule="evenodd" clip-rule="evenodd" d="M10.6 9C11.1523 9 11.6 9.44772 11.6 10V12C11.6 12.5523 11.1523 13 10.6 13C10.0477 13 9.59998 12.5523 9.59998 12V10C9.59998 9.44772 10.0477 9 10.6 9Z" fill="#28EBCF"/>
<path fill-rule="evenodd" clip-rule="evenodd" d="M8.59998 11C8.59998 10.4477 9.04769 10 9.59998 10H11.6C12.1523 10 12.6 10.4477 12.6 11C12.6 11.5523 12.1523 12 11.6 12H9.59998C9.04769 12 8.59998 11.5523 8.59998 11Z" fill="#28EBCF"/>
<path fill-rule="evenodd" clip-rule="evenodd" d="M32.6 4C32.9787 4 33.325 4.214 33.4944 4.55279L34.3453 6.25464L36.0472 7.10557C36.386 7.27497 36.6 7.62123 36.6 8C36.6 8.37877 36.386 8.72504 36.0472 8.89443L34.3453 9.74536L33.4944 11.4472C33.325 11.786 32.9787 12 32.6 12C32.2212 12 31.8749 11.786 31.7055 11.4472L30.8546 9.74536L29.1528 8.89443C28.814 8.72504 28.6 8.37877 28.6 8C28.6 7.62123 28.814 7.27496 29.1528 7.10557L30.8546 6.25464L31.7055 4.55279C31.8749 4.214 32.2212 4 32.6 4ZM32.6 7.23607L32.4944 7.44721C32.3976 7.64074 32.2407 7.79766 32.0472 7.89443L31.836 8L32.0472 8.10557C32.2407 8.20234 32.3976 8.35926 32.4944 8.55279L32.6 8.76393L32.7055 8.55279C32.8023 8.35926 32.9592 8.20234 33.1528 8.10557L33.3639 8L33.1528 7.89443C32.9592 7.79766 32.8023 7.64074 32.7055 7.44721L32.6 7.23607Z" fill="#28EBCF"/>
<path fill-rule="evenodd" clip-rule="evenodd" d="M23.6 17C23.6 16.4477 24.0477 16 24.6 16C25.3956 16 26.1587 16.3161 26.7213 16.8787C27.2839 17.4413 27.6 18.2044 27.6 19C27.6 19.5523 27.1523 20 26.6 20C26.0477 20 25.6 19.5523 25.6 19C25.6 18.7348 25.4946 18.4804 25.3071 18.2929C25.1195 18.1054 24.8652 18 24.6 18C24.0477 18 23.6 17.5523 23.6 17Z" fill="#28EBCF"/>
<path fill-rule="evenodd" clip-rule="evenodd" d="M33.6 31C33.6 30.4477 34.0477 30 34.6 30C35.3956 30 36.1587 30.3161 36.7213 30.8787C37.2839 31.4413 37.6 32.2044 37.6 33C37.6 33.5523 37.1523 34 36.6 34C36.0477 34 35.6 33.5523 35.6 33C35.6 32.7348 35.4946 32.4804 35.3071 32.2929C35.1195 32.1054 34.8652 32 34.6 32C34.0477 32 33.6 31.5523 33.6 31Z" fill="#28EBCF"/>
<path fill-rule="evenodd" clip-rule="evenodd" d="M13.6 31C13.6 30.4477 14.0477 30 14.6 30C15.3956 30 16.1587 30.3161 16.7213 30.8787C17.2839 31.4413 17.6 32.2044 17.6 33C17.6 33.5523 17.1523 34 16.6 34C16.0477 34 15.6 33.5523 15.6 33C15.6 32.7348 15.4946 32.4804 15.3071 32.2929C15.1195 32.1054 14.8652 32 14.6 32C14.0477 32 13.6 31.5523 13.6 31Z" fill="#28EBCF"/>
</g>
<defs>
<clipPath id="clip0_150_11929">
<rect width="39.21" height="36" fill="white" transform="translate(2 4)"/>
</clipPath>
</defs>
</svg>
