<svg width="44" height="44" viewBox="0 0 44 44" fill="none" xmlns="http://www.w3.org/2000/svg">
<g clip-path="url(#clip0_150_11938)">
<path fill-rule="evenodd" clip-rule="evenodd" d="M2 16C2 15.4477 2.44772 15 3 15H40.99C41.5423 15 41.99 15.4477 41.99 16C41.99 16.5523 41.5423 17 40.99 17H3C2.44772 17 2 16.5523 2 16Z" fill="#28EBCF"/>
<path fill-rule="evenodd" clip-rule="evenodd" d="M32 35C32 34.4477 32.4477 34 33 34H38C38.5523 34 39 34.4477 39 35C39 35.5523 38.5523 36 38 36H33C32.4477 36 32 35.5523 32 35Z" fill="#28EBCF"/>
<path fill-rule="evenodd" clip-rule="evenodd" d="M16 35C16 34.4477 16.4477 34 17 34H27C27.5523 34 28 34.4477 28 35C28 35.5523 27.5523 36 27 36H17C16.4477 36 16 35.5523 16 35Z" fill="#28EBCF"/>
<path fill-rule="evenodd" clip-rule="evenodd" d="M3 35C3 34.4477 3.44772 34 4 34H11C11.5523 34 12 34.4477 12 35C12 35.5523 11.5523 36 11 36H4C3.44772 36 3 35.5523 3 35Z" fill="#28EBCF"/>
<path fill-rule="evenodd" clip-rule="evenodd" d="M3.33494 15.0001C4.05626 14.9935 4.75585 15.2469 5.30555 15.7142C5.85673 16.1827 6.22014 16.8346 6.32868 17.5499C6.32867 17.5498 6.3287 17.55 6.32868 17.5499L8.69868 33.1499C8.73484 33.3884 8.856 33.606 9.03974 33.7622C9.2235 33.9184 9.45755 34.0029 9.69872 34.0002L9.71002 34.0001L10 34.0001C10.5523 34.0001 11 34.4478 11 35.0001C11 35.5524 10.5523 36.0001 10 36.0001H9.71521C8.99388 36.0068 8.29419 35.7534 7.74444 35.2861C7.19319 34.8175 6.8299 34.1656 6.72137 33.4503C6.72135 33.4502 6.72138 33.4504 6.72137 33.4503L4.35137 17.8503C4.31522 17.6119 4.19405 17.3943 4.01025 17.2381C3.82647 17.0819 3.59247 16.9973 3.35133 17.0001L3.34003 17.0002L3 17.0001C2.44772 17.0001 2 16.5524 2 16.0001C2 15.4478 2.44772 15.0001 3 15.0001H3.33494Z" fill="#28EBCF"/>
<path fill-rule="evenodd" clip-rule="evenodd" d="M40.6287 17.0001C40.3875 16.9973 40.1535 17.0819 39.9697 17.2381C39.786 17.3942 39.6649 17.6116 39.6287 17.8501L37.2587 33.4501C37.2587 33.4502 37.2587 33.45 37.2587 33.4501C37.1502 34.1654 36.7867 34.8176 36.2355 35.2861C35.6858 35.7533 34.9862 36.0068 34.2648 36.0001H33C32.4477 36.0001 32 35.5524 32 35.0001C32 34.4478 32.4477 34.0001 33 34.0001H34.2813C34.5225 34.0029 34.7565 33.9184 34.9402 33.7622C35.124 33.606 35.2452 33.3886 35.2813 33.1502L37.6513 17.5502C37.6513 17.5503 37.6513 17.5501 37.6513 17.5502C37.7598 16.835 38.1232 16.1827 38.6744 15.7142C39.2242 15.2469 39.9238 14.9935 40.6451 15.0001H41C41.5523 15.0001 42 15.4478 42 16.0001C42 16.5524 41.5523 17.0001 41 17.0001L40.6287 17.0001Z" fill="#28EBCF"/>
<path fill-rule="evenodd" clip-rule="evenodd" d="M30 34C28.8954 34 28 34.8954 28 36C28 37.1046 28.8954 38 30 38C31.1046 38 32 37.1046 32 36C32 34.8954 31.1046 34 30 34ZM26 36C26 33.7909 27.7909 32 30 32C32.2091 32 34 33.7909 34 36C34 38.2091 32.2091 40 30 40C27.7909 40 26 38.2091 26 36Z" fill="#28EBCF"/>
<path fill-rule="evenodd" clip-rule="evenodd" d="M14 34C12.8954 34 12 34.8954 12 36C12 37.1046 12.8954 38 14 38C15.1046 38 16 37.1046 16 36C16 34.8954 15.1046 34 14 34ZM10 36C10 33.7909 11.7909 32 14 32C16.2091 32 18 33.7909 18 36C18 38.2091 16.2091 40 14 40C11.7909 40 10 38.2091 10 36Z" fill="#28EBCF"/>
<path fill-rule="evenodd" clip-rule="evenodd" d="M4 32C4.55228 32 5 32.4477 5 33V37C5 37.5523 4.55228 38 4 38C3.44772 38 3 37.5523 3 37V33C3 32.4477 3.44772 32 4 32Z" fill="#28EBCF"/>
<path fill-rule="evenodd" clip-rule="evenodd" d="M27.0681 8L27.07 8L31.726 8C32.2495 8.00316 32.7632 8.14328 33.2158 8.40644C33.6665 8.6685 34.0411 9.04347 34.3027 9.49431L37.86 15.4897C38.1418 15.9647 37.9852 16.5782 37.5103 16.86C37.0353 17.1418 36.4218 16.9852 36.14 16.5103L32.5739 10.5C32.4866 10.3489 32.3614 10.2232 32.2106 10.1355C32.0604 10.0482 31.8901 10.0015 31.7164 10H27.0711C26.9071 10.0004 26.7457 10.0412 26.6012 10.1187C26.4564 10.1963 26.333 10.3084 26.2418 10.445L24.8314 12.5556C24.5246 13.0148 23.9036 13.1383 23.4444 12.8315C22.9852 12.5246 22.8617 11.9036 23.1685 11.4444L24.5781 9.335C24.8516 8.92535 25.2221 8.58874 25.6561 8.35603C26.0904 8.12319 26.5754 8.00092 27.0681 8Z" fill="#28EBCF"/>
<path fill-rule="evenodd" clip-rule="evenodd" d="M20.1866 5.00001C20.0246 4.99946 19.8648 5.03832 19.7211 5.11323C19.5777 5.18794 19.4547 5.29625 19.3624 5.42883C19.3621 5.42922 19.3619 5.42962 19.3616 5.43001L15.8235 10.5672C15.5103 11.0221 14.8876 11.1368 14.4328 10.8236C13.9779 10.5103 13.8631 9.88765 14.1764 9.43281L17.7183 4.29001C17.9955 3.89049 18.3656 3.56437 18.7967 3.33968C19.2273 3.11525 19.7059 2.99869 20.1915 3.00001C20.1921 3.00001 20.1927 3.00001 20.1933 3.00002L20.19 4.00001V3.00001H20.1915H23.881C24.402 3.00577 24.9125 3.14719 25.3623 3.4102C25.8087 3.67129 26.1801 4.04335 26.4404 4.49027L26.4356 4.48238L25.58 5.00001L26.446 4.50007C26.4442 4.4968 26.4423 4.49353 26.4404 4.49027L28.8556 8.48238C29.1415 8.95491 28.9901 9.56973 28.5176 9.85561C28.0451 10.1415 27.4303 9.99018 27.1444 9.51765L24.7244 5.51765L24.7139 5.49995C24.6271 5.34959 24.5026 5.22436 24.3526 5.13666C24.204 5.04975 24.0355 5.0027 23.8635 5.00001H23.87V4.00001L23.8589 4.99995C23.8604 4.99997 23.862 4.99999 23.8635 5.00001L20.1866 5.00001Z" fill="#28EBCF"/>
<path fill-rule="evenodd" clip-rule="evenodd" d="M12.0681 9L12.07 9L18 9C18.5523 9 19 9.44772 19 10C19 10.5523 18.5523 11 18 11H12.0711C11.9071 11.0004 11.7457 11.0412 11.6012 11.1187C11.4564 11.1963 11.333 11.3084 11.2418 11.445L7.83179 16.5551C7.52523 17.0145 6.9043 17.1384 6.44491 16.8318C5.98552 16.5252 5.86162 15.9043 6.16818 15.4449L9.57811 10.335C9.57809 10.335 9.57812 10.335 9.57811 10.335C9.8516 9.92511 10.2219 9.58884 10.6561 9.35603C11.0904 9.12319 11.5754 9.00092 12.0681 9Z" fill="#28EBCF"/>
</g>
<defs>
<clipPath id="clip0_150_11938">
<rect width="40" height="37" fill="white" transform="translate(2 3)"/>
</clipPath>
</defs>
</svg>
