<svg width="44" height="44" viewBox="0 0 44 44" fill="none" xmlns="http://www.w3.org/2000/svg">
<path fill-rule="evenodd" clip-rule="evenodd" d="M4 39C4 38.4477 4.44772 38 5 38L39 38C39.5523 38 40 38.4477 40 39C40 39.5523 39.5523 40 39 40L5 40C4.44772 40 4 39.5523 4 39Z" fill="#28EBCF"/>
<path fill-rule="evenodd" clip-rule="evenodd" d="M37.4856 21.1258C37.9684 21.394 38.1424 22.0028 37.8741 22.4856L32.9682 31.3162L31.9923 39.124C31.9238 39.672 31.424 40.0607 30.8759 39.9922C30.3279 39.9237 29.9392 39.4239 30.0077 38.8759L31.0077 30.8759C31.0236 30.7489 31.0637 30.6262 31.1258 30.5143L36.1258 21.5143C36.394 21.0315 37.0028 20.8576 37.4856 21.1258Z" fill="#28EBCF"/>
<path fill-rule="evenodd" clip-rule="evenodd" d="M9.88685 17.0064C10.1896 16.9719 10.4916 17.0774 10.7071 17.2929L17.7071 24.2929C17.9034 24.4892 18.0093 24.7583 17.9994 25.0357L17.4994 39.0357C17.4797 39.5876 17.0162 40.0191 16.4643 39.9994C15.9124 39.9797 15.4809 39.5162 15.5006 38.9643L15.9851 25.3993L10.1818 19.596L6.04485 26.215L7.98837 38.8479C8.07235 39.3938 7.69792 39.9044 7.15206 39.9884C6.6062 40.0724 6.09561 39.6979 6.01163 39.1521L4.01163 26.1521C3.9752 25.9152 4.02501 25.6732 4.152 25.47L9.152 17.47C9.31352 17.2116 9.58406 17.0409 9.88685 17.0064Z" fill="#28EBCF"/>
<path fill-rule="evenodd" clip-rule="evenodd" d="M25.1716 4.01483C25.4719 4.06713 25.7319 4.25355 25.8779 4.52116L31.8779 15.5212C31.9945 15.735 32.0291 15.9841 31.9751 16.2216L29.4751 27.2216C29.3527 27.7602 28.8169 28.0975 28.2784 27.9751C27.7398 27.8527 27.4025 27.3169 27.5249 26.7784L29.9411 16.147L24.7244 6.58298L17 13.4491V24C17 24.5523 16.5523 25 16 25C15.4477 25 15 24.5523 15 24L15 13C15 12.7144 15.1221 12.4424 15.3356 12.2526L24.3356 4.2526C24.5635 4.05008 24.8712 3.96254 25.1716 4.01483Z" fill="#28EBCF"/>
<path fill-rule="evenodd" clip-rule="evenodd" d="M37.3826 21.0761C37.6753 21.1974 37.8932 21.4501 37.9701 21.7575L39.9701 29.7575C40.0088 29.9121 40.0099 30.0738 39.9734 30.229L37.9734 38.729C37.8469 39.2666 37.3085 39.5999 36.7709 39.4734C36.2333 39.3469 35.9 38.8086 36.0265 38.271L37.971 30.0071L36.3571 23.5519L27.9499 28.5962L26.9958 39.0905C26.9458 39.6406 26.4594 40.0459 25.9094 39.9959C25.3594 39.9459 24.954 39.4595 25.004 38.9095L26.004 27.9095C26.0329 27.5916 26.2118 27.3067 26.4854 27.1425L36.4854 21.1425C36.7571 20.9795 37.0899 20.9549 37.3826 21.0761Z" fill="#28EBCF"/>
<path fill-rule="evenodd" clip-rule="evenodd" d="M26.1425 27.4854C26.4267 27.0118 27.0409 26.8583 27.5145 27.1424L32.2101 29.9597L38.8586 29.01C39.4053 28.9319 39.9119 29.3118 39.99 29.8585C40.0681 30.4052 39.6882 30.9118 39.1414 30.9899L32.1415 31.9899C31.9141 32.0223 31.6825 31.9756 31.4855 31.8574L26.4855 28.8574C26.012 28.5733 25.8584 27.959 26.1425 27.4854Z" fill="#28EBCF"/>
<path fill-rule="evenodd" clip-rule="evenodd" d="M10 18C10.5523 18 11 18.4477 11 19L11 26.9172L12.9864 38.8356C13.0772 39.3804 12.7092 39.8956 12.1644 39.9864C11.6196 40.0772 11.1044 39.7092 11.0136 39.1644L9.01361 27.1644C9.00455 27.1101 9 27.0551 9 27L9 19C9 18.4477 9.44772 18 10 18Z" fill="#28EBCF"/>
<path fill-rule="evenodd" clip-rule="evenodd" d="M25.2631 5.03524C25.796 5.18056 26.1101 5.7303 25.9648 6.26312L22.994 17.1562L21.999 39.0454C21.9739 39.5971 21.5063 40.0241 20.9546 39.999C20.4029 39.9739 19.976 39.5063 20.0011 38.9546L21.0011 16.9546C21.0044 16.881 21.0159 16.808 21.0353 16.7369L24.0353 5.73689C24.1806 5.20406 24.7303 4.88993 25.2631 5.03524Z" fill="#28EBCF"/>
<path fill-rule="evenodd" clip-rule="evenodd" d="M15.1679 12.4454C15.4743 11.9859 16.0952 11.8617 16.5547 12.1681L22.2516 15.966L30.8896 15.0062C31.4385 14.9452 31.9329 15.3408 31.9939 15.8897C32.0549 16.4386 31.6593 16.933 31.1104 16.994L22.1104 17.994C21.8766 18.02 21.6411 17.9627 21.4453 17.8322L15.4453 13.8322C14.9858 13.5258 14.8616 12.9049 15.1679 12.4454Z" fill="#28EBCF"/>
<path fill-rule="evenodd" clip-rule="evenodd" d="M17.9615 24.7253C18.1132 25.2563 17.8057 25.8098 17.2747 25.9615L10.2747 27.9615C10.1215 28.0053 9.96006 28.0118 9.80383 27.9806L4.80383 26.9806C4.26227 26.8723 3.91106 26.3455 4.01937 25.8039C4.12768 25.2623 4.65451 24.9111 5.19606 25.0194L9.95834 25.9719L16.7252 24.0385C17.2563 23.8868 17.8097 24.1943 17.9615 24.7253Z" fill="#28EBCF"/>
</svg>
