<svg width="44" height="44" viewBox="0 0 44 44" fill="none" xmlns="http://www.w3.org/2000/svg">
<g clip-path="url(#clip0_150_11932)">
<path fill-rule="evenodd" clip-rule="evenodd" d="M22 13C22.5523 13 23 13.4477 23 14V41C23 41.5523 22.5523 42 22 42C21.4477 42 21 41.5523 21 41V14C21 13.4477 21.4477 13 22 13Z" fill="#28EBCF"/>
<path fill-rule="evenodd" clip-rule="evenodd" d="M28 14C26.6739 14 25.4021 14.5268 24.4645 15.4645C23.7304 16.1985 23.2481 17.1374 23.0733 18.1467C23.3699 18.0504 23.6824 18 24 18H25C26.3261 18 27.5979 17.4732 28.5355 16.5355C29.2339 15.8372 29.7044 14.9534 29.899 14H28ZM23 21C23 20.7348 23.1054 20.4804 23.2929 20.2929C23.4804 20.1054 23.7348 20 24 20H25C26.8565 20 28.637 19.2625 29.9498 17.9498C31.2625 16.637 32 14.8565 32 13C32 12.4477 31.5523 12 31 12H28C26.1435 12 24.363 12.7375 23.0502 14.0502C21.7375 15.363 21 17.1435 21 19V23C21 23.5523 21.4477 24 22 24C22.5523 24 23 23.5523 23 23V21Z" fill="#28EBCF"/>
<path fill-rule="evenodd" clip-rule="evenodd" d="M28 22C26.6739 22 25.4021 22.5268 24.4645 23.4645C23.7304 24.1985 23.2481 25.1374 23.0733 26.1467C23.3699 26.0504 23.6824 26 24 26H25C26.3261 26 27.5979 25.4732 28.5355 24.5355C29.2339 23.8372 29.7044 22.9534 29.899 22H28ZM23 29C23 28.7348 23.1054 28.4804 23.2929 28.2929C23.4804 28.1054 23.7348 28 24 28H25C26.8565 28 28.637 27.2625 29.9498 25.9498C31.2625 24.637 32 22.8565 32 21C32 20.4477 31.5523 20 31 20H28C26.1435 20 24.363 20.7375 23.0502 22.0502C21.7375 23.363 21 25.1435 21 27V31C21 31.5523 21.4477 32 22 32C22.5523 32 23 31.5523 23 31V29Z" fill="#28EBCF"/>
<path fill-rule="evenodd" clip-rule="evenodd" d="M28 30C26.6739 30 25.4021 30.5268 24.4645 31.4645C23.7304 32.1985 23.2481 33.1374 23.0733 34.1467C23.3699 34.0504 23.6824 34 24 34H25C26.3261 34 27.5979 33.4732 28.5355 32.5355C29.2339 31.8372 29.7044 30.9534 29.899 30H28ZM23 37C23 36.7348 23.1054 36.4804 23.2929 36.2929C23.4804 36.1054 23.7348 36 24 36H25C26.8565 36 28.637 35.2625 29.9498 33.9498C31.2625 32.637 32 30.8565 32 29C32 28.4477 31.5523 28 31 28H28C26.1435 28 24.363 28.7375 23.0502 30.0502C21.7375 31.363 21 33.1435 21 35V39C21 39.5523 21.4477 40 22 40C22.5523 40 23 39.5523 23 39V37Z" fill="#28EBCF"/>
<path fill-rule="evenodd" clip-rule="evenodd" d="M12 13C12 12.4477 12.4477 12 13 12H16C17.8565 12 19.637 12.7375 20.9498 14.0502C22.2625 15.363 23 17.1435 23 19V23C23 23.5523 22.5523 24 22 24C21.4477 24 21 23.5523 21 23V21C21 20.7348 20.8946 20.4804 20.7071 20.2929C20.5196 20.1054 20.2652 20 20 20H19C17.1435 20 15.363 19.2625 14.0502 17.9498C12.7375 16.637 12 14.8565 12 13ZM20.9267 18.1467C20.7519 17.1374 20.2696 16.1985 19.5355 15.4645C18.5979 14.5268 17.3261 14 16 14H14.101C14.2956 14.9534 14.7661 15.8372 15.4645 16.5355C16.4021 17.4732 17.6739 18 19 18H20C20.3176 18 20.6301 18.0504 20.9267 18.1467Z" fill="#28EBCF"/>
<path fill-rule="evenodd" clip-rule="evenodd" d="M12 21C12 20.4477 12.4477 20 13 20H16C17.8565 20 19.637 20.7375 20.9498 22.0502C22.2625 23.363 23 25.1435 23 27V31C23 31.5523 22.5523 32 22 32C21.4477 32 21 31.5523 21 31V29C21 28.7348 20.8946 28.4804 20.7071 28.2929C20.5196 28.1054 20.2652 28 20 28H19C17.1435 28 15.363 27.2625 14.0502 25.9498C12.7375 24.637 12 22.8565 12 21ZM20.9267 26.1467C20.7519 25.1374 20.2696 24.1985 19.5355 23.4645C18.5979 22.5268 17.3261 22 16 22H14.101C14.2956 22.9534 14.7661 23.8372 15.4645 24.5355C16.4021 25.4732 17.6739 26 19 26H20C20.3176 26 20.6301 26.0504 20.9267 26.1467Z" fill="#28EBCF"/>
<path fill-rule="evenodd" clip-rule="evenodd" d="M12 29C12 28.4477 12.4477 28 13 28H16C17.8565 28 19.637 28.7375 20.9498 30.0502C22.2625 31.363 23 33.1435 23 35V39C23 39.5523 22.5523 40 22 40C21.4477 40 21 39.5523 21 39V37C21 36.7348 20.8946 36.4804 20.7071 36.2929C20.5196 36.1054 20.2652 36 20 36H19C17.1435 36 15.363 35.2625 14.0502 33.9498C12.7375 32.637 12 30.8565 12 29ZM20.9267 34.1467C20.7519 33.1374 20.2696 32.1985 19.5355 31.4645C18.5979 30.5268 17.3261 30 16 30H14.101C14.2956 30.9534 14.7661 31.8372 15.4645 32.5355C16.4021 33.4732 17.6739 34 19 34H20C20.3176 34 20.6301 34.0504 20.9267 34.1467Z" fill="#28EBCF"/>
<path fill-rule="evenodd" clip-rule="evenodd" d="M21.2929 2.29289C21.6834 1.90237 22.3166 1.90237 22.7071 2.29289L23.8762 3.46207C23.8762 3.46198 23.8763 3.46215 23.8762 3.46207C24.473 4.05743 24.9466 4.76488 25.2697 5.54346C25.5928 6.32215 25.7591 7.15693 25.7591 8C25.7591 8.84307 25.5928 9.67785 25.2697 10.4565C24.9467 11.235 24.4733 11.9421 23.8767 12.5375C23.5986 12.8161 23.378 13.1468 23.2276 13.5107C23.0777 13.8732 23.0004 14.2616 23 14.6538C23 14.6561 23 14.6585 23 14.6608L22 14.66L21 14.6608C21 14.6592 21 14.6577 21 14.6562C20.9999 14.2631 20.9225 13.8739 20.7724 13.5107C20.6219 13.1467 20.4013 12.816 20.1231 12.5373C19.5265 11.942 19.0532 11.235 18.7302 10.4565C18.4072 9.67785 18.2408 8.84307 18.2408 8C18.2408 7.15693 18.4072 6.32215 18.7302 5.54346C19.0533 4.76495 19.5266 4.05782 20.1233 3.46249C20.1231 3.46264 20.1234 3.46235 20.1233 3.46249L21.2929 2.29289ZM22 11.6569C22.1411 11.4687 22.2956 11.2904 22.4625 11.1233L23.1701 11.8301L22.4637 11.122C22.8743 10.7124 23.2001 10.2258 23.4224 9.69007C23.6447 9.15433 23.7591 8.58001 23.7591 8C23.7591 7.41999 23.6447 6.84567 23.4224 6.30993C23.2001 5.77421 22.8743 5.28761 22.4637 4.87796L22 4.41421L21.5362 4.87796C21.1256 5.28761 20.7998 5.77421 20.5776 6.30993C20.3553 6.84567 20.2408 7.41999 20.2408 8C20.2408 8.58001 20.3553 9.15433 20.5776 9.69007C20.7998 10.2258 21.1256 10.7124 21.5362 11.122L21.5375 11.1233C21.7044 11.2904 21.8589 11.4687 22 11.6569Z" fill="#28EBCF"/>
</g>
<defs>
<clipPath id="clip0_150_11932">
<rect width="20" height="40" fill="white" transform="translate(12 2)"/>
</clipPath>
</defs>
</svg>
