<svg width="320" height="360" viewBox="0 0 320 360" fill="none" xmlns="http://www.w3.org/2000/svg">
<g clip-path="url(#clip0_26_914)">
<rect width="320" height="360" rx="30" fill="#25282A"/>
<g filter="url(#filter0_f_26_914)">
<ellipse cx="272.418" cy="166.561" rx="97.995" ry="98.5615" fill="#25282A"/>
</g>
<g filter="url(#filter1_f_26_914)">
<path d="M275.516 491.589L359.81 117H115L201.685 491.589H275.516Z" fill="url(#paint0_linear_26_914)"/>
</g>
<g clip-path="url(#clip1_26_914)">
<path d="M289.161 122.174L289.876 121.525L289.034 120.897L289.161 122.174Z" fill="#1A9A87"/>
<path d="M284.673 115.593L283.699 116.137L284.471 116.555L285.001 115.974L284.673 115.593Z" fill="#23D1B8"/>
<path d="M283.899 118.512L282.926 119.057L283.699 119.474L284.229 118.894L283.899 118.512Z" fill="#1FB59F"/>
<path d="M286.711 116.273L287.141 116.608C288.614 117.754 289.808 119.746 289.808 121.058V121.39L288.361 120.314V119.965C288.361 119.275 287.744 118.246 286.985 117.666L286.851 117.564C286.165 117.04 285.607 117.139 285.607 117.783C285.607 118.196 285.84 118.75 286.219 119.237L289.311 123.15C290.091 124.116 290.566 125.196 290.555 125.987C290.531 127.672 288.445 127.361 286.772 125.381L285.364 123.674L286.008 122.99L287.396 124.7C288.192 125.672 289.199 125.821 289.179 124.976C289.17 124.6 288.948 124.106 288.592 123.67L285.436 119.725C284.656 118.731 284.176 117.584 284.176 116.721C284.176 115.383 285.31 115.182 286.711 116.271V116.273Z" fill="url(#paint1_linear_26_914)"/>
<path d="M286.889 128.094L287.024 128.179C287.71 128.612 288.267 128.459 288.267 127.836C288.267 127.436 288.035 126.914 287.656 126.461L284.563 122.688C283.783 121.715 283.308 120.577 283.32 119.71C283.343 117.866 285.429 118.26 287.104 120.384L288.537 122.172L287.877 122.791L286.503 121.08C285.716 120.068 284.708 119.86 284.708 120.739C284.708 121.14 284.932 121.665 285.297 122.12L288.438 125.953C289.219 126.885 289.698 127.948 289.698 128.754C289.698 130.002 288.564 130.314 287.163 129.449L286.733 129.184C285.26 128.275 284.066 126.395 284.066 124.986V124.629L285.513 125.573V125.934C285.513 126.649 286.13 127.617 286.889 128.098V128.094Z" fill="url(#paint2_linear_26_914)"/>
<path d="M286.711 116.273L287.141 116.608C288.614 117.754 289.808 119.746 289.808 121.058V121.39L288.361 120.314V119.965C288.361 119.275 287.744 118.246 286.985 117.666L286.851 117.564C286.165 117.04 285.607 117.139 285.607 117.783C285.607 118.196 285.84 118.75 286.219 119.237L289.311 123.15C290.091 124.116 290.566 125.196 290.555 125.987C290.531 127.672 288.445 127.361 286.772 125.381L285.364 123.674L286.008 122.99L287.396 124.7C288.192 125.672 289.199 125.821 289.179 124.976C289.17 124.6 288.948 124.106 288.592 123.67L285.436 119.725C284.656 118.731 284.176 117.584 284.176 116.721C284.176 115.383 285.31 115.182 286.711 116.271V116.273Z" stroke="url(#paint3_linear_26_914)" stroke-width="0.144354" stroke-miterlimit="10"/>
<path d="M286.889 128.094L287.024 128.179C287.71 128.612 288.267 128.459 288.267 127.836C288.267 127.436 288.035 126.914 287.656 126.461L284.563 122.688C283.783 121.715 283.308 120.577 283.32 119.71C283.343 117.866 285.429 118.26 287.104 120.384L288.537 122.172L287.877 122.791L286.503 121.08C285.716 120.068 284.708 119.86 284.708 120.739C284.708 121.14 284.932 121.665 285.297 122.12L288.438 125.953C289.219 126.885 289.698 127.948 289.698 128.754C289.698 130.002 288.564 130.314 287.163 129.449L286.733 129.184C285.26 128.275 284.066 126.395 284.066 124.986V124.629L285.513 125.573V125.934C285.513 126.649 286.13 127.617 286.889 128.098V128.094Z" stroke="url(#paint4_linear_26_914)" stroke-width="0.144354" stroke-miterlimit="10"/>
<path d="M283.142 124.882L283.999 124.499L285.64 125.572L284.868 126.007L283.142 124.882Z" fill="url(#paint5_linear_26_914)"/>
<path d="M285.926 116.784L286.356 117.118C287.829 118.264 289.023 120.256 289.023 121.568V121.9L287.576 120.824V120.476C287.576 119.786 286.959 118.757 286.2 118.176L286.066 118.075C285.38 117.551 284.822 117.649 284.822 118.293C284.822 118.706 285.055 119.26 285.433 119.747L288.526 123.66C289.306 124.626 289.781 125.706 289.77 126.498C289.746 128.183 287.66 127.871 285.987 125.891L284.579 124.184L285.223 123.5L286.611 125.211C287.407 126.182 288.414 126.332 288.393 125.487C288.385 125.111 288.162 124.617 287.807 124.18L284.651 120.236C283.871 119.241 283.391 118.094 283.391 117.231C283.391 115.893 284.525 115.693 285.926 116.781V116.784Z" fill="#28EBCF" stroke="#28EBCF" stroke-width="0.288707"/>
<path d="M286.104 128.604L286.238 128.689C286.924 129.123 287.481 128.969 287.481 128.346C287.481 127.947 287.249 127.424 286.87 126.971L283.777 123.198C282.996 122.225 282.522 121.088 282.533 120.221C282.556 118.377 284.642 118.77 286.317 120.894L287.75 122.682L287.09 123.301L285.717 121.59C284.93 120.579 283.921 120.37 283.921 121.25C283.921 121.65 284.145 122.176 284.511 122.63L287.652 126.464C288.432 127.395 288.912 128.459 288.912 129.264C288.912 130.512 287.777 130.824 286.376 129.96L285.946 129.695C284.473 128.785 283.28 126.905 283.28 125.496V125.139L284.726 126.083V126.444C284.726 127.159 285.343 128.128 286.102 128.608L286.104 128.604Z" fill="#28EBCF" stroke="#28EBCF" stroke-width="0.288707"/>
</g>
<g clip-path="url(#clip2_26_914)">
<path d="M171.479 158.726L171.903 158.341L171.404 157.969L171.479 158.726Z" fill="#1A9A87"/>
<path d="M168.82 154.827L168.243 155.15L168.7 155.397L169.014 155.053L168.82 154.827Z" fill="#23D1B8"/>
<path d="M168.361 156.557L167.785 156.879L168.243 157.126L168.556 156.783L168.361 156.557Z" fill="#1FB59F"/>
<path d="M170.027 155.23L170.282 155.428C171.154 156.107 171.861 157.287 171.861 158.064V158.261L171.004 157.624V157.417C171.004 157.008 170.639 156.399 170.189 156.055L170.11 155.995C169.703 155.684 169.373 155.743 169.373 156.124C169.373 156.369 169.511 156.697 169.735 156.986L171.567 159.304C172.029 159.876 172.31 160.516 172.304 160.985C172.29 161.983 171.054 161.798 170.063 160.625L169.229 159.614L169.611 159.209L170.432 160.222C170.904 160.798 171.501 160.886 171.489 160.386C171.484 160.163 171.352 159.87 171.141 159.612L169.271 157.275C168.809 156.686 168.525 156.006 168.525 155.495C168.525 154.703 169.197 154.584 170.027 155.228V155.23Z" fill="url(#paint6_linear_26_914)"/>
<path d="M170.132 162.232L170.212 162.283C170.618 162.54 170.948 162.449 170.948 162.08C170.948 161.843 170.811 161.533 170.586 161.265L168.754 159.03C168.292 158.454 168.011 157.78 168.018 157.266C168.032 156.174 169.267 156.407 170.259 157.665L171.108 158.724L170.717 159.091L169.904 158.077C169.438 157.478 168.84 157.355 168.84 157.876C168.84 158.113 168.973 158.424 169.189 158.693L171.05 160.964C171.512 161.516 171.796 162.146 171.796 162.623C171.796 163.363 171.125 163.547 170.295 163.035L170.04 162.878C169.167 162.34 168.46 161.226 168.46 160.391V160.18L169.317 160.739V160.953C169.317 161.376 169.683 161.95 170.132 162.235V162.232Z" fill="url(#paint7_linear_26_914)"/>
<path d="M170.027 155.23L170.282 155.428C171.154 156.107 171.861 157.287 171.861 158.064V158.261L171.004 157.624V157.417C171.004 157.008 170.639 156.399 170.189 156.055L170.11 155.995C169.703 155.684 169.373 155.743 169.373 156.124C169.373 156.369 169.511 156.697 169.735 156.986L171.567 159.304C172.029 159.876 172.31 160.516 172.304 160.985C172.29 161.983 171.054 161.798 170.063 160.625L169.229 159.614L169.611 159.209L170.432 160.222C170.904 160.798 171.501 160.886 171.489 160.386C171.484 160.163 171.352 159.87 171.141 159.612L169.271 157.275C168.809 156.686 168.525 156.006 168.525 155.495C168.525 154.703 169.197 154.584 170.027 155.228V155.23Z" stroke="url(#paint8_linear_26_914)" stroke-width="0.0855135" stroke-miterlimit="10"/>
<path d="M170.132 162.232L170.212 162.283C170.618 162.54 170.948 162.449 170.948 162.08C170.948 161.843 170.811 161.533 170.586 161.265L168.754 159.03C168.292 158.454 168.011 157.78 168.018 157.266C168.032 156.174 169.267 156.407 170.259 157.665L171.108 158.724L170.717 159.091L169.904 158.077C169.438 157.478 168.84 157.355 168.84 157.876C168.84 158.113 168.973 158.424 169.189 158.693L171.05 160.964C171.512 161.516 171.796 162.146 171.796 162.623C171.796 163.363 171.125 163.547 170.295 163.035L170.04 162.878C169.167 162.34 168.46 161.226 168.46 160.391V160.18L169.317 160.739V160.953C169.317 161.376 169.683 161.95 170.132 162.235V162.232Z" stroke="url(#paint9_linear_26_914)" stroke-width="0.0855135" stroke-miterlimit="10"/>
<path d="M167.913 160.33L168.421 160.103L169.393 160.738L168.935 160.996L167.913 160.33Z" fill="url(#paint10_linear_26_914)"/>
<path d="M169.562 155.532L169.816 155.731C170.689 156.409 171.396 157.59 171.396 158.367V158.563L170.539 157.926V157.72C170.539 157.311 170.174 156.701 169.724 156.357L169.644 156.297C169.238 155.987 168.908 156.045 168.908 156.426C168.908 156.671 169.045 156.999 169.27 157.288L171.102 159.606C171.564 160.178 171.845 160.818 171.839 161.287C171.825 162.285 170.589 162.101 169.598 160.928L168.764 159.917L169.145 159.511L169.967 160.525C170.439 161.1 171.036 161.189 171.023 160.688C171.018 160.465 170.887 160.173 170.676 159.914L168.806 157.577C168.344 156.988 168.06 156.309 168.06 155.797C168.06 155.005 168.732 154.886 169.562 155.531V155.532Z" fill="#28EBCF" stroke="#28EBCF" stroke-width="0.171027"/>
<path d="M169.668 162.535L169.747 162.585C170.154 162.842 170.484 162.751 170.484 162.382C170.484 162.145 170.346 161.836 170.122 161.567L168.29 159.332C167.827 158.756 167.546 158.082 167.552 157.568C167.566 156.476 168.802 156.709 169.794 157.967L170.643 159.027L170.252 159.393L169.438 158.38C168.972 157.781 168.375 157.657 168.375 158.178C168.375 158.415 168.507 158.727 168.724 158.996L170.585 161.267C171.047 161.818 171.331 162.448 171.331 162.926C171.331 163.665 170.659 163.85 169.829 163.338L169.574 163.181C168.702 162.642 167.995 161.528 167.995 160.694V160.482L168.852 161.041V161.255C168.852 161.679 169.217 162.253 169.667 162.537L169.668 162.535Z" fill="#28EBCF" stroke="#28EBCF" stroke-width="0.171027"/>
</g>
<g clip-path="url(#clip3_26_914)">
<path d="M297.612 267.813L298.194 267.284L297.508 266.771L297.612 267.813Z" fill="#1A9A87"/>
<path d="M293.953 262.447L293.159 262.891L293.788 263.231L294.22 262.758L293.953 262.447Z" fill="#23D1B8"/>
<path d="M293.322 264.827L292.528 265.271L293.159 265.611L293.59 265.138L293.322 264.827Z" fill="#1FB59F"/>
<path d="M295.615 263.002L295.965 263.275C297.166 264.209 298.139 265.833 298.139 266.902V267.173L296.96 266.296V266.012C296.96 265.449 296.457 264.61 295.838 264.137L295.728 264.054C295.169 263.627 294.715 263.708 294.715 264.232C294.715 264.569 294.904 265.021 295.213 265.418L297.734 268.608C298.37 269.395 298.757 270.276 298.748 270.921C298.729 272.295 297.029 272.041 295.664 270.427L294.516 269.035L295.042 268.477L296.173 269.872C296.822 270.664 297.643 270.786 297.626 270.097C297.619 269.79 297.438 269.388 297.148 269.032L294.575 265.816C293.939 265.005 293.548 264.07 293.548 263.367C293.548 262.276 294.472 262.113 295.615 263V263.002Z" fill="url(#paint11_linear_26_914)"/>
<path d="M295.76 272.638L295.869 272.707C296.429 273.061 296.883 272.936 296.883 272.428C296.883 272.102 296.694 271.676 296.385 271.307L293.863 268.231C293.227 267.438 292.841 266.511 292.85 265.804C292.869 264.301 294.569 264.622 295.935 266.353L297.103 267.81L296.565 268.315L295.445 266.92C294.804 266.096 293.982 265.926 293.982 266.643C293.982 266.969 294.164 267.398 294.462 267.768L297.023 270.893C297.659 271.653 298.05 272.519 298.05 273.176C298.05 274.194 297.125 274.448 295.983 273.743L295.633 273.527C294.432 272.786 293.459 271.253 293.459 270.105V269.814L294.638 270.583V270.877C294.638 271.46 295.141 272.25 295.76 272.641V272.638Z" fill="url(#paint12_linear_26_914)"/>
<path d="M295.615 263.002L295.965 263.275C297.166 264.209 298.139 265.833 298.139 266.902V267.173L296.96 266.296V266.012C296.96 265.449 296.457 264.61 295.838 264.137L295.728 264.054C295.169 263.627 294.715 263.708 294.715 264.232C294.715 264.569 294.904 265.021 295.213 265.418L297.734 268.608C298.37 269.395 298.757 270.276 298.748 270.921C298.729 272.295 297.029 272.041 295.664 270.427L294.516 269.035L295.042 268.477L296.173 269.872C296.822 270.664 297.643 270.786 297.626 270.097C297.619 269.79 297.438 269.388 297.148 269.032L294.575 265.816C293.939 265.005 293.548 264.07 293.548 263.367C293.548 262.276 294.472 262.113 295.615 263V263.002Z" stroke="url(#paint13_linear_26_914)" stroke-width="0.11768" stroke-miterlimit="10"/>
<path d="M295.76 272.638L295.869 272.707C296.429 273.061 296.883 272.936 296.883 272.428C296.883 272.102 296.694 271.676 296.385 271.307L293.863 268.231C293.227 267.438 292.841 266.511 292.85 265.804C292.869 264.301 294.569 264.622 295.935 266.353L297.103 267.81L296.565 268.315L295.445 266.92C294.804 266.096 293.982 265.926 293.982 266.643C293.982 266.969 294.164 267.398 294.462 267.768L297.023 270.893C297.659 271.653 298.05 272.519 298.05 273.176C298.05 274.194 297.125 274.448 295.983 273.743L295.633 273.527C294.432 272.786 293.459 271.253 293.459 270.105V269.814L294.638 270.583V270.877C294.638 271.46 295.141 272.25 295.76 272.641V272.638Z" stroke="url(#paint14_linear_26_914)" stroke-width="0.11768" stroke-miterlimit="10"/>
<path d="M292.705 270.02L293.404 269.708L294.741 270.582L294.112 270.937L292.705 270.02Z" fill="url(#paint15_linear_26_914)"/>
<path d="M294.974 263.418L295.325 263.691C296.526 264.625 297.499 266.249 297.499 267.318V267.589L296.319 266.712V266.428C296.319 265.866 295.816 265.027 295.197 264.553L295.088 264.471C294.529 264.043 294.074 264.124 294.074 264.649C294.074 264.985 294.264 265.437 294.573 265.834L297.094 269.024C297.73 269.812 298.116 270.692 298.107 271.337C298.088 272.711 296.388 272.457 295.024 270.843L293.876 269.452L294.401 268.893L295.532 270.288C296.182 271.08 297.002 271.202 296.986 270.513C296.979 270.207 296.797 269.804 296.507 269.448L293.934 266.232C293.298 265.421 292.907 264.486 292.907 263.783C292.907 262.692 293.832 262.529 294.974 263.416V263.418Z" fill="#28EBCF" stroke="#28EBCF" stroke-width="0.23536"/>
<path d="M295.119 273.054L295.229 273.124C295.788 273.477 296.242 273.352 296.242 272.844C296.242 272.518 296.053 272.092 295.744 271.723L293.223 268.647C292.586 267.854 292.199 266.927 292.208 266.22C292.227 264.717 293.927 265.038 295.293 266.769L296.461 268.227L295.923 268.731L294.804 267.336C294.162 266.512 293.34 266.342 293.34 267.059C293.34 267.386 293.523 267.814 293.82 268.184L296.381 271.309C297.017 272.069 297.408 272.936 297.408 273.592C297.408 274.61 296.484 274.864 295.341 274.159L294.991 273.944C293.79 273.202 292.817 271.67 292.817 270.521V270.23L293.996 271V271.294C293.996 271.876 294.499 272.666 295.118 273.058L295.119 273.054Z" fill="#28EBCF" stroke="#28EBCF" stroke-width="0.23536"/>
</g>
<g filter="url(#filter2_b_26_914)">
<rect x="67.2583" y="87" width="363.774" height="337.355" fill="url(#paint16_radial_26_914)" fill-opacity="0.5"/>
</g>
<g opacity="0.9" clip-path="url(#clip4_26_914)">
<path d="M200.8 136.162L201.872 135.19L200.61 134.248L200.8 136.162Z" fill="#1A9A87"/>
<path d="M194.076 126.301L192.617 127.117L193.774 127.742L194.567 126.873L194.076 126.301Z" fill="#23D1B8"/>
<path d="M192.918 130.676L191.459 131.492L192.617 132.117L193.411 131.247L192.918 130.676Z" fill="#1FB59F"/>
<path d="M197.129 127.321L197.774 127.822C199.98 129.539 201.769 132.524 201.769 134.489V134.986L199.601 133.375V132.853C199.601 131.819 198.677 130.277 197.539 129.407L197.338 129.255C196.311 128.47 195.475 128.618 195.475 129.582C195.475 130.201 195.824 131.031 196.391 131.761L201.025 137.624C202.193 139.071 202.904 140.689 202.888 141.875C202.852 144.399 199.728 143.932 197.22 140.966L195.111 138.409L196.076 137.383L198.155 139.946C199.348 141.402 200.857 141.626 200.826 140.36C200.813 139.796 200.48 139.056 199.947 138.403L195.219 132.493C194.05 131.002 193.331 129.284 193.331 127.991C193.331 125.987 195.03 125.687 197.129 127.317V127.321Z" fill="url(#paint17_linear_26_914)"/>
<path d="M197.396 145.03L197.597 145.157C198.625 145.807 199.46 145.577 199.46 144.644C199.46 144.045 199.112 143.262 198.544 142.584L193.911 136.931C192.742 135.473 192.031 133.769 192.048 132.47C192.083 129.707 195.208 130.297 197.717 133.479L199.864 136.158L198.876 137.085L196.818 134.522C195.639 133.007 194.128 132.694 194.128 134.012C194.128 134.612 194.464 135.399 195.011 136.08L199.717 141.823C200.886 143.219 201.605 144.812 201.605 146.019C201.605 147.889 199.906 148.356 197.806 147.061L197.162 146.664C194.955 145.301 193.167 142.485 193.167 140.374V139.84L195.334 141.254V141.794C195.334 142.865 196.259 144.317 197.396 145.036V145.03Z" fill="url(#paint18_linear_26_914)"/>
<path d="M197.129 127.321L197.774 127.822C199.98 129.539 201.769 132.524 201.769 134.489V134.986L199.601 133.375V132.853C199.601 131.819 198.677 130.277 197.539 129.407L197.338 129.255C196.311 128.47 195.475 128.618 195.475 129.582C195.475 130.201 195.824 131.031 196.391 131.761L201.025 137.624C202.193 139.071 202.904 140.689 202.888 141.875C202.852 144.399 199.728 143.932 197.22 140.966L195.111 138.409L196.076 137.383L198.155 139.946C199.348 141.402 200.857 141.626 200.826 140.36C200.813 139.796 200.48 139.056 199.947 138.403L195.219 132.493C194.05 131.002 193.331 129.284 193.331 127.991C193.331 125.987 195.03 125.687 197.129 127.317V127.321Z" stroke="url(#paint19_linear_26_914)" stroke-width="0.216269" stroke-miterlimit="10"/>
<path d="M197.396 145.03L197.597 145.157C198.625 145.807 199.46 145.577 199.46 144.644C199.46 144.045 199.112 143.262 198.544 142.584L193.911 136.931C192.742 135.473 192.031 133.769 192.048 132.47C192.083 129.707 195.208 130.297 197.717 133.479L199.864 136.158L198.876 137.085L196.818 134.522C195.639 133.007 194.128 132.694 194.128 134.012C194.128 134.612 194.464 135.399 195.011 136.08L199.717 141.823C200.886 143.219 201.605 144.812 201.605 146.019C201.605 147.889 199.906 148.356 197.806 147.061L197.162 146.664C194.955 145.301 193.167 142.485 193.167 140.374V139.84L195.334 141.254V141.794C195.334 142.865 196.259 144.317 197.396 145.036V145.03Z" stroke="url(#paint20_linear_26_914)" stroke-width="0.216269" stroke-miterlimit="10"/>
<path d="M191.782 140.218L193.067 139.644L195.525 141.252L194.368 141.903L191.782 140.218Z" fill="url(#paint21_linear_26_914)"/>
<path d="M195.953 128.086L196.598 128.587C198.805 130.304 200.593 133.288 200.593 135.253V135.751L198.425 134.139V133.617C198.425 132.583 197.501 131.041 196.364 130.172L196.163 130.02C195.135 129.235 194.3 129.383 194.3 130.347C194.3 130.965 194.648 131.796 195.216 132.526L199.849 138.388C201.018 139.835 201.728 141.453 201.712 142.639C201.677 145.164 198.552 144.697 196.044 141.731L193.935 139.173L194.901 138.148L196.979 140.711C198.173 142.166 199.681 142.391 199.65 141.124C199.638 140.561 199.304 139.821 198.771 139.167L194.043 133.257C192.874 131.767 192.155 130.049 192.155 128.756C192.155 126.751 193.854 126.451 195.953 128.081V128.086Z" fill="#28EBCF" stroke="#28EBCF" stroke-width="0.432538"/>
<path d="M196.22 145.794L196.421 145.922C197.449 146.572 198.284 146.341 198.284 145.408C198.284 144.81 197.936 144.027 197.368 143.348L192.735 137.695C191.564 136.238 190.854 134.534 190.87 133.235C190.905 130.472 194.03 131.062 196.54 134.244L198.686 136.922L197.698 137.85L195.64 135.286C194.461 133.771 192.951 133.459 192.951 134.776C192.951 135.377 193.286 136.164 193.833 136.844L198.539 142.588C199.708 143.984 200.427 145.577 200.427 146.783C200.427 148.654 198.728 149.12 196.629 147.825L195.984 147.429C193.777 146.066 191.989 143.25 191.989 141.139V140.604L194.157 142.018V142.559C194.157 143.63 195.081 145.081 196.218 145.801L196.22 145.794Z" fill="#28EBCF" stroke="#28EBCF" stroke-width="0.432538"/>
</g>
<g opacity="0.9" clip-path="url(#clip5_26_914)" filter="url(#filter3_f_26_914)">
<path d="M307.079 192.486L308.053 191.602L306.905 190.746L307.079 192.486Z" fill="#1A9A87"/>
<path d="M300.965 183.52L299.638 184.262L300.69 184.83L301.411 184.039L300.965 183.52Z" fill="#23D1B8"/>
<path d="M299.911 187.498L298.584 188.24L299.638 188.808L300.359 188.017L299.911 187.498Z" fill="#1FB59F"/>
<path d="M303.74 184.447L304.326 184.903C306.333 186.464 307.959 189.178 307.959 190.965V191.417L305.988 189.952V189.477C305.988 188.537 305.148 187.135 304.113 186.344L303.931 186.206C302.996 185.492 302.237 185.626 302.237 186.503C302.237 187.066 302.553 187.821 303.069 188.484L307.283 193.815C308.345 195.131 308.992 196.602 308.977 197.681C308.945 199.976 306.103 199.552 303.823 196.855L301.905 194.529L302.783 193.597L304.673 195.927C305.758 197.251 307.13 197.455 307.102 196.303C307.09 195.791 306.787 195.118 306.303 194.524L302.003 189.15C300.94 187.795 300.286 186.232 300.286 185.056C300.286 183.234 301.832 182.961 303.74 184.443V184.447Z" fill="url(#paint22_linear_26_914)"/>
<path d="M303.983 200.55L304.166 200.666C305.1 201.257 305.86 201.047 305.86 200.199C305.86 199.655 305.543 198.942 305.027 198.326L300.814 193.185C299.751 191.86 299.105 190.311 299.12 189.129C299.152 186.617 301.993 187.154 304.275 190.047L306.227 192.483L305.328 193.326L303.457 190.995C302.385 189.617 301.012 189.333 301.012 190.531C301.012 191.077 301.317 191.793 301.814 192.412L306.093 197.634C307.156 198.903 307.81 200.352 307.81 201.449C307.81 203.15 306.265 203.574 304.356 202.397L303.77 202.036C301.763 200.797 300.137 198.236 300.137 196.316V195.83L302.108 197.116V197.608C302.108 198.582 302.949 199.901 303.983 200.556V200.55Z" fill="url(#paint23_linear_26_914)"/>
<path d="M303.74 184.447L304.326 184.903C306.333 186.464 307.959 189.178 307.959 190.965V191.417L305.988 189.952V189.477C305.988 188.537 305.148 187.135 304.113 186.344L303.931 186.206C302.996 185.492 302.237 185.626 302.237 186.503C302.237 187.066 302.553 187.821 303.069 188.484L307.283 193.815C308.345 195.131 308.992 196.602 308.977 197.681C308.945 199.976 306.103 199.552 303.823 196.855L301.905 194.529L302.783 193.597L304.673 195.927C305.758 197.251 307.13 197.455 307.102 196.303C307.09 195.791 306.787 195.118 306.303 194.524L302.003 189.15C300.94 187.795 300.286 186.232 300.286 185.056C300.286 183.234 301.832 182.961 303.74 184.443V184.447Z" stroke="url(#paint24_linear_26_914)" stroke-width="0.196656" stroke-miterlimit="10"/>
<path d="M303.983 200.55L304.166 200.666C305.1 201.257 305.86 201.047 305.86 200.199C305.86 199.655 305.543 198.942 305.027 198.326L300.814 193.185C299.751 191.86 299.105 190.311 299.12 189.129C299.152 186.617 301.993 187.154 304.275 190.047L306.227 192.483L305.328 193.326L303.457 190.995C302.385 189.617 301.012 189.333 301.012 190.531C301.012 191.077 301.317 191.793 301.814 192.412L306.093 197.634C307.156 198.903 307.81 200.352 307.81 201.449C307.81 203.15 306.265 203.574 304.356 202.397L303.77 202.036C301.763 200.797 300.137 198.236 300.137 196.316V195.83L302.108 197.116V197.608C302.108 198.582 302.949 199.901 303.983 200.556V200.55Z" stroke="url(#paint25_linear_26_914)" stroke-width="0.196656" stroke-miterlimit="10"/>
<path d="M298.878 196.174L300.046 195.653L302.281 197.115L301.23 197.707L298.878 196.174Z" fill="url(#paint26_linear_26_914)"/>
<path d="M302.671 185.142L303.257 185.598C305.264 187.159 306.89 189.873 306.89 191.66V192.112L304.919 190.647V190.172C304.919 189.232 304.079 187.83 303.044 187.039L302.861 186.901C301.927 186.187 301.167 186.322 301.167 187.198C301.167 187.761 301.484 188.516 302 189.18L306.213 194.511C307.276 195.827 307.922 197.298 307.907 198.376C307.875 200.671 305.034 200.247 302.754 197.55L300.836 195.225L301.714 194.292L303.604 196.623C304.689 197.946 306.061 198.15 306.033 196.999C306.021 196.486 305.718 195.813 305.234 195.219L300.934 189.845C299.871 188.49 299.217 186.927 299.217 185.752C299.217 183.929 300.762 183.656 302.671 185.139V185.142Z" fill="#28EBCF" stroke="#28EBCF" stroke-width="0.393311"/>
<path d="M302.914 201.245L303.097 201.361C304.032 201.952 304.791 201.742 304.791 200.894C304.791 200.35 304.474 199.638 303.958 199.021L299.745 193.881C298.68 192.555 298.034 191.006 298.049 189.824C298.081 187.312 300.923 187.849 303.204 190.742L305.156 193.178L304.258 194.021L302.387 191.69C301.314 190.312 299.941 190.028 299.941 191.226C299.941 191.772 300.246 192.488 300.744 193.107L305.023 198.329C306.085 199.598 306.739 201.047 306.739 202.144C306.739 203.845 305.194 204.27 303.285 203.092L302.699 202.731C300.693 201.492 299.067 198.931 299.067 197.011V196.525L301.037 197.811V198.303C301.037 199.277 301.878 200.597 302.912 201.251L302.914 201.245Z" fill="#28EBCF" stroke="#28EBCF" stroke-width="0.393311"/>
</g>
<g opacity="0.9" clip-path="url(#clip6_26_914)" filter="url(#filter4_f_26_914)">
<path d="M179.297 211.572L180.012 210.923L179.17 210.295L179.297 211.572Z" fill="#1A9A87"/>
<path d="M174.809 204.99L173.835 205.535L174.607 205.952L175.136 205.372L174.809 204.99Z" fill="#23D1B8"/>
<path d="M174.035 207.91L173.062 208.455L173.835 208.872L174.365 208.292L174.035 207.91Z" fill="#1FB59F"/>
<path d="M176.847 205.671L177.277 206.006C178.75 207.151 179.943 209.144 179.943 210.455V210.787L178.497 209.712V209.363C178.497 208.673 177.88 207.644 177.12 207.064L176.986 206.962C176.3 206.438 175.743 206.537 175.743 207.18C175.743 207.593 175.975 208.148 176.354 208.635L179.447 212.548C180.227 213.514 180.701 214.593 180.69 215.385C180.667 217.07 178.581 216.759 176.907 214.779L175.499 213.072L176.144 212.387L177.531 214.098C178.328 215.07 179.335 215.219 179.314 214.374C179.306 213.998 179.083 213.504 178.728 213.068L175.571 209.123C174.791 208.128 174.311 206.981 174.311 206.118C174.311 204.781 175.445 204.58 176.847 205.668V205.671Z" fill="url(#paint27_linear_26_914)"/>
<path d="M177.025 217.491L177.159 217.576C177.845 218.01 178.402 217.856 178.402 217.233C178.402 216.834 178.17 216.311 177.791 215.859L174.698 212.085C173.918 211.113 173.444 209.975 173.455 209.108C173.479 207.264 175.564 207.658 177.239 209.782L178.672 211.569L178.012 212.188L176.639 210.477C175.852 209.466 174.844 209.258 174.844 210.137C174.844 210.538 175.068 211.063 175.433 211.517L178.574 215.351C179.354 216.283 179.834 217.346 179.834 218.151C179.834 219.4 178.7 219.711 177.299 218.847L176.869 218.582C175.396 217.672 174.202 215.793 174.202 214.384V214.027L175.649 214.971V215.332C175.649 216.047 176.266 217.015 177.025 217.495V217.491Z" fill="url(#paint28_linear_26_914)"/>
<path d="M176.847 205.671L177.277 206.006C178.75 207.151 179.943 209.144 179.943 210.455V210.787L178.497 209.712V209.363C178.497 208.673 177.88 207.644 177.12 207.064L176.986 206.962C176.3 206.438 175.743 206.537 175.743 207.18C175.743 207.593 175.975 208.148 176.354 208.635L179.447 212.548C180.227 213.514 180.701 214.593 180.69 215.385C180.667 217.07 178.581 216.759 176.907 214.779L175.499 213.072L176.144 212.387L177.531 214.098C178.328 215.07 179.335 215.219 179.314 214.374C179.306 213.998 179.083 213.504 178.728 213.068L175.571 209.123C174.791 208.128 174.311 206.981 174.311 206.118C174.311 204.781 175.445 204.58 176.847 205.668V205.671Z" stroke="url(#paint29_linear_26_914)" stroke-width="0.144354" stroke-miterlimit="10"/>
<path d="M177.025 217.491L177.159 217.576C177.845 218.01 178.402 217.856 178.402 217.233C178.402 216.834 178.17 216.311 177.791 215.859L174.698 212.085C173.918 211.113 173.444 209.975 173.455 209.108C173.479 207.264 175.564 207.658 177.239 209.782L178.672 211.569L178.012 212.188L176.639 210.477C175.852 209.466 174.844 209.258 174.844 210.137C174.844 210.538 175.068 211.063 175.433 211.517L178.574 215.351C179.354 216.283 179.834 217.346 179.834 218.151C179.834 219.4 178.7 219.711 177.299 218.847L176.869 218.582C175.396 217.672 174.202 215.793 174.202 214.384V214.027L175.649 214.971V215.332C175.649 216.047 176.266 217.015 177.025 217.495V217.491Z" stroke="url(#paint30_linear_26_914)" stroke-width="0.144354" stroke-miterlimit="10"/>
<path d="M173.277 214.279L174.135 213.896L175.775 214.969L175.003 215.404L173.277 214.279Z" fill="url(#paint31_linear_26_914)"/>
<path d="M176.062 206.181L176.492 206.516C177.965 207.662 179.158 209.654 179.158 210.966V211.298L177.712 210.222V209.873C177.712 209.183 177.095 208.154 176.335 207.574L176.201 207.472C175.515 206.948 174.958 207.047 174.958 207.691C174.958 208.103 175.19 208.658 175.569 209.145L178.662 213.058C179.442 214.024 179.916 215.104 179.905 215.895C179.882 217.58 177.796 217.269 176.122 215.289L174.714 213.582L175.359 212.897L176.746 214.608C177.543 215.58 178.55 215.729 178.529 214.884C178.521 214.508 178.298 214.014 177.943 213.578L174.786 209.633C174.006 208.639 173.526 207.492 173.526 206.629C173.526 205.291 174.661 205.09 176.062 206.178V206.181Z" fill="#28EBCF" stroke="#28EBCF" stroke-width="0.288707"/>
<path d="M176.24 218.002L176.374 218.087C177.06 218.52 177.617 218.367 177.617 217.744C177.617 217.344 177.385 216.822 177.006 216.369L173.913 212.596C173.132 211.623 172.658 210.485 172.669 209.618C172.692 207.774 174.778 208.168 176.453 210.292L177.886 212.08L177.226 212.699L175.853 210.988C175.066 209.976 174.057 209.768 174.057 210.647C174.057 211.048 174.281 211.574 174.647 212.028L177.788 215.861C178.568 216.793 179.048 217.856 179.048 218.662C179.048 219.91 177.913 220.222 176.512 219.357L176.082 219.092C174.609 218.183 173.416 216.303 173.416 214.894V214.537L174.862 215.481V215.842C174.862 216.557 175.479 217.526 176.238 218.006L176.24 218.002Z" fill="#28EBCF" stroke="#28EBCF" stroke-width="0.288707"/>
</g>
<path d="M227.955 125.952L268.942 149.649C269.951 150.232 270.575 151.307 270.582 152.473L270.999 220.645C271.015 223.156 268.947 225.181 266.436 225.113C265.252 225.081 264.274 226.033 264.274 227.217V228.158V229.435L251.681 222.135L222.718 205.329C220.659 205.568 218.647 203.981 218.647 201.694V191.656V189.68C218.647 187.866 217.176 186.395 215.362 186.395H209.321L209.956 186.037C214.213 183.636 219.42 183.653 223.662 186.082L227.955 188.54V125.952Z" fill="url(#paint32_linear_26_914)"/>
<path d="M270.879 242.758L265.552 245.438V250.789L270.879 254V242.758Z" fill="url(#paint33_linear_26_914)"/>
<g filter="url(#filter5_b_26_914)">
<path d="M261.354 252.369V263.505C261.354 264.999 260.521 266.369 259.194 267.057C257.933 267.711 256.426 266.796 256.426 265.374L256.426 246.591V230.165L253.141 228.282L253.871 271.777L211.711 247.504L215.677 245.003C218.434 243.265 220.107 240.234 220.107 236.975V224.137C220.107 220.416 222.101 216.98 225.331 215.134C226.843 214.27 228.7 214.271 230.211 215.137L253.141 228.282L256.426 230.165L272.897 239.656L267.689 242.208C263.812 244.109 261.354 248.051 261.354 252.369Z" fill="url(#paint34_linear_26_914)"/>
</g>
<g filter="url(#filter6_b_26_914)">
<path d="M208.791 189.235V242.057C208.791 244.41 210.05 246.583 212.09 247.755L254.236 271.952V218.62C254.236 214.782 256.548 211.321 260.094 209.852L263.047 208.629L221.637 184.945C218.428 183.11 214.486 183.11 211.277 184.947C209.74 185.827 208.791 187.463 208.791 189.235Z" fill="url(#paint35_linear_26_914)"/>
</g>
<g filter="url(#filter7_b_26_914)">
<path d="M231.055 124.164L227.955 125.952L268.932 149.642C269.947 150.229 270.573 151.313 270.573 152.486V220.907C270.573 222.342 269.8 223.667 268.551 224.374C267.293 225.086 265.734 224.177 265.734 222.732V213.778C265.734 208.909 260.451 205.877 256.247 208.333C253.419 209.986 251.681 213.015 251.681 216.29V267.275C251.681 271.534 256.303 274.186 259.981 272.037C263.545 269.954 265.74 266.14 265.75 262.011L265.784 247.956C265.788 246.542 266.547 245.237 267.776 244.536C269.023 243.825 270.573 244.726 270.573 246.161V254.006L273.647 252.218C274.658 251.63 275.28 250.548 275.28 249.378V244.191C275.28 239.954 270.694 237.305 267.025 239.423C263.436 241.493 261.221 245.317 261.211 249.461L261.177 263.495C261.174 264.894 260.426 266.185 259.214 266.884C257.975 267.599 256.426 266.705 256.426 265.274V216.003C256.426 214.602 257.174 213.308 258.387 212.608C259.625 211.894 261.171 212.787 261.171 214.216V224.367C261.171 228.715 265.89 231.423 269.645 229.229C273.1 227.209 275.225 223.507 275.225 219.504V149.747C275.225 148.575 274.6 147.492 273.586 146.904L234.343 124.167C233.327 123.577 232.073 123.576 231.055 124.164Z" fill="url(#paint36_linear_26_914)"/>
</g>
<path d="M215.172 193.679L240.359 207.976C240.701 208.17 240.913 208.534 240.913 208.928V210.79C240.913 211.63 240.007 212.157 239.277 211.742L214.091 197.446C213.748 197.251 213.537 196.887 213.537 196.493V194.632C213.537 193.792 214.442 193.265 215.172 193.679Z" fill="url(#paint37_linear_26_914)"/>
<path d="M213.537 194.393L239.528 209.331C239.754 209.461 239.894 209.703 239.894 209.964V211.47C239.894 211.75 239.592 211.925 239.349 211.787L214.091 197.446C213.749 197.251 213.537 196.888 213.537 196.493V194.393Z" fill="#28EBCF"/>
<path d="M215.172 199.885L240.359 214.181C240.701 214.376 240.913 214.74 240.913 215.134V216.995C240.913 217.835 240.007 218.362 239.277 217.948L214.091 203.651C213.748 203.457 213.537 203.093 213.537 202.699V200.837C213.537 199.997 214.442 199.47 215.172 199.885Z" fill="url(#paint38_linear_26_914)"/>
<path d="M213.537 200.599L239.528 215.536C239.754 215.667 239.894 215.908 239.894 216.169V217.675C239.894 217.955 239.592 218.131 239.349 217.993L214.091 203.651C213.749 203.456 213.537 203.093 213.537 202.699V200.599Z" fill="#28EBCF"/>
<path d="M215.172 206.09L240.359 220.387C240.701 220.581 240.913 220.945 240.913 221.339V223.201C240.913 224.04 240.007 224.568 239.277 224.153L214.091 209.856C213.748 209.662 213.537 209.298 213.537 208.904V207.042C213.537 206.203 214.442 205.675 215.172 206.09Z" fill="url(#paint39_linear_26_914)"/>
<path d="M213.537 206.804L239.528 221.742C239.754 221.872 239.894 222.113 239.894 222.375V223.88C239.894 224.16 239.592 224.336 239.349 224.198L214.091 209.856C213.749 209.662 213.537 209.298 213.537 208.904V206.804Z" fill="#28EBCF"/>
<path d="M213.536 216.544L213.536 215.54C213.536 214.981 214.14 214.629 214.627 214.905L226.233 221.49C226.576 221.684 226.788 222.048 226.788 222.442V222.84C226.788 223.68 225.881 224.207 225.151 223.792L214.09 217.495C213.748 217.301 213.536 216.937 213.536 216.544Z" fill="url(#paint40_linear_26_914)"/>
<path d="M213.536 215.382L225.407 222.315C225.631 222.446 225.769 222.686 225.769 222.946V223.515C225.769 223.795 225.466 223.971 225.223 223.832L214.09 217.496C213.748 217.301 213.536 216.937 213.536 216.544V215.382Z" fill="#28EBCF"/>
<path d="M217.003 243.925L217.003 242.923C217.003 242.362 217.609 242.011 218.096 242.29L222.517 244.824C222.858 245.019 223.068 245.381 223.068 245.774V246.161C223.068 247.004 222.155 247.531 221.425 247.11L217.55 244.873C217.212 244.677 217.003 244.316 217.003 243.925Z" fill="url(#paint41_linear_26_914)"/>
<path d="M217.002 242.758L221.709 245.647C221.925 245.78 222.057 246.016 222.057 246.269V246.845C222.057 247.126 221.752 247.301 221.509 247.161L217.55 244.873C217.211 244.677 217.002 244.316 217.002 243.925V242.758Z" fill="#28EBCF"/>
<path d="M213.537 241.826L213.537 241.261C213.537 240.139 214.749 239.436 215.722 239.993L225.391 245.525C226.187 245.98 226.677 246.826 226.677 247.743V248.327C226.677 249.45 225.464 250.152 224.491 249.594L214.82 244.042C214.026 243.587 213.537 242.742 213.537 241.826Z" stroke="#28EBCF" stroke-width="0.36502"/>
<path d="M213.536 223.844L213.536 222.841C213.536 222.281 214.14 221.93 214.627 222.206L226.233 228.79C226.576 228.985 226.788 229.349 226.788 229.743V230.14C226.788 230.98 225.881 231.508 225.151 231.092L214.09 224.796C213.748 224.601 213.536 224.238 213.536 223.844Z" fill="url(#paint42_linear_26_914)"/>
<path d="M213.536 222.682L225.407 229.616C225.631 229.746 225.769 229.986 225.769 230.246V230.815C225.769 231.095 225.466 231.271 225.223 231.132L214.09 224.796C213.748 224.601 213.536 224.238 213.536 223.844V222.682Z" fill="#28EBCF"/>
<path d="M213.536 231.145L213.536 230.141C213.536 229.582 214.14 229.23 214.627 229.506L226.233 236.091C226.576 236.285 226.788 236.649 226.788 237.043V237.441C226.788 238.281 225.881 238.808 225.151 238.393L214.09 232.096C213.748 231.902 213.536 231.538 213.536 231.145Z" fill="url(#paint43_linear_26_914)"/>
<path d="M213.536 229.983L225.407 236.916C225.631 237.047 225.769 237.287 225.769 237.546V238.115C225.769 238.395 225.466 238.571 225.223 238.433L214.09 232.096C213.748 231.901 213.536 231.538 213.536 231.144V229.983Z" fill="#28EBCF"/>
<path d="M234.157 135.288L264.453 152.676C264.794 152.871 265.003 153.233 265.003 153.626V157.278C265.003 158.119 264.093 158.646 263.363 158.227L233.067 140.84C232.726 140.645 232.517 140.282 232.517 139.89V136.238C232.517 135.396 233.427 134.869 234.157 135.288Z" fill="url(#paint44_linear_26_914)"/>
<path d="M232.517 136.093L263.261 153.944C263.486 154.075 263.625 154.315 263.625 154.575V157.762C263.625 158.043 263.321 158.219 263.078 158.079L233.066 140.84C232.727 140.645 232.517 140.283 232.517 139.891V136.093Z" fill="#28EBCF"/>
<path d="M232.517 150.837L232.517 149.831C232.517 149.272 233.118 148.921 233.604 149.194L245.339 155.787C245.684 155.981 245.898 156.346 245.898 156.742V157.145C245.898 157.983 244.995 158.511 244.265 158.099L233.074 151.791C232.73 151.597 232.517 151.232 232.517 150.837Z" fill="url(#paint45_linear_26_914)"/>
<path d="M232.517 149.678L244.504 156.612C244.73 156.742 244.869 156.983 244.869 157.244V157.814C244.869 158.093 244.568 158.269 244.325 158.132L233.074 151.791C232.73 151.597 232.517 151.232 232.517 150.837V149.678Z" fill="#28EBCF"/>
<path d="M257.367 164.736L257.367 163.729C257.367 163.171 257.969 162.819 258.456 163.093L262.985 165.642C263.33 165.836 263.543 166.201 263.543 166.597V166.996C263.543 167.835 262.638 168.362 261.908 167.948L257.922 165.689C257.579 165.494 257.367 165.13 257.367 164.736Z" fill="url(#paint46_linear_26_914)"/>
<path d="M257.368 163.575L262.162 166.465C262.381 166.597 262.515 166.835 262.515 167.09V167.667C262.515 167.947 262.213 168.123 261.969 167.985L257.923 165.689C257.58 165.494 257.368 165.13 257.368 164.736V163.575Z" fill="#28EBCF"/>
<path d="M257.367 172.01L257.367 171.003C257.367 170.445 257.969 170.093 258.456 170.367L262.985 172.916C263.33 173.11 263.543 173.475 263.543 173.871V174.27C263.543 175.109 262.638 175.636 261.908 175.222L257.922 172.963C257.579 172.768 257.367 172.404 257.367 172.01Z" fill="url(#paint47_linear_26_914)"/>
<path d="M257.368 170.849L262.162 173.739C262.381 173.871 262.515 174.108 262.515 174.364V174.941C262.515 175.221 262.213 175.397 261.969 175.259L257.923 172.963C257.58 172.768 257.368 172.404 257.368 172.01V170.849Z" fill="#28EBCF"/>
<path d="M257.367 179.31L257.367 178.303C257.367 177.745 257.969 177.393 258.456 177.667L262.985 180.217C263.33 180.411 263.543 180.775 263.543 181.171V181.57C263.543 182.409 262.638 182.936 261.908 182.522L257.922 180.263C257.579 180.068 257.367 179.705 257.367 179.31Z" fill="url(#paint48_linear_26_914)"/>
<path d="M257.368 178.15L262.162 181.04C262.381 181.172 262.515 181.409 262.515 181.665V182.242C262.515 182.522 262.213 182.697 261.969 182.559L257.923 180.263C257.58 180.069 257.368 179.705 257.368 179.311V178.15Z" fill="#28EBCF"/>
<path d="M257.367 186.611L257.367 185.604C257.367 185.045 257.969 184.693 258.456 184.967L262.985 187.517C263.33 187.711 263.543 188.076 263.543 188.471V188.87C263.543 189.709 262.638 190.237 261.908 189.823L257.922 187.563C257.579 187.369 257.367 187.005 257.367 186.611Z" fill="url(#paint49_linear_26_914)"/>
<path d="M257.368 185.45L262.162 188.34C262.381 188.472 262.515 188.709 262.515 188.965V189.542C262.515 189.822 262.213 189.998 261.969 189.86L257.923 187.563C257.58 187.369 257.368 187.005 257.368 186.611V185.45Z" fill="#28EBCF"/>
<path d="M232.517 158.137L232.517 157.131C232.517 156.573 233.118 156.221 233.604 156.494L245.339 163.087C245.684 163.281 245.898 163.646 245.898 164.042V164.446C245.898 165.283 244.995 165.811 244.265 165.399L233.074 159.091C232.73 158.897 232.517 158.532 232.517 158.137Z" fill="url(#paint50_linear_26_914)"/>
<path d="M232.517 156.979L244.504 163.912C244.73 164.043 244.869 164.283 244.869 164.544V165.114C244.869 165.394 244.568 165.569 244.325 165.432L233.074 159.091C232.73 158.897 232.517 158.532 232.517 158.137V156.979Z" fill="#28EBCF"/>
<path d="M232.517 165.438L232.517 164.431C232.517 163.873 233.118 163.521 233.604 163.795L245.339 170.388C245.684 170.582 245.898 170.947 245.898 171.342V171.746C245.898 172.584 244.995 173.111 244.265 172.7L233.074 166.392C232.73 166.197 232.517 165.833 232.517 165.438Z" fill="url(#paint51_linear_26_914)"/>
<path d="M232.517 164.279L244.504 171.212C244.73 171.343 244.869 171.584 244.869 171.844V172.415C244.869 172.694 244.568 172.87 244.325 172.733L233.074 166.391C232.73 166.197 232.517 165.833 232.517 165.438V164.279Z" fill="#28EBCF"/>
<path d="M232.517 172.738L232.517 171.732C232.517 171.174 233.118 170.822 233.604 171.095L245.339 177.688C245.684 177.882 245.898 178.247 245.898 178.643V179.047C245.898 179.885 244.995 180.412 244.265 180.001L233.074 173.692C232.73 173.498 232.517 173.133 232.517 172.738Z" fill="url(#paint52_linear_26_914)"/>
<path d="M232.517 171.579L244.504 178.513C244.73 178.643 244.869 178.884 244.869 179.145V179.715C244.869 179.994 244.568 180.17 244.325 180.033L233.074 173.692C232.73 173.498 232.517 173.133 232.517 172.738V171.579Z" fill="#28EBCF"/>
<path d="M234.161 180.927L262.267 197.206C262.605 197.402 262.813 197.763 262.813 198.154V201.436C262.813 202.28 261.9 202.807 261.17 202.384L233.063 186.105C232.725 185.909 232.517 185.548 232.517 185.157V181.875C232.517 181.031 233.431 180.504 234.161 180.927Z" fill="url(#paint53_linear_26_914)"/>
<path d="M232.518 181.617L261.167 198.406C261.39 198.537 261.528 198.776 261.528 199.036V202.606L233.063 186.105C232.725 185.909 232.518 185.548 232.518 185.157V181.617Z" fill="#28EBCF"/>
<path d="M232.517 153.328L263.544 170.654M232.517 160.572L263.544 177.898M232.517 167.816L263.544 185.142M232.517 175.06L263.544 192.386" stroke="#28EBCF" stroke-width="0.36502"/>
<path d="M42.432 69V42.21H49.424V69H42.432ZM66.3919 49.848C68.6212 49.848 70.2806 50.5193 71.3699 51.862C72.4592 53.1793 73.0039 55.1933 73.0039 57.904V69H66.2399V58.208C66.2399 57.0933 66.0372 56.2827 65.6319 55.776C65.2519 55.2693 64.6692 55.016 63.8839 55.016C62.8706 55.016 62.0599 55.3453 61.4519 56.004C60.8692 56.6373 60.5779 57.4987 60.5779 58.588V69H53.8139V50.304H60.3879V52.812C61.0466 51.8493 61.8952 51.1147 62.9339 50.608C63.9726 50.1013 65.1252 49.848 66.3919 49.848ZM89.5897 50.342H96.2017L87.8797 69H82.2937L74.0857 50.342H81.1537L85.2577 60.868L89.5897 50.342ZM114.224 60.944H102.672C102.875 62.16 103.318 63.034 104.002 63.566C104.686 64.098 105.661 64.364 106.928 64.364C107.84 64.364 108.765 64.212 109.702 63.908C110.639 63.604 111.475 63.186 112.21 62.654L113.92 67.1C112.983 67.784 111.855 68.3287 110.538 68.734C109.221 69.114 107.903 69.304 106.586 69.304C104.433 69.304 102.571 68.9113 101 68.126C99.4294 67.3407 98.2134 66.2133 97.3521 64.744C96.5161 63.2747 96.0981 61.552 96.0981 59.576C96.0981 57.7013 96.4908 56.0293 97.2761 54.56C98.0868 53.0653 99.2014 51.9127 100.62 51.102C102.064 50.266 103.685 49.848 105.484 49.848C108.169 49.848 110.297 50.7093 111.868 52.432C113.439 54.1293 114.224 56.46 114.224 59.424V60.944ZM105.674 54.408C103.875 54.408 102.849 55.5227 102.596 57.752H108.562C108.41 55.5227 107.447 54.408 105.674 54.408ZM124.832 69.304C123.033 69.304 121.374 69.114 119.854 68.734C118.334 68.354 117.055 67.7967 116.016 67.062L117.726 62.464C118.739 63.1227 119.892 63.6547 121.184 64.06C122.476 64.44 123.717 64.63 124.908 64.63C125.643 64.63 126.213 64.5287 126.618 64.326C127.023 64.098 127.226 63.794 127.226 63.414C127.226 63.0847 127.074 62.8313 126.77 62.654C126.491 62.4767 125.909 62.2867 125.022 62.084L122.02 61.4C120.12 60.9693 118.752 60.336 117.916 59.5C117.08 58.664 116.662 57.4733 116.662 55.928C116.662 54.7373 117.017 53.686 117.726 52.774C118.435 51.8367 119.423 51.1147 120.69 50.608C121.982 50.1013 123.439 49.848 125.06 49.848C126.403 49.848 127.733 50.0507 129.05 50.456C130.393 50.836 131.609 51.3807 132.698 52.09L130.95 56.498C129.937 55.8647 128.911 55.3833 127.872 55.054C126.859 54.6993 125.896 54.522 124.984 54.522C124.249 54.522 123.679 54.636 123.274 54.864C122.869 55.092 122.666 55.4213 122.666 55.852C122.666 56.1053 122.793 56.3207 123.046 56.498C123.299 56.65 123.743 56.802 124.376 56.954L127.53 57.676C129.506 58.1067 130.937 58.778 131.824 59.69C132.711 60.5767 133.154 61.7927 133.154 63.338C133.154 65.1873 132.407 66.644 130.912 67.708C129.443 68.772 127.416 69.304 124.832 69.304ZM146.923 64.44C147.481 64.44 148.101 64.402 148.785 64.326L148.443 69.152C147.633 69.2533 146.847 69.304 146.087 69.304C143.047 69.304 140.831 68.6707 139.437 67.404C138.069 66.112 137.385 64.1233 137.385 61.438V55.282H133.889V50.304H137.385V44.87H144.149V50.304H148.633V55.282H144.149V61.476C144.149 63.452 145.074 64.44 146.923 64.44ZM53.148 106.44C53.7053 106.44 54.326 106.402 55.01 106.326L54.668 111.152C53.8573 111.253 53.072 111.304 52.312 111.304C49.272 111.304 47.0553 110.671 45.662 109.404C44.294 108.112 43.61 106.123 43.61 103.438V97.282H40.114V92.304H43.61V86.87H50.374V92.304H54.858V97.282H50.374V103.476C50.374 105.452 51.2987 106.44 53.148 106.44ZM65.9264 91.848C68.8651 91.848 71.0311 92.532 72.4244 93.9C73.8431 95.2427 74.5524 97.3453 74.5524 100.208V111H68.2064V108.378C67.8517 109.29 67.2564 110.012 66.4204 110.544C65.5844 111.051 64.5837 111.304 63.4184 111.304C62.1264 111.304 60.9611 111.051 59.9224 110.544C58.8837 110.012 58.0604 109.29 57.4524 108.378C56.8697 107.441 56.5784 106.389 56.5784 105.224C56.5784 103.881 56.9204 102.817 57.6044 102.032C58.3137 101.221 59.4284 100.639 60.9484 100.284C62.4684 99.9293 64.5204 99.752 67.1044 99.752H68.1304V99.296C68.1304 98.3587 67.9151 97.7127 67.4844 97.358C67.0537 96.978 66.2937 96.788 65.2044 96.788C64.3431 96.788 63.3424 96.9653 62.2024 97.32C61.0877 97.6493 60.0364 98.08 59.0484 98.612L57.3384 94.166C58.4277 93.5073 59.7831 92.9627 61.4044 92.532C63.0511 92.076 64.5584 91.848 65.9264 91.848ZM65.0144 106.782C65.9264 106.782 66.6737 106.465 67.2564 105.832C67.8391 105.173 68.1304 104.337 68.1304 103.324V102.868H67.5224C65.9011 102.868 64.7484 103.02 64.0644 103.324C63.3804 103.603 63.0384 104.084 63.0384 104.768C63.0384 105.351 63.2157 105.832 63.5704 106.212C63.9504 106.592 64.4317 106.782 65.0144 106.782ZM90.6552 101.348L98.5972 111H90.6932L86.7792 106.06L82.8652 111H74.9992L82.9412 101.348L75.4552 92.304H83.3972L86.7792 96.712L90.1992 92.304H98.1412L90.6552 101.348ZM99.2085 103.438V98.156H111.368V103.438H99.2085ZM115.749 111V84.21H122.513V111H115.749ZM126.437 111V92.304H133.201V111H126.437ZM126.285 82.956H133.353V89.074H126.285V82.956ZM157.074 92.304V108.72C157.074 111.811 156.15 114.154 154.3 115.75C152.476 117.346 149.766 118.144 146.168 118.144C144.471 118.144 142.824 117.941 141.228 117.536C139.632 117.156 138.252 116.611 137.086 115.902L138.796 111.304C139.962 111.912 141.165 112.381 142.406 112.71C143.673 113.039 144.864 113.204 145.978 113.204C147.473 113.204 148.575 112.875 149.284 112.216C150.019 111.583 150.386 110.569 150.386 109.176V107.732C149.829 108.568 149.031 109.239 147.992 109.746C146.954 110.227 145.826 110.468 144.61 110.468C142.989 110.468 141.545 110.088 140.278 109.328C139.012 108.568 138.024 107.491 137.314 106.098C136.605 104.679 136.25 103.045 136.25 101.196C136.25 99.3467 136.605 97.7127 137.314 96.294C138.024 94.8753 139.012 93.786 140.278 93.026C141.545 92.2407 142.989 91.848 144.61 91.848C145.852 91.848 146.992 92.1013 148.03 92.608C149.069 93.1147 149.867 93.8113 150.424 94.698V92.304H157.074ZM146.662 105.414C147.853 105.414 148.778 105.047 149.436 104.312C150.095 103.552 150.424 102.513 150.424 101.196C150.424 99.8533 150.095 98.802 149.436 98.042C148.778 97.282 147.853 96.902 146.662 96.902C145.497 96.902 144.585 97.282 143.926 98.042C143.268 98.7767 142.938 99.828 142.938 101.196C142.938 102.513 143.268 103.552 143.926 104.312C144.61 105.047 145.522 105.414 146.662 105.414ZM173.601 91.848C175.83 91.848 177.49 92.5193 178.579 93.862C179.668 95.1793 180.213 97.1933 180.213 99.904V111H173.449V100.208C173.449 99.0933 173.246 98.2827 172.841 97.776C172.461 97.2693 171.878 97.016 171.093 97.016C170.08 97.016 169.269 97.3453 168.661 98.004C168.078 98.6373 167.787 99.4987 167.787 100.588V111H161.023V84.21H167.787V94.546C168.471 93.6593 169.307 92.988 170.295 92.532C171.283 92.076 172.385 91.848 173.601 91.848ZM195.203 106.44C195.76 106.44 196.381 106.402 197.065 106.326L196.723 111.152C195.912 111.253 195.127 111.304 194.367 111.304C191.327 111.304 189.11 110.671 187.717 109.404C186.349 108.112 185.665 106.123 185.665 103.438V97.282H182.169V92.304H185.665V86.87H192.429V92.304H196.913V97.282H192.429V103.476C192.429 105.452 193.353 106.44 195.203 106.44Z" fill="white"/>
<path d="M56.779 131.984H58.139L53.957 143.969H52.767L49.35 134.16L45.933 143.969H44.76L40.561 131.984H41.972L45.372 141.997L48.857 131.984L49.911 132.001L53.345 142.014L56.779 131.984ZM59.985 143.969V135.69H61.362V143.969H59.985ZM59.849 132.103H61.515V133.65H59.849V132.103ZM67.5741 142.983C67.8235 142.983 68.0728 142.966 68.3221 142.932L68.2541 144.02C67.9935 144.065 67.7101 144.088 67.4041 144.088C66.4068 144.088 65.6531 143.827 65.1431 143.306C64.6445 142.785 64.3951 142.059 64.3951 141.13V136.778H62.7801V135.69H64.3951V133.174H65.7721V135.69H68.1181V136.778H65.7721V141.028C65.7721 142.331 66.3728 142.983 67.5741 142.983ZM73.8785 135.486C75.8618 135.486 76.8535 136.58 76.8535 138.767V143.969H75.4765V138.852C75.4765 138.081 75.3235 137.52 75.0175 137.169C74.7228 136.818 74.2468 136.642 73.5895 136.642C72.8301 136.642 72.2238 136.874 71.7705 137.339C71.3171 137.804 71.0905 138.433 71.0905 139.226V143.969H69.7135V131.984H71.0905V137.016C71.3625 136.517 71.7365 136.138 72.2125 135.877C72.6998 135.616 73.2551 135.486 73.8785 135.486ZM87.1244 135.486C88.1784 135.486 88.9604 135.758 89.4704 136.302C89.9917 136.835 90.2524 137.651 90.2524 138.75V143.969H88.9094V142.558C88.6941 143.045 88.3654 143.425 87.9234 143.697C87.4814 143.958 86.9714 144.088 86.3934 144.088C85.8607 144.088 85.3677 143.98 84.9144 143.765C84.4724 143.55 84.1211 143.249 83.8604 142.864C83.5997 142.479 83.4694 142.054 83.4694 141.589C83.4694 140.966 83.6281 140.484 83.9454 140.144C84.2627 139.793 84.7841 139.543 85.5094 139.396C86.2347 139.237 87.2434 139.158 88.5354 139.158H88.9094V138.597C88.9094 137.906 88.7677 137.407 88.4844 137.101C88.2011 136.784 87.7421 136.625 87.1074 136.625C86.1554 136.625 85.2091 136.92 84.2684 137.509L83.8094 136.506C84.2401 136.2 84.7557 135.956 85.3564 135.775C85.9684 135.582 86.5577 135.486 87.1244 135.486ZM86.5804 143C87.2604 143 87.8157 142.773 88.2464 142.32C88.6884 141.855 88.9094 141.26 88.9094 140.535V140.042H88.6034C87.6061 140.042 86.8467 140.087 86.3254 140.178C85.8041 140.257 85.4301 140.399 85.2034 140.603C84.9881 140.796 84.8804 141.085 84.8804 141.47C84.8804 141.912 85.0391 142.28 85.3564 142.575C85.6851 142.858 86.0931 143 86.5804 143ZM100.794 142.983C101.043 142.983 101.293 142.966 101.542 142.932L101.474 144.02C101.213 144.065 100.93 144.088 100.624 144.088C99.6265 144.088 98.8729 143.827 98.3629 143.306C97.8642 142.785 97.6149 142.059 97.6149 141.13V136.778H95.9999V135.69H97.6149V133.174H98.9919V135.69H101.338V136.778H98.9919V141.028C98.9919 142.331 99.5925 142.983 100.794 142.983ZM106.299 135.486C107.353 135.486 108.135 135.758 108.645 136.302C109.167 136.835 109.427 137.651 109.427 138.75V143.969H108.084V142.558C107.869 143.045 107.54 143.425 107.098 143.697C106.656 143.958 106.146 144.088 105.568 144.088C105.036 144.088 104.543 143.98 104.089 143.765C103.647 143.55 103.296 143.249 103.035 142.864C102.775 142.479 102.644 142.054 102.644 141.589C102.644 140.966 102.803 140.484 103.12 140.144C103.438 139.793 103.959 139.543 104.684 139.396C105.41 139.237 106.418 139.158 107.71 139.158H108.084V138.597C108.084 137.906 107.943 137.407 107.659 137.101C107.376 136.784 106.917 136.625 106.282 136.625C105.33 136.625 104.384 136.92 103.443 137.509L102.984 136.506C103.415 136.2 103.931 135.956 104.531 135.775C105.143 135.582 105.733 135.486 106.299 135.486ZM105.755 143C106.435 143 106.991 142.773 107.421 142.32C107.863 141.855 108.084 141.26 108.084 140.535V140.042H107.778C106.781 140.042 106.022 140.087 105.5 140.178C104.979 140.257 104.605 140.399 104.378 140.603C104.163 140.796 104.055 141.085 104.055 141.47C104.055 141.912 104.214 142.28 104.531 142.575C104.86 142.858 105.268 143 105.755 143ZM115.892 139.702L119.326 143.969H117.66L115.076 140.739L112.509 143.969H110.826L114.26 139.702L111.03 135.69H112.696L115.076 138.699L117.456 135.69H119.139L115.892 139.702ZM129.821 136.676L128.92 136.761C128.07 136.84 127.453 137.107 127.067 137.56C126.693 138.013 126.506 138.574 126.506 139.243V143.969H125.129V135.69H126.472V137.135C126.937 136.172 127.849 135.633 129.209 135.52L129.702 135.486L129.821 136.676ZM137.893 140.042H131.841C131.886 141.005 132.147 141.736 132.623 142.235C133.099 142.722 133.773 142.966 134.646 142.966C135.609 142.966 136.493 142.637 137.298 141.98L137.757 142.983C137.394 143.323 136.929 143.595 136.363 143.799C135.796 143.992 135.218 144.088 134.629 144.088C133.337 144.088 132.317 143.708 131.569 142.949C130.832 142.19 130.464 141.141 130.464 139.804C130.464 138.954 130.628 138.206 130.957 137.56C131.285 136.903 131.744 136.393 132.334 136.03C132.934 135.667 133.614 135.486 134.374 135.486C135.473 135.486 136.334 135.849 136.958 136.574C137.581 137.288 137.893 138.274 137.893 139.532V140.042ZM134.391 136.557C133.665 136.557 133.082 136.784 132.64 137.237C132.209 137.69 131.954 138.331 131.875 139.158H136.686C136.663 138.319 136.453 137.679 136.057 137.237C135.66 136.784 135.105 136.557 134.391 136.557ZM144.086 135.486C144.812 135.486 145.452 135.667 146.007 136.03C146.563 136.393 146.993 136.903 147.299 137.56C147.605 138.206 147.758 138.96 147.758 139.821C147.758 140.682 147.605 141.436 147.299 142.082C146.993 142.717 146.563 143.21 146.007 143.561C145.463 143.912 144.823 144.088 144.086 144.088C143.44 144.088 142.874 143.946 142.386 143.663C141.91 143.38 141.548 142.977 141.298 142.456V147.029H139.921V135.69H141.298V137.118C141.548 136.597 141.91 136.194 142.386 135.911C142.874 135.628 143.44 135.486 144.086 135.486ZM143.814 142.949C144.619 142.949 145.242 142.677 145.684 142.133C146.126 141.589 146.347 140.818 146.347 139.821C146.347 138.824 146.126 138.047 145.684 137.492C145.242 136.925 144.619 136.642 143.814 136.642C143.01 136.642 142.386 136.914 141.944 137.458C141.514 138.002 141.298 138.778 141.298 139.787C141.298 140.796 141.514 141.578 141.944 142.133C142.386 142.677 143.01 142.949 143.814 142.949ZM153.25 144.088C152.468 144.088 151.777 143.912 151.176 143.561C150.587 143.21 150.128 142.711 149.799 142.065C149.482 141.408 149.323 140.648 149.323 139.787C149.323 138.926 149.482 138.172 149.799 137.526C150.128 136.869 150.587 136.364 151.176 136.013C151.777 135.662 152.468 135.486 153.25 135.486C154.032 135.486 154.723 135.662 155.324 136.013C155.925 136.364 156.384 136.869 156.701 137.526C157.03 138.172 157.194 138.926 157.194 139.787C157.194 140.648 157.03 141.408 156.701 142.065C156.384 142.711 155.925 143.21 155.324 143.561C154.723 143.912 154.032 144.088 153.25 144.088ZM153.25 142.949C154.066 142.949 154.689 142.683 155.12 142.15C155.562 141.606 155.783 140.818 155.783 139.787C155.783 138.778 155.562 138.002 155.12 137.458C154.678 136.903 154.055 136.625 153.25 136.625C152.445 136.625 151.822 136.903 151.38 137.458C150.938 138.002 150.717 138.778 150.717 139.787C150.717 140.807 150.932 141.589 151.363 142.133C151.805 142.677 152.434 142.949 153.25 142.949ZM163.938 136.676L163.037 136.761C162.187 136.84 161.569 137.107 161.184 137.56C160.81 138.013 160.623 138.574 160.623 139.243V143.969H159.246V135.69H160.589V137.135C161.053 136.172 161.966 135.633 163.326 135.52L163.819 135.486L163.938 136.676ZM169.541 142.983C169.79 142.983 170.04 142.966 170.289 142.932L170.221 144.02C169.96 144.065 169.677 144.088 169.371 144.088C168.374 144.088 167.62 143.827 167.11 143.306C166.611 142.785 166.362 142.059 166.362 141.13V136.778H164.747V135.69H166.362V133.174H167.739V135.69H170.085V136.778H167.739V141.028C167.739 142.331 168.34 142.983 169.541 142.983ZM43.111 157.69H45.457V158.778H43.111V165.969H41.734V158.778H40.119V157.69H41.734V157.418C41.734 156.319 42.006 155.486 42.55 154.919C43.1053 154.352 43.9553 154.035 45.1 153.967L45.78 153.933L45.882 155.004L45.1 155.055C44.4087 155.1 43.9043 155.299 43.587 155.65C43.2697 155.99 43.111 156.517 43.111 157.231V157.69ZM51.5451 158.676L50.6441 158.761C49.7941 158.84 49.1765 159.107 48.7911 159.56C48.4171 160.013 48.2301 160.574 48.2301 161.243V165.969H46.8531V157.69H48.1961V159.135C48.6608 158.172 49.5731 157.633 50.9331 157.52L51.4261 157.486L51.5451 158.676ZM59.6163 162.042H53.5643C53.6096 163.005 53.8703 163.736 54.3463 164.235C54.8223 164.722 55.4966 164.966 56.3693 164.966C57.3326 164.966 58.2166 164.637 59.0213 163.98L59.4803 164.983C59.1176 165.323 58.6529 165.595 58.0863 165.799C57.5196 165.992 56.9416 166.088 56.3523 166.088C55.0603 166.088 54.0403 165.708 53.2923 164.949C52.5556 164.19 52.1873 163.141 52.1873 161.804C52.1873 160.954 52.3516 160.206 52.6803 159.56C53.0089 158.903 53.4679 158.393 54.0573 158.03C54.6579 157.667 55.3379 157.486 56.0973 157.486C57.1966 157.486 58.0579 157.849 58.6813 158.574C59.3046 159.288 59.6163 160.274 59.6163 161.532V162.042ZM56.1143 158.557C55.3889 158.557 54.8053 158.784 54.3633 159.237C53.9326 159.69 53.6776 160.331 53.5983 161.158H58.4093C58.3866 160.319 58.1769 159.679 57.7803 159.237C57.3836 158.784 56.8283 158.557 56.1143 158.557ZM68.5811 162.042H62.5291C62.5745 163.005 62.8351 163.736 63.3111 164.235C63.7871 164.722 64.4615 164.966 65.3341 164.966C66.2975 164.966 67.1815 164.637 67.9861 163.98L68.4451 164.983C68.0825 165.323 67.6178 165.595 67.0511 165.799C66.4845 165.992 65.9065 166.088 65.3171 166.088C64.0251 166.088 63.0051 165.708 62.2571 164.949C61.5205 164.19 61.1521 163.141 61.1521 161.804C61.1521 160.954 61.3165 160.206 61.6451 159.56C61.9738 158.903 62.4328 158.393 63.0221 158.03C63.6228 157.667 64.3028 157.486 65.0621 157.486C66.1615 157.486 67.0228 157.849 67.6461 158.574C68.2695 159.288 68.5811 160.274 68.5811 161.532V162.042ZM65.0791 158.557C64.3538 158.557 63.7701 158.784 63.3281 159.237C62.8975 159.69 62.6425 160.331 62.5631 161.158H67.3741C67.3515 160.319 67.1418 159.679 66.7451 159.237C66.3485 158.784 65.7931 158.557 65.0791 158.557ZM78.4268 166.088C77.6448 166.088 76.9534 165.912 76.3528 165.561C75.7634 165.21 75.3044 164.711 74.9758 164.065C74.6584 163.408 74.4998 162.648 74.4998 161.787C74.4998 160.926 74.6584 160.172 74.9758 159.526C75.3044 158.869 75.7634 158.364 76.3528 158.013C76.9534 157.662 77.6448 157.486 78.4268 157.486C79.2088 157.486 79.9001 157.662 80.5008 158.013C81.1014 158.364 81.5604 158.869 81.8778 159.526C82.2064 160.172 82.3708 160.926 82.3708 161.787C82.3708 162.648 82.2064 163.408 81.8778 164.065C81.5604 164.711 81.1014 165.21 80.5008 165.561C79.9001 165.912 79.2088 166.088 78.4268 166.088ZM78.4268 164.949C79.2428 164.949 79.8661 164.683 80.2968 164.15C80.7388 163.606 80.9598 162.818 80.9598 161.787C80.9598 160.778 80.7388 160.002 80.2968 159.458C79.8548 158.903 79.2314 158.625 78.4268 158.625C77.6221 158.625 76.9988 158.903 76.5568 159.458C76.1148 160.002 75.8938 160.778 75.8938 161.787C75.8938 162.807 76.1091 163.589 76.5398 164.133C76.9818 164.677 77.6108 164.949 78.4268 164.949ZM86.2419 157.69H88.5879V158.778H86.2419V165.969H84.8649V158.778H83.2499V157.69H84.8649V157.418C84.8649 156.319 85.1369 155.486 85.6809 154.919C86.2362 154.352 87.0862 154.035 88.2309 153.967L88.9109 153.933L89.0129 155.004L88.2309 155.055C87.5395 155.1 87.0352 155.299 86.7179 155.65C86.4005 155.99 86.2419 156.517 86.2419 157.231V157.69ZM97.8688 166.088C97.0528 166.088 96.3445 165.912 95.7438 165.561C95.1431 165.21 94.6785 164.717 94.3498 164.082C94.0325 163.436 93.8738 162.682 93.8738 161.821C93.8738 160.96 94.0381 160.206 94.3668 159.56C94.7068 158.903 95.1771 158.393 95.7778 158.03C96.3898 157.667 97.1038 157.486 97.9198 157.486C98.4751 157.486 99.0191 157.588 99.5518 157.792C100.084 157.985 100.515 158.245 100.844 158.574L100.385 159.594C99.6028 158.959 98.8095 158.642 98.0048 158.642C97.1548 158.642 96.4918 158.92 96.0158 159.475C95.5398 160.03 95.3018 160.812 95.3018 161.821C95.3018 162.818 95.5398 163.589 96.0158 164.133C96.4918 164.677 97.1548 164.949 98.0048 164.949C98.8095 164.949 99.6028 164.632 100.385 163.997L100.844 165.017C100.492 165.346 100.05 165.606 99.5178 165.799C98.9851 165.992 98.4355 166.088 97.8688 166.088ZM106.667 157.486C108.65 157.486 109.642 158.58 109.642 160.767V165.969H108.265V160.852C108.265 160.081 108.112 159.52 107.806 159.169C107.511 158.818 107.035 158.642 106.378 158.642C105.618 158.642 105.012 158.874 104.559 159.339C104.105 159.804 103.879 160.433 103.879 161.226V165.969H102.502V153.984H103.879V159.016C104.151 158.517 104.525 158.138 105.001 157.877C105.488 157.616 106.043 157.486 106.667 157.486ZM115.53 157.486C116.584 157.486 117.366 157.758 117.876 158.302C118.397 158.835 118.658 159.651 118.658 160.75V165.969H117.315V164.558C117.099 165.045 116.771 165.425 116.329 165.697C115.887 165.958 115.377 166.088 114.799 166.088C114.266 166.088 113.773 165.98 113.32 165.765C112.878 165.55 112.526 165.249 112.266 164.864C112.005 164.479 111.875 164.054 111.875 163.589C111.875 162.966 112.033 162.484 112.351 162.144C112.668 161.793 113.189 161.543 113.915 161.396C114.64 161.237 115.649 161.158 116.941 161.158H117.315V160.597C117.315 159.906 117.173 159.407 116.89 159.101C116.606 158.784 116.147 158.625 115.513 158.625C114.561 158.625 113.614 158.92 112.674 159.509L112.215 158.506C112.645 158.2 113.161 157.956 113.762 157.775C114.374 157.582 114.963 157.486 115.53 157.486ZM114.986 165C115.666 165 116.221 164.773 116.652 164.32C117.094 163.855 117.315 163.26 117.315 162.535V162.042H117.009C116.011 162.042 115.252 162.087 114.731 162.178C114.209 162.257 113.835 162.399 113.609 162.603C113.393 162.796 113.286 163.085 113.286 163.47C113.286 163.912 113.444 164.28 113.762 164.575C114.09 164.858 114.498 165 114.986 165ZM125.87 158.676L124.969 158.761C124.119 158.84 123.502 159.107 123.116 159.56C122.742 160.013 122.555 160.574 122.555 161.243V165.969H121.178V157.69H122.521V159.135C122.986 158.172 123.898 157.633 125.258 157.52L125.751 157.486L125.87 158.676ZM134.417 157.69V165.408C134.417 166.643 134.1 167.573 133.465 168.196C132.831 168.831 131.89 169.148 130.643 169.148C129.193 169.148 127.974 168.774 126.988 168.026L127.447 167.006C128.003 167.369 128.524 167.629 129.011 167.788C129.499 167.947 130.043 168.026 130.643 168.026C131.437 168.026 132.037 167.811 132.445 167.38C132.853 166.961 133.057 166.343 133.057 165.527V164.065C132.819 164.598 132.451 165.006 131.952 165.289C131.465 165.572 130.887 165.714 130.218 165.714C129.493 165.714 128.847 165.544 128.28 165.204C127.725 164.864 127.289 164.382 126.971 163.759C126.665 163.136 126.512 162.416 126.512 161.6C126.512 160.784 126.665 160.064 126.971 159.441C127.289 158.818 127.725 158.336 128.28 157.996C128.847 157.656 129.493 157.486 130.218 157.486C130.876 157.486 131.448 157.628 131.935 157.911C132.423 158.194 132.791 158.597 133.04 159.118V157.69H134.417ZM130.49 164.575C131.284 164.575 131.907 164.314 132.36 163.793C132.814 163.26 133.04 162.529 133.04 161.6C133.04 160.682 132.814 159.962 132.36 159.441C131.918 158.908 131.295 158.642 130.49 158.642C129.686 158.642 129.051 158.908 128.586 159.441C128.133 159.962 127.906 160.682 127.906 161.6C127.906 162.529 128.133 163.26 128.586 163.793C129.051 164.314 129.686 164.575 130.49 164.575ZM143.902 162.042H137.85C137.896 163.005 138.156 163.736 138.632 164.235C139.108 164.722 139.783 164.966 140.655 164.966C141.619 164.966 142.503 164.637 143.307 163.98L143.766 164.983C143.404 165.323 142.939 165.595 142.372 165.799C141.806 165.992 141.228 166.088 140.638 166.088C139.346 166.088 138.326 165.708 137.578 164.949C136.842 164.19 136.473 163.141 136.473 161.804C136.473 160.954 136.638 160.206 136.966 159.56C137.295 158.903 137.754 158.393 138.343 158.03C138.944 157.667 139.624 157.486 140.383 157.486C141.483 157.486 142.344 157.849 142.967 158.574C143.591 159.288 143.902 160.274 143.902 161.532V162.042ZM140.4 158.557C139.675 158.557 139.091 158.784 138.649 159.237C138.219 159.69 137.964 160.331 137.884 161.158H142.695C142.673 160.319 142.463 159.679 142.066 159.237C141.67 158.784 141.114 158.557 140.4 158.557Z" fill="white"/>
<path d="M53 280.438H274C277.072 280.438 279.562 282.928 279.562 286V308C279.562 314.386 274.386 319.562 268 319.562H47C43.928 319.562 41.4376 317.072 41.4376 314V292C41.4376 285.614 46.6142 280.438 53 280.438Z" fill="#28EBCF"/>
<path d="M123.917 305V294.425H125.147V303.95H130.442V305H123.917ZM137.943 301.535H132.603C132.643 302.385 132.873 303.03 133.293 303.47C133.713 303.9 134.308 304.115 135.078 304.115C135.928 304.115 136.708 303.825 137.418 303.245L137.823 304.13C137.503 304.43 137.093 304.67 136.593 304.85C136.093 305.02 135.583 305.105 135.063 305.105C133.923 305.105 133.023 304.77 132.363 304.1C131.713 303.43 131.388 302.505 131.388 301.325C131.388 300.575 131.533 299.915 131.823 299.345C132.113 298.765 132.518 298.315 133.038 297.995C133.568 297.675 134.168 297.515 134.838 297.515C135.808 297.515 136.568 297.835 137.118 298.475C137.668 299.105 137.943 299.975 137.943 301.085V301.535ZM134.853 298.46C134.213 298.46 133.698 298.66 133.308 299.06C132.928 299.46 132.703 300.025 132.633 300.755H136.878C136.858 300.015 136.673 299.45 136.323 299.06C135.973 298.66 135.483 298.46 134.853 298.46ZM142.703 297.515C143.633 297.515 144.323 297.755 144.773 298.235C145.233 298.705 145.463 299.425 145.463 300.395V305H144.278V303.755C144.088 304.185 143.798 304.52 143.408 304.76C143.018 304.99 142.568 305.105 142.058 305.105C141.588 305.105 141.153 305.01 140.753 304.82C140.363 304.63 140.053 304.365 139.823 304.025C139.593 303.685 139.478 303.31 139.478 302.9C139.478 302.35 139.618 301.925 139.898 301.625C140.178 301.315 140.638 301.095 141.278 300.965C141.918 300.825 142.808 300.755 143.948 300.755H144.278V300.26C144.278 299.65 144.153 299.21 143.903 298.94C143.653 298.66 143.248 298.52 142.688 298.52C141.848 298.52 141.013 298.78 140.183 299.3L139.778 298.415C140.158 298.145 140.613 297.93 141.143 297.77C141.683 297.6 142.203 297.515 142.703 297.515ZM142.223 304.145C142.823 304.145 143.313 303.945 143.693 303.545C144.083 303.135 144.278 302.61 144.278 301.97V301.535H144.008C143.128 301.535 142.458 301.575 141.998 301.655C141.538 301.725 141.208 301.85 141.008 302.03C140.818 302.2 140.723 302.455 140.723 302.795C140.723 303.185 140.863 303.51 141.143 303.77C141.433 304.02 141.793 304.145 142.223 304.145ZM151.827 298.565L151.032 298.64C150.282 298.71 149.737 298.945 149.397 299.345C149.067 299.745 148.902 300.24 148.902 300.83V305H147.687V297.695H148.872V298.97C149.282 298.12 150.087 297.645 151.287 297.545L151.722 297.515L151.827 298.565ZM156.65 297.515C158.4 297.515 159.275 298.48 159.275 300.41V305H158.06V300.485C158.06 299.805 157.925 299.31 157.655 299C157.395 298.69 156.975 298.535 156.395 298.535C155.725 298.535 155.19 298.74 154.79 299.15C154.39 299.56 154.19 300.115 154.19 300.815V305H152.975V297.695H154.175V298.895C154.415 298.445 154.75 298.105 155.18 297.875C155.61 297.635 156.1 297.515 156.65 297.515ZM173.498 297.515C175.118 297.515 175.928 298.48 175.928 300.41V305H174.713V300.47C174.713 299.8 174.593 299.31 174.353 299C174.123 298.69 173.748 298.535 173.228 298.535C172.618 298.535 172.138 298.74 171.788 299.15C171.438 299.56 171.263 300.12 171.263 300.83V305H170.048V300.47C170.048 299.79 169.928 299.3 169.688 299C169.448 298.69 169.068 298.535 168.548 298.535C167.938 298.535 167.458 298.74 167.108 299.15C166.758 299.56 166.583 300.12 166.583 300.83V305H165.368V297.695H166.568V298.85C166.788 298.42 167.093 298.09 167.483 297.86C167.873 297.63 168.323 297.515 168.833 297.515C169.963 297.515 170.708 297.995 171.068 298.955C171.278 298.505 171.598 298.155 172.028 297.905C172.458 297.645 172.948 297.515 173.498 297.515ZM181.171 305.105C180.481 305.105 179.871 304.95 179.341 304.64C178.821 304.33 178.416 303.89 178.126 303.32C177.846 302.74 177.706 302.07 177.706 301.31C177.706 300.55 177.846 299.885 178.126 299.315C178.416 298.735 178.821 298.29 179.341 297.98C179.871 297.67 180.481 297.515 181.171 297.515C181.861 297.515 182.471 297.67 183.001 297.98C183.531 298.29 183.936 298.735 184.216 299.315C184.506 299.885 184.651 300.55 184.651 301.31C184.651 302.07 184.506 302.74 184.216 303.32C183.936 303.89 183.531 304.33 183.001 304.64C182.471 304.95 181.861 305.105 181.171 305.105ZM181.171 304.1C181.891 304.1 182.441 303.865 182.821 303.395C183.211 302.915 183.406 302.22 183.406 301.31C183.406 300.42 183.211 299.735 182.821 299.255C182.431 298.765 181.881 298.52 181.171 298.52C180.461 298.52 179.911 298.765 179.521 299.255C179.131 299.735 178.936 300.42 178.936 301.31C178.936 302.21 179.126 302.9 179.506 303.38C179.896 303.86 180.451 304.1 181.171 304.1ZM190.601 298.565L189.806 298.64C189.056 298.71 188.511 298.945 188.171 299.345C187.841 299.745 187.676 300.24 187.676 300.83V305H186.461V297.695H187.646V298.97C188.056 298.12 188.861 297.645 190.061 297.545L190.496 297.515L190.601 298.565ZM197.723 301.535H192.383C192.423 302.385 192.653 303.03 193.073 303.47C193.493 303.9 194.088 304.115 194.858 304.115C195.708 304.115 196.488 303.825 197.198 303.245L197.603 304.13C197.283 304.43 196.873 304.67 196.373 304.85C195.873 305.02 195.363 305.105 194.843 305.105C193.703 305.105 192.803 304.77 192.143 304.1C191.493 303.43 191.168 302.505 191.168 301.325C191.168 300.575 191.313 299.915 191.603 299.345C191.893 298.765 192.298 298.315 192.818 297.995C193.348 297.675 193.948 297.515 194.618 297.515C195.588 297.515 196.348 297.835 196.898 298.475C197.448 299.105 197.723 299.975 197.723 301.085V301.535ZM194.633 298.46C193.993 298.46 193.478 298.66 193.088 299.06C192.708 299.46 192.483 300.025 192.413 300.755H196.658C196.638 300.015 196.453 299.45 196.103 299.06C195.753 298.66 195.263 298.46 194.633 298.46Z" fill="#25282A"/>
<path d="M53 280.438H274C277.072 280.438 279.562 282.928 279.562 286V308C279.562 314.386 274.386 319.562 268 319.562H47C43.928 319.562 41.4376 317.072 41.4376 314V292C41.4376 285.614 46.6142 280.438 53 280.438Z" stroke="#28EBCF" stroke-width="0.875151"/>
</g>
<defs>
<filter id="filter0_f_26_914" x="-52.1547" y="-158.578" width="649.146" height="650.279" filterUnits="userSpaceOnUse" color-interpolation-filters="sRGB">
<feFlood flood-opacity="0" result="BackgroundImageFix"/>
<feBlend mode="normal" in="SourceGraphic" in2="BackgroundImageFix" result="shape"/>
<feGaussianBlur stdDeviation="113.289" result="effect1_foregroundBlur_26_914"/>
</filter>
<filter id="filter1_f_26_914" x="73.1679" y="75.1679" width="328.474" height="458.253" filterUnits="userSpaceOnUse" color-interpolation-filters="sRGB">
<feFlood flood-opacity="0" result="BackgroundImageFix"/>
<feBlend mode="normal" in="SourceGraphic" in2="BackgroundImageFix" result="shape"/>
<feGaussianBlur stdDeviation="20.9161" result="effect1_foregroundBlur_26_914"/>
</filter>
<filter id="filter2_b_26_914" x="61.3944" y="81.1361" width="375.502" height="349.082" filterUnits="userSpaceOnUse" color-interpolation-filters="sRGB">
<feFlood flood-opacity="0" result="BackgroundImageFix"/>
<feGaussianBlur in="BackgroundImage" stdDeviation="2.93194"/>
<feComposite in2="SourceAlpha" operator="in" result="effect1_backgroundBlur_26_914"/>
<feBlend mode="normal" in="SourceGraphic" in2="effect1_backgroundBlur_26_914" result="shape"/>
</filter>
<filter id="filter3_f_26_914" x="297.439" y="180.337" width="12.0528" height="26.212" filterUnits="userSpaceOnUse" color-interpolation-filters="sRGB">
<feFlood flood-opacity="0" result="BackgroundImageFix"/>
<feBlend mode="normal" in="SourceGraphic" in2="BackgroundImageFix" result="shape"/>
<feGaussianBlur stdDeviation="0.210843" result="effect1_foregroundBlur_26_914"/>
</filter>
<filter id="filter4_f_26_914" x="171.265" y="201.699" width="10.7584" height="21.1517" filterUnits="userSpaceOnUse" color-interpolation-filters="sRGB">
<feFlood flood-opacity="0" result="BackgroundImageFix"/>
<feBlend mode="normal" in="SourceGraphic" in2="BackgroundImageFix" result="shape"/>
<feGaussianBlur stdDeviation="0.63253" result="effect1_foregroundBlur_26_914"/>
</filter>
<filter id="filter5_b_26_914" x="209.521" y="212.297" width="65.5665" height="61.671" filterUnits="userSpaceOnUse" color-interpolation-filters="sRGB">
<feFlood flood-opacity="0" result="BackgroundImageFix"/>
<feGaussianBlur in="BackgroundImage" stdDeviation="1.09506"/>
<feComposite in2="SourceAlpha" operator="in" result="effect1_backgroundBlur_26_914"/>
<feBlend mode="normal" in="SourceGraphic" in2="effect1_backgroundBlur_26_914" result="shape"/>
</filter>
<filter id="filter6_b_26_914" x="206.601" y="181.379" width="58.6359" height="92.7633" filterUnits="userSpaceOnUse" color-interpolation-filters="sRGB">
<feFlood flood-opacity="0" result="BackgroundImageFix"/>
<feGaussianBlur in="BackgroundImage" stdDeviation="1.09506"/>
<feComposite in2="SourceAlpha" operator="in" result="effect1_backgroundBlur_26_914"/>
<feBlend mode="normal" in="SourceGraphic" in2="effect1_backgroundBlur_26_914" result="shape"/>
</filter>
<filter id="filter7_b_26_914" x="225.764" y="121.534" width="51.7059" height="153.456" filterUnits="userSpaceOnUse" color-interpolation-filters="sRGB">
<feFlood flood-opacity="0" result="BackgroundImageFix"/>
<feGaussianBlur in="BackgroundImage" stdDeviation="1.09506"/>
<feComposite in2="SourceAlpha" operator="in" result="effect1_backgroundBlur_26_914"/>
<feBlend mode="normal" in="SourceGraphic" in2="effect1_backgroundBlur_26_914" result="shape"/>
</filter>
<linearGradient id="paint0_linear_26_914" x1="237.554" y1="176.051" x2="237.555" y2="550.64" gradientUnits="userSpaceOnUse">
<stop stop-color="#28EBCF" stop-opacity="0"/>
<stop offset="0.958333" stop-color="#28EBCF" stop-opacity="0.4"/>
</linearGradient>
<linearGradient id="paint1_linear_26_914" x1="287.462" y1="113.988" x2="287.462" y2="135.098" gradientUnits="userSpaceOnUse">
<stop stop-color="#28EBCF"/>
<stop offset="1"/>
</linearGradient>
<linearGradient id="paint2_linear_26_914" x1="287.462" y1="113.988" x2="287.462" y2="135.098" gradientUnits="userSpaceOnUse">
<stop stop-color="#28EBCF"/>
<stop offset="1"/>
</linearGradient>
<linearGradient id="paint3_linear_26_914" x1="287.462" y1="113.848" x2="287.462" y2="135.098" gradientUnits="userSpaceOnUse">
<stop stop-color="#28EBCF"/>
<stop offset="1"/>
</linearGradient>
<linearGradient id="paint4_linear_26_914" x1="287.462" y1="113.848" x2="287.462" y2="135.098" gradientUnits="userSpaceOnUse">
<stop stop-color="#28EBCF"/>
<stop offset="1"/>
</linearGradient>
<linearGradient id="paint5_linear_26_914" x1="284.646" y1="124.403" x2="287.602" y2="124.543" gradientUnits="userSpaceOnUse">
<stop stop-color="#22C7AF"/>
<stop offset="1"/>
</linearGradient>
<linearGradient id="paint6_linear_26_914" x1="170.471" y1="153.877" x2="170.471" y2="166.382" gradientUnits="userSpaceOnUse">
<stop stop-color="#28EBCF"/>
<stop offset="1"/>
</linearGradient>
<linearGradient id="paint7_linear_26_914" x1="170.471" y1="153.877" x2="170.471" y2="166.382" gradientUnits="userSpaceOnUse">
<stop stop-color="#28EBCF"/>
<stop offset="1"/>
</linearGradient>
<linearGradient id="paint8_linear_26_914" x1="170.471" y1="153.793" x2="170.471" y2="166.382" gradientUnits="userSpaceOnUse">
<stop stop-color="#28EBCF"/>
<stop offset="1"/>
</linearGradient>
<linearGradient id="paint9_linear_26_914" x1="170.471" y1="153.793" x2="170.471" y2="166.382" gradientUnits="userSpaceOnUse">
<stop stop-color="#28EBCF"/>
<stop offset="1"/>
</linearGradient>
<linearGradient id="paint10_linear_26_914" x1="168.804" y1="160.046" x2="170.555" y2="160.129" gradientUnits="userSpaceOnUse">
<stop stop-color="#22C7AF"/>
<stop offset="1"/>
</linearGradient>
<linearGradient id="paint11_linear_26_914" x1="296.226" y1="261.139" x2="296.226" y2="278.348" gradientUnits="userSpaceOnUse">
<stop stop-color="#28EBCF"/>
<stop offset="1"/>
</linearGradient>
<linearGradient id="paint12_linear_26_914" x1="296.226" y1="261.139" x2="296.226" y2="278.348" gradientUnits="userSpaceOnUse">
<stop stop-color="#28EBCF"/>
<stop offset="1"/>
</linearGradient>
<linearGradient id="paint13_linear_26_914" x1="296.226" y1="261.024" x2="296.226" y2="278.348" gradientUnits="userSpaceOnUse">
<stop stop-color="#28EBCF"/>
<stop offset="1"/>
</linearGradient>
<linearGradient id="paint14_linear_26_914" x1="296.226" y1="261.024" x2="296.226" y2="278.348" gradientUnits="userSpaceOnUse">
<stop stop-color="#28EBCF"/>
<stop offset="1"/>
</linearGradient>
<linearGradient id="paint15_linear_26_914" x1="293.932" y1="269.629" x2="296.341" y2="269.744" gradientUnits="userSpaceOnUse">
<stop stop-color="#22C7AF"/>
<stop offset="1"/>
</linearGradient>
<radialGradient id="paint16_radial_26_914" cx="0" cy="0" r="1" gradientUnits="userSpaceOnUse" gradientTransform="translate(249.145 255.677) rotate(90) scale(168.677 181.887)">
<stop stop-color="#28EBCF" stop-opacity="0.42"/>
<stop offset="1" stop-color="#28EBCF" stop-opacity="0"/>
</radialGradient>
<linearGradient id="paint17_linear_26_914" x1="198.253" y1="123.898" x2="198.253" y2="155.524" gradientUnits="userSpaceOnUse">
<stop stop-color="#28EBCF"/>
<stop offset="1"/>
</linearGradient>
<linearGradient id="paint18_linear_26_914" x1="198.253" y1="123.898" x2="198.253" y2="155.524" gradientUnits="userSpaceOnUse">
<stop stop-color="#28EBCF"/>
<stop offset="1"/>
</linearGradient>
<linearGradient id="paint19_linear_26_914" x1="198.253" y1="123.687" x2="198.253" y2="155.524" gradientUnits="userSpaceOnUse">
<stop stop-color="#28EBCF"/>
<stop offset="1"/>
</linearGradient>
<linearGradient id="paint20_linear_26_914" x1="198.253" y1="123.687" x2="198.253" y2="155.524" gradientUnits="userSpaceOnUse">
<stop stop-color="#28EBCF"/>
<stop offset="1"/>
</linearGradient>
<linearGradient id="paint21_linear_26_914" x1="194.037" y1="139.5" x2="198.465" y2="139.711" gradientUnits="userSpaceOnUse">
<stop stop-color="#22C7AF"/>
<stop offset="1"/>
</linearGradient>
<linearGradient id="paint22_linear_26_914" x1="304.763" y1="181.334" x2="304.763" y2="210.093" gradientUnits="userSpaceOnUse">
<stop stop-color="#28EBCF"/>
<stop offset="1"/>
</linearGradient>
<linearGradient id="paint23_linear_26_914" x1="304.763" y1="181.334" x2="304.763" y2="210.093" gradientUnits="userSpaceOnUse">
<stop stop-color="#28EBCF"/>
<stop offset="1"/>
</linearGradient>
<linearGradient id="paint24_linear_26_914" x1="304.763" y1="181.142" x2="304.763" y2="210.093" gradientUnits="userSpaceOnUse">
<stop stop-color="#28EBCF"/>
<stop offset="1"/>
</linearGradient>
<linearGradient id="paint25_linear_26_914" x1="304.763" y1="181.142" x2="304.763" y2="210.093" gradientUnits="userSpaceOnUse">
<stop stop-color="#28EBCF"/>
<stop offset="1"/>
</linearGradient>
<linearGradient id="paint26_linear_26_914" x1="300.928" y1="195.522" x2="304.954" y2="195.713" gradientUnits="userSpaceOnUse">
<stop stop-color="#22C7AF"/>
<stop offset="1"/>
</linearGradient>
<linearGradient id="paint27_linear_26_914" x1="177.597" y1="203.386" x2="177.597" y2="224.496" gradientUnits="userSpaceOnUse">
<stop stop-color="#28EBCF"/>
<stop offset="1"/>
</linearGradient>
<linearGradient id="paint28_linear_26_914" x1="177.597" y1="203.386" x2="177.597" y2="224.496" gradientUnits="userSpaceOnUse">
<stop stop-color="#28EBCF"/>
<stop offset="1"/>
</linearGradient>
<linearGradient id="paint29_linear_26_914" x1="177.597" y1="203.245" x2="177.597" y2="224.496" gradientUnits="userSpaceOnUse">
<stop stop-color="#28EBCF"/>
<stop offset="1"/>
</linearGradient>
<linearGradient id="paint30_linear_26_914" x1="177.597" y1="203.245" x2="177.597" y2="224.496" gradientUnits="userSpaceOnUse">
<stop stop-color="#28EBCF"/>
<stop offset="1"/>
</linearGradient>
<linearGradient id="paint31_linear_26_914" x1="174.782" y1="213.8" x2="177.737" y2="213.941" gradientUnits="userSpaceOnUse">
<stop stop-color="#22C7AF"/>
<stop offset="1"/>
</linearGradient>
<linearGradient id="paint32_linear_26_914" x1="247.483" y1="124.127" x2="245.111" y2="238.196" gradientUnits="userSpaceOnUse">
<stop stop-color="#28EBCF"/>
<stop offset="0.985097" stop-color="#28EBCF" stop-opacity="0"/>
</linearGradient>
<linearGradient id="paint33_linear_26_914" x1="268.289" y1="281.815" x2="268.289" y2="238.013" gradientUnits="userSpaceOnUse">
<stop stop-color="#28EBCF"/>
<stop offset="1" stop-color="#28EBCF" stop-opacity="0"/>
</linearGradient>
<linearGradient id="paint34_linear_26_914" x1="314.829" y1="253.526" x2="221.202" y2="252.979" gradientUnits="userSpaceOnUse">
<stop stop-color="#28EBCF"/>
<stop offset="1" stop-color="#28EBCF" stop-opacity="0"/>
</linearGradient>
<linearGradient id="paint35_linear_26_914" x1="227.772" y1="184.173" x2="196.746" y2="246.956" gradientUnits="userSpaceOnUse">
<stop stop-color="#28EBCF"/>
<stop offset="1" stop-color="#28EBCF" stop-opacity="0"/>
</linearGradient>
<linearGradient id="paint36_linear_26_914" x1="306.981" y1="146.941" x2="241.825" y2="347.884" gradientUnits="userSpaceOnUse">
<stop stop-color="#28EBCF"/>
<stop offset="1"/>
</linearGradient>
<linearGradient id="paint37_linear_26_914" x1="222.711" y1="209.177" x2="243.946" y2="192.657" gradientUnits="userSpaceOnUse">
<stop stop-color="#28EBCF"/>
<stop offset="1" stop-color="#28EBCF" stop-opacity="0"/>
</linearGradient>
<linearGradient id="paint38_linear_26_914" x1="222.711" y1="215.382" x2="243.946" y2="198.863" gradientUnits="userSpaceOnUse">
<stop stop-color="#28EBCF"/>
<stop offset="1" stop-color="#28EBCF" stop-opacity="0"/>
</linearGradient>
<linearGradient id="paint39_linear_26_914" x1="222.711" y1="221.587" x2="243.946" y2="205.068" gradientUnits="userSpaceOnUse">
<stop stop-color="#28EBCF"/>
<stop offset="1" stop-color="#28EBCF" stop-opacity="0"/>
</linearGradient>
<linearGradient id="paint40_linear_26_914" x1="220.235" y1="233.085" x2="237.246" y2="225.146" gradientUnits="userSpaceOnUse">
<stop stop-color="#28EBCF"/>
<stop offset="1" stop-color="#28EBCF" stop-opacity="0"/>
</linearGradient>
<linearGradient id="paint41_linear_26_914" x1="216.569" y1="256.42" x2="233.489" y2="248.59" gradientUnits="userSpaceOnUse">
<stop stop-color="#28EBCF"/>
<stop offset="1" stop-color="#28EBCF" stop-opacity="0"/>
</linearGradient>
<linearGradient id="paint42_linear_26_914" x1="220.235" y1="240.386" x2="237.246" y2="232.447" gradientUnits="userSpaceOnUse">
<stop stop-color="#28EBCF"/>
<stop offset="1" stop-color="#28EBCF" stop-opacity="0"/>
</linearGradient>
<linearGradient id="paint43_linear_26_914" x1="220.235" y1="247.686" x2="237.246" y2="239.747" gradientUnits="userSpaceOnUse">
<stop stop-color="#28EBCF"/>
<stop offset="1" stop-color="#28EBCF" stop-opacity="0"/>
</linearGradient>
<linearGradient id="paint44_linear_26_914" x1="242.171" y1="151.8" x2="264.679" y2="134.458" gradientUnits="userSpaceOnUse">
<stop stop-color="#28EBCF"/>
<stop offset="1" stop-color="#28EBCF" stop-opacity="0"/>
</linearGradient>
<linearGradient id="paint45_linear_26_914" x1="239.281" y1="167.382" x2="256.398" y2="159.315" gradientUnits="userSpaceOnUse">
<stop stop-color="#28EBCF"/>
<stop offset="1" stop-color="#28EBCF" stop-opacity="0"/>
</linearGradient>
<linearGradient id="paint46_linear_26_914" x1="256.926" y1="177.237" x2="274.044" y2="169.17" gradientUnits="userSpaceOnUse">
<stop stop-color="#28EBCF"/>
<stop offset="1" stop-color="#28EBCF" stop-opacity="0"/>
</linearGradient>
<linearGradient id="paint47_linear_26_914" x1="256.926" y1="184.511" x2="274.044" y2="176.444" gradientUnits="userSpaceOnUse">
<stop stop-color="#28EBCF"/>
<stop offset="1" stop-color="#28EBCF" stop-opacity="0"/>
</linearGradient>
<linearGradient id="paint48_linear_26_914" x1="256.926" y1="191.811" x2="274.044" y2="183.745" gradientUnits="userSpaceOnUse">
<stop stop-color="#28EBCF"/>
<stop offset="1" stop-color="#28EBCF" stop-opacity="0"/>
</linearGradient>
<linearGradient id="paint49_linear_26_914" x1="256.926" y1="199.112" x2="274.044" y2="191.045" gradientUnits="userSpaceOnUse">
<stop stop-color="#28EBCF"/>
<stop offset="1" stop-color="#28EBCF" stop-opacity="0"/>
</linearGradient>
<linearGradient id="paint50_linear_26_914" x1="239.281" y1="174.682" x2="256.398" y2="166.615" gradientUnits="userSpaceOnUse">
<stop stop-color="#28EBCF"/>
<stop offset="1" stop-color="#28EBCF" stop-opacity="0"/>
</linearGradient>
<linearGradient id="paint51_linear_26_914" x1="239.281" y1="181.982" x2="256.398" y2="173.916" gradientUnits="userSpaceOnUse">
<stop stop-color="#28EBCF"/>
<stop offset="1" stop-color="#28EBCF" stop-opacity="0"/>
</linearGradient>
<linearGradient id="paint52_linear_26_914" x1="239.281" y1="189.283" x2="256.398" y2="181.216" gradientUnits="userSpaceOnUse">
<stop stop-color="#28EBCF"/>
<stop offset="1" stop-color="#28EBCF" stop-opacity="0"/>
</linearGradient>
<linearGradient id="paint53_linear_26_914" x1="241.52" y1="196.401" x2="262.654" y2="180.267" gradientUnits="userSpaceOnUse">
<stop stop-color="#28EBCF"/>
<stop offset="1" stop-color="#28EBCF" stop-opacity="0"/>
</linearGradient>
<clipPath id="clip0_26_914">
<rect width="320" height="360" rx="30" fill="white"/>
</clipPath>
<clipPath id="clip1_26_914">
<rect width="8.22815" height="18.6216" fill="white" transform="translate(282.395 113.566)"/>
</clipPath>
<clipPath id="clip2_26_914">
<rect width="4.87427" height="11.0312" fill="white" transform="translate(167.47 153.626)"/>
</clipPath>
<clipPath id="clip3_26_914">
<rect width="6.70776" height="15.1807" fill="white" transform="translate(292.096 260.795)"/>
</clipPath>
<clipPath id="clip4_26_914">
<rect width="12.3273" height="27.8987" fill="white" transform="translate(190.663 123.265)"/>
</clipPath>
<clipPath id="clip5_26_914">
<rect width="11.2094" height="25.3686" fill="white" transform="translate(297.861 180.759)"/>
</clipPath>
<clipPath id="clip6_26_914">
<rect width="8.22815" height="18.6216" fill="white" transform="translate(172.531 202.964)"/>
</clipPath>
</defs>
</svg>
